M48
; DRILL file {KiCad (5.1.10)-1} date 12/04/21 14:44:34
; FORMAT={-:-/ absolute / metric / decimal}
; #@! TF.CreationDate,2021-12-04T14:44:34-06:00
; #@! TF.GenerationSoftware,Kicad,Pcbnew,(5.1.10)-1
; #@! TF.FileFunction,Plated,1,4,PTH
FMAT,2
METRIC
T1C0.330
T2C0.381
T3C0.800
T4C0.991
T5C1.000
T6C1.100
T7C1.200
T8C1.300
%
G90
G05
T1
X53.858Y-67.064
X57.202Y-74.795
X57.262Y-73.331
X57.262Y-76.379
X57.668Y-67.064
X58.557Y-84.971
X58.818Y-73.299
X58.818Y-74.823
X58.818Y-76.411
X60.208Y-84.482
X60.31Y-73.331
X60.31Y-76.379
X60.371Y-74.795
X61.478Y-67.064
X61.478Y-84.482
X62.748Y-84.482
X64.018Y-67.064
X64.018Y-84.482
X65.288Y-67.064
X65.288Y-84.482
X70.788Y-76.887
X70.876Y-83.593
X80.122Y-85.777
X100.442Y-74.855
X105.115Y-72.296
X105.242Y-70.137
X107.986Y-76.608
T2
X51.318Y-67.064
X51.318Y-80.526
X51.511Y-86.429
X67.066Y-79.51
X71.486Y-68.759
X78.344Y-74.982
X81.839Y-78.731
X81.9Y-82.221
X82.408Y-92.889
X100.762Y-68.059
X108.062Y-92.279
T3
X96.403Y-69.787
X96.403Y-73.287
X109.535Y-81.542
X109.535Y-83.542
X120.254Y-72.569
X127.874Y-72.569
T4
X51.382Y-88.209
X51.382Y-90.749
X51.382Y-93.289
X51.382Y-95.829
X59.002Y-88.209
X59.002Y-90.749
X59.002Y-93.289
X59.002Y-95.829
X61.885Y-88.209
X61.885Y-90.749
X61.885Y-93.289
X61.885Y-95.829
X69.505Y-88.209
X69.505Y-90.749
X69.505Y-93.289
X69.505Y-95.829
X72.337Y-88.209
X72.337Y-90.749
X72.337Y-93.289
X72.337Y-95.829
X79.957Y-88.209
X79.957Y-90.749
X79.957Y-93.289
X79.957Y-95.829
X85.329Y-88.209
X85.329Y-90.749
X85.329Y-93.289
X85.329Y-95.829
X92.949Y-88.209
X92.949Y-90.749
X92.949Y-93.289
X92.949Y-95.829
X98.004Y-88.209
X98.004Y-90.749
X98.004Y-93.289
X98.004Y-95.829
X105.624Y-88.209
X105.624Y-90.749
X105.624Y-93.289
X105.624Y-95.829
X110.602Y-88.209
X110.602Y-90.749
X110.602Y-93.289
X110.602Y-95.829
X118.222Y-88.209
X118.222Y-90.749
X118.222Y-93.289
X118.222Y-95.829
X121.012Y-88.209
X121.012Y-90.749
X121.012Y-93.289
X121.012Y-95.829
X128.632Y-88.209
X128.632Y-90.749
X128.632Y-93.289
X128.632Y-95.829
X131.466Y-88.209
X131.466Y-90.749
X131.466Y-93.289
X131.466Y-95.829
X139.086Y-88.209
X139.086Y-90.749
X139.086Y-93.289
X139.086Y-95.829
T5
X80.757Y-74.245
X83.297Y-74.245
X87.336Y-74.245
X89.876Y-74.245
X90.752Y-78.621
X93.292Y-78.621
X95.832Y-78.621
X118.984Y-67.692
X121.524Y-67.692
X124.064Y-67.692
X126.604Y-67.692
X129.144Y-67.692
X131.684Y-67.692
T6
X48.842Y-102.179
X51.382Y-102.179
X53.922Y-102.179
X60.907Y-102.179
X63.447Y-102.179
X65.987Y-102.179
X72.972Y-102.179
X75.512Y-102.179
X76.035Y-65.656
X76.035Y-70.156
X78.052Y-102.179
X82.535Y-65.656
X82.535Y-70.156
X85.037Y-102.179
X87.577Y-102.179
X90.117Y-102.179
X97.102Y-102.179
X99.642Y-102.179
X102.182Y-102.179
X109.167Y-102.179
X111.707Y-102.179
X114.247Y-102.179
X121.232Y-102.179
X123.772Y-102.179
X126.312Y-102.179
X133.297Y-102.179
X135.837Y-102.179
X138.377Y-102.179
T7
X121.524Y-76.887
X121.524Y-83.487
T8
X56.017Y-110.371
X61.097Y-110.371
X66.177Y-110.371
X71.257Y-110.371
X76.337Y-110.371
X81.417Y-110.371
X86.497Y-110.371
X91.577Y-110.371
X96.657Y-110.371
X101.737Y-110.371
X106.817Y-110.371
X111.897Y-110.371
X116.977Y-110.371
X122.057Y-110.371
X127.137Y-110.371
X132.217Y-110.371
X138.25Y-77.812
X138.25Y-82.812
T0
M30
