G04 #@! TF.GenerationSoftware,KiCad,Pcbnew,(5.1.10)-1*
G04 #@! TF.CreationDate,2021-12-04T14:44:31-06:00*
G04 #@! TF.ProjectId,ESP32LedDriverV2,45535033-324c-4656-9444-726976657256,rev?*
G04 #@! TF.SameCoordinates,Original*
G04 #@! TF.FileFunction,Copper,L1,Top*
G04 #@! TF.FilePolarity,Positive*
%FSLAX46Y46*%
G04 Gerber Fmt 4.6, Leading zero omitted, Abs format (unit mm)*
G04 Created by KiCad (PCBNEW (5.1.10)-1) date 2021-12-04 14:44:31*
%MOMM*%
%LPD*%
G01*
G04 APERTURE LIST*
G04 #@! TA.AperFunction,SMDPad,CuDef*
%ADD10C,0.100000*%
G04 #@! TD*
G04 #@! TA.AperFunction,SMDPad,CuDef*
%ADD11R,0.900000X2.000000*%
G04 #@! TD*
G04 #@! TA.AperFunction,SMDPad,CuDef*
%ADD12R,2.000000X0.900000*%
G04 #@! TD*
G04 #@! TA.AperFunction,SMDPad,CuDef*
%ADD13R,5.000000X5.000000*%
G04 #@! TD*
G04 #@! TA.AperFunction,ComponentPad*
%ADD14O,1.700000X1.700000*%
G04 #@! TD*
G04 #@! TA.AperFunction,ComponentPad*
%ADD15R,1.700000X1.700000*%
G04 #@! TD*
G04 #@! TA.AperFunction,ComponentPad*
%ADD16O,1.600000X1.600000*%
G04 #@! TD*
G04 #@! TA.AperFunction,ComponentPad*
%ADD17R,1.600000X1.600000*%
G04 #@! TD*
G04 #@! TA.AperFunction,ComponentPad*
%ADD18C,1.498600*%
G04 #@! TD*
G04 #@! TA.AperFunction,ComponentPad*
%ADD19R,1.498600X1.498600*%
G04 #@! TD*
G04 #@! TA.AperFunction,ComponentPad*
%ADD20C,1.800000*%
G04 #@! TD*
G04 #@! TA.AperFunction,SMDPad,CuDef*
%ADD21R,1.500000X2.000000*%
G04 #@! TD*
G04 #@! TA.AperFunction,SMDPad,CuDef*
%ADD22R,3.800000X2.000000*%
G04 #@! TD*
G04 #@! TA.AperFunction,ComponentPad*
%ADD23O,1.500000X2.300000*%
G04 #@! TD*
G04 #@! TA.AperFunction,ComponentPad*
%ADD24R,1.500000X2.300000*%
G04 #@! TD*
G04 #@! TA.AperFunction,ComponentPad*
%ADD25C,2.000000*%
G04 #@! TD*
G04 #@! TA.AperFunction,ComponentPad*
%ADD26O,1.905000X2.000000*%
G04 #@! TD*
G04 #@! TA.AperFunction,ComponentPad*
%ADD27R,1.905000X2.000000*%
G04 #@! TD*
G04 #@! TA.AperFunction,ComponentPad*
%ADD28C,3.000000*%
G04 #@! TD*
G04 #@! TA.AperFunction,ComponentPad*
%ADD29C,2.600000*%
G04 #@! TD*
G04 #@! TA.AperFunction,ComponentPad*
%ADD30R,2.600000X2.600000*%
G04 #@! TD*
G04 #@! TA.AperFunction,ComponentPad*
%ADD31C,3.500000*%
G04 #@! TD*
G04 #@! TA.AperFunction,ComponentPad*
%ADD32R,3.200000X3.200000*%
G04 #@! TD*
G04 #@! TA.AperFunction,ComponentPad*
%ADD33C,1.600000*%
G04 #@! TD*
G04 #@! TA.AperFunction,ViaPad*
%ADD34C,0.685800*%
G04 #@! TD*
G04 #@! TA.AperFunction,ViaPad*
%ADD35C,0.889000*%
G04 #@! TD*
G04 #@! TA.AperFunction,Conductor*
%ADD36C,0.762000*%
G04 #@! TD*
G04 #@! TA.AperFunction,Conductor*
%ADD37C,0.508000*%
G04 #@! TD*
G04 #@! TA.AperFunction,Conductor*
%ADD38C,0.254000*%
G04 #@! TD*
G04 #@! TA.AperFunction,Conductor*
%ADD39C,0.900000*%
G04 #@! TD*
G04 #@! TA.AperFunction,Conductor*
%ADD40C,1.500000*%
G04 #@! TD*
G04 #@! TA.AperFunction,Conductor*
%ADD41C,0.100000*%
G04 #@! TD*
G04 APERTURE END LIST*
G04 #@! TA.AperFunction,SMDPad,CuDef*
D10*
G04 #@! TO.P,JP10,2*
G04 #@! TO.N,Net-(JP10-Pad2)*
G36*
X136036200Y-90080602D02*
G01*
X136060734Y-90080602D01*
X136109565Y-90085412D01*
X136157690Y-90094984D01*
X136204645Y-90109228D01*
X136249978Y-90128005D01*
X136293251Y-90151136D01*
X136334050Y-90178396D01*
X136371979Y-90209524D01*
X136406676Y-90244221D01*
X136437804Y-90282150D01*
X136465064Y-90322949D01*
X136488195Y-90366222D01*
X136506972Y-90411555D01*
X136521216Y-90458510D01*
X136530788Y-90506635D01*
X136535598Y-90555466D01*
X136535598Y-90580000D01*
X136536200Y-90580000D01*
X136536200Y-91080000D01*
X136535598Y-91080000D01*
X136535598Y-91104534D01*
X136530788Y-91153365D01*
X136521216Y-91201490D01*
X136506972Y-91248445D01*
X136488195Y-91293778D01*
X136465064Y-91337051D01*
X136437804Y-91377850D01*
X136406676Y-91415779D01*
X136371979Y-91450476D01*
X136334050Y-91481604D01*
X136293251Y-91508864D01*
X136249978Y-91531995D01*
X136204645Y-91550772D01*
X136157690Y-91565016D01*
X136109565Y-91574588D01*
X136060734Y-91579398D01*
X136036200Y-91579398D01*
X136036200Y-91580000D01*
X135536200Y-91580000D01*
X135536200Y-90080000D01*
X136036200Y-90080000D01*
X136036200Y-90080602D01*
G37*
G04 #@! TD.AperFunction*
G04 #@! TA.AperFunction,SMDPad,CuDef*
G04 #@! TO.P,JP10,1*
G04 #@! TO.N,/Z8*
G36*
X135236200Y-91580000D02*
G01*
X134736200Y-91580000D01*
X134736200Y-91579398D01*
X134711666Y-91579398D01*
X134662835Y-91574588D01*
X134614710Y-91565016D01*
X134567755Y-91550772D01*
X134522422Y-91531995D01*
X134479149Y-91508864D01*
X134438350Y-91481604D01*
X134400421Y-91450476D01*
X134365724Y-91415779D01*
X134334596Y-91377850D01*
X134307336Y-91337051D01*
X134284205Y-91293778D01*
X134265428Y-91248445D01*
X134251184Y-91201490D01*
X134241612Y-91153365D01*
X134236802Y-91104534D01*
X134236802Y-91080000D01*
X134236200Y-91080000D01*
X134236200Y-90580000D01*
X134236802Y-90580000D01*
X134236802Y-90555466D01*
X134241612Y-90506635D01*
X134251184Y-90458510D01*
X134265428Y-90411555D01*
X134284205Y-90366222D01*
X134307336Y-90322949D01*
X134334596Y-90282150D01*
X134365724Y-90244221D01*
X134400421Y-90209524D01*
X134438350Y-90178396D01*
X134479149Y-90151136D01*
X134522422Y-90128005D01*
X134567755Y-90109228D01*
X134614710Y-90094984D01*
X134662835Y-90085412D01*
X134711666Y-90080602D01*
X134736200Y-90080602D01*
X134736200Y-90080000D01*
X135236200Y-90080000D01*
X135236200Y-91580000D01*
G37*
G04 #@! TD.AperFunction*
G04 #@! TD*
D11*
G04 #@! TO.P,U4,38*
G04 #@! TO.N,GND*
X51318160Y-65294620D03*
G04 #@! TO.P,U4,37*
G04 #@! TO.N,N/C*
X52588160Y-65294620D03*
G04 #@! TO.P,U4,36*
G04 #@! TO.N,SCL*
X53858160Y-65294620D03*
G04 #@! TO.P,U4,35*
G04 #@! TO.N,/ESP32/UART_TX*
X55128160Y-65294620D03*
G04 #@! TO.P,U4,34*
G04 #@! TO.N,/ESP32/UART_RX*
X56398160Y-65294620D03*
G04 #@! TO.P,U4,33*
G04 #@! TO.N,SDA*
X57668160Y-65294620D03*
G04 #@! TO.P,U4,32*
G04 #@! TO.N,N/C*
X58938160Y-65294620D03*
G04 #@! TO.P,U4,31*
G04 #@! TO.N,Net-(R10-Pad1)*
X60208160Y-65294620D03*
G04 #@! TO.P,U4,30*
G04 #@! TO.N,/Z6*
X61478160Y-65294620D03*
G04 #@! TO.P,U4,29*
G04 #@! TO.N,N/C*
X62748160Y-65294620D03*
G04 #@! TO.P,U4,28*
G04 #@! TO.N,/Z7*
X64018160Y-65294620D03*
G04 #@! TO.P,U4,27*
G04 #@! TO.N,/Z8*
X65288160Y-65294620D03*
G04 #@! TO.P,U4,26*
G04 #@! TO.N,N/C*
X66558160Y-65294620D03*
G04 #@! TO.P,U4,25*
G04 #@! TO.N,/ESP32/~FLASH*
X67828160Y-65294620D03*
D12*
G04 #@! TO.P,U4,24*
G04 #@! TO.N,N/C*
X68828160Y-68079620D03*
G04 #@! TO.P,U4,23*
X68828160Y-69349620D03*
G04 #@! TO.P,U4,22*
X68828160Y-70619620D03*
G04 #@! TO.P,U4,21*
X68828160Y-71889620D03*
G04 #@! TO.P,U4,20*
X68828160Y-73159620D03*
G04 #@! TO.P,U4,19*
X68828160Y-74429620D03*
G04 #@! TO.P,U4,18*
X68828160Y-75699620D03*
G04 #@! TO.P,U4,17*
X68828160Y-76969620D03*
G04 #@! TO.P,U4,16*
X68828160Y-78239620D03*
G04 #@! TO.P,U4,15*
G04 #@! TO.N,GND*
X68828160Y-79509620D03*
D11*
G04 #@! TO.P,U4,14*
G04 #@! TO.N,N/C*
X67828160Y-82294620D03*
G04 #@! TO.P,U4,13*
X66558160Y-82294620D03*
G04 #@! TO.P,U4,12*
G04 #@! TO.N,/Z5*
X65288160Y-82294620D03*
G04 #@! TO.P,U4,11*
G04 #@! TO.N,/Z4*
X64018160Y-82294620D03*
G04 #@! TO.P,U4,10*
G04 #@! TO.N,/Z3*
X62748160Y-82294620D03*
G04 #@! TO.P,U4,9*
G04 #@! TO.N,/Z2*
X61478160Y-82294620D03*
G04 #@! TO.P,U4,8*
G04 #@! TO.N,/Z1*
X60208160Y-82294620D03*
G04 #@! TO.P,U4,7*
G04 #@! TO.N,N/C*
X58938160Y-82294620D03*
G04 #@! TO.P,U4,6*
X57668160Y-82294620D03*
G04 #@! TO.P,U4,5*
X56398160Y-82294620D03*
G04 #@! TO.P,U4,4*
X55128160Y-82294620D03*
G04 #@! TO.P,U4,3*
G04 #@! TO.N,/ESP32/~RESET*
X53858160Y-82294620D03*
G04 #@! TO.P,U4,2*
G04 #@! TO.N,+3V3*
X52588160Y-82294620D03*
G04 #@! TO.P,U4,1*
G04 #@! TO.N,GND*
X51318160Y-82294620D03*
D13*
G04 #@! TO.P,U4,39*
X58818160Y-74794620D03*
G04 #@! TD*
G04 #@! TA.AperFunction,SMDPad,CuDef*
D10*
G04 #@! TO.P,JP9,2*
G04 #@! TO.N,Net-(JP9-Pad2)*
G36*
X125446200Y-90080602D02*
G01*
X125470734Y-90080602D01*
X125519565Y-90085412D01*
X125567690Y-90094984D01*
X125614645Y-90109228D01*
X125659978Y-90128005D01*
X125703251Y-90151136D01*
X125744050Y-90178396D01*
X125781979Y-90209524D01*
X125816676Y-90244221D01*
X125847804Y-90282150D01*
X125875064Y-90322949D01*
X125898195Y-90366222D01*
X125916972Y-90411555D01*
X125931216Y-90458510D01*
X125940788Y-90506635D01*
X125945598Y-90555466D01*
X125945598Y-90580000D01*
X125946200Y-90580000D01*
X125946200Y-91080000D01*
X125945598Y-91080000D01*
X125945598Y-91104534D01*
X125940788Y-91153365D01*
X125931216Y-91201490D01*
X125916972Y-91248445D01*
X125898195Y-91293778D01*
X125875064Y-91337051D01*
X125847804Y-91377850D01*
X125816676Y-91415779D01*
X125781979Y-91450476D01*
X125744050Y-91481604D01*
X125703251Y-91508864D01*
X125659978Y-91531995D01*
X125614645Y-91550772D01*
X125567690Y-91565016D01*
X125519565Y-91574588D01*
X125470734Y-91579398D01*
X125446200Y-91579398D01*
X125446200Y-91580000D01*
X124946200Y-91580000D01*
X124946200Y-90080000D01*
X125446200Y-90080000D01*
X125446200Y-90080602D01*
G37*
G04 #@! TD.AperFunction*
G04 #@! TA.AperFunction,SMDPad,CuDef*
G04 #@! TO.P,JP9,1*
G04 #@! TO.N,/Z7*
G36*
X124646200Y-91580000D02*
G01*
X124146200Y-91580000D01*
X124146200Y-91579398D01*
X124121666Y-91579398D01*
X124072835Y-91574588D01*
X124024710Y-91565016D01*
X123977755Y-91550772D01*
X123932422Y-91531995D01*
X123889149Y-91508864D01*
X123848350Y-91481604D01*
X123810421Y-91450476D01*
X123775724Y-91415779D01*
X123744596Y-91377850D01*
X123717336Y-91337051D01*
X123694205Y-91293778D01*
X123675428Y-91248445D01*
X123661184Y-91201490D01*
X123651612Y-91153365D01*
X123646802Y-91104534D01*
X123646802Y-91080000D01*
X123646200Y-91080000D01*
X123646200Y-90580000D01*
X123646802Y-90580000D01*
X123646802Y-90555466D01*
X123651612Y-90506635D01*
X123661184Y-90458510D01*
X123675428Y-90411555D01*
X123694205Y-90366222D01*
X123717336Y-90322949D01*
X123744596Y-90282150D01*
X123775724Y-90244221D01*
X123810421Y-90209524D01*
X123848350Y-90178396D01*
X123889149Y-90151136D01*
X123932422Y-90128005D01*
X123977755Y-90109228D01*
X124024710Y-90094984D01*
X124072835Y-90085412D01*
X124121666Y-90080602D01*
X124146200Y-90080602D01*
X124146200Y-90080000D01*
X124646200Y-90080000D01*
X124646200Y-91580000D01*
G37*
G04 #@! TD.AperFunction*
G04 #@! TD*
G04 #@! TA.AperFunction,SMDPad,CuDef*
G04 #@! TO.P,JP8,2*
G04 #@! TO.N,Net-(JP8-Pad2)*
G36*
X115140700Y-89980602D02*
G01*
X115165234Y-89980602D01*
X115214065Y-89985412D01*
X115262190Y-89994984D01*
X115309145Y-90009228D01*
X115354478Y-90028005D01*
X115397751Y-90051136D01*
X115438550Y-90078396D01*
X115476479Y-90109524D01*
X115511176Y-90144221D01*
X115542304Y-90182150D01*
X115569564Y-90222949D01*
X115592695Y-90266222D01*
X115611472Y-90311555D01*
X115625716Y-90358510D01*
X115635288Y-90406635D01*
X115640098Y-90455466D01*
X115640098Y-90480000D01*
X115640700Y-90480000D01*
X115640700Y-90980000D01*
X115640098Y-90980000D01*
X115640098Y-91004534D01*
X115635288Y-91053365D01*
X115625716Y-91101490D01*
X115611472Y-91148445D01*
X115592695Y-91193778D01*
X115569564Y-91237051D01*
X115542304Y-91277850D01*
X115511176Y-91315779D01*
X115476479Y-91350476D01*
X115438550Y-91381604D01*
X115397751Y-91408864D01*
X115354478Y-91431995D01*
X115309145Y-91450772D01*
X115262190Y-91465016D01*
X115214065Y-91474588D01*
X115165234Y-91479398D01*
X115140700Y-91479398D01*
X115140700Y-91480000D01*
X114640700Y-91480000D01*
X114640700Y-89980000D01*
X115140700Y-89980000D01*
X115140700Y-89980602D01*
G37*
G04 #@! TD.AperFunction*
G04 #@! TA.AperFunction,SMDPad,CuDef*
G04 #@! TO.P,JP8,1*
G04 #@! TO.N,/Z6*
G36*
X114340700Y-91480000D02*
G01*
X113840700Y-91480000D01*
X113840700Y-91479398D01*
X113816166Y-91479398D01*
X113767335Y-91474588D01*
X113719210Y-91465016D01*
X113672255Y-91450772D01*
X113626922Y-91431995D01*
X113583649Y-91408864D01*
X113542850Y-91381604D01*
X113504921Y-91350476D01*
X113470224Y-91315779D01*
X113439096Y-91277850D01*
X113411836Y-91237051D01*
X113388705Y-91193778D01*
X113369928Y-91148445D01*
X113355684Y-91101490D01*
X113346112Y-91053365D01*
X113341302Y-91004534D01*
X113341302Y-90980000D01*
X113340700Y-90980000D01*
X113340700Y-90480000D01*
X113341302Y-90480000D01*
X113341302Y-90455466D01*
X113346112Y-90406635D01*
X113355684Y-90358510D01*
X113369928Y-90311555D01*
X113388705Y-90266222D01*
X113411836Y-90222949D01*
X113439096Y-90182150D01*
X113470224Y-90144221D01*
X113504921Y-90109524D01*
X113542850Y-90078396D01*
X113583649Y-90051136D01*
X113626922Y-90028005D01*
X113672255Y-90009228D01*
X113719210Y-89994984D01*
X113767335Y-89985412D01*
X113816166Y-89980602D01*
X113840700Y-89980602D01*
X113840700Y-89980000D01*
X114340700Y-89980000D01*
X114340700Y-91480000D01*
G37*
G04 #@! TD.AperFunction*
G04 #@! TD*
G04 #@! TA.AperFunction,SMDPad,CuDef*
G04 #@! TO.P,JP7,2*
G04 #@! TO.N,Net-(JP7-Pad2)*
G36*
X102743200Y-89980602D02*
G01*
X102767734Y-89980602D01*
X102816565Y-89985412D01*
X102864690Y-89994984D01*
X102911645Y-90009228D01*
X102956978Y-90028005D01*
X103000251Y-90051136D01*
X103041050Y-90078396D01*
X103078979Y-90109524D01*
X103113676Y-90144221D01*
X103144804Y-90182150D01*
X103172064Y-90222949D01*
X103195195Y-90266222D01*
X103213972Y-90311555D01*
X103228216Y-90358510D01*
X103237788Y-90406635D01*
X103242598Y-90455466D01*
X103242598Y-90480000D01*
X103243200Y-90480000D01*
X103243200Y-90980000D01*
X103242598Y-90980000D01*
X103242598Y-91004534D01*
X103237788Y-91053365D01*
X103228216Y-91101490D01*
X103213972Y-91148445D01*
X103195195Y-91193778D01*
X103172064Y-91237051D01*
X103144804Y-91277850D01*
X103113676Y-91315779D01*
X103078979Y-91350476D01*
X103041050Y-91381604D01*
X103000251Y-91408864D01*
X102956978Y-91431995D01*
X102911645Y-91450772D01*
X102864690Y-91465016D01*
X102816565Y-91474588D01*
X102767734Y-91479398D01*
X102743200Y-91479398D01*
X102743200Y-91480000D01*
X102243200Y-91480000D01*
X102243200Y-89980000D01*
X102743200Y-89980000D01*
X102743200Y-89980602D01*
G37*
G04 #@! TD.AperFunction*
G04 #@! TA.AperFunction,SMDPad,CuDef*
G04 #@! TO.P,JP7,1*
G04 #@! TO.N,/Z5*
G36*
X101943200Y-91480000D02*
G01*
X101443200Y-91480000D01*
X101443200Y-91479398D01*
X101418666Y-91479398D01*
X101369835Y-91474588D01*
X101321710Y-91465016D01*
X101274755Y-91450772D01*
X101229422Y-91431995D01*
X101186149Y-91408864D01*
X101145350Y-91381604D01*
X101107421Y-91350476D01*
X101072724Y-91315779D01*
X101041596Y-91277850D01*
X101014336Y-91237051D01*
X100991205Y-91193778D01*
X100972428Y-91148445D01*
X100958184Y-91101490D01*
X100948612Y-91053365D01*
X100943802Y-91004534D01*
X100943802Y-90980000D01*
X100943200Y-90980000D01*
X100943200Y-90480000D01*
X100943802Y-90480000D01*
X100943802Y-90455466D01*
X100948612Y-90406635D01*
X100958184Y-90358510D01*
X100972428Y-90311555D01*
X100991205Y-90266222D01*
X101014336Y-90222949D01*
X101041596Y-90182150D01*
X101072724Y-90144221D01*
X101107421Y-90109524D01*
X101145350Y-90078396D01*
X101186149Y-90051136D01*
X101229422Y-90028005D01*
X101274755Y-90009228D01*
X101321710Y-89994984D01*
X101369835Y-89985412D01*
X101418666Y-89980602D01*
X101443200Y-89980602D01*
X101443200Y-89980000D01*
X101943200Y-89980000D01*
X101943200Y-91480000D01*
G37*
G04 #@! TD.AperFunction*
G04 #@! TD*
G04 #@! TA.AperFunction,SMDPad,CuDef*
G04 #@! TO.P,JP6,2*
G04 #@! TO.N,Net-(JP6-Pad2)*
G36*
X89979700Y-89980602D02*
G01*
X90004234Y-89980602D01*
X90053065Y-89985412D01*
X90101190Y-89994984D01*
X90148145Y-90009228D01*
X90193478Y-90028005D01*
X90236751Y-90051136D01*
X90277550Y-90078396D01*
X90315479Y-90109524D01*
X90350176Y-90144221D01*
X90381304Y-90182150D01*
X90408564Y-90222949D01*
X90431695Y-90266222D01*
X90450472Y-90311555D01*
X90464716Y-90358510D01*
X90474288Y-90406635D01*
X90479098Y-90455466D01*
X90479098Y-90480000D01*
X90479700Y-90480000D01*
X90479700Y-90980000D01*
X90479098Y-90980000D01*
X90479098Y-91004534D01*
X90474288Y-91053365D01*
X90464716Y-91101490D01*
X90450472Y-91148445D01*
X90431695Y-91193778D01*
X90408564Y-91237051D01*
X90381304Y-91277850D01*
X90350176Y-91315779D01*
X90315479Y-91350476D01*
X90277550Y-91381604D01*
X90236751Y-91408864D01*
X90193478Y-91431995D01*
X90148145Y-91450772D01*
X90101190Y-91465016D01*
X90053065Y-91474588D01*
X90004234Y-91479398D01*
X89979700Y-91479398D01*
X89979700Y-91480000D01*
X89479700Y-91480000D01*
X89479700Y-89980000D01*
X89979700Y-89980000D01*
X89979700Y-89980602D01*
G37*
G04 #@! TD.AperFunction*
G04 #@! TA.AperFunction,SMDPad,CuDef*
G04 #@! TO.P,JP6,1*
G04 #@! TO.N,/Z4*
G36*
X89179700Y-91480000D02*
G01*
X88679700Y-91480000D01*
X88679700Y-91479398D01*
X88655166Y-91479398D01*
X88606335Y-91474588D01*
X88558210Y-91465016D01*
X88511255Y-91450772D01*
X88465922Y-91431995D01*
X88422649Y-91408864D01*
X88381850Y-91381604D01*
X88343921Y-91350476D01*
X88309224Y-91315779D01*
X88278096Y-91277850D01*
X88250836Y-91237051D01*
X88227705Y-91193778D01*
X88208928Y-91148445D01*
X88194684Y-91101490D01*
X88185112Y-91053365D01*
X88180302Y-91004534D01*
X88180302Y-90980000D01*
X88179700Y-90980000D01*
X88179700Y-90480000D01*
X88180302Y-90480000D01*
X88180302Y-90455466D01*
X88185112Y-90406635D01*
X88194684Y-90358510D01*
X88208928Y-90311555D01*
X88227705Y-90266222D01*
X88250836Y-90222949D01*
X88278096Y-90182150D01*
X88309224Y-90144221D01*
X88343921Y-90109524D01*
X88381850Y-90078396D01*
X88422649Y-90051136D01*
X88465922Y-90028005D01*
X88511255Y-90009228D01*
X88558210Y-89994984D01*
X88606335Y-89985412D01*
X88655166Y-89980602D01*
X88679700Y-89980602D01*
X88679700Y-89980000D01*
X89179700Y-89980000D01*
X89179700Y-91480000D01*
G37*
G04 #@! TD.AperFunction*
G04 #@! TD*
G04 #@! TA.AperFunction,SMDPad,CuDef*
G04 #@! TO.P,JP5,2*
G04 #@! TO.N,Net-(JP5-Pad2)*
G36*
X76835200Y-89980602D02*
G01*
X76859734Y-89980602D01*
X76908565Y-89985412D01*
X76956690Y-89994984D01*
X77003645Y-90009228D01*
X77048978Y-90028005D01*
X77092251Y-90051136D01*
X77133050Y-90078396D01*
X77170979Y-90109524D01*
X77205676Y-90144221D01*
X77236804Y-90182150D01*
X77264064Y-90222949D01*
X77287195Y-90266222D01*
X77305972Y-90311555D01*
X77320216Y-90358510D01*
X77329788Y-90406635D01*
X77334598Y-90455466D01*
X77334598Y-90480000D01*
X77335200Y-90480000D01*
X77335200Y-90980000D01*
X77334598Y-90980000D01*
X77334598Y-91004534D01*
X77329788Y-91053365D01*
X77320216Y-91101490D01*
X77305972Y-91148445D01*
X77287195Y-91193778D01*
X77264064Y-91237051D01*
X77236804Y-91277850D01*
X77205676Y-91315779D01*
X77170979Y-91350476D01*
X77133050Y-91381604D01*
X77092251Y-91408864D01*
X77048978Y-91431995D01*
X77003645Y-91450772D01*
X76956690Y-91465016D01*
X76908565Y-91474588D01*
X76859734Y-91479398D01*
X76835200Y-91479398D01*
X76835200Y-91480000D01*
X76335200Y-91480000D01*
X76335200Y-89980000D01*
X76835200Y-89980000D01*
X76835200Y-89980602D01*
G37*
G04 #@! TD.AperFunction*
G04 #@! TA.AperFunction,SMDPad,CuDef*
G04 #@! TO.P,JP5,1*
G04 #@! TO.N,/Z3*
G36*
X76035200Y-91480000D02*
G01*
X75535200Y-91480000D01*
X75535200Y-91479398D01*
X75510666Y-91479398D01*
X75461835Y-91474588D01*
X75413710Y-91465016D01*
X75366755Y-91450772D01*
X75321422Y-91431995D01*
X75278149Y-91408864D01*
X75237350Y-91381604D01*
X75199421Y-91350476D01*
X75164724Y-91315779D01*
X75133596Y-91277850D01*
X75106336Y-91237051D01*
X75083205Y-91193778D01*
X75064428Y-91148445D01*
X75050184Y-91101490D01*
X75040612Y-91053365D01*
X75035802Y-91004534D01*
X75035802Y-90980000D01*
X75035200Y-90980000D01*
X75035200Y-90480000D01*
X75035802Y-90480000D01*
X75035802Y-90455466D01*
X75040612Y-90406635D01*
X75050184Y-90358510D01*
X75064428Y-90311555D01*
X75083205Y-90266222D01*
X75106336Y-90222949D01*
X75133596Y-90182150D01*
X75164724Y-90144221D01*
X75199421Y-90109524D01*
X75237350Y-90078396D01*
X75278149Y-90051136D01*
X75321422Y-90028005D01*
X75366755Y-90009228D01*
X75413710Y-89994984D01*
X75461835Y-89985412D01*
X75510666Y-89980602D01*
X75535200Y-89980602D01*
X75535200Y-89980000D01*
X76035200Y-89980000D01*
X76035200Y-91480000D01*
G37*
G04 #@! TD.AperFunction*
G04 #@! TD*
G04 #@! TA.AperFunction,SMDPad,CuDef*
G04 #@! TO.P,JP4,2*
G04 #@! TO.N,Net-(JP4-Pad2)*
G36*
X66230700Y-89980602D02*
G01*
X66255234Y-89980602D01*
X66304065Y-89985412D01*
X66352190Y-89994984D01*
X66399145Y-90009228D01*
X66444478Y-90028005D01*
X66487751Y-90051136D01*
X66528550Y-90078396D01*
X66566479Y-90109524D01*
X66601176Y-90144221D01*
X66632304Y-90182150D01*
X66659564Y-90222949D01*
X66682695Y-90266222D01*
X66701472Y-90311555D01*
X66715716Y-90358510D01*
X66725288Y-90406635D01*
X66730098Y-90455466D01*
X66730098Y-90480000D01*
X66730700Y-90480000D01*
X66730700Y-90980000D01*
X66730098Y-90980000D01*
X66730098Y-91004534D01*
X66725288Y-91053365D01*
X66715716Y-91101490D01*
X66701472Y-91148445D01*
X66682695Y-91193778D01*
X66659564Y-91237051D01*
X66632304Y-91277850D01*
X66601176Y-91315779D01*
X66566479Y-91350476D01*
X66528550Y-91381604D01*
X66487751Y-91408864D01*
X66444478Y-91431995D01*
X66399145Y-91450772D01*
X66352190Y-91465016D01*
X66304065Y-91474588D01*
X66255234Y-91479398D01*
X66230700Y-91479398D01*
X66230700Y-91480000D01*
X65730700Y-91480000D01*
X65730700Y-89980000D01*
X66230700Y-89980000D01*
X66230700Y-89980602D01*
G37*
G04 #@! TD.AperFunction*
G04 #@! TA.AperFunction,SMDPad,CuDef*
G04 #@! TO.P,JP4,1*
G04 #@! TO.N,/Z2*
G36*
X65430700Y-91480000D02*
G01*
X64930700Y-91480000D01*
X64930700Y-91479398D01*
X64906166Y-91479398D01*
X64857335Y-91474588D01*
X64809210Y-91465016D01*
X64762255Y-91450772D01*
X64716922Y-91431995D01*
X64673649Y-91408864D01*
X64632850Y-91381604D01*
X64594921Y-91350476D01*
X64560224Y-91315779D01*
X64529096Y-91277850D01*
X64501836Y-91237051D01*
X64478705Y-91193778D01*
X64459928Y-91148445D01*
X64445684Y-91101490D01*
X64436112Y-91053365D01*
X64431302Y-91004534D01*
X64431302Y-90980000D01*
X64430700Y-90980000D01*
X64430700Y-90480000D01*
X64431302Y-90480000D01*
X64431302Y-90455466D01*
X64436112Y-90406635D01*
X64445684Y-90358510D01*
X64459928Y-90311555D01*
X64478705Y-90266222D01*
X64501836Y-90222949D01*
X64529096Y-90182150D01*
X64560224Y-90144221D01*
X64594921Y-90109524D01*
X64632850Y-90078396D01*
X64673649Y-90051136D01*
X64716922Y-90028005D01*
X64762255Y-90009228D01*
X64809210Y-89994984D01*
X64857335Y-89985412D01*
X64906166Y-89980602D01*
X64930700Y-89980602D01*
X64930700Y-89980000D01*
X65430700Y-89980000D01*
X65430700Y-91480000D01*
G37*
G04 #@! TD.AperFunction*
G04 #@! TD*
G04 #@! TA.AperFunction,SMDPad,CuDef*
G04 #@! TO.P,JP3,2*
G04 #@! TO.N,Net-(JP3-Pad2)*
G36*
X55895200Y-90044102D02*
G01*
X55919734Y-90044102D01*
X55968565Y-90048912D01*
X56016690Y-90058484D01*
X56063645Y-90072728D01*
X56108978Y-90091505D01*
X56152251Y-90114636D01*
X56193050Y-90141896D01*
X56230979Y-90173024D01*
X56265676Y-90207721D01*
X56296804Y-90245650D01*
X56324064Y-90286449D01*
X56347195Y-90329722D01*
X56365972Y-90375055D01*
X56380216Y-90422010D01*
X56389788Y-90470135D01*
X56394598Y-90518966D01*
X56394598Y-90543500D01*
X56395200Y-90543500D01*
X56395200Y-91043500D01*
X56394598Y-91043500D01*
X56394598Y-91068034D01*
X56389788Y-91116865D01*
X56380216Y-91164990D01*
X56365972Y-91211945D01*
X56347195Y-91257278D01*
X56324064Y-91300551D01*
X56296804Y-91341350D01*
X56265676Y-91379279D01*
X56230979Y-91413976D01*
X56193050Y-91445104D01*
X56152251Y-91472364D01*
X56108978Y-91495495D01*
X56063645Y-91514272D01*
X56016690Y-91528516D01*
X55968565Y-91538088D01*
X55919734Y-91542898D01*
X55895200Y-91542898D01*
X55895200Y-91543500D01*
X55395200Y-91543500D01*
X55395200Y-90043500D01*
X55895200Y-90043500D01*
X55895200Y-90044102D01*
G37*
G04 #@! TD.AperFunction*
G04 #@! TA.AperFunction,SMDPad,CuDef*
G04 #@! TO.P,JP3,1*
G04 #@! TO.N,/Z1*
G36*
X55095200Y-91543500D02*
G01*
X54595200Y-91543500D01*
X54595200Y-91542898D01*
X54570666Y-91542898D01*
X54521835Y-91538088D01*
X54473710Y-91528516D01*
X54426755Y-91514272D01*
X54381422Y-91495495D01*
X54338149Y-91472364D01*
X54297350Y-91445104D01*
X54259421Y-91413976D01*
X54224724Y-91379279D01*
X54193596Y-91341350D01*
X54166336Y-91300551D01*
X54143205Y-91257278D01*
X54124428Y-91211945D01*
X54110184Y-91164990D01*
X54100612Y-91116865D01*
X54095802Y-91068034D01*
X54095802Y-91043500D01*
X54095200Y-91043500D01*
X54095200Y-90543500D01*
X54095802Y-90543500D01*
X54095802Y-90518966D01*
X54100612Y-90470135D01*
X54110184Y-90422010D01*
X54124428Y-90375055D01*
X54143205Y-90329722D01*
X54166336Y-90286449D01*
X54193596Y-90245650D01*
X54224724Y-90207721D01*
X54259421Y-90173024D01*
X54297350Y-90141896D01*
X54338149Y-90114636D01*
X54381422Y-90091505D01*
X54426755Y-90072728D01*
X54473710Y-90058484D01*
X54521835Y-90048912D01*
X54570666Y-90044102D01*
X54595200Y-90044102D01*
X54595200Y-90043500D01*
X55095200Y-90043500D01*
X55095200Y-91543500D01*
G37*
G04 #@! TD.AperFunction*
G04 #@! TD*
D14*
G04 #@! TO.P,JP2,2*
G04 #@! TO.N,/ESP32/UART_VCC*
X89875800Y-74245400D03*
D15*
G04 #@! TO.P,JP2,1*
G04 #@! TO.N,+3V3*
X87335800Y-74245400D03*
G04 #@! TD*
G04 #@! TO.P,C10,2*
G04 #@! TO.N,GND*
G04 #@! TA.AperFunction,SMDPad,CuDef*
G36*
G01*
X107638000Y-90291000D02*
X108588000Y-90291000D01*
G75*
G02*
X108838000Y-90541000I0J-250000D01*
G01*
X108838000Y-91041000D01*
G75*
G02*
X108588000Y-91291000I-250000J0D01*
G01*
X107638000Y-91291000D01*
G75*
G02*
X107388000Y-91041000I0J250000D01*
G01*
X107388000Y-90541000D01*
G75*
G02*
X107638000Y-90291000I250000J0D01*
G01*
G37*
G04 #@! TD.AperFunction*
G04 #@! TO.P,C10,1*
G04 #@! TO.N,+5V*
G04 #@! TA.AperFunction,SMDPad,CuDef*
G36*
G01*
X107638000Y-88391000D02*
X108588000Y-88391000D01*
G75*
G02*
X108838000Y-88641000I0J-250000D01*
G01*
X108838000Y-89141000D01*
G75*
G02*
X108588000Y-89391000I-250000J0D01*
G01*
X107638000Y-89391000D01*
G75*
G02*
X107388000Y-89141000I0J250000D01*
G01*
X107388000Y-88641000D01*
G75*
G02*
X107638000Y-88391000I250000J0D01*
G01*
G37*
G04 #@! TD.AperFunction*
G04 #@! TD*
D14*
G04 #@! TO.P,JP1,2*
G04 #@! TO.N,/ESP32/~FLASH*
X83297200Y-74245400D03*
D15*
G04 #@! TO.P,JP1,1*
G04 #@! TO.N,GND*
X80757200Y-74245400D03*
G04 #@! TD*
G04 #@! TO.P,R3,2*
G04 #@! TO.N,+24V_IN*
G04 #@! TA.AperFunction,SMDPad,CuDef*
G36*
G01*
X100820059Y-83047000D02*
X103670261Y-83047000D01*
G75*
G02*
X103920160Y-83296899I0J-249899D01*
G01*
X103920160Y-84022101D01*
G75*
G02*
X103670261Y-84272000I-249899J0D01*
G01*
X100820059Y-84272000D01*
G75*
G02*
X100570160Y-84022101I0J249899D01*
G01*
X100570160Y-83296899D01*
G75*
G02*
X100820059Y-83047000I249899J0D01*
G01*
G37*
G04 #@! TD.AperFunction*
G04 #@! TO.P,R3,1*
G04 #@! TO.N,+24V*
G04 #@! TA.AperFunction,SMDPad,CuDef*
G36*
G01*
X100820059Y-77122000D02*
X103670261Y-77122000D01*
G75*
G02*
X103920160Y-77371899I0J-249899D01*
G01*
X103920160Y-78097101D01*
G75*
G02*
X103670261Y-78347000I-249899J0D01*
G01*
X100820059Y-78347000D01*
G75*
G02*
X100570160Y-78097101I0J249899D01*
G01*
X100570160Y-77371899D01*
G75*
G02*
X100820059Y-77122000I249899J0D01*
G01*
G37*
G04 #@! TD.AperFunction*
G04 #@! TD*
G04 #@! TO.P,U1,8*
G04 #@! TO.N,+24V_IN*
G04 #@! TA.AperFunction,SMDPad,CuDef*
G36*
G01*
X110375560Y-73770620D02*
X110675560Y-73770620D01*
G75*
G02*
X110825560Y-73920620I0J-150000D01*
G01*
X110825560Y-75570620D01*
G75*
G02*
X110675560Y-75720620I-150000J0D01*
G01*
X110375560Y-75720620D01*
G75*
G02*
X110225560Y-75570620I0J150000D01*
G01*
X110225560Y-73920620D01*
G75*
G02*
X110375560Y-73770620I150000J0D01*
G01*
G37*
G04 #@! TD.AperFunction*
G04 #@! TO.P,U1,7*
G04 #@! TO.N,+24V*
G04 #@! TA.AperFunction,SMDPad,CuDef*
G36*
G01*
X109105560Y-73770620D02*
X109405560Y-73770620D01*
G75*
G02*
X109555560Y-73920620I0J-150000D01*
G01*
X109555560Y-75570620D01*
G75*
G02*
X109405560Y-75720620I-150000J0D01*
G01*
X109105560Y-75720620D01*
G75*
G02*
X108955560Y-75570620I0J150000D01*
G01*
X108955560Y-73920620D01*
G75*
G02*
X109105560Y-73770620I150000J0D01*
G01*
G37*
G04 #@! TD.AperFunction*
G04 #@! TO.P,U1,6*
G04 #@! TO.N,GND*
G04 #@! TA.AperFunction,SMDPad,CuDef*
G36*
G01*
X107835560Y-73770620D02*
X108135560Y-73770620D01*
G75*
G02*
X108285560Y-73920620I0J-150000D01*
G01*
X108285560Y-75570620D01*
G75*
G02*
X108135560Y-75720620I-150000J0D01*
G01*
X107835560Y-75720620D01*
G75*
G02*
X107685560Y-75570620I0J150000D01*
G01*
X107685560Y-73920620D01*
G75*
G02*
X107835560Y-73770620I150000J0D01*
G01*
G37*
G04 #@! TD.AperFunction*
G04 #@! TO.P,U1,5*
G04 #@! TO.N,+3V3*
G04 #@! TA.AperFunction,SMDPad,CuDef*
G36*
G01*
X106565560Y-73770620D02*
X106865560Y-73770620D01*
G75*
G02*
X107015560Y-73920620I0J-150000D01*
G01*
X107015560Y-75570620D01*
G75*
G02*
X106865560Y-75720620I-150000J0D01*
G01*
X106565560Y-75720620D01*
G75*
G02*
X106415560Y-75570620I0J150000D01*
G01*
X106415560Y-73920620D01*
G75*
G02*
X106565560Y-73770620I150000J0D01*
G01*
G37*
G04 #@! TD.AperFunction*
G04 #@! TO.P,U1,4*
G04 #@! TO.N,SCL*
G04 #@! TA.AperFunction,SMDPad,CuDef*
G36*
G01*
X106565560Y-68820620D02*
X106865560Y-68820620D01*
G75*
G02*
X107015560Y-68970620I0J-150000D01*
G01*
X107015560Y-70620620D01*
G75*
G02*
X106865560Y-70770620I-150000J0D01*
G01*
X106565560Y-70770620D01*
G75*
G02*
X106415560Y-70620620I0J150000D01*
G01*
X106415560Y-68970620D01*
G75*
G02*
X106565560Y-68820620I150000J0D01*
G01*
G37*
G04 #@! TD.AperFunction*
G04 #@! TO.P,U1,3*
G04 #@! TO.N,SDA*
G04 #@! TA.AperFunction,SMDPad,CuDef*
G36*
G01*
X107835560Y-68820620D02*
X108135560Y-68820620D01*
G75*
G02*
X108285560Y-68970620I0J-150000D01*
G01*
X108285560Y-70620620D01*
G75*
G02*
X108135560Y-70770620I-150000J0D01*
G01*
X107835560Y-70770620D01*
G75*
G02*
X107685560Y-70620620I0J150000D01*
G01*
X107685560Y-68970620D01*
G75*
G02*
X107835560Y-68820620I150000J0D01*
G01*
G37*
G04 #@! TD.AperFunction*
G04 #@! TO.P,U1,2*
G04 #@! TO.N,Net-(R7-Pad2)*
G04 #@! TA.AperFunction,SMDPad,CuDef*
G36*
G01*
X109105560Y-68820620D02*
X109405560Y-68820620D01*
G75*
G02*
X109555560Y-68970620I0J-150000D01*
G01*
X109555560Y-70620620D01*
G75*
G02*
X109405560Y-70770620I-150000J0D01*
G01*
X109105560Y-70770620D01*
G75*
G02*
X108955560Y-70620620I0J150000D01*
G01*
X108955560Y-68970620D01*
G75*
G02*
X109105560Y-68820620I150000J0D01*
G01*
G37*
G04 #@! TD.AperFunction*
G04 #@! TO.P,U1,1*
G04 #@! TO.N,Net-(R6-Pad2)*
G04 #@! TA.AperFunction,SMDPad,CuDef*
G36*
G01*
X110375560Y-68820620D02*
X110675560Y-68820620D01*
G75*
G02*
X110825560Y-68970620I0J-150000D01*
G01*
X110825560Y-70620620D01*
G75*
G02*
X110675560Y-70770620I-150000J0D01*
G01*
X110375560Y-70770620D01*
G75*
G02*
X110225560Y-70620620I0J150000D01*
G01*
X110225560Y-68970620D01*
G75*
G02*
X110375560Y-68820620I150000J0D01*
G01*
G37*
G04 #@! TD.AperFunction*
G04 #@! TD*
D14*
G04 #@! TO.P,J3,6*
G04 #@! TO.N,N/C*
X118984200Y-67692200D03*
G04 #@! TO.P,J3,5*
G04 #@! TO.N,/ESP32/UART_TX*
X121524200Y-67692200D03*
G04 #@! TO.P,J3,4*
G04 #@! TO.N,/ESP32/UART_RX*
X124064200Y-67692200D03*
G04 #@! TO.P,J3,3*
G04 #@! TO.N,/ESP32/UART_VCC*
X126604200Y-67692200D03*
G04 #@! TO.P,J3,2*
G04 #@! TO.N,N/C*
X129144200Y-67692200D03*
D15*
G04 #@! TO.P,J3,1*
G04 #@! TO.N,GND*
X131684200Y-67692200D03*
G04 #@! TD*
D16*
G04 #@! TO.P,D2,2*
G04 #@! TO.N,GND*
X127874200Y-72569000D03*
D17*
G04 #@! TO.P,D2,1*
G04 #@! TO.N,+24V_SW*
X120254200Y-72569000D03*
G04 #@! TD*
G04 #@! TO.P,R10,2*
G04 #@! TO.N,Net-(LED2-Pad2)*
G04 #@! TA.AperFunction,SMDPad,CuDef*
G36*
G01*
X72866200Y-75387002D02*
X72866200Y-74486998D01*
G75*
G02*
X73116198Y-74237000I249998J0D01*
G01*
X73641202Y-74237000D01*
G75*
G02*
X73891200Y-74486998I0J-249998D01*
G01*
X73891200Y-75387002D01*
G75*
G02*
X73641202Y-75637000I-249998J0D01*
G01*
X73116198Y-75637000D01*
G75*
G02*
X72866200Y-75387002I0J249998D01*
G01*
G37*
G04 #@! TD.AperFunction*
G04 #@! TO.P,R10,1*
G04 #@! TO.N,Net-(R10-Pad1)*
G04 #@! TA.AperFunction,SMDPad,CuDef*
G36*
G01*
X71041200Y-75387002D02*
X71041200Y-74486998D01*
G75*
G02*
X71291198Y-74237000I249998J0D01*
G01*
X71816202Y-74237000D01*
G75*
G02*
X72066200Y-74486998I0J-249998D01*
G01*
X72066200Y-75387002D01*
G75*
G02*
X71816202Y-75637000I-249998J0D01*
G01*
X71291198Y-75637000D01*
G75*
G02*
X71041200Y-75387002I0J249998D01*
G01*
G37*
G04 #@! TD.AperFunction*
G04 #@! TD*
G04 #@! TO.P,R9,2*
G04 #@! TO.N,/ESP32/~RESET*
G04 #@! TA.AperFunction,SMDPad,CuDef*
G36*
G01*
X72066200Y-72328618D02*
X72066200Y-73228622D01*
G75*
G02*
X71816202Y-73478620I-249998J0D01*
G01*
X71291198Y-73478620D01*
G75*
G02*
X71041200Y-73228622I0J249998D01*
G01*
X71041200Y-72328618D01*
G75*
G02*
X71291198Y-72078620I249998J0D01*
G01*
X71816202Y-72078620D01*
G75*
G02*
X72066200Y-72328618I0J-249998D01*
G01*
G37*
G04 #@! TD.AperFunction*
G04 #@! TO.P,R9,1*
G04 #@! TO.N,+3V3*
G04 #@! TA.AperFunction,SMDPad,CuDef*
G36*
G01*
X73891200Y-72328618D02*
X73891200Y-73228622D01*
G75*
G02*
X73641202Y-73478620I-249998J0D01*
G01*
X73116198Y-73478620D01*
G75*
G02*
X72866200Y-73228622I0J249998D01*
G01*
X72866200Y-72328618D01*
G75*
G02*
X73116198Y-72078620I249998J0D01*
G01*
X73641202Y-72078620D01*
G75*
G02*
X73891200Y-72328618I0J-249998D01*
G01*
G37*
G04 #@! TD.AperFunction*
G04 #@! TD*
G04 #@! TO.P,R8,2*
G04 #@! TO.N,Net-(LED1-Pad2)*
G04 #@! TA.AperFunction,SMDPad,CuDef*
G36*
G01*
X84040200Y-84158598D02*
X84040200Y-85058602D01*
G75*
G02*
X83790202Y-85308600I-249998J0D01*
G01*
X83265198Y-85308600D01*
G75*
G02*
X83015200Y-85058602I0J249998D01*
G01*
X83015200Y-84158598D01*
G75*
G02*
X83265198Y-83908600I249998J0D01*
G01*
X83790202Y-83908600D01*
G75*
G02*
X84040200Y-84158598I0J-249998D01*
G01*
G37*
G04 #@! TD.AperFunction*
G04 #@! TO.P,R8,1*
G04 #@! TO.N,+5V*
G04 #@! TA.AperFunction,SMDPad,CuDef*
G36*
G01*
X85865200Y-84158598D02*
X85865200Y-85058602D01*
G75*
G02*
X85615202Y-85308600I-249998J0D01*
G01*
X85090198Y-85308600D01*
G75*
G02*
X84840200Y-85058602I0J249998D01*
G01*
X84840200Y-84158598D01*
G75*
G02*
X85090198Y-83908600I249998J0D01*
G01*
X85615202Y-83908600D01*
G75*
G02*
X85865200Y-84158598I0J-249998D01*
G01*
G37*
G04 #@! TD.AperFunction*
G04 #@! TD*
G04 #@! TO.P,R7,2*
G04 #@! TO.N,Net-(R7-Pad2)*
G04 #@! TA.AperFunction,SMDPad,CuDef*
G36*
G01*
X113784040Y-72264978D02*
X113784040Y-73164982D01*
G75*
G02*
X113534042Y-73414980I-249998J0D01*
G01*
X113009038Y-73414980D01*
G75*
G02*
X112759040Y-73164982I0J249998D01*
G01*
X112759040Y-72264978D01*
G75*
G02*
X113009038Y-72014980I249998J0D01*
G01*
X113534042Y-72014980D01*
G75*
G02*
X113784040Y-72264978I0J-249998D01*
G01*
G37*
G04 #@! TD.AperFunction*
G04 #@! TO.P,R7,1*
G04 #@! TO.N,+3V3*
G04 #@! TA.AperFunction,SMDPad,CuDef*
G36*
G01*
X115609040Y-72264978D02*
X115609040Y-73164982D01*
G75*
G02*
X115359042Y-73414980I-249998J0D01*
G01*
X114834038Y-73414980D01*
G75*
G02*
X114584040Y-73164982I0J249998D01*
G01*
X114584040Y-72264978D01*
G75*
G02*
X114834038Y-72014980I249998J0D01*
G01*
X115359042Y-72014980D01*
G75*
G02*
X115609040Y-72264978I0J-249998D01*
G01*
G37*
G04 #@! TD.AperFunction*
G04 #@! TD*
G04 #@! TO.P,R6,2*
G04 #@! TO.N,Net-(R6-Pad2)*
G04 #@! TA.AperFunction,SMDPad,CuDef*
G36*
G01*
X113784040Y-70105978D02*
X113784040Y-71005982D01*
G75*
G02*
X113534042Y-71255980I-249998J0D01*
G01*
X113009038Y-71255980D01*
G75*
G02*
X112759040Y-71005982I0J249998D01*
G01*
X112759040Y-70105978D01*
G75*
G02*
X113009038Y-69855980I249998J0D01*
G01*
X113534042Y-69855980D01*
G75*
G02*
X113784040Y-70105978I0J-249998D01*
G01*
G37*
G04 #@! TD.AperFunction*
G04 #@! TO.P,R6,1*
G04 #@! TO.N,+3V3*
G04 #@! TA.AperFunction,SMDPad,CuDef*
G36*
G01*
X115609040Y-70105978D02*
X115609040Y-71005982D01*
G75*
G02*
X115359042Y-71255980I-249998J0D01*
G01*
X114834038Y-71255980D01*
G75*
G02*
X114584040Y-71005982I0J249998D01*
G01*
X114584040Y-70105978D01*
G75*
G02*
X114834038Y-69855980I249998J0D01*
G01*
X115359042Y-69855980D01*
G75*
G02*
X115609040Y-70105978I0J-249998D01*
G01*
G37*
G04 #@! TD.AperFunction*
G04 #@! TD*
G04 #@! TO.P,R5,2*
G04 #@! TO.N,SCL*
G04 #@! TA.AperFunction,SMDPad,CuDef*
G36*
G01*
X103402200Y-72746022D02*
X103402200Y-71846018D01*
G75*
G02*
X103652198Y-71596020I249998J0D01*
G01*
X104177202Y-71596020D01*
G75*
G02*
X104427200Y-71846018I0J-249998D01*
G01*
X104427200Y-72746022D01*
G75*
G02*
X104177202Y-72996020I-249998J0D01*
G01*
X103652198Y-72996020D01*
G75*
G02*
X103402200Y-72746022I0J249998D01*
G01*
G37*
G04 #@! TD.AperFunction*
G04 #@! TO.P,R5,1*
G04 #@! TO.N,+3V3*
G04 #@! TA.AperFunction,SMDPad,CuDef*
G36*
G01*
X101577200Y-72746022D02*
X101577200Y-71846018D01*
G75*
G02*
X101827198Y-71596020I249998J0D01*
G01*
X102352202Y-71596020D01*
G75*
G02*
X102602200Y-71846018I0J-249998D01*
G01*
X102602200Y-72746022D01*
G75*
G02*
X102352202Y-72996020I-249998J0D01*
G01*
X101827198Y-72996020D01*
G75*
G02*
X101577200Y-72746022I0J249998D01*
G01*
G37*
G04 #@! TD.AperFunction*
G04 #@! TD*
G04 #@! TO.P,R4,2*
G04 #@! TO.N,SDA*
G04 #@! TA.AperFunction,SMDPad,CuDef*
G36*
G01*
X103402200Y-70587022D02*
X103402200Y-69687018D01*
G75*
G02*
X103652198Y-69437020I249998J0D01*
G01*
X104177202Y-69437020D01*
G75*
G02*
X104427200Y-69687018I0J-249998D01*
G01*
X104427200Y-70587022D01*
G75*
G02*
X104177202Y-70837020I-249998J0D01*
G01*
X103652198Y-70837020D01*
G75*
G02*
X103402200Y-70587022I0J249998D01*
G01*
G37*
G04 #@! TD.AperFunction*
G04 #@! TO.P,R4,1*
G04 #@! TO.N,+3V3*
G04 #@! TA.AperFunction,SMDPad,CuDef*
G36*
G01*
X101577200Y-70587022D02*
X101577200Y-69687018D01*
G75*
G02*
X101827198Y-69437020I249998J0D01*
G01*
X102352202Y-69437020D01*
G75*
G02*
X102602200Y-69687018I0J-249998D01*
G01*
X102602200Y-70587022D01*
G75*
G02*
X102352202Y-70837020I-249998J0D01*
G01*
X101827198Y-70837020D01*
G75*
G02*
X101577200Y-70587022I0J249998D01*
G01*
G37*
G04 #@! TD.AperFunction*
G04 #@! TD*
D18*
G04 #@! TO.P,U8,8*
G04 #@! TO.N,+5V*
X92949200Y-88209120D03*
G04 #@! TO.P,U8,7*
G04 #@! TO.N,Net-(JP6-Pad2)*
X92949200Y-90749120D03*
G04 #@! TO.P,U8,6*
G04 #@! TO.N,N/C*
X92949200Y-93289120D03*
G04 #@! TO.P,U8,5*
G04 #@! TO.N,GND*
X92949200Y-95829120D03*
G04 #@! TO.P,U8,4*
X85329200Y-95829120D03*
G04 #@! TO.P,U8,3*
G04 #@! TO.N,N/C*
X85329200Y-93289120D03*
G04 #@! TO.P,U8,2*
G04 #@! TO.N,/Z4*
X85329200Y-90749120D03*
D19*
G04 #@! TO.P,U8,1*
G04 #@! TO.N,+5V*
X85329200Y-88209120D03*
G04 #@! TD*
D20*
G04 #@! TO.P,C3,2*
G04 #@! TO.N,GND*
X96403160Y-69786620D03*
D17*
G04 #@! TO.P,C3,1*
G04 #@! TO.N,+24V*
X96403160Y-73286620D03*
G04 #@! TD*
D18*
G04 #@! TO.P,U12,8*
G04 #@! TO.N,+5V*
X139086200Y-88209120D03*
G04 #@! TO.P,U12,7*
G04 #@! TO.N,Net-(JP10-Pad2)*
X139086200Y-90749120D03*
G04 #@! TO.P,U12,6*
G04 #@! TO.N,N/C*
X139086200Y-93289120D03*
G04 #@! TO.P,U12,5*
G04 #@! TO.N,GND*
X139086200Y-95829120D03*
G04 #@! TO.P,U12,4*
X131466200Y-95829120D03*
G04 #@! TO.P,U12,3*
G04 #@! TO.N,N/C*
X131466200Y-93289120D03*
G04 #@! TO.P,U12,2*
G04 #@! TO.N,/Z8*
X131466200Y-90749120D03*
D19*
G04 #@! TO.P,U12,1*
G04 #@! TO.N,+5V*
X131466200Y-88209120D03*
G04 #@! TD*
D18*
G04 #@! TO.P,U11,8*
G04 #@! TO.N,+5V*
X128631600Y-88209120D03*
G04 #@! TO.P,U11,7*
G04 #@! TO.N,Net-(JP9-Pad2)*
X128631600Y-90749120D03*
G04 #@! TO.P,U11,6*
G04 #@! TO.N,N/C*
X128631600Y-93289120D03*
G04 #@! TO.P,U11,5*
G04 #@! TO.N,GND*
X128631600Y-95829120D03*
G04 #@! TO.P,U11,4*
X121011600Y-95829120D03*
G04 #@! TO.P,U11,3*
G04 #@! TO.N,N/C*
X121011600Y-93289120D03*
G04 #@! TO.P,U11,2*
G04 #@! TO.N,/Z7*
X121011600Y-90749120D03*
D19*
G04 #@! TO.P,U11,1*
G04 #@! TO.N,+5V*
X121011600Y-88209120D03*
G04 #@! TD*
D18*
G04 #@! TO.P,U10,8*
G04 #@! TO.N,+5V*
X118222200Y-88209120D03*
G04 #@! TO.P,U10,7*
G04 #@! TO.N,Net-(JP8-Pad2)*
X118222200Y-90749120D03*
G04 #@! TO.P,U10,6*
G04 #@! TO.N,N/C*
X118222200Y-93289120D03*
G04 #@! TO.P,U10,5*
G04 #@! TO.N,GND*
X118222200Y-95829120D03*
G04 #@! TO.P,U10,4*
X110602200Y-95829120D03*
G04 #@! TO.P,U10,3*
G04 #@! TO.N,N/C*
X110602200Y-93289120D03*
G04 #@! TO.P,U10,2*
G04 #@! TO.N,/Z6*
X110602200Y-90749120D03*
D19*
G04 #@! TO.P,U10,1*
G04 #@! TO.N,+5V*
X110602200Y-88209120D03*
G04 #@! TD*
D18*
G04 #@! TO.P,U9,8*
G04 #@! TO.N,+5V*
X105623800Y-88209120D03*
G04 #@! TO.P,U9,7*
G04 #@! TO.N,Net-(JP7-Pad2)*
X105623800Y-90749120D03*
G04 #@! TO.P,U9,6*
G04 #@! TO.N,N/C*
X105623800Y-93289120D03*
G04 #@! TO.P,U9,5*
G04 #@! TO.N,GND*
X105623800Y-95829120D03*
G04 #@! TO.P,U9,4*
X98003800Y-95829120D03*
G04 #@! TO.P,U9,3*
G04 #@! TO.N,N/C*
X98003800Y-93289120D03*
G04 #@! TO.P,U9,2*
G04 #@! TO.N,/Z5*
X98003800Y-90749120D03*
D19*
G04 #@! TO.P,U9,1*
G04 #@! TO.N,+5V*
X98003800Y-88209120D03*
G04 #@! TD*
D18*
G04 #@! TO.P,U7,8*
G04 #@! TO.N,+5V*
X79956660Y-88209120D03*
G04 #@! TO.P,U7,7*
G04 #@! TO.N,Net-(JP5-Pad2)*
X79956660Y-90749120D03*
G04 #@! TO.P,U7,6*
G04 #@! TO.N,N/C*
X79956660Y-93289120D03*
G04 #@! TO.P,U7,5*
G04 #@! TO.N,GND*
X79956660Y-95829120D03*
G04 #@! TO.P,U7,4*
X72336660Y-95829120D03*
G04 #@! TO.P,U7,3*
G04 #@! TO.N,N/C*
X72336660Y-93289120D03*
G04 #@! TO.P,U7,2*
G04 #@! TO.N,/Z3*
X72336660Y-90749120D03*
D19*
G04 #@! TO.P,U7,1*
G04 #@! TO.N,+5V*
X72336660Y-88209120D03*
G04 #@! TD*
D18*
G04 #@! TO.P,U6,8*
G04 #@! TO.N,+5V*
X69505000Y-88209120D03*
G04 #@! TO.P,U6,7*
G04 #@! TO.N,Net-(JP4-Pad2)*
X69505000Y-90749120D03*
G04 #@! TO.P,U6,6*
G04 #@! TO.N,N/C*
X69505000Y-93289120D03*
G04 #@! TO.P,U6,5*
G04 #@! TO.N,GND*
X69505000Y-95829120D03*
G04 #@! TO.P,U6,4*
X61885000Y-95829120D03*
G04 #@! TO.P,U6,3*
G04 #@! TO.N,N/C*
X61885000Y-93289120D03*
G04 #@! TO.P,U6,2*
G04 #@! TO.N,/Z2*
X61885000Y-90749120D03*
D19*
G04 #@! TO.P,U6,1*
G04 #@! TO.N,+5V*
X61885000Y-88209120D03*
G04 #@! TD*
D18*
G04 #@! TO.P,U5,8*
G04 #@! TO.N,+5V*
X59001660Y-88209120D03*
G04 #@! TO.P,U5,7*
G04 #@! TO.N,Net-(JP3-Pad2)*
X59001660Y-90749120D03*
G04 #@! TO.P,U5,6*
G04 #@! TO.N,N/C*
X59001660Y-93289120D03*
G04 #@! TO.P,U5,5*
G04 #@! TO.N,GND*
X59001660Y-95829120D03*
G04 #@! TO.P,U5,4*
X51381660Y-95829120D03*
G04 #@! TO.P,U5,3*
G04 #@! TO.N,N/C*
X51381660Y-93289120D03*
G04 #@! TO.P,U5,2*
G04 #@! TO.N,/Z1*
X51381660Y-90749120D03*
D19*
G04 #@! TO.P,U5,1*
G04 #@! TO.N,+5V*
X51381660Y-88209120D03*
G04 #@! TD*
D21*
G04 #@! TO.P,U3,1*
G04 #@! TO.N,GND*
X72742200Y-83593000D03*
G04 #@! TO.P,U3,3*
G04 #@! TO.N,+5V*
X77342200Y-83593000D03*
G04 #@! TO.P,U3,2*
G04 #@! TO.N,+3V3*
X75042200Y-83593000D03*
D22*
X75042200Y-77293000D03*
G04 #@! TD*
D23*
G04 #@! TO.P,U2,3*
G04 #@! TO.N,+5V*
X90751660Y-78620620D03*
G04 #@! TO.P,U2,2*
G04 #@! TO.N,GND*
X93291660Y-78620620D03*
D24*
G04 #@! TO.P,U2,1*
G04 #@! TO.N,+24V*
X95831660Y-78620620D03*
G04 #@! TD*
D25*
G04 #@! TO.P,SW1,1*
G04 #@! TO.N,GND*
X76035200Y-70156000D03*
G04 #@! TO.P,SW1,2*
G04 #@! TO.N,/ESP32/~RESET*
X76035200Y-65656000D03*
G04 #@! TO.P,SW1,1*
G04 #@! TO.N,GND*
X82535200Y-70156000D03*
G04 #@! TO.P,SW1,2*
G04 #@! TO.N,/ESP32/~RESET*
X82535200Y-65656000D03*
G04 #@! TD*
D26*
G04 #@! TO.P,Q10,3*
G04 #@! TO.N,GND*
X138376660Y-102179120D03*
G04 #@! TO.P,Q10,2*
G04 #@! TO.N,/Z8-*
X135836660Y-102179120D03*
D27*
G04 #@! TO.P,Q10,1*
G04 #@! TO.N,Net-(JP10-Pad2)*
X133296660Y-102179120D03*
G04 #@! TD*
D26*
G04 #@! TO.P,Q9,3*
G04 #@! TO.N,GND*
X126311660Y-102179120D03*
G04 #@! TO.P,Q9,2*
G04 #@! TO.N,/Z7-*
X123771660Y-102179120D03*
D27*
G04 #@! TO.P,Q9,1*
G04 #@! TO.N,Net-(JP9-Pad2)*
X121231660Y-102179120D03*
G04 #@! TD*
D26*
G04 #@! TO.P,Q8,3*
G04 #@! TO.N,GND*
X114246660Y-102179120D03*
G04 #@! TO.P,Q8,2*
G04 #@! TO.N,/Z6-*
X111706660Y-102179120D03*
D27*
G04 #@! TO.P,Q8,1*
G04 #@! TO.N,Net-(JP8-Pad2)*
X109166660Y-102179120D03*
G04 #@! TD*
D26*
G04 #@! TO.P,Q7,3*
G04 #@! TO.N,GND*
X102181660Y-102179120D03*
G04 #@! TO.P,Q7,2*
G04 #@! TO.N,/Z5-*
X99641660Y-102179120D03*
D27*
G04 #@! TO.P,Q7,1*
G04 #@! TO.N,Net-(JP7-Pad2)*
X97101660Y-102179120D03*
G04 #@! TD*
D26*
G04 #@! TO.P,Q6,3*
G04 #@! TO.N,GND*
X90116660Y-102179120D03*
G04 #@! TO.P,Q6,2*
G04 #@! TO.N,/Z4-*
X87576660Y-102179120D03*
D27*
G04 #@! TO.P,Q6,1*
G04 #@! TO.N,Net-(JP6-Pad2)*
X85036660Y-102179120D03*
G04 #@! TD*
D26*
G04 #@! TO.P,Q5,3*
G04 #@! TO.N,GND*
X78051660Y-102179120D03*
G04 #@! TO.P,Q5,2*
G04 #@! TO.N,/Z3-*
X75511660Y-102179120D03*
D27*
G04 #@! TO.P,Q5,1*
G04 #@! TO.N,Net-(JP5-Pad2)*
X72971660Y-102179120D03*
G04 #@! TD*
D26*
G04 #@! TO.P,Q4,3*
G04 #@! TO.N,GND*
X65986660Y-102179120D03*
G04 #@! TO.P,Q4,2*
G04 #@! TO.N,/Z2-*
X63446660Y-102179120D03*
D27*
G04 #@! TO.P,Q4,1*
G04 #@! TO.N,Net-(JP4-Pad2)*
X60906660Y-102179120D03*
G04 #@! TD*
D26*
G04 #@! TO.P,Q3,3*
G04 #@! TO.N,GND*
X53921660Y-102179120D03*
G04 #@! TO.P,Q3,2*
G04 #@! TO.N,/Z1-*
X51381660Y-102179120D03*
D27*
G04 #@! TO.P,Q3,1*
G04 #@! TO.N,Net-(JP3-Pad2)*
X48841660Y-102179120D03*
G04 #@! TD*
D28*
G04 #@! TO.P,L1,2*
G04 #@! TO.N,+24V_IN*
X121524200Y-83487000D03*
G04 #@! TO.P,L1,1*
G04 #@! TO.N,+24V_SW*
X121524200Y-76887000D03*
G04 #@! TD*
D29*
G04 #@! TO.P,J2,16*
G04 #@! TO.N,/Z8-*
X132217160Y-110370620D03*
G04 #@! TO.P,J2,15*
G04 #@! TO.N,+24V*
X127137160Y-110370620D03*
G04 #@! TO.P,J2,14*
G04 #@! TO.N,/Z7-*
X122057160Y-110370620D03*
G04 #@! TO.P,J2,13*
G04 #@! TO.N,+24V*
X116977160Y-110370620D03*
G04 #@! TO.P,J2,12*
G04 #@! TO.N,/Z6-*
X111897160Y-110370620D03*
G04 #@! TO.P,J2,11*
G04 #@! TO.N,+24V*
X106817160Y-110370620D03*
G04 #@! TO.P,J2,10*
G04 #@! TO.N,/Z5-*
X101737160Y-110370620D03*
G04 #@! TO.P,J2,9*
G04 #@! TO.N,+24V*
X96657160Y-110370620D03*
G04 #@! TO.P,J2,8*
G04 #@! TO.N,/Z4-*
X91577160Y-110370620D03*
G04 #@! TO.P,J2,7*
G04 #@! TO.N,+24V*
X86497160Y-110370620D03*
G04 #@! TO.P,J2,6*
G04 #@! TO.N,/Z3-*
X81417160Y-110370620D03*
G04 #@! TO.P,J2,5*
G04 #@! TO.N,+24V*
X76337160Y-110370620D03*
G04 #@! TO.P,J2,4*
G04 #@! TO.N,/Z2-*
X71257160Y-110370620D03*
G04 #@! TO.P,J2,3*
G04 #@! TO.N,+24V*
X66177160Y-110370620D03*
G04 #@! TO.P,J2,2*
G04 #@! TO.N,/Z1-*
X61097160Y-110370620D03*
D30*
G04 #@! TO.P,J2,1*
G04 #@! TO.N,+24V*
X56017160Y-110370620D03*
G04 #@! TD*
D31*
G04 #@! TO.P,J1,2*
G04 #@! TO.N,GND*
X138249660Y-77811620D03*
D32*
G04 #@! TO.P,J1,1*
G04 #@! TO.N,+24V_SW*
X138249660Y-82811620D03*
G04 #@! TD*
G04 #@! TO.P,LED2,2*
G04 #@! TO.N,Net-(LED2-Pad2)*
G04 #@! TA.AperFunction,SMDPad,CuDef*
G36*
G01*
X75608200Y-74525750D02*
X75608200Y-75438250D01*
G75*
G02*
X75364450Y-75682000I-243750J0D01*
G01*
X74876950Y-75682000D01*
G75*
G02*
X74633200Y-75438250I0J243750D01*
G01*
X74633200Y-74525750D01*
G75*
G02*
X74876950Y-74282000I243750J0D01*
G01*
X75364450Y-74282000D01*
G75*
G02*
X75608200Y-74525750I0J-243750D01*
G01*
G37*
G04 #@! TD.AperFunction*
G04 #@! TO.P,LED2,1*
G04 #@! TO.N,GND*
G04 #@! TA.AperFunction,SMDPad,CuDef*
G36*
G01*
X77483200Y-74525750D02*
X77483200Y-75438250D01*
G75*
G02*
X77239450Y-75682000I-243750J0D01*
G01*
X76751950Y-75682000D01*
G75*
G02*
X76508200Y-75438250I0J243750D01*
G01*
X76508200Y-74525750D01*
G75*
G02*
X76751950Y-74282000I243750J0D01*
G01*
X77239450Y-74282000D01*
G75*
G02*
X77483200Y-74525750I0J-243750D01*
G01*
G37*
G04 #@! TD.AperFunction*
G04 #@! TD*
G04 #@! TO.P,LED1,2*
G04 #@! TO.N,Net-(LED1-Pad2)*
G04 #@! TA.AperFunction,SMDPad,CuDef*
G36*
G01*
X84930200Y-82677250D02*
X84930200Y-81764750D01*
G75*
G02*
X85173950Y-81521000I243750J0D01*
G01*
X85661450Y-81521000D01*
G75*
G02*
X85905200Y-81764750I0J-243750D01*
G01*
X85905200Y-82677250D01*
G75*
G02*
X85661450Y-82921000I-243750J0D01*
G01*
X85173950Y-82921000D01*
G75*
G02*
X84930200Y-82677250I0J243750D01*
G01*
G37*
G04 #@! TD.AperFunction*
G04 #@! TO.P,LED1,1*
G04 #@! TO.N,GND*
G04 #@! TA.AperFunction,SMDPad,CuDef*
G36*
G01*
X83055200Y-82677250D02*
X83055200Y-81764750D01*
G75*
G02*
X83298950Y-81521000I243750J0D01*
G01*
X83786450Y-81521000D01*
G75*
G02*
X84030200Y-81764750I0J-243750D01*
G01*
X84030200Y-82677250D01*
G75*
G02*
X83786450Y-82921000I-243750J0D01*
G01*
X83298950Y-82921000D01*
G75*
G02*
X83055200Y-82677250I0J243750D01*
G01*
G37*
G04 #@! TD.AperFunction*
G04 #@! TD*
G04 #@! TO.P,C9,2*
G04 #@! TO.N,GND*
G04 #@! TA.AperFunction,SMDPad,CuDef*
G36*
G01*
X56721160Y-85445620D02*
X56721160Y-84495620D01*
G75*
G02*
X56971160Y-84245620I250000J0D01*
G01*
X57471160Y-84245620D01*
G75*
G02*
X57721160Y-84495620I0J-250000D01*
G01*
X57721160Y-85445620D01*
G75*
G02*
X57471160Y-85695620I-250000J0D01*
G01*
X56971160Y-85695620D01*
G75*
G02*
X56721160Y-85445620I0J250000D01*
G01*
G37*
G04 #@! TD.AperFunction*
G04 #@! TO.P,C9,1*
G04 #@! TO.N,+3V3*
G04 #@! TA.AperFunction,SMDPad,CuDef*
G36*
G01*
X54821160Y-85445620D02*
X54821160Y-84495620D01*
G75*
G02*
X55071160Y-84245620I250000J0D01*
G01*
X55571160Y-84245620D01*
G75*
G02*
X55821160Y-84495620I0J-250000D01*
G01*
X55821160Y-85445620D01*
G75*
G02*
X55571160Y-85695620I-250000J0D01*
G01*
X55071160Y-85695620D01*
G75*
G02*
X54821160Y-85445620I0J250000D01*
G01*
G37*
G04 #@! TD.AperFunction*
G04 #@! TD*
G04 #@! TO.P,C8,2*
G04 #@! TO.N,GND*
G04 #@! TA.AperFunction,SMDPad,CuDef*
G36*
G01*
X52011160Y-84495620D02*
X52011160Y-85445620D01*
G75*
G02*
X51761160Y-85695620I-250000J0D01*
G01*
X51261160Y-85695620D01*
G75*
G02*
X51011160Y-85445620I0J250000D01*
G01*
X51011160Y-84495620D01*
G75*
G02*
X51261160Y-84245620I250000J0D01*
G01*
X51761160Y-84245620D01*
G75*
G02*
X52011160Y-84495620I0J-250000D01*
G01*
G37*
G04 #@! TD.AperFunction*
G04 #@! TO.P,C8,1*
G04 #@! TO.N,+3V3*
G04 #@! TA.AperFunction,SMDPad,CuDef*
G36*
G01*
X53911160Y-84495620D02*
X53911160Y-85445620D01*
G75*
G02*
X53661160Y-85695620I-250000J0D01*
G01*
X53161160Y-85695620D01*
G75*
G02*
X52911160Y-85445620I0J250000D01*
G01*
X52911160Y-84495620D01*
G75*
G02*
X53161160Y-84245620I250000J0D01*
G01*
X53661160Y-84245620D01*
G75*
G02*
X53911160Y-84495620I0J-250000D01*
G01*
G37*
G04 #@! TD.AperFunction*
G04 #@! TD*
G04 #@! TO.P,C7,2*
G04 #@! TO.N,GND*
G04 #@! TA.AperFunction,SMDPad,CuDef*
G36*
G01*
X81933200Y-90291000D02*
X82883200Y-90291000D01*
G75*
G02*
X83133200Y-90541000I0J-250000D01*
G01*
X83133200Y-91041000D01*
G75*
G02*
X82883200Y-91291000I-250000J0D01*
G01*
X81933200Y-91291000D01*
G75*
G02*
X81683200Y-91041000I0J250000D01*
G01*
X81683200Y-90541000D01*
G75*
G02*
X81933200Y-90291000I250000J0D01*
G01*
G37*
G04 #@! TD.AperFunction*
G04 #@! TO.P,C7,1*
G04 #@! TO.N,+5V*
G04 #@! TA.AperFunction,SMDPad,CuDef*
G36*
G01*
X81933200Y-88391000D02*
X82883200Y-88391000D01*
G75*
G02*
X83133200Y-88641000I0J-250000D01*
G01*
X83133200Y-89141000D01*
G75*
G02*
X82883200Y-89391000I-250000J0D01*
G01*
X81933200Y-89391000D01*
G75*
G02*
X81683200Y-89141000I0J250000D01*
G01*
X81683200Y-88641000D01*
G75*
G02*
X81933200Y-88391000I250000J0D01*
G01*
G37*
G04 #@! TD.AperFunction*
G04 #@! TD*
G04 #@! TO.P,C6,2*
G04 #@! TO.N,GND*
G04 #@! TA.AperFunction,SMDPad,CuDef*
G36*
G01*
X72036200Y-70024000D02*
X72036200Y-70974000D01*
G75*
G02*
X71786200Y-71224000I-250000J0D01*
G01*
X71286200Y-71224000D01*
G75*
G02*
X71036200Y-70974000I0J250000D01*
G01*
X71036200Y-70024000D01*
G75*
G02*
X71286200Y-69774000I250000J0D01*
G01*
X71786200Y-69774000D01*
G75*
G02*
X72036200Y-70024000I0J-250000D01*
G01*
G37*
G04 #@! TD.AperFunction*
G04 #@! TO.P,C6,1*
G04 #@! TO.N,/ESP32/~RESET*
G04 #@! TA.AperFunction,SMDPad,CuDef*
G36*
G01*
X73936200Y-70024000D02*
X73936200Y-70974000D01*
G75*
G02*
X73686200Y-71224000I-250000J0D01*
G01*
X73186200Y-71224000D01*
G75*
G02*
X72936200Y-70974000I0J250000D01*
G01*
X72936200Y-70024000D01*
G75*
G02*
X73186200Y-69774000I250000J0D01*
G01*
X73686200Y-69774000D01*
G75*
G02*
X73936200Y-70024000I0J-250000D01*
G01*
G37*
G04 #@! TD.AperFunction*
G04 #@! TD*
G04 #@! TO.P,C5,2*
G04 #@! TO.N,GND*
G04 #@! TA.AperFunction,SMDPad,CuDef*
G36*
G01*
X80597200Y-79231000D02*
X79647200Y-79231000D01*
G75*
G02*
X79397200Y-78981000I0J250000D01*
G01*
X79397200Y-78481000D01*
G75*
G02*
X79647200Y-78231000I250000J0D01*
G01*
X80597200Y-78231000D01*
G75*
G02*
X80847200Y-78481000I0J-250000D01*
G01*
X80847200Y-78981000D01*
G75*
G02*
X80597200Y-79231000I-250000J0D01*
G01*
G37*
G04 #@! TD.AperFunction*
G04 #@! TO.P,C5,1*
G04 #@! TO.N,+5V*
G04 #@! TA.AperFunction,SMDPad,CuDef*
G36*
G01*
X80597200Y-81131000D02*
X79647200Y-81131000D01*
G75*
G02*
X79397200Y-80881000I0J250000D01*
G01*
X79397200Y-80381000D01*
G75*
G02*
X79647200Y-80131000I250000J0D01*
G01*
X80597200Y-80131000D01*
G75*
G02*
X80847200Y-80381000I0J-250000D01*
G01*
X80847200Y-80881000D01*
G75*
G02*
X80597200Y-81131000I-250000J0D01*
G01*
G37*
G04 #@! TD.AperFunction*
G04 #@! TD*
G04 #@! TO.P,C4,2*
G04 #@! TO.N,GND*
G04 #@! TA.AperFunction,SMDPad,CuDef*
G36*
G01*
X79647200Y-83880000D02*
X80597200Y-83880000D01*
G75*
G02*
X80847200Y-84130000I0J-250000D01*
G01*
X80847200Y-84630000D01*
G75*
G02*
X80597200Y-84880000I-250000J0D01*
G01*
X79647200Y-84880000D01*
G75*
G02*
X79397200Y-84630000I0J250000D01*
G01*
X79397200Y-84130000D01*
G75*
G02*
X79647200Y-83880000I250000J0D01*
G01*
G37*
G04 #@! TD.AperFunction*
G04 #@! TO.P,C4,1*
G04 #@! TO.N,+5V*
G04 #@! TA.AperFunction,SMDPad,CuDef*
G36*
G01*
X79647200Y-81980000D02*
X80597200Y-81980000D01*
G75*
G02*
X80847200Y-82230000I0J-250000D01*
G01*
X80847200Y-82730000D01*
G75*
G02*
X80597200Y-82980000I-250000J0D01*
G01*
X79647200Y-82980000D01*
G75*
G02*
X79397200Y-82730000I0J250000D01*
G01*
X79397200Y-82230000D01*
G75*
G02*
X79647200Y-81980000I250000J0D01*
G01*
G37*
G04 #@! TD.AperFunction*
G04 #@! TD*
G04 #@! TO.P,C2,2*
G04 #@! TO.N,GND*
G04 #@! TA.AperFunction,SMDPad,CuDef*
G36*
G01*
X102532200Y-74380000D02*
X102532200Y-75330000D01*
G75*
G02*
X102282200Y-75580000I-250000J0D01*
G01*
X101782200Y-75580000D01*
G75*
G02*
X101532200Y-75330000I0J250000D01*
G01*
X101532200Y-74380000D01*
G75*
G02*
X101782200Y-74130000I250000J0D01*
G01*
X102282200Y-74130000D01*
G75*
G02*
X102532200Y-74380000I0J-250000D01*
G01*
G37*
G04 #@! TD.AperFunction*
G04 #@! TO.P,C2,1*
G04 #@! TO.N,+3V3*
G04 #@! TA.AperFunction,SMDPad,CuDef*
G36*
G01*
X104432200Y-74380000D02*
X104432200Y-75330000D01*
G75*
G02*
X104182200Y-75580000I-250000J0D01*
G01*
X103682200Y-75580000D01*
G75*
G02*
X103432200Y-75330000I0J250000D01*
G01*
X103432200Y-74380000D01*
G75*
G02*
X103682200Y-74130000I250000J0D01*
G01*
X104182200Y-74130000D01*
G75*
G02*
X104432200Y-74380000I0J-250000D01*
G01*
G37*
G04 #@! TD.AperFunction*
G04 #@! TD*
D33*
G04 #@! TO.P,C1,2*
G04 #@! TO.N,GND*
X109535400Y-81541800D03*
D17*
G04 #@! TO.P,C1,1*
G04 #@! TO.N,+24V_IN*
X109535400Y-83541800D03*
G04 #@! TD*
D34*
G04 #@! TO.N,GND*
X60310200Y-76379000D03*
X57262200Y-76379000D03*
X60310200Y-73331000D03*
X57262200Y-73331000D03*
D35*
X51318160Y-80525620D03*
X67066160Y-79509620D03*
X51318160Y-67063620D03*
X51511160Y-86428620D03*
D34*
X58557160Y-84970620D03*
D35*
X71486200Y-68759000D03*
D34*
X57201820Y-74794620D03*
X58818160Y-76410960D03*
X60370580Y-74794620D03*
X58818160Y-73299040D03*
X58818160Y-74823040D03*
X107985560Y-76608040D03*
X100442200Y-74855000D03*
D35*
X81839200Y-78731000D03*
X81900200Y-82221000D03*
X108062200Y-92279400D03*
X78344200Y-74982000D03*
D34*
X70876200Y-83593000D03*
X80122200Y-85777000D03*
D35*
X82408200Y-92889000D03*
D34*
G04 #@! TO.N,/ESP32/~RESET*
X70787700Y-76887000D03*
G04 #@! TO.N,SDA*
X57668160Y-67063620D03*
X105242360Y-70137020D03*
G04 #@! TO.N,SCL*
X53858160Y-67063620D03*
X105115360Y-72296020D03*
G04 #@! TO.N,/Z1*
X60208160Y-84482040D03*
G04 #@! TO.N,/Z2*
X61478160Y-84482040D03*
G04 #@! TO.N,/Z3*
X62748160Y-84482040D03*
G04 #@! TO.N,/Z4*
X64018160Y-84482040D03*
G04 #@! TO.N,/Z5*
X65288160Y-84482040D03*
G04 #@! TO.N,/Z6*
X61478160Y-67063620D03*
G04 #@! TO.N,/Z7*
X64018160Y-67063620D03*
G04 #@! TO.N,/Z8*
X65288160Y-67063620D03*
D35*
G04 #@! TO.N,/ESP32/UART_VCC*
X100761600Y-68058600D03*
G04 #@! TD*
D36*
G04 #@! TO.N,GND*
X51671660Y-84810120D02*
X51511160Y-84970620D01*
D37*
X56770160Y-75572620D02*
X58564160Y-73778620D01*
X60358160Y-75572620D02*
X58564160Y-73778620D01*
X51318160Y-82294620D02*
X51318160Y-80525620D01*
X51318160Y-65294620D02*
X51318160Y-67063620D01*
X68828160Y-79509620D02*
X67066160Y-79509620D01*
X51511160Y-84970620D02*
X51511160Y-86428620D01*
X51318160Y-80525620D02*
X51318160Y-80525620D01*
X67066160Y-79509620D02*
X67066160Y-79509620D01*
X51318160Y-67063620D02*
X51318160Y-67063620D01*
X51511160Y-86428620D02*
X51511160Y-86428620D01*
X57221160Y-84970620D02*
X58557160Y-84970620D01*
X58557160Y-84970620D02*
X58557160Y-84970620D01*
D38*
X71614660Y-70530120D02*
X71577160Y-70492620D01*
D37*
X58818160Y-74794620D02*
X59862580Y-74794620D01*
X58818160Y-74794620D02*
X60370580Y-74794620D01*
D36*
X58818160Y-74794620D02*
X60370580Y-74794620D01*
X58818160Y-74794620D02*
X60249820Y-74794620D01*
X58818160Y-74794620D02*
X58818160Y-74823040D01*
X58818160Y-74794620D02*
X58818160Y-76347040D01*
X58818160Y-74794620D02*
X57322580Y-74794620D01*
X58818160Y-74794620D02*
X57201820Y-74794620D01*
X58818160Y-74794620D02*
X58818160Y-73299040D01*
X58818160Y-74794620D02*
X58818160Y-73299040D01*
X57201820Y-74794620D02*
X57201820Y-74794620D01*
X58818160Y-76410960D02*
X58818160Y-76410960D01*
D37*
X60370580Y-74794620D02*
X60757820Y-74794620D01*
D36*
X58818160Y-73299040D02*
X58818160Y-72854960D01*
X58818160Y-74823040D02*
X58818160Y-76410960D01*
D37*
X102032200Y-74855000D02*
X100442200Y-74855000D01*
X107985560Y-74745620D02*
X107985560Y-76608040D01*
X107985560Y-76608040D02*
X107985560Y-76608040D01*
X100442200Y-74855000D02*
X100442200Y-74855000D01*
D39*
X80122200Y-78731000D02*
X81839200Y-78731000D01*
X81839200Y-78731000D02*
X81839200Y-78731000D01*
D37*
X83451900Y-82221000D02*
X81900200Y-82221000D01*
X81900200Y-82221000D02*
X81900200Y-82221000D01*
X71577160Y-68849960D02*
X71486200Y-68759000D01*
D38*
X71486200Y-70401660D02*
X71577160Y-70492620D01*
X71486200Y-68759000D02*
X71486200Y-70401660D01*
D39*
X108062200Y-90791000D02*
X108062200Y-92279400D01*
X108062200Y-92279400D02*
X108062200Y-92279400D01*
D37*
X76995700Y-74982000D02*
X78344200Y-74982000D01*
X78344200Y-74982000D02*
X78344200Y-74982000D01*
X72742200Y-83593000D02*
X70876200Y-83593000D01*
X70876200Y-83593000D02*
X70826200Y-83593000D01*
X80122200Y-84380000D02*
X80122200Y-85523000D01*
X80122200Y-85523000D02*
X80122200Y-85777000D01*
X80122200Y-85777000D02*
X80122200Y-85777000D01*
D36*
X82408200Y-92889000D02*
X82408200Y-92889000D01*
X82408200Y-90791000D02*
X82408200Y-92889000D01*
D37*
G04 #@! TO.N,+3V3*
X53171660Y-84731120D02*
X53411160Y-84970620D01*
D36*
X52588160Y-84147620D02*
X53411160Y-84970620D01*
X52588160Y-82294620D02*
X52588160Y-84147620D01*
X53411160Y-84970620D02*
X55321160Y-84970620D01*
D37*
X73484660Y-72823620D02*
X73439660Y-72778620D01*
D39*
X75042200Y-85493000D02*
X75042200Y-83593000D01*
X74209570Y-86325630D02*
X75042200Y-85493000D01*
X55951170Y-86325630D02*
X74209570Y-86325630D01*
X55321160Y-85695620D02*
X55951170Y-86325630D01*
X55321160Y-84970620D02*
X55321160Y-85695620D01*
X75042200Y-83593000D02*
X75042200Y-77293000D01*
D37*
X75042200Y-77293000D02*
X75042200Y-76935500D01*
X104041580Y-74745620D02*
X103932200Y-74855000D01*
X106715560Y-74745620D02*
X104041580Y-74745620D01*
X106715560Y-73770620D02*
X106715560Y-74745620D01*
X107169570Y-73316610D02*
X106715560Y-73770620D01*
X110925750Y-73316610D02*
X107169570Y-73316610D01*
X113962530Y-73848990D02*
X111458130Y-73848990D01*
X111458130Y-73848990D02*
X110925750Y-73316610D01*
X115096540Y-72714980D02*
X113962530Y-73848990D01*
X103932200Y-74184360D02*
X102043860Y-72296020D01*
X103932200Y-74855000D02*
X103932200Y-74184360D01*
X102043860Y-72296020D02*
X102043860Y-70137020D01*
X115096540Y-70555980D02*
X115096540Y-72714980D01*
X102043860Y-72296020D02*
X101280459Y-71532619D01*
X84288200Y-77293000D02*
X87335800Y-74245400D01*
X75042200Y-77293000D02*
X84288200Y-77293000D01*
X87335800Y-74245400D02*
X90048581Y-71532619D01*
X90048581Y-71532619D02*
X91785819Y-71532619D01*
X101280459Y-71532619D02*
X91785819Y-71532619D01*
D38*
X72888200Y-77293000D02*
X75042200Y-77293000D01*
X72559190Y-76963990D02*
X72888200Y-77293000D01*
X72559190Y-73598130D02*
X72559190Y-76963990D01*
X73378700Y-72778620D02*
X72559190Y-73598130D01*
D37*
G04 #@! TO.N,+24V*
X109282461Y-77230553D02*
X108608073Y-77904941D01*
X109282461Y-75985527D02*
X109282461Y-77230553D01*
X109255560Y-75958626D02*
X109282461Y-75985527D01*
X109255560Y-74745620D02*
X109255560Y-75958626D01*
X108608073Y-77904941D02*
X102415601Y-77904941D01*
X102415601Y-77904941D02*
X102245160Y-77734500D01*
G04 #@! TO.N,+5V*
X90751660Y-78620620D02*
X90751660Y-77729120D01*
X72336660Y-88209120D02*
X72336660Y-88796518D01*
X61541660Y-88209120D02*
X61541660Y-88416722D01*
D36*
X90751660Y-78620620D02*
X88933660Y-78620620D01*
D39*
X86923280Y-80631000D02*
X80122200Y-80631000D01*
X88933660Y-78620620D02*
X86923280Y-80631000D01*
X86923280Y-86615040D02*
X85329200Y-88209120D01*
D37*
X85354600Y-84608600D02*
X86923280Y-83039920D01*
X85352700Y-84608600D02*
X85354600Y-84608600D01*
D39*
X86923280Y-83039920D02*
X86923280Y-86615040D01*
X86923280Y-80631000D02*
X86923280Y-83039920D01*
D36*
X80122200Y-80813000D02*
X77342200Y-83593000D01*
X80122200Y-80631000D02*
X80122200Y-80813000D01*
X78455200Y-82480000D02*
X77342200Y-83593000D01*
X80122200Y-82480000D02*
X78455200Y-82480000D01*
D39*
X79956660Y-88209120D02*
X72336660Y-88209120D01*
X72336660Y-88209120D02*
X69505000Y-88209120D01*
X69505000Y-88209120D02*
X61885000Y-88209120D01*
X61885000Y-88209120D02*
X59001660Y-88209120D01*
X59001660Y-88209120D02*
X51381660Y-88209120D01*
X85329200Y-88209120D02*
X92949200Y-88209120D01*
X98003800Y-88164600D02*
X105623800Y-88164600D01*
X110557680Y-88164600D02*
X110602200Y-88209120D01*
X107335800Y-88164600D02*
X108062200Y-88891000D01*
X105623800Y-88164600D02*
X107335800Y-88164600D01*
X110602200Y-88209120D02*
X118222200Y-88209120D01*
X121011600Y-88309120D02*
X128631600Y-88309120D01*
X81726320Y-88209120D02*
X82408200Y-88891000D01*
X79956660Y-88209120D02*
X81726320Y-88209120D01*
X83090080Y-88209120D02*
X82408200Y-88891000D01*
X85329200Y-88209120D02*
X83090080Y-88209120D01*
X110602200Y-88209120D02*
X108696320Y-88209120D01*
X108113000Y-88792440D02*
X108113000Y-88891000D01*
X108696320Y-88209120D02*
X108113000Y-88792440D01*
X128631600Y-88209120D02*
X131466200Y-88209120D01*
X131466200Y-88209120D02*
X139086200Y-88209120D01*
D36*
X118222200Y-88209120D02*
X121011600Y-88209120D01*
D38*
G04 #@! TO.N,/ESP32/~RESET*
X53858160Y-82294620D02*
X53858160Y-81040620D01*
X70031361Y-80213621D02*
X70787700Y-79457282D01*
X67624959Y-80213621D02*
X70031361Y-80213621D01*
X67619459Y-80208121D02*
X67624959Y-80213621D01*
X54690659Y-80208121D02*
X67619459Y-80208121D01*
X53858160Y-81040620D02*
X54690659Y-80208121D01*
X70787700Y-79457282D02*
X70787700Y-76887000D01*
X70787700Y-76887000D02*
X70787700Y-76887000D01*
X75231800Y-66459400D02*
X76035200Y-65656000D01*
X71553700Y-72381500D02*
X73436200Y-70499000D01*
X71553700Y-72778620D02*
X71553700Y-72381500D01*
X73436200Y-68255000D02*
X73639200Y-68052000D01*
X73436200Y-70499000D02*
X73436200Y-68255000D01*
X73639200Y-68052000D02*
X75231800Y-66459400D01*
X73477160Y-68214040D02*
X73639200Y-68052000D01*
D40*
G04 #@! TO.N,/Z8-*
X135836660Y-106751120D02*
X132217160Y-110370620D01*
X135836660Y-102179120D02*
X135836660Y-106751120D01*
G04 #@! TO.N,/Z7-*
X122057160Y-110370620D02*
X122057160Y-106579160D01*
X123771660Y-104864660D02*
X123771660Y-102179120D01*
X122057160Y-106579160D02*
X123771660Y-104864660D01*
G04 #@! TO.N,/Z6-*
X111706660Y-110180120D02*
X111897160Y-110370620D01*
X111706660Y-102179120D02*
X111706660Y-110180120D01*
G04 #@! TO.N,/Z5-*
X101737160Y-110370620D02*
X101737160Y-106122840D01*
X99641660Y-104027340D02*
X99641660Y-102179120D01*
X101737160Y-106122840D02*
X99641660Y-104027340D01*
G04 #@! TO.N,/Z4-*
X87576660Y-106370120D02*
X91577160Y-110370620D01*
X87576660Y-102179120D02*
X87576660Y-106370120D01*
G04 #@! TO.N,/Z3-*
X75511660Y-104465120D02*
X75511660Y-102179120D01*
X81417160Y-110370620D02*
X75511660Y-104465120D01*
G04 #@! TO.N,/Z2-*
X70732998Y-110370620D02*
X71257160Y-110370620D01*
X63446660Y-102179120D02*
X63446660Y-103084282D01*
X63446660Y-102942860D02*
X63446660Y-102179120D01*
X70874420Y-110370620D02*
X63446660Y-102942860D01*
X71257160Y-110370620D02*
X70874420Y-110370620D01*
G04 #@! TO.N,/Z1-*
X51381660Y-102179120D02*
X51381660Y-103084282D01*
X61097160Y-107798360D02*
X61097160Y-110370620D01*
X59649800Y-106351000D02*
X61097160Y-107798360D01*
X53053540Y-106351000D02*
X59649800Y-106351000D01*
X51381660Y-104679120D02*
X53053540Y-106351000D01*
X51381660Y-102179120D02*
X51381660Y-104679120D01*
D38*
G04 #@! TO.N,/ESP32/UART_RX*
X122960199Y-68796201D02*
X118449901Y-68796201D01*
X124064200Y-67692200D02*
X122960199Y-68796201D01*
X118449901Y-68796201D02*
X112780320Y-63126620D01*
X56398160Y-64040620D02*
X56398160Y-65294620D01*
X57312160Y-63126620D02*
X56398160Y-64040620D01*
X112780320Y-63126620D02*
X57312160Y-63126620D01*
G04 #@! TO.N,/ESP32/UART_TX*
X116577610Y-62745610D02*
X121524200Y-67692200D01*
X57039968Y-62745610D02*
X116577610Y-62745610D01*
X55128160Y-64657418D02*
X57039968Y-62745610D01*
X55128160Y-65294620D02*
X55128160Y-64657418D01*
G04 #@! TO.N,/ESP32/~FLASH*
X81281199Y-72267499D02*
X83297200Y-74283500D01*
X76637121Y-64401999D02*
X81281199Y-69046077D01*
X68720781Y-64401999D02*
X76637121Y-64401999D01*
X81281199Y-69046077D02*
X81281199Y-72267499D01*
X67828160Y-65294620D02*
X68720781Y-64401999D01*
G04 #@! TO.N,SDA*
X57668160Y-65294620D02*
X57668160Y-67063620D01*
X57668160Y-67063620D02*
X57668160Y-67063620D01*
X103868860Y-70137020D02*
X105242360Y-70137020D01*
X107985560Y-68820620D02*
X107985560Y-69795620D01*
X107731550Y-68566610D02*
X107985560Y-68820620D01*
X106327837Y-68566610D02*
X107731550Y-68566610D01*
X105242360Y-69652087D02*
X106327837Y-68566610D01*
X105242360Y-70137020D02*
X105242360Y-69652087D01*
G04 #@! TO.N,SCL*
X53858160Y-65294620D02*
X53858160Y-67063620D01*
X53858160Y-67063620D02*
X53858160Y-67063620D01*
X103868860Y-72296020D02*
X105115360Y-72296020D01*
X105115360Y-72296020D02*
X105744380Y-72296020D01*
X106715560Y-71324840D02*
X106715560Y-69795620D01*
X105744380Y-72296020D02*
X106715560Y-71324840D01*
D37*
G04 #@! TO.N,Net-(R6-Pad2)*
X111285920Y-70555980D02*
X110525560Y-69795620D01*
X113271540Y-70555980D02*
X111285920Y-70555980D01*
D38*
G04 #@! TO.N,Net-(R7-Pad2)*
X109255560Y-70071978D02*
X109255560Y-69795620D01*
D37*
X109255560Y-70770620D02*
X109255560Y-69795620D01*
X109255560Y-70673427D02*
X109255560Y-69795620D01*
X111297113Y-72714980D02*
X109255560Y-70673427D01*
X113271540Y-72714980D02*
X111297113Y-72714980D01*
D38*
G04 #@! TO.N,Net-(R10-Pad1)*
X60208160Y-66755474D02*
X60208160Y-65294620D01*
X65600113Y-67713521D02*
X61166207Y-67713521D01*
X65938061Y-67375573D02*
X65600113Y-67713521D01*
X70031315Y-67375573D02*
X65938061Y-67375573D01*
X70082161Y-67426419D02*
X70031315Y-67375573D01*
X61166207Y-67713521D02*
X60208160Y-66755474D01*
X70082161Y-73465461D02*
X71553700Y-74937000D01*
X70082161Y-72994961D02*
X70082161Y-73465461D01*
X70082161Y-72994961D02*
X70082161Y-67426419D01*
D37*
G04 #@! TO.N,/Z1*
X54550820Y-90749120D02*
X54595200Y-90793500D01*
X51381660Y-90749120D02*
X54550820Y-90749120D01*
X60208160Y-82294620D02*
X60208160Y-84482040D01*
X60208160Y-84482040D02*
X60208160Y-84482040D01*
G04 #@! TO.N,/Z2*
X64911580Y-90749120D02*
X64930700Y-90730000D01*
X61885000Y-90749120D02*
X64911580Y-90749120D01*
X61478160Y-82294620D02*
X61478160Y-84482040D01*
X61478160Y-84482040D02*
X61478160Y-84482040D01*
G04 #@! TO.N,/Z3*
X75516080Y-90749120D02*
X75535200Y-90730000D01*
X72336660Y-90749120D02*
X75516080Y-90749120D01*
X62748160Y-82294620D02*
X62748160Y-84482040D01*
X62748160Y-84482040D02*
X62748160Y-84482040D01*
G04 #@! TO.N,/Z4*
X64018160Y-82294620D02*
X64018160Y-84482040D01*
X64018160Y-84482040D02*
X64018160Y-84482040D01*
X85348320Y-90730000D02*
X85329200Y-90749120D01*
X88679700Y-90730000D02*
X85348320Y-90730000D01*
G04 #@! TO.N,/Z5*
X101417800Y-90704600D02*
X101443200Y-90730000D01*
X98003800Y-90704600D02*
X101417800Y-90704600D01*
X65288160Y-82294620D02*
X65288160Y-84482040D01*
X65288160Y-84482040D02*
X65288160Y-84482040D01*
G04 #@! TO.N,/Z6*
X113821580Y-90749120D02*
X113840700Y-90730000D01*
X110602200Y-90749120D02*
X113821580Y-90749120D01*
X61478160Y-65294620D02*
X61478160Y-67072934D01*
X61478160Y-67072934D02*
X61478160Y-67072934D01*
X61478160Y-67072934D02*
X61478160Y-67072934D01*
G04 #@! TO.N,/Z7*
X124127080Y-90849120D02*
X124146200Y-90830000D01*
X121011600Y-90849120D02*
X124127080Y-90849120D01*
X64018160Y-65294620D02*
X64018160Y-67000551D01*
X64018160Y-67000551D02*
X64018160Y-67000551D01*
X64018160Y-67000551D02*
X64018160Y-67000551D01*
G04 #@! TO.N,/Z8*
X65288160Y-65294620D02*
X65288160Y-67000551D01*
X65288160Y-67000551D02*
X65288160Y-67000551D01*
X131547080Y-90830000D02*
X131466200Y-90749120D01*
X134736200Y-90830000D02*
X131547080Y-90830000D01*
G04 #@! TO.N,Net-(LED1-Pad2)*
X83527700Y-84020200D02*
X85326900Y-82221000D01*
X83527700Y-84608600D02*
X83527700Y-84020200D01*
D40*
G04 #@! TO.N,+24V_IN*
X121016199Y-83995001D02*
X121524200Y-83487000D01*
D37*
X110525560Y-77554416D02*
X110525560Y-74745620D01*
X104420476Y-83659500D02*
X110525560Y-77554416D01*
D39*
G04 #@! TO.N,+24V_SW*
X138093660Y-82967620D02*
X138249660Y-82811620D01*
D37*
G04 #@! TO.N,/ESP32/UART_VCC*
X100761600Y-68058600D02*
X100761600Y-68058600D01*
X124992189Y-69304211D02*
X126604200Y-67692200D01*
X115524609Y-69304211D02*
X124992189Y-69304211D01*
X114278998Y-68058600D02*
X115524609Y-69304211D01*
X100761600Y-68058600D02*
X114278998Y-68058600D01*
D38*
G04 #@! TO.N,Net-(LED2-Pad2)*
X75075700Y-74937000D02*
X75120700Y-74982000D01*
X73378700Y-74937000D02*
X75075700Y-74937000D01*
D37*
G04 #@! TO.N,Net-(JP3-Pad2)*
X58957280Y-90793500D02*
X59001660Y-90749120D01*
X55895200Y-90793500D02*
X58957280Y-90793500D01*
G04 #@! TO.N,Net-(JP4-Pad2)*
X69485880Y-90730000D02*
X69505000Y-90749120D01*
X66230700Y-90730000D02*
X69485880Y-90730000D01*
G04 #@! TO.N,Net-(JP5-Pad2)*
X79937540Y-90730000D02*
X79956660Y-90749120D01*
X76835200Y-90730000D02*
X79937540Y-90730000D01*
G04 #@! TO.N,Net-(JP6-Pad2)*
X92930080Y-90730000D02*
X92949200Y-90749120D01*
X89979700Y-90730000D02*
X92930080Y-90730000D01*
G04 #@! TO.N,Net-(JP7-Pad2)*
X105598400Y-90730000D02*
X105623800Y-90704600D01*
X102743200Y-90730000D02*
X105598400Y-90730000D01*
G04 #@! TO.N,Net-(JP8-Pad2)*
X118203080Y-90730000D02*
X118222200Y-90749120D01*
X115140700Y-90730000D02*
X118203080Y-90730000D01*
G04 #@! TO.N,Net-(JP9-Pad2)*
X128612480Y-90830000D02*
X128631600Y-90849120D01*
X125446200Y-90830000D02*
X128612480Y-90830000D01*
G04 #@! TO.N,Net-(JP10-Pad2)*
X139005320Y-90830000D02*
X139086200Y-90749120D01*
X136036200Y-90830000D02*
X139005320Y-90830000D01*
G04 #@! TD*
D38*
G04 #@! TO.N,+24V*
X134849136Y-97358105D02*
X135109646Y-97413838D01*
X135359604Y-97505970D01*
X135593959Y-97632636D01*
X135807979Y-97791282D01*
X135997311Y-97978681D01*
X136158142Y-98191057D01*
X136287208Y-98424100D01*
X136381904Y-98673107D01*
X136440307Y-98933021D01*
X136461594Y-99203118D01*
X136471789Y-100569212D01*
X136165898Y-100476421D01*
X135836660Y-100443994D01*
X135507421Y-100476421D01*
X135190833Y-100572457D01*
X134899065Y-100728410D01*
X134851671Y-100767306D01*
X134765714Y-100662566D01*
X134655013Y-100571717D01*
X134528717Y-100504210D01*
X134391677Y-100462640D01*
X134249160Y-100448603D01*
X132344160Y-100448603D01*
X132201643Y-100462640D01*
X132064603Y-100504210D01*
X131938307Y-100571717D01*
X131827606Y-100662566D01*
X131736757Y-100773267D01*
X131669250Y-100899563D01*
X131627680Y-101036603D01*
X131613643Y-101179120D01*
X131613643Y-103179120D01*
X131627680Y-103321637D01*
X131669250Y-103458677D01*
X131736757Y-103584973D01*
X131827606Y-103695674D01*
X131938307Y-103786523D01*
X132064603Y-103854030D01*
X132201643Y-103895600D01*
X132344160Y-103909637D01*
X134249160Y-103909637D01*
X134359660Y-103898753D01*
X134359661Y-106139326D01*
X132155368Y-108343620D01*
X132017518Y-108343620D01*
X131625906Y-108421516D01*
X131257015Y-108574316D01*
X130925023Y-108796146D01*
X130642686Y-109078483D01*
X130420856Y-109410475D01*
X130268056Y-109779366D01*
X130190160Y-110170978D01*
X130190160Y-110570262D01*
X130268056Y-110961874D01*
X130420856Y-111330765D01*
X130642686Y-111662757D01*
X130925023Y-111945094D01*
X131257015Y-112166924D01*
X131625906Y-112319724D01*
X132017518Y-112397620D01*
X132416802Y-112397620D01*
X132808414Y-112319724D01*
X133177305Y-112166924D01*
X133509297Y-111945094D01*
X133791634Y-111662757D01*
X134013464Y-111330765D01*
X134166264Y-110961874D01*
X134244160Y-110570262D01*
X134244160Y-110432412D01*
X136528348Y-108148225D01*
X136558675Y-112212104D01*
X136541203Y-112484097D01*
X136486028Y-112746337D01*
X136393989Y-112998014D01*
X136266968Y-113233980D01*
X136107565Y-113449402D01*
X135919053Y-113639860D01*
X135705281Y-113801464D01*
X135470630Y-113930901D01*
X135219911Y-114025520D01*
X134958255Y-114083382D01*
X134686462Y-114103645D01*
X51928200Y-114335623D01*
X51928200Y-111670620D01*
X54087126Y-111670620D01*
X54099232Y-111793534D01*
X54135084Y-111911724D01*
X54193306Y-112020648D01*
X54271659Y-112116121D01*
X54367132Y-112194474D01*
X54476056Y-112252696D01*
X54594246Y-112288548D01*
X54717160Y-112300654D01*
X55487410Y-112297620D01*
X55644160Y-112140870D01*
X55644160Y-110743620D01*
X56390160Y-110743620D01*
X56390160Y-112140870D01*
X56546910Y-112297620D01*
X57317160Y-112300654D01*
X57440074Y-112288548D01*
X57558264Y-112252696D01*
X57667188Y-112194474D01*
X57762661Y-112116121D01*
X57841014Y-112020648D01*
X57899236Y-111911724D01*
X57935088Y-111793534D01*
X57947194Y-111670620D01*
X57944160Y-110900370D01*
X57787410Y-110743620D01*
X56390160Y-110743620D01*
X55644160Y-110743620D01*
X54246910Y-110743620D01*
X54090160Y-110900370D01*
X54087126Y-111670620D01*
X51928200Y-111670620D01*
X51928200Y-109070620D01*
X54087126Y-109070620D01*
X54090160Y-109840870D01*
X54246910Y-109997620D01*
X55644160Y-109997620D01*
X55644160Y-108600370D01*
X56390160Y-108600370D01*
X56390160Y-109997620D01*
X57787410Y-109997620D01*
X57944160Y-109840870D01*
X57947194Y-109070620D01*
X57935088Y-108947706D01*
X57899236Y-108829516D01*
X57841014Y-108720592D01*
X57762661Y-108625119D01*
X57667188Y-108546766D01*
X57558264Y-108488544D01*
X57440074Y-108452692D01*
X57317160Y-108440586D01*
X56546910Y-108443620D01*
X56390160Y-108600370D01*
X55644160Y-108600370D01*
X55487410Y-108443620D01*
X54717160Y-108440586D01*
X54594246Y-108452692D01*
X54476056Y-108488544D01*
X54367132Y-108546766D01*
X54271659Y-108625119D01*
X54193306Y-108720592D01*
X54135084Y-108829516D01*
X54099232Y-108947706D01*
X54087126Y-109070620D01*
X51928200Y-109070620D01*
X51928200Y-108764000D01*
X51925760Y-108739224D01*
X51918533Y-108715399D01*
X51906797Y-108693443D01*
X51891003Y-108674197D01*
X51871757Y-108658403D01*
X51849801Y-108646667D01*
X51825976Y-108639440D01*
X51801200Y-108637000D01*
X46169606Y-108637000D01*
X46113951Y-101179120D01*
X47158643Y-101179120D01*
X47158643Y-103179120D01*
X47172680Y-103321637D01*
X47214250Y-103458677D01*
X47281757Y-103584973D01*
X47372606Y-103695674D01*
X47483307Y-103786523D01*
X47609603Y-103854030D01*
X47746643Y-103895600D01*
X47889160Y-103909637D01*
X49794160Y-103909637D01*
X49904661Y-103898753D01*
X49904661Y-104606557D01*
X49897514Y-104679120D01*
X49920697Y-104914492D01*
X49926032Y-104968663D01*
X49998631Y-105207988D01*
X50010489Y-105247078D01*
X50147638Y-105503667D01*
X50215264Y-105586069D01*
X50332211Y-105728570D01*
X50388571Y-105774823D01*
X51957840Y-107344094D01*
X52004090Y-107400450D01*
X52060445Y-107446699D01*
X52060447Y-107446701D01*
X52228992Y-107585022D01*
X52310538Y-107628609D01*
X52485582Y-107722172D01*
X52763997Y-107806629D01*
X52980984Y-107828000D01*
X52980989Y-107828000D01*
X53053539Y-107835146D01*
X53126090Y-107828000D01*
X59038008Y-107828000D01*
X59620160Y-108410153D01*
X59620160Y-108981009D01*
X59522686Y-109078483D01*
X59300856Y-109410475D01*
X59148056Y-109779366D01*
X59070160Y-110170978D01*
X59070160Y-110570262D01*
X59148056Y-110961874D01*
X59300856Y-111330765D01*
X59522686Y-111662757D01*
X59805023Y-111945094D01*
X60137015Y-112166924D01*
X60505906Y-112319724D01*
X60897518Y-112397620D01*
X61296802Y-112397620D01*
X61688414Y-112319724D01*
X62057305Y-112166924D01*
X62389297Y-111945094D01*
X62469623Y-111864768D01*
X65210514Y-111864768D01*
X65362097Y-112127043D01*
X65720420Y-112252305D01*
X66096295Y-112305254D01*
X66475277Y-112283856D01*
X66842803Y-112188934D01*
X66992223Y-112127043D01*
X67143806Y-111864768D01*
X66177160Y-110898122D01*
X65210514Y-111864768D01*
X62469623Y-111864768D01*
X62671634Y-111662757D01*
X62893464Y-111330765D01*
X63046264Y-110961874D01*
X63124160Y-110570262D01*
X63124160Y-110289755D01*
X64242526Y-110289755D01*
X64263924Y-110668737D01*
X64358846Y-111036263D01*
X64420737Y-111185683D01*
X64683012Y-111337266D01*
X65649658Y-110370620D01*
X64683012Y-109403974D01*
X64420737Y-109555557D01*
X64295475Y-109913880D01*
X64242526Y-110289755D01*
X63124160Y-110289755D01*
X63124160Y-110170978D01*
X63046264Y-109779366D01*
X62893464Y-109410475D01*
X62671634Y-109078483D01*
X62574160Y-108981009D01*
X62574160Y-107870910D01*
X62581306Y-107798359D01*
X62573802Y-107722171D01*
X62552789Y-107508817D01*
X62468332Y-107230402D01*
X62331183Y-106973814D01*
X62331182Y-106973812D01*
X62207968Y-106823676D01*
X62146610Y-106748910D01*
X62090250Y-106702657D01*
X60745508Y-105357916D01*
X60699250Y-105301550D01*
X60474347Y-105116978D01*
X60217758Y-104979828D01*
X59939343Y-104895371D01*
X59722356Y-104874000D01*
X59722353Y-104874000D01*
X59649800Y-104866854D01*
X59577247Y-104874000D01*
X53665333Y-104874000D01*
X52858660Y-104067327D01*
X52858660Y-103526912D01*
X52984066Y-103629830D01*
X53275834Y-103785783D01*
X53592422Y-103881819D01*
X53921660Y-103914246D01*
X54250899Y-103881819D01*
X54567487Y-103785783D01*
X54859255Y-103629830D01*
X55114992Y-103419952D01*
X55324870Y-103164214D01*
X55480823Y-102872446D01*
X55576859Y-102555858D01*
X55601160Y-102309124D01*
X55601160Y-102049115D01*
X55576859Y-101802381D01*
X55480823Y-101485793D01*
X55324870Y-101194025D01*
X55312638Y-101179120D01*
X59223643Y-101179120D01*
X59223643Y-103179120D01*
X59237680Y-103321637D01*
X59279250Y-103458677D01*
X59346757Y-103584973D01*
X59437606Y-103695674D01*
X59548307Y-103786523D01*
X59674603Y-103854030D01*
X59811643Y-103895600D01*
X59954160Y-103909637D01*
X61859160Y-103909637D01*
X62001677Y-103895600D01*
X62138717Y-103854030D01*
X62173430Y-103835476D01*
X62212638Y-103908829D01*
X62397211Y-104133732D01*
X62622114Y-104318304D01*
X62860999Y-104445991D01*
X67217642Y-108802634D01*
X67143805Y-108876471D01*
X66992223Y-108614197D01*
X66633900Y-108488935D01*
X66258025Y-108435986D01*
X65879043Y-108457384D01*
X65511517Y-108552306D01*
X65362097Y-108614197D01*
X65210514Y-108876472D01*
X66177160Y-109843118D01*
X66191302Y-109828976D01*
X66718804Y-110356478D01*
X66704662Y-110370620D01*
X67671308Y-111337266D01*
X67933583Y-111185683D01*
X68058845Y-110827360D01*
X68111794Y-110451485D01*
X68090396Y-110072503D01*
X67995474Y-109704977D01*
X67933583Y-109555557D01*
X67671309Y-109403975D01*
X67745146Y-109330138D01*
X69290967Y-110875960D01*
X69308056Y-110961874D01*
X69460856Y-111330765D01*
X69682686Y-111662757D01*
X69965023Y-111945094D01*
X70297015Y-112166924D01*
X70665906Y-112319724D01*
X71057518Y-112397620D01*
X71456802Y-112397620D01*
X71848414Y-112319724D01*
X72217305Y-112166924D01*
X72549297Y-111945094D01*
X72629623Y-111864768D01*
X75370514Y-111864768D01*
X75522097Y-112127043D01*
X75880420Y-112252305D01*
X76256295Y-112305254D01*
X76635277Y-112283856D01*
X77002803Y-112188934D01*
X77152223Y-112127043D01*
X77303806Y-111864768D01*
X76337160Y-110898122D01*
X75370514Y-111864768D01*
X72629623Y-111864768D01*
X72831634Y-111662757D01*
X73053464Y-111330765D01*
X73206264Y-110961874D01*
X73284160Y-110570262D01*
X73284160Y-110289755D01*
X74402526Y-110289755D01*
X74423924Y-110668737D01*
X74518846Y-111036263D01*
X74580737Y-111185683D01*
X74843012Y-111337266D01*
X75809658Y-110370620D01*
X76864662Y-110370620D01*
X77831308Y-111337266D01*
X78093583Y-111185683D01*
X78218845Y-110827360D01*
X78271794Y-110451485D01*
X78250396Y-110072503D01*
X78155474Y-109704977D01*
X78093583Y-109555557D01*
X77831308Y-109403974D01*
X76864662Y-110370620D01*
X75809658Y-110370620D01*
X74843012Y-109403974D01*
X74580737Y-109555557D01*
X74455475Y-109913880D01*
X74402526Y-110289755D01*
X73284160Y-110289755D01*
X73284160Y-110170978D01*
X73206264Y-109779366D01*
X73053464Y-109410475D01*
X72831634Y-109078483D01*
X72629623Y-108876472D01*
X75370514Y-108876472D01*
X76337160Y-109843118D01*
X77303806Y-108876472D01*
X77152223Y-108614197D01*
X76793900Y-108488935D01*
X76418025Y-108435986D01*
X76039043Y-108457384D01*
X75671517Y-108552306D01*
X75522097Y-108614197D01*
X75370514Y-108876472D01*
X72629623Y-108876472D01*
X72549297Y-108796146D01*
X72217305Y-108574316D01*
X71848414Y-108421516D01*
X71456802Y-108343620D01*
X71057518Y-108343620D01*
X70956339Y-108363746D01*
X66437518Y-103844926D01*
X66632487Y-103785783D01*
X66924255Y-103629830D01*
X67179992Y-103419952D01*
X67389870Y-103164214D01*
X67545823Y-102872446D01*
X67641859Y-102555858D01*
X67666160Y-102309124D01*
X67666160Y-102049115D01*
X67641859Y-101802381D01*
X67545823Y-101485793D01*
X67389870Y-101194025D01*
X67377638Y-101179120D01*
X71288643Y-101179120D01*
X71288643Y-103179120D01*
X71302680Y-103321637D01*
X71344250Y-103458677D01*
X71411757Y-103584973D01*
X71502606Y-103695674D01*
X71613307Y-103786523D01*
X71739603Y-103854030D01*
X71876643Y-103895600D01*
X72019160Y-103909637D01*
X73924160Y-103909637D01*
X74034660Y-103898753D01*
X74034660Y-104392566D01*
X74027514Y-104465120D01*
X74034660Y-104537673D01*
X74034660Y-104537675D01*
X74056031Y-104754662D01*
X74140488Y-105033077D01*
X74140489Y-105033078D01*
X74277638Y-105289667D01*
X74323162Y-105345138D01*
X74462210Y-105514570D01*
X74518576Y-105560828D01*
X79390160Y-110432414D01*
X79390160Y-110570262D01*
X79468056Y-110961874D01*
X79620856Y-111330765D01*
X79842686Y-111662757D01*
X80125023Y-111945094D01*
X80457015Y-112166924D01*
X80825906Y-112319724D01*
X81217518Y-112397620D01*
X81616802Y-112397620D01*
X82008414Y-112319724D01*
X82377305Y-112166924D01*
X82709297Y-111945094D01*
X82789623Y-111864768D01*
X85530514Y-111864768D01*
X85682097Y-112127043D01*
X86040420Y-112252305D01*
X86416295Y-112305254D01*
X86795277Y-112283856D01*
X87162803Y-112188934D01*
X87312223Y-112127043D01*
X87463806Y-111864768D01*
X86497160Y-110898122D01*
X85530514Y-111864768D01*
X82789623Y-111864768D01*
X82991634Y-111662757D01*
X83213464Y-111330765D01*
X83366264Y-110961874D01*
X83444160Y-110570262D01*
X83444160Y-110289755D01*
X84562526Y-110289755D01*
X84583924Y-110668737D01*
X84678846Y-111036263D01*
X84740737Y-111185683D01*
X85003012Y-111337266D01*
X85969658Y-110370620D01*
X87024662Y-110370620D01*
X87991308Y-111337266D01*
X88253583Y-111185683D01*
X88378845Y-110827360D01*
X88431794Y-110451485D01*
X88410396Y-110072503D01*
X88315474Y-109704977D01*
X88253583Y-109555557D01*
X87991308Y-109403974D01*
X87024662Y-110370620D01*
X85969658Y-110370620D01*
X85003012Y-109403974D01*
X84740737Y-109555557D01*
X84615475Y-109913880D01*
X84562526Y-110289755D01*
X83444160Y-110289755D01*
X83444160Y-110170978D01*
X83366264Y-109779366D01*
X83213464Y-109410475D01*
X82991634Y-109078483D01*
X82789623Y-108876472D01*
X85530514Y-108876472D01*
X86497160Y-109843118D01*
X87463806Y-108876472D01*
X87312223Y-108614197D01*
X86953900Y-108488935D01*
X86578025Y-108435986D01*
X86199043Y-108457384D01*
X85831517Y-108552306D01*
X85682097Y-108614197D01*
X85530514Y-108876472D01*
X82789623Y-108876472D01*
X82709297Y-108796146D01*
X82377305Y-108574316D01*
X82008414Y-108421516D01*
X81616802Y-108343620D01*
X81478954Y-108343620D01*
X76988660Y-103853328D01*
X76988660Y-103526912D01*
X77114066Y-103629830D01*
X77405834Y-103785783D01*
X77722422Y-103881819D01*
X78051660Y-103914246D01*
X78380899Y-103881819D01*
X78697487Y-103785783D01*
X78989255Y-103629830D01*
X79244992Y-103419952D01*
X79454870Y-103164214D01*
X79610823Y-102872446D01*
X79706859Y-102555858D01*
X79731160Y-102309124D01*
X79731160Y-102049115D01*
X79706859Y-101802381D01*
X79610823Y-101485793D01*
X79454870Y-101194025D01*
X79442638Y-101179120D01*
X83353643Y-101179120D01*
X83353643Y-103179120D01*
X83367680Y-103321637D01*
X83409250Y-103458677D01*
X83476757Y-103584973D01*
X83567606Y-103695674D01*
X83678307Y-103786523D01*
X83804603Y-103854030D01*
X83941643Y-103895600D01*
X84084160Y-103909637D01*
X85989160Y-103909637D01*
X86099660Y-103898753D01*
X86099661Y-106297557D01*
X86092514Y-106370120D01*
X86105957Y-106506604D01*
X86121032Y-106659663D01*
X86165201Y-106805268D01*
X86205489Y-106938078D01*
X86342638Y-107194667D01*
X86444736Y-107319074D01*
X86527211Y-107419570D01*
X86583572Y-107465824D01*
X89550160Y-110432413D01*
X89550160Y-110570262D01*
X89628056Y-110961874D01*
X89780856Y-111330765D01*
X90002686Y-111662757D01*
X90285023Y-111945094D01*
X90617015Y-112166924D01*
X90985906Y-112319724D01*
X91377518Y-112397620D01*
X91776802Y-112397620D01*
X92168414Y-112319724D01*
X92537305Y-112166924D01*
X92869297Y-111945094D01*
X92949623Y-111864768D01*
X95690514Y-111864768D01*
X95842097Y-112127043D01*
X96200420Y-112252305D01*
X96576295Y-112305254D01*
X96955277Y-112283856D01*
X97322803Y-112188934D01*
X97472223Y-112127043D01*
X97623806Y-111864768D01*
X96657160Y-110898122D01*
X95690514Y-111864768D01*
X92949623Y-111864768D01*
X93151634Y-111662757D01*
X93373464Y-111330765D01*
X93526264Y-110961874D01*
X93604160Y-110570262D01*
X93604160Y-110289755D01*
X94722526Y-110289755D01*
X94743924Y-110668737D01*
X94838846Y-111036263D01*
X94900737Y-111185683D01*
X95163012Y-111337266D01*
X96129658Y-110370620D01*
X97184662Y-110370620D01*
X98151308Y-111337266D01*
X98413583Y-111185683D01*
X98538845Y-110827360D01*
X98591794Y-110451485D01*
X98570396Y-110072503D01*
X98475474Y-109704977D01*
X98413583Y-109555557D01*
X98151308Y-109403974D01*
X97184662Y-110370620D01*
X96129658Y-110370620D01*
X95163012Y-109403974D01*
X94900737Y-109555557D01*
X94775475Y-109913880D01*
X94722526Y-110289755D01*
X93604160Y-110289755D01*
X93604160Y-110170978D01*
X93526264Y-109779366D01*
X93373464Y-109410475D01*
X93151634Y-109078483D01*
X92949623Y-108876472D01*
X95690514Y-108876472D01*
X96657160Y-109843118D01*
X97623806Y-108876472D01*
X97472223Y-108614197D01*
X97113900Y-108488935D01*
X96738025Y-108435986D01*
X96359043Y-108457384D01*
X95991517Y-108552306D01*
X95842097Y-108614197D01*
X95690514Y-108876472D01*
X92949623Y-108876472D01*
X92869297Y-108796146D01*
X92537305Y-108574316D01*
X92168414Y-108421516D01*
X91776802Y-108343620D01*
X91638953Y-108343620D01*
X89053660Y-105758328D01*
X89053660Y-103526912D01*
X89179066Y-103629830D01*
X89470834Y-103785783D01*
X89787422Y-103881819D01*
X90116660Y-103914246D01*
X90445899Y-103881819D01*
X90762487Y-103785783D01*
X91054255Y-103629830D01*
X91309992Y-103419952D01*
X91519870Y-103164214D01*
X91675823Y-102872446D01*
X91771859Y-102555858D01*
X91796160Y-102309124D01*
X91796160Y-102049115D01*
X91771859Y-101802381D01*
X91675823Y-101485793D01*
X91519870Y-101194025D01*
X91507638Y-101179120D01*
X95418643Y-101179120D01*
X95418643Y-103179120D01*
X95432680Y-103321637D01*
X95474250Y-103458677D01*
X95541757Y-103584973D01*
X95632606Y-103695674D01*
X95743307Y-103786523D01*
X95869603Y-103854030D01*
X96006643Y-103895600D01*
X96149160Y-103909637D01*
X98054160Y-103909637D01*
X98164660Y-103898753D01*
X98164660Y-103954786D01*
X98157514Y-104027340D01*
X98164660Y-104099893D01*
X98164660Y-104099895D01*
X98186031Y-104316882D01*
X98270488Y-104595297D01*
X98334330Y-104714737D01*
X98407638Y-104851887D01*
X98459017Y-104914492D01*
X98592210Y-105076790D01*
X98648576Y-105123048D01*
X100260161Y-106734634D01*
X100260160Y-108981009D01*
X100162686Y-109078483D01*
X99940856Y-109410475D01*
X99788056Y-109779366D01*
X99710160Y-110170978D01*
X99710160Y-110570262D01*
X99788056Y-110961874D01*
X99940856Y-111330765D01*
X100162686Y-111662757D01*
X100445023Y-111945094D01*
X100777015Y-112166924D01*
X101145906Y-112319724D01*
X101537518Y-112397620D01*
X101936802Y-112397620D01*
X102328414Y-112319724D01*
X102697305Y-112166924D01*
X103029297Y-111945094D01*
X103109623Y-111864768D01*
X105850514Y-111864768D01*
X106002097Y-112127043D01*
X106360420Y-112252305D01*
X106736295Y-112305254D01*
X107115277Y-112283856D01*
X107482803Y-112188934D01*
X107632223Y-112127043D01*
X107783806Y-111864768D01*
X106817160Y-110898122D01*
X105850514Y-111864768D01*
X103109623Y-111864768D01*
X103311634Y-111662757D01*
X103533464Y-111330765D01*
X103686264Y-110961874D01*
X103764160Y-110570262D01*
X103764160Y-110289755D01*
X104882526Y-110289755D01*
X104903924Y-110668737D01*
X104998846Y-111036263D01*
X105060737Y-111185683D01*
X105323012Y-111337266D01*
X106289658Y-110370620D01*
X107344662Y-110370620D01*
X108311308Y-111337266D01*
X108573583Y-111185683D01*
X108698845Y-110827360D01*
X108751794Y-110451485D01*
X108730396Y-110072503D01*
X108635474Y-109704977D01*
X108573583Y-109555557D01*
X108311308Y-109403974D01*
X107344662Y-110370620D01*
X106289658Y-110370620D01*
X105323012Y-109403974D01*
X105060737Y-109555557D01*
X104935475Y-109913880D01*
X104882526Y-110289755D01*
X103764160Y-110289755D01*
X103764160Y-110170978D01*
X103686264Y-109779366D01*
X103533464Y-109410475D01*
X103311634Y-109078483D01*
X103214160Y-108981009D01*
X103214160Y-108876472D01*
X105850514Y-108876472D01*
X106817160Y-109843118D01*
X107783806Y-108876472D01*
X107632223Y-108614197D01*
X107273900Y-108488935D01*
X106898025Y-108435986D01*
X106519043Y-108457384D01*
X106151517Y-108552306D01*
X106002097Y-108614197D01*
X105850514Y-108876472D01*
X103214160Y-108876472D01*
X103214160Y-106195393D01*
X103221306Y-106122840D01*
X103214160Y-106050284D01*
X103192789Y-105833297D01*
X103108332Y-105554882D01*
X103069894Y-105482969D01*
X102971183Y-105298293D01*
X102852930Y-105154202D01*
X102786610Y-105073390D01*
X102730249Y-105027136D01*
X101434997Y-103731885D01*
X101535834Y-103785783D01*
X101852422Y-103881819D01*
X102181660Y-103914246D01*
X102510899Y-103881819D01*
X102827487Y-103785783D01*
X103119255Y-103629830D01*
X103374992Y-103419952D01*
X103584870Y-103164214D01*
X103740823Y-102872446D01*
X103836859Y-102555858D01*
X103861160Y-102309124D01*
X103861160Y-102049115D01*
X103836859Y-101802381D01*
X103740823Y-101485793D01*
X103584870Y-101194025D01*
X103572638Y-101179120D01*
X107483643Y-101179120D01*
X107483643Y-103179120D01*
X107497680Y-103321637D01*
X107539250Y-103458677D01*
X107606757Y-103584973D01*
X107697606Y-103695674D01*
X107808307Y-103786523D01*
X107934603Y-103854030D01*
X108071643Y-103895600D01*
X108214160Y-103909637D01*
X110119160Y-103909637D01*
X110229660Y-103898753D01*
X110229661Y-109217705D01*
X110100856Y-109410475D01*
X109948056Y-109779366D01*
X109870160Y-110170978D01*
X109870160Y-110570262D01*
X109948056Y-110961874D01*
X110100856Y-111330765D01*
X110322686Y-111662757D01*
X110605023Y-111945094D01*
X110937015Y-112166924D01*
X111305906Y-112319724D01*
X111697518Y-112397620D01*
X112096802Y-112397620D01*
X112488414Y-112319724D01*
X112857305Y-112166924D01*
X113189297Y-111945094D01*
X113269623Y-111864768D01*
X116010514Y-111864768D01*
X116162097Y-112127043D01*
X116520420Y-112252305D01*
X116896295Y-112305254D01*
X117275277Y-112283856D01*
X117642803Y-112188934D01*
X117792223Y-112127043D01*
X117943806Y-111864768D01*
X116977160Y-110898122D01*
X116010514Y-111864768D01*
X113269623Y-111864768D01*
X113471634Y-111662757D01*
X113693464Y-111330765D01*
X113846264Y-110961874D01*
X113924160Y-110570262D01*
X113924160Y-110289755D01*
X115042526Y-110289755D01*
X115063924Y-110668737D01*
X115158846Y-111036263D01*
X115220737Y-111185683D01*
X115483012Y-111337266D01*
X116449658Y-110370620D01*
X117504662Y-110370620D01*
X118471308Y-111337266D01*
X118733583Y-111185683D01*
X118858845Y-110827360D01*
X118911794Y-110451485D01*
X118890396Y-110072503D01*
X118795474Y-109704977D01*
X118733583Y-109555557D01*
X118471308Y-109403974D01*
X117504662Y-110370620D01*
X116449658Y-110370620D01*
X115483012Y-109403974D01*
X115220737Y-109555557D01*
X115095475Y-109913880D01*
X115042526Y-110289755D01*
X113924160Y-110289755D01*
X113924160Y-110170978D01*
X113846264Y-109779366D01*
X113693464Y-109410475D01*
X113471634Y-109078483D01*
X113269623Y-108876472D01*
X116010514Y-108876472D01*
X116977160Y-109843118D01*
X117943806Y-108876472D01*
X117792223Y-108614197D01*
X117433900Y-108488935D01*
X117058025Y-108435986D01*
X116679043Y-108457384D01*
X116311517Y-108552306D01*
X116162097Y-108614197D01*
X116010514Y-108876472D01*
X113269623Y-108876472D01*
X113189297Y-108796146D01*
X113183660Y-108792379D01*
X113183660Y-103526912D01*
X113309066Y-103629830D01*
X113600834Y-103785783D01*
X113917422Y-103881819D01*
X114246660Y-103914246D01*
X114575899Y-103881819D01*
X114892487Y-103785783D01*
X115184255Y-103629830D01*
X115439992Y-103419952D01*
X115649870Y-103164214D01*
X115805823Y-102872446D01*
X115901859Y-102555858D01*
X115926160Y-102309124D01*
X115926160Y-102049115D01*
X115901859Y-101802381D01*
X115805823Y-101485793D01*
X115649870Y-101194025D01*
X115637638Y-101179120D01*
X119548643Y-101179120D01*
X119548643Y-103179120D01*
X119562680Y-103321637D01*
X119604250Y-103458677D01*
X119671757Y-103584973D01*
X119762606Y-103695674D01*
X119873307Y-103786523D01*
X119999603Y-103854030D01*
X120136643Y-103895600D01*
X120279160Y-103909637D01*
X122184160Y-103909637D01*
X122294660Y-103898753D01*
X122294660Y-104252867D01*
X121064072Y-105483456D01*
X121007711Y-105529710D01*
X120961459Y-105586069D01*
X120823138Y-105754613D01*
X120685989Y-106011202D01*
X120639861Y-106163266D01*
X120601532Y-106289618D01*
X120573014Y-106579160D01*
X120580161Y-106651723D01*
X120580160Y-108981009D01*
X120482686Y-109078483D01*
X120260856Y-109410475D01*
X120108056Y-109779366D01*
X120030160Y-110170978D01*
X120030160Y-110570262D01*
X120108056Y-110961874D01*
X120260856Y-111330765D01*
X120482686Y-111662757D01*
X120765023Y-111945094D01*
X121097015Y-112166924D01*
X121465906Y-112319724D01*
X121857518Y-112397620D01*
X122256802Y-112397620D01*
X122648414Y-112319724D01*
X123017305Y-112166924D01*
X123349297Y-111945094D01*
X123429623Y-111864768D01*
X126170514Y-111864768D01*
X126322097Y-112127043D01*
X126680420Y-112252305D01*
X127056295Y-112305254D01*
X127435277Y-112283856D01*
X127802803Y-112188934D01*
X127952223Y-112127043D01*
X128103806Y-111864768D01*
X127137160Y-110898122D01*
X126170514Y-111864768D01*
X123429623Y-111864768D01*
X123631634Y-111662757D01*
X123853464Y-111330765D01*
X124006264Y-110961874D01*
X124084160Y-110570262D01*
X124084160Y-110289755D01*
X125202526Y-110289755D01*
X125223924Y-110668737D01*
X125318846Y-111036263D01*
X125380737Y-111185683D01*
X125643012Y-111337266D01*
X126609658Y-110370620D01*
X127664662Y-110370620D01*
X128631308Y-111337266D01*
X128893583Y-111185683D01*
X129018845Y-110827360D01*
X129071794Y-110451485D01*
X129050396Y-110072503D01*
X128955474Y-109704977D01*
X128893583Y-109555557D01*
X128631308Y-109403974D01*
X127664662Y-110370620D01*
X126609658Y-110370620D01*
X125643012Y-109403974D01*
X125380737Y-109555557D01*
X125255475Y-109913880D01*
X125202526Y-110289755D01*
X124084160Y-110289755D01*
X124084160Y-110170978D01*
X124006264Y-109779366D01*
X123853464Y-109410475D01*
X123631634Y-109078483D01*
X123534160Y-108981009D01*
X123534160Y-108876472D01*
X126170514Y-108876472D01*
X127137160Y-109843118D01*
X128103806Y-108876472D01*
X127952223Y-108614197D01*
X127593900Y-108488935D01*
X127218025Y-108435986D01*
X126839043Y-108457384D01*
X126471517Y-108552306D01*
X126322097Y-108614197D01*
X126170514Y-108876472D01*
X123534160Y-108876472D01*
X123534160Y-107190952D01*
X124764750Y-105960363D01*
X124821110Y-105914110D01*
X124973378Y-105728570D01*
X125005682Y-105689208D01*
X125092676Y-105526453D01*
X125142832Y-105432618D01*
X125227289Y-105154203D01*
X125248660Y-104937216D01*
X125248660Y-104937211D01*
X125255806Y-104864661D01*
X125248660Y-104792110D01*
X125248660Y-103526912D01*
X125374066Y-103629830D01*
X125665834Y-103785783D01*
X125982422Y-103881819D01*
X126311660Y-103914246D01*
X126640899Y-103881819D01*
X126957487Y-103785783D01*
X127249255Y-103629830D01*
X127504992Y-103419952D01*
X127714870Y-103164214D01*
X127870823Y-102872446D01*
X127966859Y-102555858D01*
X127991160Y-102309124D01*
X127991160Y-102049115D01*
X127966859Y-101802381D01*
X127870823Y-101485793D01*
X127714870Y-101194025D01*
X127504992Y-100938288D01*
X127249254Y-100728410D01*
X126957486Y-100572457D01*
X126640898Y-100476421D01*
X126311660Y-100443994D01*
X125982421Y-100476421D01*
X125665833Y-100572457D01*
X125374065Y-100728410D01*
X125118328Y-100938288D01*
X125041660Y-101031708D01*
X124964992Y-100938288D01*
X124709254Y-100728410D01*
X124417486Y-100572457D01*
X124100898Y-100476421D01*
X123771660Y-100443994D01*
X123442421Y-100476421D01*
X123125833Y-100572457D01*
X122834065Y-100728410D01*
X122786671Y-100767306D01*
X122700714Y-100662566D01*
X122590013Y-100571717D01*
X122463717Y-100504210D01*
X122326677Y-100462640D01*
X122184160Y-100448603D01*
X120279160Y-100448603D01*
X120136643Y-100462640D01*
X119999603Y-100504210D01*
X119873307Y-100571717D01*
X119762606Y-100662566D01*
X119671757Y-100773267D01*
X119604250Y-100899563D01*
X119562680Y-101036603D01*
X119548643Y-101179120D01*
X115637638Y-101179120D01*
X115439992Y-100938288D01*
X115184254Y-100728410D01*
X114892486Y-100572457D01*
X114575898Y-100476421D01*
X114246660Y-100443994D01*
X113917421Y-100476421D01*
X113600833Y-100572457D01*
X113309065Y-100728410D01*
X113053328Y-100938288D01*
X112976660Y-101031708D01*
X112899992Y-100938288D01*
X112644254Y-100728410D01*
X112352486Y-100572457D01*
X112035898Y-100476421D01*
X111706660Y-100443994D01*
X111377421Y-100476421D01*
X111060833Y-100572457D01*
X110769065Y-100728410D01*
X110721671Y-100767306D01*
X110635714Y-100662566D01*
X110525013Y-100571717D01*
X110398717Y-100504210D01*
X110261677Y-100462640D01*
X110119160Y-100448603D01*
X108214160Y-100448603D01*
X108071643Y-100462640D01*
X107934603Y-100504210D01*
X107808307Y-100571717D01*
X107697606Y-100662566D01*
X107606757Y-100773267D01*
X107539250Y-100899563D01*
X107497680Y-101036603D01*
X107483643Y-101179120D01*
X103572638Y-101179120D01*
X103374992Y-100938288D01*
X103119254Y-100728410D01*
X102827486Y-100572457D01*
X102510898Y-100476421D01*
X102181660Y-100443994D01*
X101852421Y-100476421D01*
X101535833Y-100572457D01*
X101244065Y-100728410D01*
X100988328Y-100938288D01*
X100911660Y-101031708D01*
X100834992Y-100938288D01*
X100579254Y-100728410D01*
X100287486Y-100572457D01*
X99970898Y-100476421D01*
X99641660Y-100443994D01*
X99312421Y-100476421D01*
X98995833Y-100572457D01*
X98704065Y-100728410D01*
X98656671Y-100767306D01*
X98570714Y-100662566D01*
X98460013Y-100571717D01*
X98333717Y-100504210D01*
X98196677Y-100462640D01*
X98054160Y-100448603D01*
X96149160Y-100448603D01*
X96006643Y-100462640D01*
X95869603Y-100504210D01*
X95743307Y-100571717D01*
X95632606Y-100662566D01*
X95541757Y-100773267D01*
X95474250Y-100899563D01*
X95432680Y-101036603D01*
X95418643Y-101179120D01*
X91507638Y-101179120D01*
X91309992Y-100938288D01*
X91054254Y-100728410D01*
X90762486Y-100572457D01*
X90445898Y-100476421D01*
X90116660Y-100443994D01*
X89787421Y-100476421D01*
X89470833Y-100572457D01*
X89179065Y-100728410D01*
X88923328Y-100938288D01*
X88846660Y-101031708D01*
X88769992Y-100938288D01*
X88514254Y-100728410D01*
X88222486Y-100572457D01*
X87905898Y-100476421D01*
X87576660Y-100443994D01*
X87247421Y-100476421D01*
X86930833Y-100572457D01*
X86639065Y-100728410D01*
X86591671Y-100767306D01*
X86505714Y-100662566D01*
X86395013Y-100571717D01*
X86268717Y-100504210D01*
X86131677Y-100462640D01*
X85989160Y-100448603D01*
X84084160Y-100448603D01*
X83941643Y-100462640D01*
X83804603Y-100504210D01*
X83678307Y-100571717D01*
X83567606Y-100662566D01*
X83476757Y-100773267D01*
X83409250Y-100899563D01*
X83367680Y-101036603D01*
X83353643Y-101179120D01*
X79442638Y-101179120D01*
X79244992Y-100938288D01*
X78989254Y-100728410D01*
X78697486Y-100572457D01*
X78380898Y-100476421D01*
X78051660Y-100443994D01*
X77722421Y-100476421D01*
X77405833Y-100572457D01*
X77114065Y-100728410D01*
X76858328Y-100938288D01*
X76781660Y-101031708D01*
X76704992Y-100938288D01*
X76449254Y-100728410D01*
X76157486Y-100572457D01*
X75840898Y-100476421D01*
X75511660Y-100443994D01*
X75182421Y-100476421D01*
X74865833Y-100572457D01*
X74574065Y-100728410D01*
X74526671Y-100767306D01*
X74440714Y-100662566D01*
X74330013Y-100571717D01*
X74203717Y-100504210D01*
X74066677Y-100462640D01*
X73924160Y-100448603D01*
X72019160Y-100448603D01*
X71876643Y-100462640D01*
X71739603Y-100504210D01*
X71613307Y-100571717D01*
X71502606Y-100662566D01*
X71411757Y-100773267D01*
X71344250Y-100899563D01*
X71302680Y-101036603D01*
X71288643Y-101179120D01*
X67377638Y-101179120D01*
X67179992Y-100938288D01*
X66924254Y-100728410D01*
X66632486Y-100572457D01*
X66315898Y-100476421D01*
X65986660Y-100443994D01*
X65657421Y-100476421D01*
X65340833Y-100572457D01*
X65049065Y-100728410D01*
X64793328Y-100938288D01*
X64716660Y-101031708D01*
X64639992Y-100938288D01*
X64384254Y-100728410D01*
X64092486Y-100572457D01*
X63775898Y-100476421D01*
X63446660Y-100443994D01*
X63117421Y-100476421D01*
X62800833Y-100572457D01*
X62509065Y-100728410D01*
X62461671Y-100767306D01*
X62375714Y-100662566D01*
X62265013Y-100571717D01*
X62138717Y-100504210D01*
X62001677Y-100462640D01*
X61859160Y-100448603D01*
X59954160Y-100448603D01*
X59811643Y-100462640D01*
X59674603Y-100504210D01*
X59548307Y-100571717D01*
X59437606Y-100662566D01*
X59346757Y-100773267D01*
X59279250Y-100899563D01*
X59237680Y-101036603D01*
X59223643Y-101179120D01*
X55312638Y-101179120D01*
X55114992Y-100938288D01*
X54859254Y-100728410D01*
X54567486Y-100572457D01*
X54250898Y-100476421D01*
X53921660Y-100443994D01*
X53592421Y-100476421D01*
X53275833Y-100572457D01*
X52984065Y-100728410D01*
X52728328Y-100938288D01*
X52651660Y-101031708D01*
X52574992Y-100938288D01*
X52319254Y-100728410D01*
X52027486Y-100572457D01*
X51710898Y-100476421D01*
X51381660Y-100443994D01*
X51052421Y-100476421D01*
X50735833Y-100572457D01*
X50444065Y-100728410D01*
X50396671Y-100767306D01*
X50310714Y-100662566D01*
X50200013Y-100571717D01*
X50073717Y-100504210D01*
X49936677Y-100462640D01*
X49794160Y-100448603D01*
X47889160Y-100448603D01*
X47746643Y-100462640D01*
X47609603Y-100504210D01*
X47483307Y-100571717D01*
X47372606Y-100662566D01*
X47281757Y-100773267D01*
X47214250Y-100899563D01*
X47172680Y-101036603D01*
X47158643Y-101179120D01*
X46113951Y-101179120D01*
X46101225Y-99473896D01*
X46118697Y-99201903D01*
X46173872Y-98939663D01*
X46265911Y-98687986D01*
X46392932Y-98452020D01*
X46552335Y-98236598D01*
X46740847Y-98046140D01*
X46954619Y-97884536D01*
X47189270Y-97755099D01*
X47439989Y-97660480D01*
X47701645Y-97602618D01*
X47973438Y-97582355D01*
X134578848Y-97339593D01*
X134849136Y-97358105D01*
G04 #@! TA.AperFunction,Conductor*
D41*
G36*
X134849136Y-97358105D02*
G01*
X135109646Y-97413838D01*
X135359604Y-97505970D01*
X135593959Y-97632636D01*
X135807979Y-97791282D01*
X135997311Y-97978681D01*
X136158142Y-98191057D01*
X136287208Y-98424100D01*
X136381904Y-98673107D01*
X136440307Y-98933021D01*
X136461594Y-99203118D01*
X136471789Y-100569212D01*
X136165898Y-100476421D01*
X135836660Y-100443994D01*
X135507421Y-100476421D01*
X135190833Y-100572457D01*
X134899065Y-100728410D01*
X134851671Y-100767306D01*
X134765714Y-100662566D01*
X134655013Y-100571717D01*
X134528717Y-100504210D01*
X134391677Y-100462640D01*
X134249160Y-100448603D01*
X132344160Y-100448603D01*
X132201643Y-100462640D01*
X132064603Y-100504210D01*
X131938307Y-100571717D01*
X131827606Y-100662566D01*
X131736757Y-100773267D01*
X131669250Y-100899563D01*
X131627680Y-101036603D01*
X131613643Y-101179120D01*
X131613643Y-103179120D01*
X131627680Y-103321637D01*
X131669250Y-103458677D01*
X131736757Y-103584973D01*
X131827606Y-103695674D01*
X131938307Y-103786523D01*
X132064603Y-103854030D01*
X132201643Y-103895600D01*
X132344160Y-103909637D01*
X134249160Y-103909637D01*
X134359660Y-103898753D01*
X134359661Y-106139326D01*
X132155368Y-108343620D01*
X132017518Y-108343620D01*
X131625906Y-108421516D01*
X131257015Y-108574316D01*
X130925023Y-108796146D01*
X130642686Y-109078483D01*
X130420856Y-109410475D01*
X130268056Y-109779366D01*
X130190160Y-110170978D01*
X130190160Y-110570262D01*
X130268056Y-110961874D01*
X130420856Y-111330765D01*
X130642686Y-111662757D01*
X130925023Y-111945094D01*
X131257015Y-112166924D01*
X131625906Y-112319724D01*
X132017518Y-112397620D01*
X132416802Y-112397620D01*
X132808414Y-112319724D01*
X133177305Y-112166924D01*
X133509297Y-111945094D01*
X133791634Y-111662757D01*
X134013464Y-111330765D01*
X134166264Y-110961874D01*
X134244160Y-110570262D01*
X134244160Y-110432412D01*
X136528348Y-108148225D01*
X136558675Y-112212104D01*
X136541203Y-112484097D01*
X136486028Y-112746337D01*
X136393989Y-112998014D01*
X136266968Y-113233980D01*
X136107565Y-113449402D01*
X135919053Y-113639860D01*
X135705281Y-113801464D01*
X135470630Y-113930901D01*
X135219911Y-114025520D01*
X134958255Y-114083382D01*
X134686462Y-114103645D01*
X51928200Y-114335623D01*
X51928200Y-111670620D01*
X54087126Y-111670620D01*
X54099232Y-111793534D01*
X54135084Y-111911724D01*
X54193306Y-112020648D01*
X54271659Y-112116121D01*
X54367132Y-112194474D01*
X54476056Y-112252696D01*
X54594246Y-112288548D01*
X54717160Y-112300654D01*
X55487410Y-112297620D01*
X55644160Y-112140870D01*
X55644160Y-110743620D01*
X56390160Y-110743620D01*
X56390160Y-112140870D01*
X56546910Y-112297620D01*
X57317160Y-112300654D01*
X57440074Y-112288548D01*
X57558264Y-112252696D01*
X57667188Y-112194474D01*
X57762661Y-112116121D01*
X57841014Y-112020648D01*
X57899236Y-111911724D01*
X57935088Y-111793534D01*
X57947194Y-111670620D01*
X57944160Y-110900370D01*
X57787410Y-110743620D01*
X56390160Y-110743620D01*
X55644160Y-110743620D01*
X54246910Y-110743620D01*
X54090160Y-110900370D01*
X54087126Y-111670620D01*
X51928200Y-111670620D01*
X51928200Y-109070620D01*
X54087126Y-109070620D01*
X54090160Y-109840870D01*
X54246910Y-109997620D01*
X55644160Y-109997620D01*
X55644160Y-108600370D01*
X56390160Y-108600370D01*
X56390160Y-109997620D01*
X57787410Y-109997620D01*
X57944160Y-109840870D01*
X57947194Y-109070620D01*
X57935088Y-108947706D01*
X57899236Y-108829516D01*
X57841014Y-108720592D01*
X57762661Y-108625119D01*
X57667188Y-108546766D01*
X57558264Y-108488544D01*
X57440074Y-108452692D01*
X57317160Y-108440586D01*
X56546910Y-108443620D01*
X56390160Y-108600370D01*
X55644160Y-108600370D01*
X55487410Y-108443620D01*
X54717160Y-108440586D01*
X54594246Y-108452692D01*
X54476056Y-108488544D01*
X54367132Y-108546766D01*
X54271659Y-108625119D01*
X54193306Y-108720592D01*
X54135084Y-108829516D01*
X54099232Y-108947706D01*
X54087126Y-109070620D01*
X51928200Y-109070620D01*
X51928200Y-108764000D01*
X51925760Y-108739224D01*
X51918533Y-108715399D01*
X51906797Y-108693443D01*
X51891003Y-108674197D01*
X51871757Y-108658403D01*
X51849801Y-108646667D01*
X51825976Y-108639440D01*
X51801200Y-108637000D01*
X46169606Y-108637000D01*
X46113951Y-101179120D01*
X47158643Y-101179120D01*
X47158643Y-103179120D01*
X47172680Y-103321637D01*
X47214250Y-103458677D01*
X47281757Y-103584973D01*
X47372606Y-103695674D01*
X47483307Y-103786523D01*
X47609603Y-103854030D01*
X47746643Y-103895600D01*
X47889160Y-103909637D01*
X49794160Y-103909637D01*
X49904661Y-103898753D01*
X49904661Y-104606557D01*
X49897514Y-104679120D01*
X49920697Y-104914492D01*
X49926032Y-104968663D01*
X49998631Y-105207988D01*
X50010489Y-105247078D01*
X50147638Y-105503667D01*
X50215264Y-105586069D01*
X50332211Y-105728570D01*
X50388571Y-105774823D01*
X51957840Y-107344094D01*
X52004090Y-107400450D01*
X52060445Y-107446699D01*
X52060447Y-107446701D01*
X52228992Y-107585022D01*
X52310538Y-107628609D01*
X52485582Y-107722172D01*
X52763997Y-107806629D01*
X52980984Y-107828000D01*
X52980989Y-107828000D01*
X53053539Y-107835146D01*
X53126090Y-107828000D01*
X59038008Y-107828000D01*
X59620160Y-108410153D01*
X59620160Y-108981009D01*
X59522686Y-109078483D01*
X59300856Y-109410475D01*
X59148056Y-109779366D01*
X59070160Y-110170978D01*
X59070160Y-110570262D01*
X59148056Y-110961874D01*
X59300856Y-111330765D01*
X59522686Y-111662757D01*
X59805023Y-111945094D01*
X60137015Y-112166924D01*
X60505906Y-112319724D01*
X60897518Y-112397620D01*
X61296802Y-112397620D01*
X61688414Y-112319724D01*
X62057305Y-112166924D01*
X62389297Y-111945094D01*
X62469623Y-111864768D01*
X65210514Y-111864768D01*
X65362097Y-112127043D01*
X65720420Y-112252305D01*
X66096295Y-112305254D01*
X66475277Y-112283856D01*
X66842803Y-112188934D01*
X66992223Y-112127043D01*
X67143806Y-111864768D01*
X66177160Y-110898122D01*
X65210514Y-111864768D01*
X62469623Y-111864768D01*
X62671634Y-111662757D01*
X62893464Y-111330765D01*
X63046264Y-110961874D01*
X63124160Y-110570262D01*
X63124160Y-110289755D01*
X64242526Y-110289755D01*
X64263924Y-110668737D01*
X64358846Y-111036263D01*
X64420737Y-111185683D01*
X64683012Y-111337266D01*
X65649658Y-110370620D01*
X64683012Y-109403974D01*
X64420737Y-109555557D01*
X64295475Y-109913880D01*
X64242526Y-110289755D01*
X63124160Y-110289755D01*
X63124160Y-110170978D01*
X63046264Y-109779366D01*
X62893464Y-109410475D01*
X62671634Y-109078483D01*
X62574160Y-108981009D01*
X62574160Y-107870910D01*
X62581306Y-107798359D01*
X62573802Y-107722171D01*
X62552789Y-107508817D01*
X62468332Y-107230402D01*
X62331183Y-106973814D01*
X62331182Y-106973812D01*
X62207968Y-106823676D01*
X62146610Y-106748910D01*
X62090250Y-106702657D01*
X60745508Y-105357916D01*
X60699250Y-105301550D01*
X60474347Y-105116978D01*
X60217758Y-104979828D01*
X59939343Y-104895371D01*
X59722356Y-104874000D01*
X59722353Y-104874000D01*
X59649800Y-104866854D01*
X59577247Y-104874000D01*
X53665333Y-104874000D01*
X52858660Y-104067327D01*
X52858660Y-103526912D01*
X52984066Y-103629830D01*
X53275834Y-103785783D01*
X53592422Y-103881819D01*
X53921660Y-103914246D01*
X54250899Y-103881819D01*
X54567487Y-103785783D01*
X54859255Y-103629830D01*
X55114992Y-103419952D01*
X55324870Y-103164214D01*
X55480823Y-102872446D01*
X55576859Y-102555858D01*
X55601160Y-102309124D01*
X55601160Y-102049115D01*
X55576859Y-101802381D01*
X55480823Y-101485793D01*
X55324870Y-101194025D01*
X55312638Y-101179120D01*
X59223643Y-101179120D01*
X59223643Y-103179120D01*
X59237680Y-103321637D01*
X59279250Y-103458677D01*
X59346757Y-103584973D01*
X59437606Y-103695674D01*
X59548307Y-103786523D01*
X59674603Y-103854030D01*
X59811643Y-103895600D01*
X59954160Y-103909637D01*
X61859160Y-103909637D01*
X62001677Y-103895600D01*
X62138717Y-103854030D01*
X62173430Y-103835476D01*
X62212638Y-103908829D01*
X62397211Y-104133732D01*
X62622114Y-104318304D01*
X62860999Y-104445991D01*
X67217642Y-108802634D01*
X67143805Y-108876471D01*
X66992223Y-108614197D01*
X66633900Y-108488935D01*
X66258025Y-108435986D01*
X65879043Y-108457384D01*
X65511517Y-108552306D01*
X65362097Y-108614197D01*
X65210514Y-108876472D01*
X66177160Y-109843118D01*
X66191302Y-109828976D01*
X66718804Y-110356478D01*
X66704662Y-110370620D01*
X67671308Y-111337266D01*
X67933583Y-111185683D01*
X68058845Y-110827360D01*
X68111794Y-110451485D01*
X68090396Y-110072503D01*
X67995474Y-109704977D01*
X67933583Y-109555557D01*
X67671309Y-109403975D01*
X67745146Y-109330138D01*
X69290967Y-110875960D01*
X69308056Y-110961874D01*
X69460856Y-111330765D01*
X69682686Y-111662757D01*
X69965023Y-111945094D01*
X70297015Y-112166924D01*
X70665906Y-112319724D01*
X71057518Y-112397620D01*
X71456802Y-112397620D01*
X71848414Y-112319724D01*
X72217305Y-112166924D01*
X72549297Y-111945094D01*
X72629623Y-111864768D01*
X75370514Y-111864768D01*
X75522097Y-112127043D01*
X75880420Y-112252305D01*
X76256295Y-112305254D01*
X76635277Y-112283856D01*
X77002803Y-112188934D01*
X77152223Y-112127043D01*
X77303806Y-111864768D01*
X76337160Y-110898122D01*
X75370514Y-111864768D01*
X72629623Y-111864768D01*
X72831634Y-111662757D01*
X73053464Y-111330765D01*
X73206264Y-110961874D01*
X73284160Y-110570262D01*
X73284160Y-110289755D01*
X74402526Y-110289755D01*
X74423924Y-110668737D01*
X74518846Y-111036263D01*
X74580737Y-111185683D01*
X74843012Y-111337266D01*
X75809658Y-110370620D01*
X76864662Y-110370620D01*
X77831308Y-111337266D01*
X78093583Y-111185683D01*
X78218845Y-110827360D01*
X78271794Y-110451485D01*
X78250396Y-110072503D01*
X78155474Y-109704977D01*
X78093583Y-109555557D01*
X77831308Y-109403974D01*
X76864662Y-110370620D01*
X75809658Y-110370620D01*
X74843012Y-109403974D01*
X74580737Y-109555557D01*
X74455475Y-109913880D01*
X74402526Y-110289755D01*
X73284160Y-110289755D01*
X73284160Y-110170978D01*
X73206264Y-109779366D01*
X73053464Y-109410475D01*
X72831634Y-109078483D01*
X72629623Y-108876472D01*
X75370514Y-108876472D01*
X76337160Y-109843118D01*
X77303806Y-108876472D01*
X77152223Y-108614197D01*
X76793900Y-108488935D01*
X76418025Y-108435986D01*
X76039043Y-108457384D01*
X75671517Y-108552306D01*
X75522097Y-108614197D01*
X75370514Y-108876472D01*
X72629623Y-108876472D01*
X72549297Y-108796146D01*
X72217305Y-108574316D01*
X71848414Y-108421516D01*
X71456802Y-108343620D01*
X71057518Y-108343620D01*
X70956339Y-108363746D01*
X66437518Y-103844926D01*
X66632487Y-103785783D01*
X66924255Y-103629830D01*
X67179992Y-103419952D01*
X67389870Y-103164214D01*
X67545823Y-102872446D01*
X67641859Y-102555858D01*
X67666160Y-102309124D01*
X67666160Y-102049115D01*
X67641859Y-101802381D01*
X67545823Y-101485793D01*
X67389870Y-101194025D01*
X67377638Y-101179120D01*
X71288643Y-101179120D01*
X71288643Y-103179120D01*
X71302680Y-103321637D01*
X71344250Y-103458677D01*
X71411757Y-103584973D01*
X71502606Y-103695674D01*
X71613307Y-103786523D01*
X71739603Y-103854030D01*
X71876643Y-103895600D01*
X72019160Y-103909637D01*
X73924160Y-103909637D01*
X74034660Y-103898753D01*
X74034660Y-104392566D01*
X74027514Y-104465120D01*
X74034660Y-104537673D01*
X74034660Y-104537675D01*
X74056031Y-104754662D01*
X74140488Y-105033077D01*
X74140489Y-105033078D01*
X74277638Y-105289667D01*
X74323162Y-105345138D01*
X74462210Y-105514570D01*
X74518576Y-105560828D01*
X79390160Y-110432414D01*
X79390160Y-110570262D01*
X79468056Y-110961874D01*
X79620856Y-111330765D01*
X79842686Y-111662757D01*
X80125023Y-111945094D01*
X80457015Y-112166924D01*
X80825906Y-112319724D01*
X81217518Y-112397620D01*
X81616802Y-112397620D01*
X82008414Y-112319724D01*
X82377305Y-112166924D01*
X82709297Y-111945094D01*
X82789623Y-111864768D01*
X85530514Y-111864768D01*
X85682097Y-112127043D01*
X86040420Y-112252305D01*
X86416295Y-112305254D01*
X86795277Y-112283856D01*
X87162803Y-112188934D01*
X87312223Y-112127043D01*
X87463806Y-111864768D01*
X86497160Y-110898122D01*
X85530514Y-111864768D01*
X82789623Y-111864768D01*
X82991634Y-111662757D01*
X83213464Y-111330765D01*
X83366264Y-110961874D01*
X83444160Y-110570262D01*
X83444160Y-110289755D01*
X84562526Y-110289755D01*
X84583924Y-110668737D01*
X84678846Y-111036263D01*
X84740737Y-111185683D01*
X85003012Y-111337266D01*
X85969658Y-110370620D01*
X87024662Y-110370620D01*
X87991308Y-111337266D01*
X88253583Y-111185683D01*
X88378845Y-110827360D01*
X88431794Y-110451485D01*
X88410396Y-110072503D01*
X88315474Y-109704977D01*
X88253583Y-109555557D01*
X87991308Y-109403974D01*
X87024662Y-110370620D01*
X85969658Y-110370620D01*
X85003012Y-109403974D01*
X84740737Y-109555557D01*
X84615475Y-109913880D01*
X84562526Y-110289755D01*
X83444160Y-110289755D01*
X83444160Y-110170978D01*
X83366264Y-109779366D01*
X83213464Y-109410475D01*
X82991634Y-109078483D01*
X82789623Y-108876472D01*
X85530514Y-108876472D01*
X86497160Y-109843118D01*
X87463806Y-108876472D01*
X87312223Y-108614197D01*
X86953900Y-108488935D01*
X86578025Y-108435986D01*
X86199043Y-108457384D01*
X85831517Y-108552306D01*
X85682097Y-108614197D01*
X85530514Y-108876472D01*
X82789623Y-108876472D01*
X82709297Y-108796146D01*
X82377305Y-108574316D01*
X82008414Y-108421516D01*
X81616802Y-108343620D01*
X81478954Y-108343620D01*
X76988660Y-103853328D01*
X76988660Y-103526912D01*
X77114066Y-103629830D01*
X77405834Y-103785783D01*
X77722422Y-103881819D01*
X78051660Y-103914246D01*
X78380899Y-103881819D01*
X78697487Y-103785783D01*
X78989255Y-103629830D01*
X79244992Y-103419952D01*
X79454870Y-103164214D01*
X79610823Y-102872446D01*
X79706859Y-102555858D01*
X79731160Y-102309124D01*
X79731160Y-102049115D01*
X79706859Y-101802381D01*
X79610823Y-101485793D01*
X79454870Y-101194025D01*
X79442638Y-101179120D01*
X83353643Y-101179120D01*
X83353643Y-103179120D01*
X83367680Y-103321637D01*
X83409250Y-103458677D01*
X83476757Y-103584973D01*
X83567606Y-103695674D01*
X83678307Y-103786523D01*
X83804603Y-103854030D01*
X83941643Y-103895600D01*
X84084160Y-103909637D01*
X85989160Y-103909637D01*
X86099660Y-103898753D01*
X86099661Y-106297557D01*
X86092514Y-106370120D01*
X86105957Y-106506604D01*
X86121032Y-106659663D01*
X86165201Y-106805268D01*
X86205489Y-106938078D01*
X86342638Y-107194667D01*
X86444736Y-107319074D01*
X86527211Y-107419570D01*
X86583572Y-107465824D01*
X89550160Y-110432413D01*
X89550160Y-110570262D01*
X89628056Y-110961874D01*
X89780856Y-111330765D01*
X90002686Y-111662757D01*
X90285023Y-111945094D01*
X90617015Y-112166924D01*
X90985906Y-112319724D01*
X91377518Y-112397620D01*
X91776802Y-112397620D01*
X92168414Y-112319724D01*
X92537305Y-112166924D01*
X92869297Y-111945094D01*
X92949623Y-111864768D01*
X95690514Y-111864768D01*
X95842097Y-112127043D01*
X96200420Y-112252305D01*
X96576295Y-112305254D01*
X96955277Y-112283856D01*
X97322803Y-112188934D01*
X97472223Y-112127043D01*
X97623806Y-111864768D01*
X96657160Y-110898122D01*
X95690514Y-111864768D01*
X92949623Y-111864768D01*
X93151634Y-111662757D01*
X93373464Y-111330765D01*
X93526264Y-110961874D01*
X93604160Y-110570262D01*
X93604160Y-110289755D01*
X94722526Y-110289755D01*
X94743924Y-110668737D01*
X94838846Y-111036263D01*
X94900737Y-111185683D01*
X95163012Y-111337266D01*
X96129658Y-110370620D01*
X97184662Y-110370620D01*
X98151308Y-111337266D01*
X98413583Y-111185683D01*
X98538845Y-110827360D01*
X98591794Y-110451485D01*
X98570396Y-110072503D01*
X98475474Y-109704977D01*
X98413583Y-109555557D01*
X98151308Y-109403974D01*
X97184662Y-110370620D01*
X96129658Y-110370620D01*
X95163012Y-109403974D01*
X94900737Y-109555557D01*
X94775475Y-109913880D01*
X94722526Y-110289755D01*
X93604160Y-110289755D01*
X93604160Y-110170978D01*
X93526264Y-109779366D01*
X93373464Y-109410475D01*
X93151634Y-109078483D01*
X92949623Y-108876472D01*
X95690514Y-108876472D01*
X96657160Y-109843118D01*
X97623806Y-108876472D01*
X97472223Y-108614197D01*
X97113900Y-108488935D01*
X96738025Y-108435986D01*
X96359043Y-108457384D01*
X95991517Y-108552306D01*
X95842097Y-108614197D01*
X95690514Y-108876472D01*
X92949623Y-108876472D01*
X92869297Y-108796146D01*
X92537305Y-108574316D01*
X92168414Y-108421516D01*
X91776802Y-108343620D01*
X91638953Y-108343620D01*
X89053660Y-105758328D01*
X89053660Y-103526912D01*
X89179066Y-103629830D01*
X89470834Y-103785783D01*
X89787422Y-103881819D01*
X90116660Y-103914246D01*
X90445899Y-103881819D01*
X90762487Y-103785783D01*
X91054255Y-103629830D01*
X91309992Y-103419952D01*
X91519870Y-103164214D01*
X91675823Y-102872446D01*
X91771859Y-102555858D01*
X91796160Y-102309124D01*
X91796160Y-102049115D01*
X91771859Y-101802381D01*
X91675823Y-101485793D01*
X91519870Y-101194025D01*
X91507638Y-101179120D01*
X95418643Y-101179120D01*
X95418643Y-103179120D01*
X95432680Y-103321637D01*
X95474250Y-103458677D01*
X95541757Y-103584973D01*
X95632606Y-103695674D01*
X95743307Y-103786523D01*
X95869603Y-103854030D01*
X96006643Y-103895600D01*
X96149160Y-103909637D01*
X98054160Y-103909637D01*
X98164660Y-103898753D01*
X98164660Y-103954786D01*
X98157514Y-104027340D01*
X98164660Y-104099893D01*
X98164660Y-104099895D01*
X98186031Y-104316882D01*
X98270488Y-104595297D01*
X98334330Y-104714737D01*
X98407638Y-104851887D01*
X98459017Y-104914492D01*
X98592210Y-105076790D01*
X98648576Y-105123048D01*
X100260161Y-106734634D01*
X100260160Y-108981009D01*
X100162686Y-109078483D01*
X99940856Y-109410475D01*
X99788056Y-109779366D01*
X99710160Y-110170978D01*
X99710160Y-110570262D01*
X99788056Y-110961874D01*
X99940856Y-111330765D01*
X100162686Y-111662757D01*
X100445023Y-111945094D01*
X100777015Y-112166924D01*
X101145906Y-112319724D01*
X101537518Y-112397620D01*
X101936802Y-112397620D01*
X102328414Y-112319724D01*
X102697305Y-112166924D01*
X103029297Y-111945094D01*
X103109623Y-111864768D01*
X105850514Y-111864768D01*
X106002097Y-112127043D01*
X106360420Y-112252305D01*
X106736295Y-112305254D01*
X107115277Y-112283856D01*
X107482803Y-112188934D01*
X107632223Y-112127043D01*
X107783806Y-111864768D01*
X106817160Y-110898122D01*
X105850514Y-111864768D01*
X103109623Y-111864768D01*
X103311634Y-111662757D01*
X103533464Y-111330765D01*
X103686264Y-110961874D01*
X103764160Y-110570262D01*
X103764160Y-110289755D01*
X104882526Y-110289755D01*
X104903924Y-110668737D01*
X104998846Y-111036263D01*
X105060737Y-111185683D01*
X105323012Y-111337266D01*
X106289658Y-110370620D01*
X107344662Y-110370620D01*
X108311308Y-111337266D01*
X108573583Y-111185683D01*
X108698845Y-110827360D01*
X108751794Y-110451485D01*
X108730396Y-110072503D01*
X108635474Y-109704977D01*
X108573583Y-109555557D01*
X108311308Y-109403974D01*
X107344662Y-110370620D01*
X106289658Y-110370620D01*
X105323012Y-109403974D01*
X105060737Y-109555557D01*
X104935475Y-109913880D01*
X104882526Y-110289755D01*
X103764160Y-110289755D01*
X103764160Y-110170978D01*
X103686264Y-109779366D01*
X103533464Y-109410475D01*
X103311634Y-109078483D01*
X103214160Y-108981009D01*
X103214160Y-108876472D01*
X105850514Y-108876472D01*
X106817160Y-109843118D01*
X107783806Y-108876472D01*
X107632223Y-108614197D01*
X107273900Y-108488935D01*
X106898025Y-108435986D01*
X106519043Y-108457384D01*
X106151517Y-108552306D01*
X106002097Y-108614197D01*
X105850514Y-108876472D01*
X103214160Y-108876472D01*
X103214160Y-106195393D01*
X103221306Y-106122840D01*
X103214160Y-106050284D01*
X103192789Y-105833297D01*
X103108332Y-105554882D01*
X103069894Y-105482969D01*
X102971183Y-105298293D01*
X102852930Y-105154202D01*
X102786610Y-105073390D01*
X102730249Y-105027136D01*
X101434997Y-103731885D01*
X101535834Y-103785783D01*
X101852422Y-103881819D01*
X102181660Y-103914246D01*
X102510899Y-103881819D01*
X102827487Y-103785783D01*
X103119255Y-103629830D01*
X103374992Y-103419952D01*
X103584870Y-103164214D01*
X103740823Y-102872446D01*
X103836859Y-102555858D01*
X103861160Y-102309124D01*
X103861160Y-102049115D01*
X103836859Y-101802381D01*
X103740823Y-101485793D01*
X103584870Y-101194025D01*
X103572638Y-101179120D01*
X107483643Y-101179120D01*
X107483643Y-103179120D01*
X107497680Y-103321637D01*
X107539250Y-103458677D01*
X107606757Y-103584973D01*
X107697606Y-103695674D01*
X107808307Y-103786523D01*
X107934603Y-103854030D01*
X108071643Y-103895600D01*
X108214160Y-103909637D01*
X110119160Y-103909637D01*
X110229660Y-103898753D01*
X110229661Y-109217705D01*
X110100856Y-109410475D01*
X109948056Y-109779366D01*
X109870160Y-110170978D01*
X109870160Y-110570262D01*
X109948056Y-110961874D01*
X110100856Y-111330765D01*
X110322686Y-111662757D01*
X110605023Y-111945094D01*
X110937015Y-112166924D01*
X111305906Y-112319724D01*
X111697518Y-112397620D01*
X112096802Y-112397620D01*
X112488414Y-112319724D01*
X112857305Y-112166924D01*
X113189297Y-111945094D01*
X113269623Y-111864768D01*
X116010514Y-111864768D01*
X116162097Y-112127043D01*
X116520420Y-112252305D01*
X116896295Y-112305254D01*
X117275277Y-112283856D01*
X117642803Y-112188934D01*
X117792223Y-112127043D01*
X117943806Y-111864768D01*
X116977160Y-110898122D01*
X116010514Y-111864768D01*
X113269623Y-111864768D01*
X113471634Y-111662757D01*
X113693464Y-111330765D01*
X113846264Y-110961874D01*
X113924160Y-110570262D01*
X113924160Y-110289755D01*
X115042526Y-110289755D01*
X115063924Y-110668737D01*
X115158846Y-111036263D01*
X115220737Y-111185683D01*
X115483012Y-111337266D01*
X116449658Y-110370620D01*
X117504662Y-110370620D01*
X118471308Y-111337266D01*
X118733583Y-111185683D01*
X118858845Y-110827360D01*
X118911794Y-110451485D01*
X118890396Y-110072503D01*
X118795474Y-109704977D01*
X118733583Y-109555557D01*
X118471308Y-109403974D01*
X117504662Y-110370620D01*
X116449658Y-110370620D01*
X115483012Y-109403974D01*
X115220737Y-109555557D01*
X115095475Y-109913880D01*
X115042526Y-110289755D01*
X113924160Y-110289755D01*
X113924160Y-110170978D01*
X113846264Y-109779366D01*
X113693464Y-109410475D01*
X113471634Y-109078483D01*
X113269623Y-108876472D01*
X116010514Y-108876472D01*
X116977160Y-109843118D01*
X117943806Y-108876472D01*
X117792223Y-108614197D01*
X117433900Y-108488935D01*
X117058025Y-108435986D01*
X116679043Y-108457384D01*
X116311517Y-108552306D01*
X116162097Y-108614197D01*
X116010514Y-108876472D01*
X113269623Y-108876472D01*
X113189297Y-108796146D01*
X113183660Y-108792379D01*
X113183660Y-103526912D01*
X113309066Y-103629830D01*
X113600834Y-103785783D01*
X113917422Y-103881819D01*
X114246660Y-103914246D01*
X114575899Y-103881819D01*
X114892487Y-103785783D01*
X115184255Y-103629830D01*
X115439992Y-103419952D01*
X115649870Y-103164214D01*
X115805823Y-102872446D01*
X115901859Y-102555858D01*
X115926160Y-102309124D01*
X115926160Y-102049115D01*
X115901859Y-101802381D01*
X115805823Y-101485793D01*
X115649870Y-101194025D01*
X115637638Y-101179120D01*
X119548643Y-101179120D01*
X119548643Y-103179120D01*
X119562680Y-103321637D01*
X119604250Y-103458677D01*
X119671757Y-103584973D01*
X119762606Y-103695674D01*
X119873307Y-103786523D01*
X119999603Y-103854030D01*
X120136643Y-103895600D01*
X120279160Y-103909637D01*
X122184160Y-103909637D01*
X122294660Y-103898753D01*
X122294660Y-104252867D01*
X121064072Y-105483456D01*
X121007711Y-105529710D01*
X120961459Y-105586069D01*
X120823138Y-105754613D01*
X120685989Y-106011202D01*
X120639861Y-106163266D01*
X120601532Y-106289618D01*
X120573014Y-106579160D01*
X120580161Y-106651723D01*
X120580160Y-108981009D01*
X120482686Y-109078483D01*
X120260856Y-109410475D01*
X120108056Y-109779366D01*
X120030160Y-110170978D01*
X120030160Y-110570262D01*
X120108056Y-110961874D01*
X120260856Y-111330765D01*
X120482686Y-111662757D01*
X120765023Y-111945094D01*
X121097015Y-112166924D01*
X121465906Y-112319724D01*
X121857518Y-112397620D01*
X122256802Y-112397620D01*
X122648414Y-112319724D01*
X123017305Y-112166924D01*
X123349297Y-111945094D01*
X123429623Y-111864768D01*
X126170514Y-111864768D01*
X126322097Y-112127043D01*
X126680420Y-112252305D01*
X127056295Y-112305254D01*
X127435277Y-112283856D01*
X127802803Y-112188934D01*
X127952223Y-112127043D01*
X128103806Y-111864768D01*
X127137160Y-110898122D01*
X126170514Y-111864768D01*
X123429623Y-111864768D01*
X123631634Y-111662757D01*
X123853464Y-111330765D01*
X124006264Y-110961874D01*
X124084160Y-110570262D01*
X124084160Y-110289755D01*
X125202526Y-110289755D01*
X125223924Y-110668737D01*
X125318846Y-111036263D01*
X125380737Y-111185683D01*
X125643012Y-111337266D01*
X126609658Y-110370620D01*
X127664662Y-110370620D01*
X128631308Y-111337266D01*
X128893583Y-111185683D01*
X129018845Y-110827360D01*
X129071794Y-110451485D01*
X129050396Y-110072503D01*
X128955474Y-109704977D01*
X128893583Y-109555557D01*
X128631308Y-109403974D01*
X127664662Y-110370620D01*
X126609658Y-110370620D01*
X125643012Y-109403974D01*
X125380737Y-109555557D01*
X125255475Y-109913880D01*
X125202526Y-110289755D01*
X124084160Y-110289755D01*
X124084160Y-110170978D01*
X124006264Y-109779366D01*
X123853464Y-109410475D01*
X123631634Y-109078483D01*
X123534160Y-108981009D01*
X123534160Y-108876472D01*
X126170514Y-108876472D01*
X127137160Y-109843118D01*
X128103806Y-108876472D01*
X127952223Y-108614197D01*
X127593900Y-108488935D01*
X127218025Y-108435986D01*
X126839043Y-108457384D01*
X126471517Y-108552306D01*
X126322097Y-108614197D01*
X126170514Y-108876472D01*
X123534160Y-108876472D01*
X123534160Y-107190952D01*
X124764750Y-105960363D01*
X124821110Y-105914110D01*
X124973378Y-105728570D01*
X125005682Y-105689208D01*
X125092676Y-105526453D01*
X125142832Y-105432618D01*
X125227289Y-105154203D01*
X125248660Y-104937216D01*
X125248660Y-104937211D01*
X125255806Y-104864661D01*
X125248660Y-104792110D01*
X125248660Y-103526912D01*
X125374066Y-103629830D01*
X125665834Y-103785783D01*
X125982422Y-103881819D01*
X126311660Y-103914246D01*
X126640899Y-103881819D01*
X126957487Y-103785783D01*
X127249255Y-103629830D01*
X127504992Y-103419952D01*
X127714870Y-103164214D01*
X127870823Y-102872446D01*
X127966859Y-102555858D01*
X127991160Y-102309124D01*
X127991160Y-102049115D01*
X127966859Y-101802381D01*
X127870823Y-101485793D01*
X127714870Y-101194025D01*
X127504992Y-100938288D01*
X127249254Y-100728410D01*
X126957486Y-100572457D01*
X126640898Y-100476421D01*
X126311660Y-100443994D01*
X125982421Y-100476421D01*
X125665833Y-100572457D01*
X125374065Y-100728410D01*
X125118328Y-100938288D01*
X125041660Y-101031708D01*
X124964992Y-100938288D01*
X124709254Y-100728410D01*
X124417486Y-100572457D01*
X124100898Y-100476421D01*
X123771660Y-100443994D01*
X123442421Y-100476421D01*
X123125833Y-100572457D01*
X122834065Y-100728410D01*
X122786671Y-100767306D01*
X122700714Y-100662566D01*
X122590013Y-100571717D01*
X122463717Y-100504210D01*
X122326677Y-100462640D01*
X122184160Y-100448603D01*
X120279160Y-100448603D01*
X120136643Y-100462640D01*
X119999603Y-100504210D01*
X119873307Y-100571717D01*
X119762606Y-100662566D01*
X119671757Y-100773267D01*
X119604250Y-100899563D01*
X119562680Y-101036603D01*
X119548643Y-101179120D01*
X115637638Y-101179120D01*
X115439992Y-100938288D01*
X115184254Y-100728410D01*
X114892486Y-100572457D01*
X114575898Y-100476421D01*
X114246660Y-100443994D01*
X113917421Y-100476421D01*
X113600833Y-100572457D01*
X113309065Y-100728410D01*
X113053328Y-100938288D01*
X112976660Y-101031708D01*
X112899992Y-100938288D01*
X112644254Y-100728410D01*
X112352486Y-100572457D01*
X112035898Y-100476421D01*
X111706660Y-100443994D01*
X111377421Y-100476421D01*
X111060833Y-100572457D01*
X110769065Y-100728410D01*
X110721671Y-100767306D01*
X110635714Y-100662566D01*
X110525013Y-100571717D01*
X110398717Y-100504210D01*
X110261677Y-100462640D01*
X110119160Y-100448603D01*
X108214160Y-100448603D01*
X108071643Y-100462640D01*
X107934603Y-100504210D01*
X107808307Y-100571717D01*
X107697606Y-100662566D01*
X107606757Y-100773267D01*
X107539250Y-100899563D01*
X107497680Y-101036603D01*
X107483643Y-101179120D01*
X103572638Y-101179120D01*
X103374992Y-100938288D01*
X103119254Y-100728410D01*
X102827486Y-100572457D01*
X102510898Y-100476421D01*
X102181660Y-100443994D01*
X101852421Y-100476421D01*
X101535833Y-100572457D01*
X101244065Y-100728410D01*
X100988328Y-100938288D01*
X100911660Y-101031708D01*
X100834992Y-100938288D01*
X100579254Y-100728410D01*
X100287486Y-100572457D01*
X99970898Y-100476421D01*
X99641660Y-100443994D01*
X99312421Y-100476421D01*
X98995833Y-100572457D01*
X98704065Y-100728410D01*
X98656671Y-100767306D01*
X98570714Y-100662566D01*
X98460013Y-100571717D01*
X98333717Y-100504210D01*
X98196677Y-100462640D01*
X98054160Y-100448603D01*
X96149160Y-100448603D01*
X96006643Y-100462640D01*
X95869603Y-100504210D01*
X95743307Y-100571717D01*
X95632606Y-100662566D01*
X95541757Y-100773267D01*
X95474250Y-100899563D01*
X95432680Y-101036603D01*
X95418643Y-101179120D01*
X91507638Y-101179120D01*
X91309992Y-100938288D01*
X91054254Y-100728410D01*
X90762486Y-100572457D01*
X90445898Y-100476421D01*
X90116660Y-100443994D01*
X89787421Y-100476421D01*
X89470833Y-100572457D01*
X89179065Y-100728410D01*
X88923328Y-100938288D01*
X88846660Y-101031708D01*
X88769992Y-100938288D01*
X88514254Y-100728410D01*
X88222486Y-100572457D01*
X87905898Y-100476421D01*
X87576660Y-100443994D01*
X87247421Y-100476421D01*
X86930833Y-100572457D01*
X86639065Y-100728410D01*
X86591671Y-100767306D01*
X86505714Y-100662566D01*
X86395013Y-100571717D01*
X86268717Y-100504210D01*
X86131677Y-100462640D01*
X85989160Y-100448603D01*
X84084160Y-100448603D01*
X83941643Y-100462640D01*
X83804603Y-100504210D01*
X83678307Y-100571717D01*
X83567606Y-100662566D01*
X83476757Y-100773267D01*
X83409250Y-100899563D01*
X83367680Y-101036603D01*
X83353643Y-101179120D01*
X79442638Y-101179120D01*
X79244992Y-100938288D01*
X78989254Y-100728410D01*
X78697486Y-100572457D01*
X78380898Y-100476421D01*
X78051660Y-100443994D01*
X77722421Y-100476421D01*
X77405833Y-100572457D01*
X77114065Y-100728410D01*
X76858328Y-100938288D01*
X76781660Y-101031708D01*
X76704992Y-100938288D01*
X76449254Y-100728410D01*
X76157486Y-100572457D01*
X75840898Y-100476421D01*
X75511660Y-100443994D01*
X75182421Y-100476421D01*
X74865833Y-100572457D01*
X74574065Y-100728410D01*
X74526671Y-100767306D01*
X74440714Y-100662566D01*
X74330013Y-100571717D01*
X74203717Y-100504210D01*
X74066677Y-100462640D01*
X73924160Y-100448603D01*
X72019160Y-100448603D01*
X71876643Y-100462640D01*
X71739603Y-100504210D01*
X71613307Y-100571717D01*
X71502606Y-100662566D01*
X71411757Y-100773267D01*
X71344250Y-100899563D01*
X71302680Y-101036603D01*
X71288643Y-101179120D01*
X67377638Y-101179120D01*
X67179992Y-100938288D01*
X66924254Y-100728410D01*
X66632486Y-100572457D01*
X66315898Y-100476421D01*
X65986660Y-100443994D01*
X65657421Y-100476421D01*
X65340833Y-100572457D01*
X65049065Y-100728410D01*
X64793328Y-100938288D01*
X64716660Y-101031708D01*
X64639992Y-100938288D01*
X64384254Y-100728410D01*
X64092486Y-100572457D01*
X63775898Y-100476421D01*
X63446660Y-100443994D01*
X63117421Y-100476421D01*
X62800833Y-100572457D01*
X62509065Y-100728410D01*
X62461671Y-100767306D01*
X62375714Y-100662566D01*
X62265013Y-100571717D01*
X62138717Y-100504210D01*
X62001677Y-100462640D01*
X61859160Y-100448603D01*
X59954160Y-100448603D01*
X59811643Y-100462640D01*
X59674603Y-100504210D01*
X59548307Y-100571717D01*
X59437606Y-100662566D01*
X59346757Y-100773267D01*
X59279250Y-100899563D01*
X59237680Y-101036603D01*
X59223643Y-101179120D01*
X55312638Y-101179120D01*
X55114992Y-100938288D01*
X54859254Y-100728410D01*
X54567486Y-100572457D01*
X54250898Y-100476421D01*
X53921660Y-100443994D01*
X53592421Y-100476421D01*
X53275833Y-100572457D01*
X52984065Y-100728410D01*
X52728328Y-100938288D01*
X52651660Y-101031708D01*
X52574992Y-100938288D01*
X52319254Y-100728410D01*
X52027486Y-100572457D01*
X51710898Y-100476421D01*
X51381660Y-100443994D01*
X51052421Y-100476421D01*
X50735833Y-100572457D01*
X50444065Y-100728410D01*
X50396671Y-100767306D01*
X50310714Y-100662566D01*
X50200013Y-100571717D01*
X50073717Y-100504210D01*
X49936677Y-100462640D01*
X49794160Y-100448603D01*
X47889160Y-100448603D01*
X47746643Y-100462640D01*
X47609603Y-100504210D01*
X47483307Y-100571717D01*
X47372606Y-100662566D01*
X47281757Y-100773267D01*
X47214250Y-100899563D01*
X47172680Y-101036603D01*
X47158643Y-101179120D01*
X46113951Y-101179120D01*
X46101225Y-99473896D01*
X46118697Y-99201903D01*
X46173872Y-98939663D01*
X46265911Y-98687986D01*
X46392932Y-98452020D01*
X46552335Y-98236598D01*
X46740847Y-98046140D01*
X46954619Y-97884536D01*
X47189270Y-97755099D01*
X47439989Y-97660480D01*
X47701645Y-97602618D01*
X47973438Y-97582355D01*
X134578848Y-97339593D01*
X134849136Y-97358105D01*
G37*
G04 #@! TD.AperFunction*
G04 #@! TD*
D38*
G04 #@! TO.N,+24V*
X94968160Y-73000870D02*
X95126910Y-73159620D01*
X96276160Y-73159620D01*
X96276160Y-73139620D01*
X96530160Y-73139620D01*
X96530160Y-73159620D01*
X97679410Y-73159620D01*
X97838160Y-73000870D01*
X97839981Y-72696000D01*
X98917872Y-72696000D01*
X99022457Y-72709769D01*
X99112155Y-72746923D01*
X99189176Y-72806024D01*
X99248277Y-72883045D01*
X99285431Y-72972743D01*
X99299200Y-73077328D01*
X99299200Y-76512433D01*
X99300291Y-76529043D01*
X99317396Y-76658704D01*
X99326010Y-76690786D01*
X99376153Y-76811576D01*
X99392793Y-76840328D01*
X99472545Y-76943983D01*
X99496072Y-76967436D01*
X99599976Y-77046863D01*
X99628778Y-77063412D01*
X99749724Y-77113178D01*
X99781835Y-77121693D01*
X99911550Y-77138391D01*
X99928162Y-77139429D01*
X105096538Y-77123255D01*
X105202806Y-77137136D01*
X105293813Y-77175175D01*
X105371616Y-77235801D01*
X105430744Y-77314751D01*
X105467038Y-77406469D01*
X105478884Y-77512981D01*
X105439124Y-79299813D01*
X105417073Y-79422726D01*
X105363206Y-79524198D01*
X105280913Y-79604354D01*
X105178060Y-79655533D01*
X105054604Y-79674344D01*
X99137479Y-79650334D01*
X99120624Y-79651389D01*
X98989038Y-79668461D01*
X98956486Y-79677194D01*
X98834023Y-79728277D01*
X98804913Y-79745265D01*
X98700200Y-79826761D01*
X98676585Y-79850806D01*
X98596994Y-79956976D01*
X98580535Y-79986388D01*
X98531674Y-80109753D01*
X98523531Y-80142457D01*
X98508839Y-80274331D01*
X98508089Y-80291203D01*
X98553984Y-82364756D01*
X98540179Y-82478763D01*
X98498468Y-82575853D01*
X98425276Y-82664348D01*
X95103714Y-85679775D01*
X95007405Y-85744663D01*
X94905467Y-85776686D01*
X94798630Y-85778386D01*
X94695722Y-85749618D01*
X94605255Y-85692763D01*
X94534702Y-85612520D01*
X94489892Y-85515515D01*
X94473200Y-85400600D01*
X94473200Y-79952304D01*
X94492158Y-80014800D01*
X94551123Y-80125114D01*
X94630475Y-80221805D01*
X94727166Y-80301157D01*
X94837480Y-80360122D01*
X94957178Y-80396432D01*
X95081660Y-80408692D01*
X95545910Y-80405620D01*
X95704660Y-80246870D01*
X95704660Y-78747620D01*
X95958660Y-78747620D01*
X95958660Y-80246870D01*
X96117410Y-80405620D01*
X96581660Y-80408692D01*
X96706142Y-80396432D01*
X96825840Y-80360122D01*
X96936154Y-80301157D01*
X97032845Y-80221805D01*
X97112197Y-80125114D01*
X97171162Y-80014800D01*
X97207472Y-79895102D01*
X97219732Y-79770620D01*
X97216660Y-78906370D01*
X97057910Y-78747620D01*
X95958660Y-78747620D01*
X95704660Y-78747620D01*
X95684660Y-78747620D01*
X95684660Y-78493620D01*
X95704660Y-78493620D01*
X95704660Y-76994370D01*
X95958660Y-76994370D01*
X95958660Y-78493620D01*
X97057910Y-78493620D01*
X97216660Y-78334870D01*
X97219732Y-77470620D01*
X97207472Y-77346138D01*
X97171162Y-77226440D01*
X97112197Y-77116126D01*
X97032845Y-77019435D01*
X96936154Y-76940083D01*
X96825840Y-76881118D01*
X96706142Y-76844808D01*
X96581660Y-76832548D01*
X96117410Y-76835620D01*
X95958660Y-76994370D01*
X95704660Y-76994370D01*
X95545910Y-76835620D01*
X95081660Y-76832548D01*
X94957178Y-76844808D01*
X94837480Y-76881118D01*
X94727166Y-76940083D01*
X94630475Y-77019435D01*
X94551123Y-77116126D01*
X94492158Y-77226440D01*
X94473200Y-77288936D01*
X94473200Y-74086620D01*
X94965088Y-74086620D01*
X94977348Y-74211102D01*
X95013658Y-74330800D01*
X95072623Y-74441114D01*
X95151975Y-74537805D01*
X95248666Y-74617157D01*
X95358980Y-74676122D01*
X95478678Y-74712432D01*
X95603160Y-74724692D01*
X96117410Y-74721620D01*
X96276160Y-74562870D01*
X96276160Y-73413620D01*
X96530160Y-73413620D01*
X96530160Y-74562870D01*
X96688910Y-74721620D01*
X97203160Y-74724692D01*
X97327642Y-74712432D01*
X97447340Y-74676122D01*
X97557654Y-74617157D01*
X97654345Y-74537805D01*
X97733697Y-74441114D01*
X97792662Y-74330800D01*
X97828972Y-74211102D01*
X97841232Y-74086620D01*
X97838160Y-73572370D01*
X97679410Y-73413620D01*
X96530160Y-73413620D01*
X96276160Y-73413620D01*
X95126910Y-73413620D01*
X94968160Y-73572370D01*
X94965088Y-74086620D01*
X94473200Y-74086620D01*
X94473200Y-73077328D01*
X94486969Y-72972743D01*
X94524123Y-72883045D01*
X94583224Y-72806024D01*
X94660245Y-72746923D01*
X94749943Y-72709769D01*
X94854528Y-72696000D01*
X94966339Y-72696000D01*
X94968160Y-73000870D01*
G04 #@! TA.AperFunction,Conductor*
D41*
G36*
X94968160Y-73000870D02*
G01*
X95126910Y-73159620D01*
X96276160Y-73159620D01*
X96276160Y-73139620D01*
X96530160Y-73139620D01*
X96530160Y-73159620D01*
X97679410Y-73159620D01*
X97838160Y-73000870D01*
X97839981Y-72696000D01*
X98917872Y-72696000D01*
X99022457Y-72709769D01*
X99112155Y-72746923D01*
X99189176Y-72806024D01*
X99248277Y-72883045D01*
X99285431Y-72972743D01*
X99299200Y-73077328D01*
X99299200Y-76512433D01*
X99300291Y-76529043D01*
X99317396Y-76658704D01*
X99326010Y-76690786D01*
X99376153Y-76811576D01*
X99392793Y-76840328D01*
X99472545Y-76943983D01*
X99496072Y-76967436D01*
X99599976Y-77046863D01*
X99628778Y-77063412D01*
X99749724Y-77113178D01*
X99781835Y-77121693D01*
X99911550Y-77138391D01*
X99928162Y-77139429D01*
X105096538Y-77123255D01*
X105202806Y-77137136D01*
X105293813Y-77175175D01*
X105371616Y-77235801D01*
X105430744Y-77314751D01*
X105467038Y-77406469D01*
X105478884Y-77512981D01*
X105439124Y-79299813D01*
X105417073Y-79422726D01*
X105363206Y-79524198D01*
X105280913Y-79604354D01*
X105178060Y-79655533D01*
X105054604Y-79674344D01*
X99137479Y-79650334D01*
X99120624Y-79651389D01*
X98989038Y-79668461D01*
X98956486Y-79677194D01*
X98834023Y-79728277D01*
X98804913Y-79745265D01*
X98700200Y-79826761D01*
X98676585Y-79850806D01*
X98596994Y-79956976D01*
X98580535Y-79986388D01*
X98531674Y-80109753D01*
X98523531Y-80142457D01*
X98508839Y-80274331D01*
X98508089Y-80291203D01*
X98553984Y-82364756D01*
X98540179Y-82478763D01*
X98498468Y-82575853D01*
X98425276Y-82664348D01*
X95103714Y-85679775D01*
X95007405Y-85744663D01*
X94905467Y-85776686D01*
X94798630Y-85778386D01*
X94695722Y-85749618D01*
X94605255Y-85692763D01*
X94534702Y-85612520D01*
X94489892Y-85515515D01*
X94473200Y-85400600D01*
X94473200Y-79952304D01*
X94492158Y-80014800D01*
X94551123Y-80125114D01*
X94630475Y-80221805D01*
X94727166Y-80301157D01*
X94837480Y-80360122D01*
X94957178Y-80396432D01*
X95081660Y-80408692D01*
X95545910Y-80405620D01*
X95704660Y-80246870D01*
X95704660Y-78747620D01*
X95958660Y-78747620D01*
X95958660Y-80246870D01*
X96117410Y-80405620D01*
X96581660Y-80408692D01*
X96706142Y-80396432D01*
X96825840Y-80360122D01*
X96936154Y-80301157D01*
X97032845Y-80221805D01*
X97112197Y-80125114D01*
X97171162Y-80014800D01*
X97207472Y-79895102D01*
X97219732Y-79770620D01*
X97216660Y-78906370D01*
X97057910Y-78747620D01*
X95958660Y-78747620D01*
X95704660Y-78747620D01*
X95684660Y-78747620D01*
X95684660Y-78493620D01*
X95704660Y-78493620D01*
X95704660Y-76994370D01*
X95958660Y-76994370D01*
X95958660Y-78493620D01*
X97057910Y-78493620D01*
X97216660Y-78334870D01*
X97219732Y-77470620D01*
X97207472Y-77346138D01*
X97171162Y-77226440D01*
X97112197Y-77116126D01*
X97032845Y-77019435D01*
X96936154Y-76940083D01*
X96825840Y-76881118D01*
X96706142Y-76844808D01*
X96581660Y-76832548D01*
X96117410Y-76835620D01*
X95958660Y-76994370D01*
X95704660Y-76994370D01*
X95545910Y-76835620D01*
X95081660Y-76832548D01*
X94957178Y-76844808D01*
X94837480Y-76881118D01*
X94727166Y-76940083D01*
X94630475Y-77019435D01*
X94551123Y-77116126D01*
X94492158Y-77226440D01*
X94473200Y-77288936D01*
X94473200Y-74086620D01*
X94965088Y-74086620D01*
X94977348Y-74211102D01*
X95013658Y-74330800D01*
X95072623Y-74441114D01*
X95151975Y-74537805D01*
X95248666Y-74617157D01*
X95358980Y-74676122D01*
X95478678Y-74712432D01*
X95603160Y-74724692D01*
X96117410Y-74721620D01*
X96276160Y-74562870D01*
X96276160Y-73413620D01*
X96530160Y-73413620D01*
X96530160Y-74562870D01*
X96688910Y-74721620D01*
X97203160Y-74724692D01*
X97327642Y-74712432D01*
X97447340Y-74676122D01*
X97557654Y-74617157D01*
X97654345Y-74537805D01*
X97733697Y-74441114D01*
X97792662Y-74330800D01*
X97828972Y-74211102D01*
X97841232Y-74086620D01*
X97838160Y-73572370D01*
X97679410Y-73413620D01*
X96530160Y-73413620D01*
X96276160Y-73413620D01*
X95126910Y-73413620D01*
X94968160Y-73572370D01*
X94965088Y-74086620D01*
X94473200Y-74086620D01*
X94473200Y-73077328D01*
X94486969Y-72972743D01*
X94524123Y-72883045D01*
X94583224Y-72806024D01*
X94660245Y-72746923D01*
X94749943Y-72709769D01*
X94854528Y-72696000D01*
X94966339Y-72696000D01*
X94968160Y-73000870D01*
G37*
G04 #@! TD.AperFunction*
G04 #@! TD*
D38*
G04 #@! TO.N,+24V*
X97339251Y-86729303D02*
X97254500Y-86729303D01*
X97111983Y-86743340D01*
X96974943Y-86784910D01*
X96848647Y-86852417D01*
X96737946Y-86943266D01*
X96647097Y-87053967D01*
X96579590Y-87180263D01*
X96538020Y-87317303D01*
X96523983Y-87459820D01*
X96523983Y-88958420D01*
X96538020Y-89100937D01*
X96579590Y-89237977D01*
X96647097Y-89364273D01*
X96737946Y-89474974D01*
X96848647Y-89565823D01*
X96974943Y-89633330D01*
X97018557Y-89646560D01*
X96857083Y-89808034D01*
X96695520Y-90049830D01*
X96584234Y-90318499D01*
X96527500Y-90603717D01*
X96527500Y-90894523D01*
X96584234Y-91179741D01*
X96695520Y-91448410D01*
X96857083Y-91690206D01*
X97062714Y-91895837D01*
X97247220Y-92019120D01*
X97062714Y-92142403D01*
X96857083Y-92348034D01*
X96695520Y-92589830D01*
X96584234Y-92858499D01*
X96527500Y-93143717D01*
X96527500Y-93434523D01*
X96584234Y-93719741D01*
X96695520Y-93988410D01*
X96857083Y-94230206D01*
X97062714Y-94435837D01*
X97247220Y-94559120D01*
X97062714Y-94682403D01*
X96857083Y-94888034D01*
X96695520Y-95129830D01*
X96584234Y-95398499D01*
X96527500Y-95683717D01*
X96527500Y-95974523D01*
X96584234Y-96259741D01*
X96695520Y-96528410D01*
X96857083Y-96770206D01*
X97062714Y-96975837D01*
X97279700Y-97120823D01*
X97267891Y-99181558D01*
X93647700Y-99359600D01*
X93647700Y-97137727D01*
X93648490Y-97137400D01*
X93890286Y-96975837D01*
X94095917Y-96770206D01*
X94257480Y-96528410D01*
X94368766Y-96259741D01*
X94425500Y-95974523D01*
X94425500Y-95683717D01*
X94368766Y-95398499D01*
X94257480Y-95129830D01*
X94095917Y-94888034D01*
X93890286Y-94682403D01*
X93705780Y-94559120D01*
X93890286Y-94435837D01*
X94095917Y-94230206D01*
X94257480Y-93988410D01*
X94368766Y-93719741D01*
X94425500Y-93434523D01*
X94425500Y-93143717D01*
X94368766Y-92858499D01*
X94257480Y-92589830D01*
X94095917Y-92348034D01*
X93890286Y-92142403D01*
X93705780Y-92019120D01*
X93890286Y-91895837D01*
X94095917Y-91690206D01*
X94257480Y-91448410D01*
X94368766Y-91179741D01*
X94425500Y-90894523D01*
X94425500Y-90603717D01*
X94368766Y-90318499D01*
X94257480Y-90049830D01*
X94095917Y-89808034D01*
X93890286Y-89602403D01*
X93705780Y-89479120D01*
X93890286Y-89355837D01*
X94095917Y-89150206D01*
X94257480Y-88908410D01*
X94368766Y-88639741D01*
X94425500Y-88354523D01*
X94425500Y-88063717D01*
X94368766Y-87778499D01*
X94257480Y-87509830D01*
X94095917Y-87268034D01*
X93890286Y-87062403D01*
X93648490Y-86900840D01*
X93647700Y-86900513D01*
X93647700Y-82706655D01*
X95312850Y-80407162D01*
X95545910Y-80405620D01*
X95704660Y-80246870D01*
X95704660Y-79866091D01*
X95958660Y-79515329D01*
X95958660Y-80246870D01*
X96117410Y-80405620D01*
X96581660Y-80408692D01*
X96706142Y-80396432D01*
X96825840Y-80360122D01*
X96936154Y-80301157D01*
X97032845Y-80221805D01*
X97112197Y-80125114D01*
X97171162Y-80014800D01*
X97207472Y-79895102D01*
X97219732Y-79770620D01*
X97216660Y-78906370D01*
X97057910Y-78747620D01*
X96514587Y-78747620D01*
X96698518Y-78493620D01*
X97057910Y-78493620D01*
X97216660Y-78334870D01*
X97218649Y-77775345D01*
X97391934Y-77536046D01*
X97339251Y-86729303D01*
G04 #@! TA.AperFunction,Conductor*
D41*
G36*
X97339251Y-86729303D02*
G01*
X97254500Y-86729303D01*
X97111983Y-86743340D01*
X96974943Y-86784910D01*
X96848647Y-86852417D01*
X96737946Y-86943266D01*
X96647097Y-87053967D01*
X96579590Y-87180263D01*
X96538020Y-87317303D01*
X96523983Y-87459820D01*
X96523983Y-88958420D01*
X96538020Y-89100937D01*
X96579590Y-89237977D01*
X96647097Y-89364273D01*
X96737946Y-89474974D01*
X96848647Y-89565823D01*
X96974943Y-89633330D01*
X97018557Y-89646560D01*
X96857083Y-89808034D01*
X96695520Y-90049830D01*
X96584234Y-90318499D01*
X96527500Y-90603717D01*
X96527500Y-90894523D01*
X96584234Y-91179741D01*
X96695520Y-91448410D01*
X96857083Y-91690206D01*
X97062714Y-91895837D01*
X97247220Y-92019120D01*
X97062714Y-92142403D01*
X96857083Y-92348034D01*
X96695520Y-92589830D01*
X96584234Y-92858499D01*
X96527500Y-93143717D01*
X96527500Y-93434523D01*
X96584234Y-93719741D01*
X96695520Y-93988410D01*
X96857083Y-94230206D01*
X97062714Y-94435837D01*
X97247220Y-94559120D01*
X97062714Y-94682403D01*
X96857083Y-94888034D01*
X96695520Y-95129830D01*
X96584234Y-95398499D01*
X96527500Y-95683717D01*
X96527500Y-95974523D01*
X96584234Y-96259741D01*
X96695520Y-96528410D01*
X96857083Y-96770206D01*
X97062714Y-96975837D01*
X97279700Y-97120823D01*
X97267891Y-99181558D01*
X93647700Y-99359600D01*
X93647700Y-97137727D01*
X93648490Y-97137400D01*
X93890286Y-96975837D01*
X94095917Y-96770206D01*
X94257480Y-96528410D01*
X94368766Y-96259741D01*
X94425500Y-95974523D01*
X94425500Y-95683717D01*
X94368766Y-95398499D01*
X94257480Y-95129830D01*
X94095917Y-94888034D01*
X93890286Y-94682403D01*
X93705780Y-94559120D01*
X93890286Y-94435837D01*
X94095917Y-94230206D01*
X94257480Y-93988410D01*
X94368766Y-93719741D01*
X94425500Y-93434523D01*
X94425500Y-93143717D01*
X94368766Y-92858499D01*
X94257480Y-92589830D01*
X94095917Y-92348034D01*
X93890286Y-92142403D01*
X93705780Y-92019120D01*
X93890286Y-91895837D01*
X94095917Y-91690206D01*
X94257480Y-91448410D01*
X94368766Y-91179741D01*
X94425500Y-90894523D01*
X94425500Y-90603717D01*
X94368766Y-90318499D01*
X94257480Y-90049830D01*
X94095917Y-89808034D01*
X93890286Y-89602403D01*
X93705780Y-89479120D01*
X93890286Y-89355837D01*
X94095917Y-89150206D01*
X94257480Y-88908410D01*
X94368766Y-88639741D01*
X94425500Y-88354523D01*
X94425500Y-88063717D01*
X94368766Y-87778499D01*
X94257480Y-87509830D01*
X94095917Y-87268034D01*
X93890286Y-87062403D01*
X93648490Y-86900840D01*
X93647700Y-86900513D01*
X93647700Y-82706655D01*
X95312850Y-80407162D01*
X95545910Y-80405620D01*
X95704660Y-80246870D01*
X95704660Y-79866091D01*
X95958660Y-79515329D01*
X95958660Y-80246870D01*
X96117410Y-80405620D01*
X96581660Y-80408692D01*
X96706142Y-80396432D01*
X96825840Y-80360122D01*
X96936154Y-80301157D01*
X97032845Y-80221805D01*
X97112197Y-80125114D01*
X97171162Y-80014800D01*
X97207472Y-79895102D01*
X97219732Y-79770620D01*
X97216660Y-78906370D01*
X97057910Y-78747620D01*
X96514587Y-78747620D01*
X96698518Y-78493620D01*
X97057910Y-78493620D01*
X97216660Y-78334870D01*
X97218649Y-77775345D01*
X97391934Y-77536046D01*
X97339251Y-86729303D01*
G37*
G04 #@! TD.AperFunction*
G04 #@! TD*
D38*
G04 #@! TO.N,+24V_SW*
X122677176Y-70808376D02*
X122840837Y-70858022D01*
X122991658Y-70938637D01*
X123128696Y-71051102D01*
X123173504Y-71095910D01*
X123182739Y-71104279D01*
X123334275Y-71228642D01*
X123354976Y-71242474D01*
X123527863Y-71334884D01*
X123550864Y-71344412D01*
X123738457Y-71401317D01*
X123762875Y-71406173D01*
X123957966Y-71425388D01*
X123970414Y-71426000D01*
X126857695Y-71426000D01*
X126688101Y-71595594D01*
X126520990Y-71845694D01*
X126405881Y-72123590D01*
X126347200Y-72418604D01*
X126347200Y-72719396D01*
X126405881Y-73014410D01*
X126520990Y-73292306D01*
X126688101Y-73542406D01*
X126900794Y-73755099D01*
X127150894Y-73922210D01*
X127428790Y-74037319D01*
X127723804Y-74096000D01*
X128024596Y-74096000D01*
X128319610Y-74037319D01*
X128597506Y-73922210D01*
X128847606Y-73755099D01*
X129060299Y-73542406D01*
X129227410Y-73292306D01*
X129342519Y-73014410D01*
X129401200Y-72719396D01*
X129401200Y-72418604D01*
X129342519Y-72123590D01*
X129227410Y-71845694D01*
X129060299Y-71595594D01*
X128890705Y-71426000D01*
X139694966Y-71426000D01*
X139871389Y-71443376D01*
X140035050Y-71493022D01*
X140185872Y-71573638D01*
X140318070Y-71682130D01*
X140426562Y-71814328D01*
X140507178Y-71965150D01*
X140556824Y-72128811D01*
X140574200Y-72305234D01*
X140574200Y-76950844D01*
X140444749Y-76638321D01*
X140173671Y-76232625D01*
X139828655Y-75887609D01*
X139422959Y-75616531D01*
X138972174Y-75429810D01*
X138493623Y-75334620D01*
X138005697Y-75334620D01*
X137527146Y-75429810D01*
X137076361Y-75616531D01*
X136670665Y-75887609D01*
X136325649Y-76232625D01*
X136054571Y-76638321D01*
X135867850Y-77089106D01*
X135772660Y-77567657D01*
X135772660Y-78055583D01*
X135867850Y-78534134D01*
X136054571Y-78984919D01*
X136325649Y-79390615D01*
X136670665Y-79735631D01*
X137076361Y-80006709D01*
X137527146Y-80193430D01*
X138005697Y-80288620D01*
X138493623Y-80288620D01*
X138972174Y-80193430D01*
X139422959Y-80006709D01*
X139828655Y-79735631D01*
X140173671Y-79390615D01*
X140444749Y-78984919D01*
X140574200Y-78672396D01*
X140574200Y-84262766D01*
X140556824Y-84439189D01*
X140507178Y-84602850D01*
X140426562Y-84753672D01*
X140318070Y-84885870D01*
X140185872Y-84994362D01*
X140035050Y-85074978D01*
X139871389Y-85124624D01*
X139694966Y-85142000D01*
X130009148Y-85142000D01*
X129832724Y-85124624D01*
X129669063Y-85074978D01*
X129518242Y-84994363D01*
X129381204Y-84881898D01*
X128910926Y-84411620D01*
X136019626Y-84411620D01*
X136031732Y-84534534D01*
X136067584Y-84652724D01*
X136125806Y-84761648D01*
X136204159Y-84857121D01*
X136299632Y-84935474D01*
X136408556Y-84993696D01*
X136526746Y-85029548D01*
X136649660Y-85041654D01*
X137719910Y-85038620D01*
X137876660Y-84881870D01*
X137876660Y-83184620D01*
X138622660Y-83184620D01*
X138622660Y-84881870D01*
X138779410Y-85038620D01*
X139849660Y-85041654D01*
X139972574Y-85029548D01*
X140090764Y-84993696D01*
X140199688Y-84935474D01*
X140295161Y-84857121D01*
X140373514Y-84761648D01*
X140431736Y-84652724D01*
X140467588Y-84534534D01*
X140479694Y-84411620D01*
X140476660Y-83341370D01*
X140319910Y-83184620D01*
X138622660Y-83184620D01*
X137876660Y-83184620D01*
X136179410Y-83184620D01*
X136022660Y-83341370D01*
X136019626Y-84411620D01*
X128910926Y-84411620D01*
X125710926Y-81211620D01*
X136019626Y-81211620D01*
X136022660Y-82281870D01*
X136179410Y-82438620D01*
X137876660Y-82438620D01*
X137876660Y-80741370D01*
X138622660Y-80741370D01*
X138622660Y-82438620D01*
X140319910Y-82438620D01*
X140476660Y-82281870D01*
X140479694Y-81211620D01*
X140467588Y-81088706D01*
X140431736Y-80970516D01*
X140373514Y-80861592D01*
X140295161Y-80766119D01*
X140199688Y-80687766D01*
X140090764Y-80629544D01*
X139972574Y-80593692D01*
X139849660Y-80581586D01*
X138779410Y-80584620D01*
X138622660Y-80741370D01*
X137876660Y-80741370D01*
X137719910Y-80584620D01*
X136649660Y-80581586D01*
X136526746Y-80593692D01*
X136408556Y-80629544D01*
X136299632Y-80687766D01*
X136204159Y-80766119D01*
X136125806Y-80861592D01*
X136067584Y-80970516D01*
X136031732Y-81088706D01*
X136019626Y-81211620D01*
X125710926Y-81211620D01*
X124256396Y-79757090D01*
X124247161Y-79748721D01*
X124095625Y-79624358D01*
X124074924Y-79610526D01*
X123902037Y-79518116D01*
X123879036Y-79508588D01*
X123691443Y-79451683D01*
X123667025Y-79446827D01*
X123471934Y-79427612D01*
X123459486Y-79427000D01*
X119482434Y-79427000D01*
X119306011Y-79409624D01*
X119142350Y-79359978D01*
X118991528Y-79279362D01*
X118859330Y-79170870D01*
X118750838Y-79038672D01*
X118670222Y-78887850D01*
X118620576Y-78724189D01*
X118603200Y-78547766D01*
X118603200Y-78526145D01*
X120412557Y-78526145D01*
X120588974Y-78808814D01*
X120981872Y-78954340D01*
X121395611Y-79020420D01*
X121814291Y-79004513D01*
X122221823Y-78907232D01*
X122459426Y-78808814D01*
X122635843Y-78526145D01*
X121524200Y-77414502D01*
X120412557Y-78526145D01*
X118603200Y-78526145D01*
X118603200Y-76758411D01*
X119390780Y-76758411D01*
X119406687Y-77177091D01*
X119503968Y-77584623D01*
X119602386Y-77822226D01*
X119885055Y-77998643D01*
X120996698Y-76887000D01*
X122051702Y-76887000D01*
X123163345Y-77998643D01*
X123446014Y-77822226D01*
X123591540Y-77429328D01*
X123657620Y-77015589D01*
X123641713Y-76596909D01*
X123544432Y-76189377D01*
X123446014Y-75951774D01*
X123163345Y-75775357D01*
X122051702Y-76887000D01*
X120996698Y-76887000D01*
X119885055Y-75775357D01*
X119602386Y-75951774D01*
X119456860Y-76344672D01*
X119390780Y-76758411D01*
X118603200Y-76758411D01*
X118603200Y-75247855D01*
X120412557Y-75247855D01*
X121524200Y-76359498D01*
X122635843Y-75247855D01*
X122459426Y-74965186D01*
X122066528Y-74819660D01*
X121652789Y-74753580D01*
X121234109Y-74769487D01*
X120826577Y-74866768D01*
X120588974Y-74965186D01*
X120412557Y-75247855D01*
X118603200Y-75247855D01*
X118603200Y-73369000D01*
X118816128Y-73369000D01*
X118828388Y-73493482D01*
X118864698Y-73613180D01*
X118923663Y-73723494D01*
X119003015Y-73820185D01*
X119099706Y-73899537D01*
X119210020Y-73958502D01*
X119329718Y-73994812D01*
X119454200Y-74007072D01*
X119968450Y-74004000D01*
X120127200Y-73845250D01*
X120127200Y-72696000D01*
X120381200Y-72696000D01*
X120381200Y-73845250D01*
X120539950Y-74004000D01*
X121054200Y-74007072D01*
X121178682Y-73994812D01*
X121298380Y-73958502D01*
X121408694Y-73899537D01*
X121505385Y-73820185D01*
X121584737Y-73723494D01*
X121643702Y-73613180D01*
X121680012Y-73493482D01*
X121692272Y-73369000D01*
X121689200Y-72854750D01*
X121530450Y-72696000D01*
X120381200Y-72696000D01*
X120127200Y-72696000D01*
X118977950Y-72696000D01*
X118819200Y-72854750D01*
X118816128Y-73369000D01*
X118603200Y-73369000D01*
X118603200Y-71769000D01*
X118816128Y-71769000D01*
X118819200Y-72283250D01*
X118977950Y-72442000D01*
X120127200Y-72442000D01*
X120127200Y-71292750D01*
X120381200Y-71292750D01*
X120381200Y-72442000D01*
X121530450Y-72442000D01*
X121689200Y-72283250D01*
X121692272Y-71769000D01*
X121680012Y-71644518D01*
X121643702Y-71524820D01*
X121584737Y-71414506D01*
X121505385Y-71317815D01*
X121408694Y-71238463D01*
X121298380Y-71179498D01*
X121178682Y-71143188D01*
X121054200Y-71130928D01*
X120539950Y-71134000D01*
X120381200Y-71292750D01*
X120127200Y-71292750D01*
X119968450Y-71134000D01*
X119454200Y-71130928D01*
X119329718Y-71143188D01*
X119210020Y-71179498D01*
X119099706Y-71238463D01*
X119003015Y-71317815D01*
X118923663Y-71414506D01*
X118864698Y-71524820D01*
X118828388Y-71644518D01*
X118816128Y-71769000D01*
X118603200Y-71769000D01*
X118603200Y-71670234D01*
X118620576Y-71493811D01*
X118670222Y-71330150D01*
X118750838Y-71179328D01*
X118859330Y-71047130D01*
X118991528Y-70938638D01*
X119142350Y-70858022D01*
X119306011Y-70808376D01*
X119482434Y-70791000D01*
X122500752Y-70791000D01*
X122677176Y-70808376D01*
G04 #@! TA.AperFunction,Conductor*
D41*
G36*
X122677176Y-70808376D02*
G01*
X122840837Y-70858022D01*
X122991658Y-70938637D01*
X123128696Y-71051102D01*
X123173504Y-71095910D01*
X123182739Y-71104279D01*
X123334275Y-71228642D01*
X123354976Y-71242474D01*
X123527863Y-71334884D01*
X123550864Y-71344412D01*
X123738457Y-71401317D01*
X123762875Y-71406173D01*
X123957966Y-71425388D01*
X123970414Y-71426000D01*
X126857695Y-71426000D01*
X126688101Y-71595594D01*
X126520990Y-71845694D01*
X126405881Y-72123590D01*
X126347200Y-72418604D01*
X126347200Y-72719396D01*
X126405881Y-73014410D01*
X126520990Y-73292306D01*
X126688101Y-73542406D01*
X126900794Y-73755099D01*
X127150894Y-73922210D01*
X127428790Y-74037319D01*
X127723804Y-74096000D01*
X128024596Y-74096000D01*
X128319610Y-74037319D01*
X128597506Y-73922210D01*
X128847606Y-73755099D01*
X129060299Y-73542406D01*
X129227410Y-73292306D01*
X129342519Y-73014410D01*
X129401200Y-72719396D01*
X129401200Y-72418604D01*
X129342519Y-72123590D01*
X129227410Y-71845694D01*
X129060299Y-71595594D01*
X128890705Y-71426000D01*
X139694966Y-71426000D01*
X139871389Y-71443376D01*
X140035050Y-71493022D01*
X140185872Y-71573638D01*
X140318070Y-71682130D01*
X140426562Y-71814328D01*
X140507178Y-71965150D01*
X140556824Y-72128811D01*
X140574200Y-72305234D01*
X140574200Y-76950844D01*
X140444749Y-76638321D01*
X140173671Y-76232625D01*
X139828655Y-75887609D01*
X139422959Y-75616531D01*
X138972174Y-75429810D01*
X138493623Y-75334620D01*
X138005697Y-75334620D01*
X137527146Y-75429810D01*
X137076361Y-75616531D01*
X136670665Y-75887609D01*
X136325649Y-76232625D01*
X136054571Y-76638321D01*
X135867850Y-77089106D01*
X135772660Y-77567657D01*
X135772660Y-78055583D01*
X135867850Y-78534134D01*
X136054571Y-78984919D01*
X136325649Y-79390615D01*
X136670665Y-79735631D01*
X137076361Y-80006709D01*
X137527146Y-80193430D01*
X138005697Y-80288620D01*
X138493623Y-80288620D01*
X138972174Y-80193430D01*
X139422959Y-80006709D01*
X139828655Y-79735631D01*
X140173671Y-79390615D01*
X140444749Y-78984919D01*
X140574200Y-78672396D01*
X140574200Y-84262766D01*
X140556824Y-84439189D01*
X140507178Y-84602850D01*
X140426562Y-84753672D01*
X140318070Y-84885870D01*
X140185872Y-84994362D01*
X140035050Y-85074978D01*
X139871389Y-85124624D01*
X139694966Y-85142000D01*
X130009148Y-85142000D01*
X129832724Y-85124624D01*
X129669063Y-85074978D01*
X129518242Y-84994363D01*
X129381204Y-84881898D01*
X128910926Y-84411620D01*
X136019626Y-84411620D01*
X136031732Y-84534534D01*
X136067584Y-84652724D01*
X136125806Y-84761648D01*
X136204159Y-84857121D01*
X136299632Y-84935474D01*
X136408556Y-84993696D01*
X136526746Y-85029548D01*
X136649660Y-85041654D01*
X137719910Y-85038620D01*
X137876660Y-84881870D01*
X137876660Y-83184620D01*
X138622660Y-83184620D01*
X138622660Y-84881870D01*
X138779410Y-85038620D01*
X139849660Y-85041654D01*
X139972574Y-85029548D01*
X140090764Y-84993696D01*
X140199688Y-84935474D01*
X140295161Y-84857121D01*
X140373514Y-84761648D01*
X140431736Y-84652724D01*
X140467588Y-84534534D01*
X140479694Y-84411620D01*
X140476660Y-83341370D01*
X140319910Y-83184620D01*
X138622660Y-83184620D01*
X137876660Y-83184620D01*
X136179410Y-83184620D01*
X136022660Y-83341370D01*
X136019626Y-84411620D01*
X128910926Y-84411620D01*
X125710926Y-81211620D01*
X136019626Y-81211620D01*
X136022660Y-82281870D01*
X136179410Y-82438620D01*
X137876660Y-82438620D01*
X137876660Y-80741370D01*
X138622660Y-80741370D01*
X138622660Y-82438620D01*
X140319910Y-82438620D01*
X140476660Y-82281870D01*
X140479694Y-81211620D01*
X140467588Y-81088706D01*
X140431736Y-80970516D01*
X140373514Y-80861592D01*
X140295161Y-80766119D01*
X140199688Y-80687766D01*
X140090764Y-80629544D01*
X139972574Y-80593692D01*
X139849660Y-80581586D01*
X138779410Y-80584620D01*
X138622660Y-80741370D01*
X137876660Y-80741370D01*
X137719910Y-80584620D01*
X136649660Y-80581586D01*
X136526746Y-80593692D01*
X136408556Y-80629544D01*
X136299632Y-80687766D01*
X136204159Y-80766119D01*
X136125806Y-80861592D01*
X136067584Y-80970516D01*
X136031732Y-81088706D01*
X136019626Y-81211620D01*
X125710926Y-81211620D01*
X124256396Y-79757090D01*
X124247161Y-79748721D01*
X124095625Y-79624358D01*
X124074924Y-79610526D01*
X123902037Y-79518116D01*
X123879036Y-79508588D01*
X123691443Y-79451683D01*
X123667025Y-79446827D01*
X123471934Y-79427612D01*
X123459486Y-79427000D01*
X119482434Y-79427000D01*
X119306011Y-79409624D01*
X119142350Y-79359978D01*
X118991528Y-79279362D01*
X118859330Y-79170870D01*
X118750838Y-79038672D01*
X118670222Y-78887850D01*
X118620576Y-78724189D01*
X118603200Y-78547766D01*
X118603200Y-78526145D01*
X120412557Y-78526145D01*
X120588974Y-78808814D01*
X120981872Y-78954340D01*
X121395611Y-79020420D01*
X121814291Y-79004513D01*
X122221823Y-78907232D01*
X122459426Y-78808814D01*
X122635843Y-78526145D01*
X121524200Y-77414502D01*
X120412557Y-78526145D01*
X118603200Y-78526145D01*
X118603200Y-76758411D01*
X119390780Y-76758411D01*
X119406687Y-77177091D01*
X119503968Y-77584623D01*
X119602386Y-77822226D01*
X119885055Y-77998643D01*
X120996698Y-76887000D01*
X122051702Y-76887000D01*
X123163345Y-77998643D01*
X123446014Y-77822226D01*
X123591540Y-77429328D01*
X123657620Y-77015589D01*
X123641713Y-76596909D01*
X123544432Y-76189377D01*
X123446014Y-75951774D01*
X123163345Y-75775357D01*
X122051702Y-76887000D01*
X120996698Y-76887000D01*
X119885055Y-75775357D01*
X119602386Y-75951774D01*
X119456860Y-76344672D01*
X119390780Y-76758411D01*
X118603200Y-76758411D01*
X118603200Y-75247855D01*
X120412557Y-75247855D01*
X121524200Y-76359498D01*
X122635843Y-75247855D01*
X122459426Y-74965186D01*
X122066528Y-74819660D01*
X121652789Y-74753580D01*
X121234109Y-74769487D01*
X120826577Y-74866768D01*
X120588974Y-74965186D01*
X120412557Y-75247855D01*
X118603200Y-75247855D01*
X118603200Y-73369000D01*
X118816128Y-73369000D01*
X118828388Y-73493482D01*
X118864698Y-73613180D01*
X118923663Y-73723494D01*
X119003015Y-73820185D01*
X119099706Y-73899537D01*
X119210020Y-73958502D01*
X119329718Y-73994812D01*
X119454200Y-74007072D01*
X119968450Y-74004000D01*
X120127200Y-73845250D01*
X120127200Y-72696000D01*
X120381200Y-72696000D01*
X120381200Y-73845250D01*
X120539950Y-74004000D01*
X121054200Y-74007072D01*
X121178682Y-73994812D01*
X121298380Y-73958502D01*
X121408694Y-73899537D01*
X121505385Y-73820185D01*
X121584737Y-73723494D01*
X121643702Y-73613180D01*
X121680012Y-73493482D01*
X121692272Y-73369000D01*
X121689200Y-72854750D01*
X121530450Y-72696000D01*
X120381200Y-72696000D01*
X120127200Y-72696000D01*
X118977950Y-72696000D01*
X118819200Y-72854750D01*
X118816128Y-73369000D01*
X118603200Y-73369000D01*
X118603200Y-71769000D01*
X118816128Y-71769000D01*
X118819200Y-72283250D01*
X118977950Y-72442000D01*
X120127200Y-72442000D01*
X120127200Y-71292750D01*
X120381200Y-71292750D01*
X120381200Y-72442000D01*
X121530450Y-72442000D01*
X121689200Y-72283250D01*
X121692272Y-71769000D01*
X121680012Y-71644518D01*
X121643702Y-71524820D01*
X121584737Y-71414506D01*
X121505385Y-71317815D01*
X121408694Y-71238463D01*
X121298380Y-71179498D01*
X121178682Y-71143188D01*
X121054200Y-71130928D01*
X120539950Y-71134000D01*
X120381200Y-71292750D01*
X120127200Y-71292750D01*
X119968450Y-71134000D01*
X119454200Y-71130928D01*
X119329718Y-71143188D01*
X119210020Y-71179498D01*
X119099706Y-71238463D01*
X119003015Y-71317815D01*
X118923663Y-71414506D01*
X118864698Y-71524820D01*
X118828388Y-71644518D01*
X118816128Y-71769000D01*
X118603200Y-71769000D01*
X118603200Y-71670234D01*
X118620576Y-71493811D01*
X118670222Y-71330150D01*
X118750838Y-71179328D01*
X118859330Y-71047130D01*
X118991528Y-70938638D01*
X119142350Y-70858022D01*
X119306011Y-70808376D01*
X119482434Y-70791000D01*
X122500752Y-70791000D01*
X122677176Y-70808376D01*
G37*
G04 #@! TD.AperFunction*
G04 #@! TD*
D38*
G04 #@! TO.N,+24V_IN*
X123319686Y-80966028D02*
X123494976Y-80984754D01*
X123657365Y-81035286D01*
X123806860Y-81116359D01*
X123937783Y-81224895D01*
X124045164Y-81356771D01*
X124124918Y-81506972D01*
X124174016Y-81669795D01*
X124191200Y-81845251D01*
X124191200Y-85631670D01*
X124173729Y-85808573D01*
X124123820Y-85972630D01*
X124042787Y-86123749D01*
X123933754Y-86256102D01*
X123800941Y-86364569D01*
X123649470Y-86444963D01*
X123485207Y-86494173D01*
X123308233Y-86510890D01*
X101063709Y-86416263D01*
X100887819Y-86398231D01*
X100724782Y-86348158D01*
X100574601Y-86267319D01*
X100443017Y-86158803D01*
X100335061Y-86026758D01*
X100254864Y-85876240D01*
X100205484Y-85712985D01*
X100188200Y-85537021D01*
X100188200Y-85126145D01*
X120412557Y-85126145D01*
X120588974Y-85408814D01*
X120981872Y-85554340D01*
X121395611Y-85620420D01*
X121814291Y-85604513D01*
X122221823Y-85507232D01*
X122459426Y-85408814D01*
X122635843Y-85126145D01*
X121524200Y-84014502D01*
X120412557Y-85126145D01*
X100188200Y-85126145D01*
X100188200Y-84341800D01*
X108097328Y-84341800D01*
X108109588Y-84466282D01*
X108145898Y-84585980D01*
X108204863Y-84696294D01*
X108284215Y-84792985D01*
X108380906Y-84872337D01*
X108491220Y-84931302D01*
X108610918Y-84967612D01*
X108735400Y-84979872D01*
X109249650Y-84976800D01*
X109408400Y-84818050D01*
X109408400Y-83668800D01*
X109662400Y-83668800D01*
X109662400Y-84818050D01*
X109821150Y-84976800D01*
X110335400Y-84979872D01*
X110459882Y-84967612D01*
X110579580Y-84931302D01*
X110689894Y-84872337D01*
X110786585Y-84792985D01*
X110865937Y-84696294D01*
X110924902Y-84585980D01*
X110961212Y-84466282D01*
X110973472Y-84341800D01*
X110970400Y-83827550D01*
X110811650Y-83668800D01*
X109662400Y-83668800D01*
X109408400Y-83668800D01*
X108259150Y-83668800D01*
X108100400Y-83827550D01*
X108097328Y-84341800D01*
X100188200Y-84341800D01*
X100188200Y-83737287D01*
X100205622Y-83560626D01*
X100255391Y-83396784D01*
X100336210Y-83245814D01*
X100444961Y-83113542D01*
X100577452Y-83005063D01*
X100728588Y-82924551D01*
X100892531Y-82875115D01*
X101069222Y-82858054D01*
X108098108Y-82872369D01*
X108100400Y-83256050D01*
X108259150Y-83414800D01*
X109408400Y-83414800D01*
X109408400Y-83394800D01*
X109662400Y-83394800D01*
X109662400Y-83414800D01*
X110811650Y-83414800D01*
X110868039Y-83358411D01*
X119390780Y-83358411D01*
X119406687Y-83777091D01*
X119503968Y-84184623D01*
X119602386Y-84422226D01*
X119885055Y-84598643D01*
X120996698Y-83487000D01*
X122051702Y-83487000D01*
X123163345Y-84598643D01*
X123446014Y-84422226D01*
X123591540Y-84029328D01*
X123657620Y-83615589D01*
X123641713Y-83196909D01*
X123544432Y-82789377D01*
X123446014Y-82551774D01*
X123163345Y-82375357D01*
X122051702Y-83487000D01*
X120996698Y-83487000D01*
X119885055Y-82375357D01*
X119602386Y-82551774D01*
X119456860Y-82944672D01*
X119390780Y-83358411D01*
X110868039Y-83358411D01*
X110970400Y-83256050D01*
X110972657Y-82878224D01*
X115426068Y-82887294D01*
X115440042Y-82886551D01*
X115658789Y-82862789D01*
X115686070Y-82856733D01*
X115894325Y-82785706D01*
X115907300Y-82780467D01*
X117893839Y-81847855D01*
X120412557Y-81847855D01*
X121524200Y-82959498D01*
X122635843Y-81847855D01*
X122459426Y-81565186D01*
X122066528Y-81419660D01*
X121652789Y-81353580D01*
X121234109Y-81369487D01*
X120826577Y-81466768D01*
X120588974Y-81565186D01*
X120412557Y-81847855D01*
X117893839Y-81847855D01*
X119651134Y-81022866D01*
X119842437Y-80957982D01*
X120043365Y-80937187D01*
X123319686Y-80966028D01*
G04 #@! TA.AperFunction,Conductor*
D41*
G36*
X123319686Y-80966028D02*
G01*
X123494976Y-80984754D01*
X123657365Y-81035286D01*
X123806860Y-81116359D01*
X123937783Y-81224895D01*
X124045164Y-81356771D01*
X124124918Y-81506972D01*
X124174016Y-81669795D01*
X124191200Y-81845251D01*
X124191200Y-85631670D01*
X124173729Y-85808573D01*
X124123820Y-85972630D01*
X124042787Y-86123749D01*
X123933754Y-86256102D01*
X123800941Y-86364569D01*
X123649470Y-86444963D01*
X123485207Y-86494173D01*
X123308233Y-86510890D01*
X101063709Y-86416263D01*
X100887819Y-86398231D01*
X100724782Y-86348158D01*
X100574601Y-86267319D01*
X100443017Y-86158803D01*
X100335061Y-86026758D01*
X100254864Y-85876240D01*
X100205484Y-85712985D01*
X100188200Y-85537021D01*
X100188200Y-85126145D01*
X120412557Y-85126145D01*
X120588974Y-85408814D01*
X120981872Y-85554340D01*
X121395611Y-85620420D01*
X121814291Y-85604513D01*
X122221823Y-85507232D01*
X122459426Y-85408814D01*
X122635843Y-85126145D01*
X121524200Y-84014502D01*
X120412557Y-85126145D01*
X100188200Y-85126145D01*
X100188200Y-84341800D01*
X108097328Y-84341800D01*
X108109588Y-84466282D01*
X108145898Y-84585980D01*
X108204863Y-84696294D01*
X108284215Y-84792985D01*
X108380906Y-84872337D01*
X108491220Y-84931302D01*
X108610918Y-84967612D01*
X108735400Y-84979872D01*
X109249650Y-84976800D01*
X109408400Y-84818050D01*
X109408400Y-83668800D01*
X109662400Y-83668800D01*
X109662400Y-84818050D01*
X109821150Y-84976800D01*
X110335400Y-84979872D01*
X110459882Y-84967612D01*
X110579580Y-84931302D01*
X110689894Y-84872337D01*
X110786585Y-84792985D01*
X110865937Y-84696294D01*
X110924902Y-84585980D01*
X110961212Y-84466282D01*
X110973472Y-84341800D01*
X110970400Y-83827550D01*
X110811650Y-83668800D01*
X109662400Y-83668800D01*
X109408400Y-83668800D01*
X108259150Y-83668800D01*
X108100400Y-83827550D01*
X108097328Y-84341800D01*
X100188200Y-84341800D01*
X100188200Y-83737287D01*
X100205622Y-83560626D01*
X100255391Y-83396784D01*
X100336210Y-83245814D01*
X100444961Y-83113542D01*
X100577452Y-83005063D01*
X100728588Y-82924551D01*
X100892531Y-82875115D01*
X101069222Y-82858054D01*
X108098108Y-82872369D01*
X108100400Y-83256050D01*
X108259150Y-83414800D01*
X109408400Y-83414800D01*
X109408400Y-83394800D01*
X109662400Y-83394800D01*
X109662400Y-83414800D01*
X110811650Y-83414800D01*
X110868039Y-83358411D01*
X119390780Y-83358411D01*
X119406687Y-83777091D01*
X119503968Y-84184623D01*
X119602386Y-84422226D01*
X119885055Y-84598643D01*
X120996698Y-83487000D01*
X122051702Y-83487000D01*
X123163345Y-84598643D01*
X123446014Y-84422226D01*
X123591540Y-84029328D01*
X123657620Y-83615589D01*
X123641713Y-83196909D01*
X123544432Y-82789377D01*
X123446014Y-82551774D01*
X123163345Y-82375357D01*
X122051702Y-83487000D01*
X120996698Y-83487000D01*
X119885055Y-82375357D01*
X119602386Y-82551774D01*
X119456860Y-82944672D01*
X119390780Y-83358411D01*
X110868039Y-83358411D01*
X110970400Y-83256050D01*
X110972657Y-82878224D01*
X115426068Y-82887294D01*
X115440042Y-82886551D01*
X115658789Y-82862789D01*
X115686070Y-82856733D01*
X115894325Y-82785706D01*
X115907300Y-82780467D01*
X117893839Y-81847855D01*
X120412557Y-81847855D01*
X121524200Y-82959498D01*
X122635843Y-81847855D01*
X122459426Y-81565186D01*
X122066528Y-81419660D01*
X121652789Y-81353580D01*
X121234109Y-81369487D01*
X120826577Y-81466768D01*
X120588974Y-81565186D01*
X120412557Y-81847855D01*
X117893839Y-81847855D01*
X119651134Y-81022866D01*
X119842437Y-80957982D01*
X120043365Y-80937187D01*
X123319686Y-80966028D01*
G37*
G04 #@! TD.AperFunction*
G04 #@! TD*
M02*
