G04 #@! TF.GenerationSoftware,KiCad,Pcbnew,(5.1.10)-1*
G04 #@! TF.CreationDate,2021-12-04T14:44:31-06:00*
G04 #@! TF.ProjectId,ESP32LedDriverV2,45535033-324c-4656-9444-726976657256,rev?*
G04 #@! TF.SameCoordinates,Original*
G04 #@! TF.FileFunction,Legend,Top*
G04 #@! TF.FilePolarity,Positive*
%FSLAX46Y46*%
G04 Gerber Fmt 4.6, Leading zero omitted, Abs format (unit mm)*
G04 Created by KiCad (PCBNEW (5.1.10)-1) date 2021-12-04 14:44:31*
%MOMM*%
%LPD*%
G01*
G04 APERTURE LIST*
%ADD10C,0.150000*%
%ADD11C,0.200000*%
%ADD12C,0.153000*%
%ADD13C,0.250000*%
%ADD14C,0.180000*%
%ADD15C,0.120000*%
%ADD16C,0.152400*%
%ADD17C,0.100000*%
%ADD18R,0.900000X2.000000*%
%ADD19R,2.000000X0.900000*%
%ADD20R,5.000000X5.000000*%
%ADD21O,1.700000X1.700000*%
%ADD22R,1.700000X1.700000*%
%ADD23C,3.200000*%
%ADD24O,1.600000X1.600000*%
%ADD25R,1.600000X1.600000*%
%ADD26C,1.498600*%
%ADD27R,1.498600X1.498600*%
%ADD28C,1.800000*%
%ADD29R,1.500000X2.000000*%
%ADD30R,3.800000X2.000000*%
%ADD31O,1.500000X2.300000*%
%ADD32R,1.500000X2.300000*%
%ADD33C,2.000000*%
%ADD34O,1.905000X2.000000*%
%ADD35R,1.905000X2.000000*%
%ADD36C,3.000000*%
%ADD37C,2.600000*%
%ADD38R,2.600000X2.600000*%
%ADD39C,3.500000*%
%ADD40R,3.200000X3.200000*%
%ADD41C,1.600000*%
G04 APERTURE END LIST*
D10*
X86431438Y-69796619D02*
X86431438Y-70687095D01*
X86483819Y-70791857D01*
X86536200Y-70844238D01*
X86640961Y-70896619D01*
X86850485Y-70896619D01*
X86955247Y-70844238D01*
X87007628Y-70791857D01*
X87060009Y-70687095D01*
X87060009Y-69796619D01*
X87531438Y-70582333D02*
X88055247Y-70582333D01*
X87426676Y-70896619D02*
X87793342Y-69796619D01*
X88160009Y-70896619D01*
X89155247Y-70896619D02*
X88788580Y-70372809D01*
X88526676Y-70896619D02*
X88526676Y-69796619D01*
X88945723Y-69796619D01*
X89050485Y-69849000D01*
X89102866Y-69901380D01*
X89155247Y-70006142D01*
X89155247Y-70163285D01*
X89102866Y-70268047D01*
X89050485Y-70320428D01*
X88945723Y-70372809D01*
X88526676Y-70372809D01*
X89469533Y-69796619D02*
X90098104Y-69796619D01*
X89783819Y-70896619D02*
X89783819Y-69796619D01*
X86824295Y-72277571D02*
X87662390Y-72277571D01*
X87243342Y-72696619D02*
X87243342Y-71858523D01*
X88081438Y-71596619D02*
X88762390Y-71596619D01*
X88395723Y-72015666D01*
X88552866Y-72015666D01*
X88657628Y-72068047D01*
X88710009Y-72120428D01*
X88762390Y-72225190D01*
X88762390Y-72487095D01*
X88710009Y-72591857D01*
X88657628Y-72644238D01*
X88552866Y-72696619D01*
X88238580Y-72696619D01*
X88133819Y-72644238D01*
X88081438Y-72591857D01*
X89129057Y-71963285D02*
X89390961Y-72696619D01*
X89652866Y-71963285D01*
D11*
X126816914Y-65422285D02*
X126816914Y-64508000D01*
X127274057Y-64965142D02*
X126359771Y-64965142D01*
X126074057Y-64050857D02*
X126074057Y-63308000D01*
X126531200Y-63708000D01*
X126531200Y-63536571D01*
X126588342Y-63422285D01*
X126645485Y-63365142D01*
X126759771Y-63308000D01*
X127045485Y-63308000D01*
X127159771Y-63365142D01*
X127216914Y-63422285D01*
X127274057Y-63536571D01*
X127274057Y-63879428D01*
X127216914Y-63993714D01*
X127159771Y-64050857D01*
X126474057Y-62908000D02*
X127274057Y-62622285D01*
X126474057Y-62336571D01*
D12*
X45593493Y-62801714D02*
X45593493Y-63611238D01*
X45545874Y-63706476D01*
X45498255Y-63754095D01*
X45403017Y-63801714D01*
X45260160Y-63801714D01*
X45164921Y-63754095D01*
X45593493Y-63420761D02*
X45498255Y-63468380D01*
X45307779Y-63468380D01*
X45212540Y-63420761D01*
X45164921Y-63373142D01*
X45117302Y-63277904D01*
X45117302Y-62992190D01*
X45164921Y-62896952D01*
X45212540Y-62849333D01*
X45307779Y-62801714D01*
X45498255Y-62801714D01*
X45593493Y-62849333D01*
X46069683Y-63468380D02*
X46069683Y-62801714D01*
X46069683Y-62468380D02*
X46022064Y-62516000D01*
X46069683Y-62563619D01*
X46117302Y-62516000D01*
X46069683Y-62468380D01*
X46069683Y-62563619D01*
X46403017Y-62801714D02*
X46783969Y-62801714D01*
X46545874Y-62468380D02*
X46545874Y-63325523D01*
X46593493Y-63420761D01*
X46688731Y-63468380D01*
X46783969Y-63468380D01*
X47117302Y-63468380D02*
X47117302Y-62468380D01*
X47545874Y-63468380D02*
X47545874Y-62944571D01*
X47498255Y-62849333D01*
X47403017Y-62801714D01*
X47260160Y-62801714D01*
X47164921Y-62849333D01*
X47117302Y-62896952D01*
X48450636Y-62801714D02*
X48450636Y-63468380D01*
X48022064Y-62801714D02*
X48022064Y-63325523D01*
X48069683Y-63420761D01*
X48164921Y-63468380D01*
X48307779Y-63468380D01*
X48403017Y-63420761D01*
X48450636Y-63373142D01*
X48926826Y-63468380D02*
X48926826Y-62468380D01*
X48926826Y-62849333D02*
X49022064Y-62801714D01*
X49212540Y-62801714D01*
X49307779Y-62849333D01*
X49355398Y-62896952D01*
X49403017Y-62992190D01*
X49403017Y-63277904D01*
X49355398Y-63373142D01*
X49307779Y-63420761D01*
X49212540Y-63468380D01*
X49022064Y-63468380D01*
X48926826Y-63420761D01*
X49831588Y-63373142D02*
X49879207Y-63420761D01*
X49831588Y-63468380D01*
X49783969Y-63420761D01*
X49831588Y-63373142D01*
X49831588Y-63468380D01*
X50736350Y-63420761D02*
X50641112Y-63468380D01*
X50450636Y-63468380D01*
X50355398Y-63420761D01*
X50307779Y-63373142D01*
X50260160Y-63277904D01*
X50260160Y-62992190D01*
X50307779Y-62896952D01*
X50355398Y-62849333D01*
X50450636Y-62801714D01*
X50641112Y-62801714D01*
X50736350Y-62849333D01*
X51307779Y-63468380D02*
X51212540Y-63420761D01*
X51164921Y-63373142D01*
X51117302Y-63277904D01*
X51117302Y-62992190D01*
X51164921Y-62896952D01*
X51212540Y-62849333D01*
X51307779Y-62801714D01*
X51450636Y-62801714D01*
X51545874Y-62849333D01*
X51593493Y-62896952D01*
X51641112Y-62992190D01*
X51641112Y-63277904D01*
X51593493Y-63373142D01*
X51545874Y-63420761D01*
X51450636Y-63468380D01*
X51307779Y-63468380D01*
X52069683Y-63468380D02*
X52069683Y-62801714D01*
X52069683Y-62896952D02*
X52117302Y-62849333D01*
X52212540Y-62801714D01*
X52355398Y-62801714D01*
X52450636Y-62849333D01*
X52498255Y-62944571D01*
X52498255Y-63468380D01*
X52498255Y-62944571D02*
X52545874Y-62849333D01*
X52641112Y-62801714D01*
X52783969Y-62801714D01*
X52879207Y-62849333D01*
X52926826Y-62944571D01*
X52926826Y-63468380D01*
X54117302Y-62420761D02*
X53260160Y-63706476D01*
X54403017Y-63182666D02*
X54879207Y-63182666D01*
X54307779Y-63468380D02*
X54641112Y-62468380D01*
X54974445Y-63468380D01*
X55736350Y-63468380D02*
X55736350Y-62468380D01*
X55736350Y-63420761D02*
X55641112Y-63468380D01*
X55450636Y-63468380D01*
X55355398Y-63420761D01*
X55307779Y-63373142D01*
X55260159Y-63277904D01*
X55260159Y-62992190D01*
X55307779Y-62896952D01*
X55355398Y-62849333D01*
X55450636Y-62801714D01*
X55641112Y-62801714D01*
X55736350Y-62849333D01*
X56641112Y-63468380D02*
X56641112Y-62944571D01*
X56593493Y-62849333D01*
X56498255Y-62801714D01*
X56307779Y-62801714D01*
X56212540Y-62849333D01*
X56641112Y-63420761D02*
X56545874Y-63468380D01*
X56307779Y-63468380D01*
X56212540Y-63420761D01*
X56164921Y-63325523D01*
X56164921Y-63230285D01*
X56212540Y-63135047D01*
X56307779Y-63087428D01*
X56545874Y-63087428D01*
X56641112Y-63039809D01*
X57117302Y-63468380D02*
X57117302Y-62801714D01*
X57117302Y-62896952D02*
X57164921Y-62849333D01*
X57260159Y-62801714D01*
X57403017Y-62801714D01*
X57498255Y-62849333D01*
X57545874Y-62944571D01*
X57545874Y-63468380D01*
X57545874Y-62944571D02*
X57593493Y-62849333D01*
X57688731Y-62801714D01*
X57831588Y-62801714D01*
X57926826Y-62849333D01*
X57974445Y-62944571D01*
X57974445Y-63468380D01*
X59022064Y-63373142D02*
X58974445Y-63420761D01*
X58831588Y-63468380D01*
X58736350Y-63468380D01*
X58593493Y-63420761D01*
X58498255Y-63325523D01*
X58450636Y-63230285D01*
X58403017Y-63039809D01*
X58403017Y-62896952D01*
X58450636Y-62706476D01*
X58498255Y-62611238D01*
X58593493Y-62516000D01*
X58736350Y-62468380D01*
X58831588Y-62468380D01*
X58974445Y-62516000D01*
X59022064Y-62563619D01*
X59926826Y-63468380D02*
X59450636Y-63468380D01*
X59450636Y-62468380D01*
X60688731Y-63468380D02*
X60688731Y-62944571D01*
X60641112Y-62849333D01*
X60545874Y-62801714D01*
X60355398Y-62801714D01*
X60260160Y-62849333D01*
X60688731Y-63420761D02*
X60593493Y-63468380D01*
X60355398Y-63468380D01*
X60260160Y-63420761D01*
X60212540Y-63325523D01*
X60212540Y-63230285D01*
X60260160Y-63135047D01*
X60355398Y-63087428D01*
X60593493Y-63087428D01*
X60688731Y-63039809D01*
X61164921Y-63468380D02*
X61164921Y-62801714D01*
X61164921Y-62992190D02*
X61212540Y-62896952D01*
X61260160Y-62849333D01*
X61355398Y-62801714D01*
X61450636Y-62801714D01*
X61736350Y-63420761D02*
X61831588Y-63468380D01*
X62022064Y-63468380D01*
X62117302Y-63420761D01*
X62164921Y-63325523D01*
X62164921Y-63277904D01*
X62117302Y-63182666D01*
X62022064Y-63135047D01*
X61879207Y-63135047D01*
X61783969Y-63087428D01*
X61736350Y-62992190D01*
X61736350Y-62944571D01*
X61783969Y-62849333D01*
X61879207Y-62801714D01*
X62022064Y-62801714D01*
X62117302Y-62849333D01*
X62974445Y-63420761D02*
X62879207Y-63468380D01*
X62688731Y-63468380D01*
X62593493Y-63420761D01*
X62545874Y-63325523D01*
X62545874Y-62944571D01*
X62593493Y-62849333D01*
X62688731Y-62801714D01*
X62879207Y-62801714D01*
X62974445Y-62849333D01*
X63022064Y-62944571D01*
X63022064Y-63039809D01*
X62545874Y-63135047D01*
X63450636Y-62801714D02*
X63450636Y-63468380D01*
X63450636Y-62896952D02*
X63498255Y-62849333D01*
X63593493Y-62801714D01*
X63736350Y-62801714D01*
X63831588Y-62849333D01*
X63879207Y-62944571D01*
X63879207Y-63468380D01*
X65069683Y-62420761D02*
X64212540Y-63706476D01*
X65403017Y-62944571D02*
X65736350Y-62944571D01*
X65879207Y-63468380D02*
X65403017Y-63468380D01*
X65403017Y-62468380D01*
X65879207Y-62468380D01*
X66260159Y-63420761D02*
X66355398Y-63468380D01*
X66545874Y-63468380D01*
X66641112Y-63420761D01*
X66688731Y-63325523D01*
X66688731Y-63277904D01*
X66641112Y-63182666D01*
X66545874Y-63135047D01*
X66403017Y-63135047D01*
X66307779Y-63087428D01*
X66260159Y-62992190D01*
X66260159Y-62944571D01*
X66307779Y-62849333D01*
X66403017Y-62801714D01*
X66545874Y-62801714D01*
X66641112Y-62849333D01*
X67117302Y-62801714D02*
X67117302Y-63801714D01*
X67117302Y-62849333D02*
X67212540Y-62801714D01*
X67403017Y-62801714D01*
X67498255Y-62849333D01*
X67545874Y-62896952D01*
X67593493Y-62992190D01*
X67593493Y-63277904D01*
X67545874Y-63373142D01*
X67498255Y-63420761D01*
X67403017Y-63468380D01*
X67212540Y-63468380D01*
X67117302Y-63420761D01*
X67926826Y-62468380D02*
X68545874Y-62468380D01*
X68212540Y-62849333D01*
X68355398Y-62849333D01*
X68450636Y-62896952D01*
X68498255Y-62944571D01*
X68545874Y-63039809D01*
X68545874Y-63277904D01*
X68498255Y-63373142D01*
X68450636Y-63420761D01*
X68355398Y-63468380D01*
X68069683Y-63468380D01*
X67974445Y-63420761D01*
X67926826Y-63373142D01*
X68926826Y-62563619D02*
X68974445Y-62516000D01*
X69069683Y-62468380D01*
X69307779Y-62468380D01*
X69403017Y-62516000D01*
X69450636Y-62563619D01*
X69498255Y-62658857D01*
X69498255Y-62754095D01*
X69450636Y-62896952D01*
X68879207Y-63468380D01*
X69498255Y-63468380D01*
X70403017Y-63468380D02*
X69926826Y-63468380D01*
X69926826Y-62468380D01*
X71117302Y-63420761D02*
X71022064Y-63468380D01*
X70831588Y-63468380D01*
X70736350Y-63420761D01*
X70688731Y-63325523D01*
X70688731Y-62944571D01*
X70736350Y-62849333D01*
X70831588Y-62801714D01*
X71022064Y-62801714D01*
X71117302Y-62849333D01*
X71164921Y-62944571D01*
X71164921Y-63039809D01*
X70688731Y-63135047D01*
X72022064Y-63468380D02*
X72022064Y-62468380D01*
X72022064Y-63420761D02*
X71926826Y-63468380D01*
X71736350Y-63468380D01*
X71641112Y-63420761D01*
X71593493Y-63373142D01*
X71545874Y-63277904D01*
X71545874Y-62992190D01*
X71593493Y-62896952D01*
X71641112Y-62849333D01*
X71736350Y-62801714D01*
X71926826Y-62801714D01*
X72022064Y-62849333D01*
X72498255Y-63468380D02*
X72498255Y-62468380D01*
X72736350Y-62468380D01*
X72879207Y-62516000D01*
X72974445Y-62611238D01*
X73022064Y-62706476D01*
X73069683Y-62896952D01*
X73069683Y-63039809D01*
X73022064Y-63230285D01*
X72974445Y-63325523D01*
X72879207Y-63420761D01*
X72736350Y-63468380D01*
X72498255Y-63468380D01*
X73498255Y-63468380D02*
X73498255Y-62801714D01*
X73498255Y-62992190D02*
X73545874Y-62896952D01*
X73593493Y-62849333D01*
X73688731Y-62801714D01*
X73783969Y-62801714D01*
X74117302Y-63468380D02*
X74117302Y-62801714D01*
X74117302Y-62468380D02*
X74069683Y-62516000D01*
X74117302Y-62563619D01*
X74164921Y-62516000D01*
X74117302Y-62468380D01*
X74117302Y-62563619D01*
X74498255Y-62801714D02*
X74736350Y-63468380D01*
X74974445Y-62801714D01*
X75736350Y-63420761D02*
X75641112Y-63468380D01*
X75450636Y-63468380D01*
X75355398Y-63420761D01*
X75307779Y-63325523D01*
X75307779Y-62944571D01*
X75355398Y-62849333D01*
X75450636Y-62801714D01*
X75641112Y-62801714D01*
X75736350Y-62849333D01*
X75783969Y-62944571D01*
X75783969Y-63039809D01*
X75307779Y-63135047D01*
X76212540Y-63468380D02*
X76212540Y-62801714D01*
X76212540Y-62992190D02*
X76260160Y-62896952D01*
X76307779Y-62849333D01*
X76403017Y-62801714D01*
X76498255Y-62801714D01*
D11*
X80024028Y-76852085D02*
X79624028Y-76852085D01*
X79624028Y-77480657D02*
X79624028Y-76280657D01*
X80195457Y-76280657D01*
X81224028Y-77480657D02*
X80652600Y-77480657D01*
X80652600Y-76280657D01*
X81566885Y-77137800D02*
X82138314Y-77137800D01*
X81452600Y-77480657D02*
X81852600Y-76280657D01*
X82252600Y-77480657D01*
X82595457Y-77423514D02*
X82766885Y-77480657D01*
X83052600Y-77480657D01*
X83166885Y-77423514D01*
X83224028Y-77366371D01*
X83281171Y-77252085D01*
X83281171Y-77137800D01*
X83224028Y-77023514D01*
X83166885Y-76966371D01*
X83052600Y-76909228D01*
X82824028Y-76852085D01*
X82709742Y-76794942D01*
X82652600Y-76737800D01*
X82595457Y-76623514D01*
X82595457Y-76509228D01*
X82652600Y-76394942D01*
X82709742Y-76337800D01*
X82824028Y-76280657D01*
X83109742Y-76280657D01*
X83281171Y-76337800D01*
X83795457Y-77480657D02*
X83795457Y-76280657D01*
X83795457Y-76852085D02*
X84481171Y-76852085D01*
X84481171Y-77480657D02*
X84481171Y-76280657D01*
X85491057Y-69892257D02*
X84919628Y-70292257D01*
X85491057Y-70577971D02*
X84291057Y-70577971D01*
X84291057Y-70120828D01*
X84348200Y-70006542D01*
X84405342Y-69949400D01*
X84519628Y-69892257D01*
X84691057Y-69892257D01*
X84805342Y-69949400D01*
X84862485Y-70006542D01*
X84919628Y-70120828D01*
X84919628Y-70577971D01*
X84862485Y-69377971D02*
X84862485Y-68977971D01*
X85491057Y-68806542D02*
X85491057Y-69377971D01*
X84291057Y-69377971D01*
X84291057Y-68806542D01*
X85433914Y-68349400D02*
X85491057Y-68177971D01*
X85491057Y-67892257D01*
X85433914Y-67777971D01*
X85376771Y-67720828D01*
X85262485Y-67663685D01*
X85148200Y-67663685D01*
X85033914Y-67720828D01*
X84976771Y-67777971D01*
X84919628Y-67892257D01*
X84862485Y-68120828D01*
X84805342Y-68235114D01*
X84748200Y-68292257D01*
X84633914Y-68349400D01*
X84519628Y-68349400D01*
X84405342Y-68292257D01*
X84348200Y-68235114D01*
X84291057Y-68120828D01*
X84291057Y-67835114D01*
X84348200Y-67663685D01*
X84862485Y-67149400D02*
X84862485Y-66749400D01*
X85491057Y-66577971D02*
X85491057Y-67149400D01*
X84291057Y-67149400D01*
X84291057Y-66577971D01*
X84291057Y-66235114D02*
X84291057Y-65549400D01*
X85491057Y-65892257D02*
X84291057Y-65892257D01*
D10*
X83106866Y-80133380D02*
X83106866Y-79133380D01*
X83487819Y-79133380D01*
X83583057Y-79181000D01*
X83630676Y-79228619D01*
X83678295Y-79323857D01*
X83678295Y-79466714D01*
X83630676Y-79561952D01*
X83583057Y-79609571D01*
X83487819Y-79657190D01*
X83106866Y-79657190D01*
X84011628Y-79133380D02*
X84249723Y-80133380D01*
X84440200Y-79419095D01*
X84630676Y-80133380D01*
X84868771Y-79133380D01*
X85821152Y-80133380D02*
X85487819Y-79657190D01*
X85249723Y-80133380D02*
X85249723Y-79133380D01*
X85630676Y-79133380D01*
X85725914Y-79181000D01*
X85773533Y-79228619D01*
X85821152Y-79323857D01*
X85821152Y-79466714D01*
X85773533Y-79561952D01*
X85725914Y-79609571D01*
X85630676Y-79657190D01*
X85249723Y-79657190D01*
D11*
X95808009Y-62868028D02*
X96174676Y-62868028D01*
X96331819Y-63444219D02*
X95808009Y-63444219D01*
X95808009Y-62344219D01*
X96331819Y-62344219D01*
X96750866Y-63391838D02*
X96908009Y-63444219D01*
X97169914Y-63444219D01*
X97274676Y-63391838D01*
X97327057Y-63339457D01*
X97379438Y-63234695D01*
X97379438Y-63129933D01*
X97327057Y-63025171D01*
X97274676Y-62972790D01*
X97169914Y-62920409D01*
X96960390Y-62868028D01*
X96855628Y-62815647D01*
X96803247Y-62763266D01*
X96750866Y-62658504D01*
X96750866Y-62553742D01*
X96803247Y-62448980D01*
X96855628Y-62396600D01*
X96960390Y-62344219D01*
X97222295Y-62344219D01*
X97379438Y-62396600D01*
X97850866Y-63444219D02*
X97850866Y-62344219D01*
X98269914Y-62344219D01*
X98374676Y-62396600D01*
X98427057Y-62448980D01*
X98479438Y-62553742D01*
X98479438Y-62710885D01*
X98427057Y-62815647D01*
X98374676Y-62868028D01*
X98269914Y-62920409D01*
X97850866Y-62920409D01*
X98846104Y-62344219D02*
X99527057Y-62344219D01*
X99160390Y-62763266D01*
X99317533Y-62763266D01*
X99422295Y-62815647D01*
X99474676Y-62868028D01*
X99527057Y-62972790D01*
X99527057Y-63234695D01*
X99474676Y-63339457D01*
X99422295Y-63391838D01*
X99317533Y-63444219D01*
X99003247Y-63444219D01*
X98898485Y-63391838D01*
X98846104Y-63339457D01*
X99946104Y-62448980D02*
X99998485Y-62396600D01*
X100103247Y-62344219D01*
X100365152Y-62344219D01*
X100469914Y-62396600D01*
X100522295Y-62448980D01*
X100574676Y-62553742D01*
X100574676Y-62658504D01*
X100522295Y-62815647D01*
X99893723Y-63444219D01*
X100574676Y-63444219D01*
X102408009Y-63444219D02*
X101884200Y-63444219D01*
X101884200Y-62344219D01*
X102774676Y-62868028D02*
X103141342Y-62868028D01*
X103298485Y-63444219D02*
X102774676Y-63444219D01*
X102774676Y-62344219D01*
X103298485Y-62344219D01*
X103769914Y-63444219D02*
X103769914Y-62344219D01*
X104031819Y-62344219D01*
X104188961Y-62396600D01*
X104293723Y-62501361D01*
X104346104Y-62606123D01*
X104398485Y-62815647D01*
X104398485Y-62972790D01*
X104346104Y-63182314D01*
X104293723Y-63287076D01*
X104188961Y-63391838D01*
X104031819Y-63444219D01*
X103769914Y-63444219D01*
X105865152Y-62815647D02*
X105760390Y-62763266D01*
X105708009Y-62710885D01*
X105655628Y-62606123D01*
X105655628Y-62553742D01*
X105708009Y-62448980D01*
X105760390Y-62396600D01*
X105865152Y-62344219D01*
X106074676Y-62344219D01*
X106179438Y-62396600D01*
X106231819Y-62448980D01*
X106284200Y-62553742D01*
X106284200Y-62606123D01*
X106231819Y-62710885D01*
X106179438Y-62763266D01*
X106074676Y-62815647D01*
X105865152Y-62815647D01*
X105760390Y-62868028D01*
X105708009Y-62920409D01*
X105655628Y-63025171D01*
X105655628Y-63234695D01*
X105708009Y-63339457D01*
X105760390Y-63391838D01*
X105865152Y-63444219D01*
X106074676Y-63444219D01*
X106179438Y-63391838D01*
X106231819Y-63339457D01*
X106284200Y-63234695D01*
X106284200Y-63025171D01*
X106231819Y-62920409D01*
X106179438Y-62868028D01*
X106074676Y-62815647D01*
X108222295Y-63339457D02*
X108169914Y-63391838D01*
X108012771Y-63444219D01*
X107908009Y-63444219D01*
X107750866Y-63391838D01*
X107646104Y-63287076D01*
X107593723Y-63182314D01*
X107541342Y-62972790D01*
X107541342Y-62815647D01*
X107593723Y-62606123D01*
X107646104Y-62501361D01*
X107750866Y-62396600D01*
X107908009Y-62344219D01*
X108012771Y-62344219D01*
X108169914Y-62396600D01*
X108222295Y-62448980D01*
X108693723Y-63444219D02*
X108693723Y-62344219D01*
X109165152Y-63444219D02*
X109165152Y-62868028D01*
X109112771Y-62763266D01*
X109008009Y-62710885D01*
X108850866Y-62710885D01*
X108746104Y-62763266D01*
X108693723Y-62815647D01*
X110160390Y-63444219D02*
X110160390Y-62868028D01*
X110108009Y-62763266D01*
X110003247Y-62710885D01*
X109793723Y-62710885D01*
X109688961Y-62763266D01*
X110160390Y-63391838D02*
X110055628Y-63444219D01*
X109793723Y-63444219D01*
X109688961Y-63391838D01*
X109636580Y-63287076D01*
X109636580Y-63182314D01*
X109688961Y-63077552D01*
X109793723Y-63025171D01*
X110055628Y-63025171D01*
X110160390Y-62972790D01*
X110684200Y-62710885D02*
X110684200Y-63444219D01*
X110684200Y-62815647D02*
X110736580Y-62763266D01*
X110841342Y-62710885D01*
X110998485Y-62710885D01*
X111103247Y-62763266D01*
X111155628Y-62868028D01*
X111155628Y-63444219D01*
X112517533Y-63444219D02*
X112517533Y-62344219D01*
X112779438Y-62344219D01*
X112936580Y-62396600D01*
X113041342Y-62501361D01*
X113093723Y-62606123D01*
X113146104Y-62815647D01*
X113146104Y-62972790D01*
X113093723Y-63182314D01*
X113041342Y-63287076D01*
X112936580Y-63391838D01*
X112779438Y-63444219D01*
X112517533Y-63444219D01*
X113617533Y-63444219D02*
X113617533Y-62710885D01*
X113617533Y-62920409D02*
X113669914Y-62815647D01*
X113722295Y-62763266D01*
X113827057Y-62710885D01*
X113931819Y-62710885D01*
X114298485Y-63444219D02*
X114298485Y-62710885D01*
X114298485Y-62344219D02*
X114246104Y-62396600D01*
X114298485Y-62448980D01*
X114350866Y-62396600D01*
X114298485Y-62344219D01*
X114298485Y-62448980D01*
X114717533Y-62710885D02*
X114979438Y-63444219D01*
X115241342Y-62710885D01*
X116079438Y-63391838D02*
X115974676Y-63444219D01*
X115765152Y-63444219D01*
X115660390Y-63391838D01*
X115608009Y-63287076D01*
X115608009Y-62868028D01*
X115660390Y-62763266D01*
X115765152Y-62710885D01*
X115974676Y-62710885D01*
X116079438Y-62763266D01*
X116131819Y-62868028D01*
X116131819Y-62972790D01*
X115608009Y-63077552D01*
X116603247Y-63444219D02*
X116603247Y-62710885D01*
X116603247Y-62920409D02*
X116655628Y-62815647D01*
X116708009Y-62763266D01*
X116812771Y-62710885D01*
X116917533Y-62710885D01*
X99108009Y-64298980D02*
X99160390Y-64246600D01*
X99265152Y-64194219D01*
X99527057Y-64194219D01*
X99631819Y-64246600D01*
X99684200Y-64298980D01*
X99736580Y-64403742D01*
X99736580Y-64508504D01*
X99684200Y-64665647D01*
X99055628Y-65294219D01*
X99736580Y-65294219D01*
X100417533Y-64194219D02*
X100522295Y-64194219D01*
X100627057Y-64246600D01*
X100679438Y-64298980D01*
X100731819Y-64403742D01*
X100784200Y-64613266D01*
X100784200Y-64875171D01*
X100731819Y-65084695D01*
X100679438Y-65189457D01*
X100627057Y-65241838D01*
X100522295Y-65294219D01*
X100417533Y-65294219D01*
X100312771Y-65241838D01*
X100260390Y-65189457D01*
X100208009Y-65084695D01*
X100155628Y-64875171D01*
X100155628Y-64613266D01*
X100208009Y-64403742D01*
X100260390Y-64298980D01*
X100312771Y-64246600D01*
X100417533Y-64194219D01*
X101203247Y-64298980D02*
X101255628Y-64246600D01*
X101360390Y-64194219D01*
X101622295Y-64194219D01*
X101727057Y-64246600D01*
X101779438Y-64298980D01*
X101831819Y-64403742D01*
X101831819Y-64508504D01*
X101779438Y-64665647D01*
X101150866Y-65294219D01*
X101831819Y-65294219D01*
X102879438Y-65294219D02*
X102250866Y-65294219D01*
X102565152Y-65294219D02*
X102565152Y-64194219D01*
X102460390Y-64351361D01*
X102355628Y-64456123D01*
X102250866Y-64508504D01*
X103350866Y-64875171D02*
X104188961Y-64875171D01*
X105288961Y-65294219D02*
X104660390Y-65294219D01*
X104974676Y-65294219D02*
X104974676Y-64194219D01*
X104869914Y-64351361D01*
X104765152Y-64456123D01*
X104660390Y-64508504D01*
X106336580Y-65294219D02*
X105708009Y-65294219D01*
X106022295Y-65294219D02*
X106022295Y-64194219D01*
X105917533Y-64351361D01*
X105812771Y-64456123D01*
X105708009Y-64508504D01*
X106808009Y-64875171D02*
X107646104Y-64875171D01*
X108065152Y-64194219D02*
X108746104Y-64194219D01*
X108379438Y-64613266D01*
X108536580Y-64613266D01*
X108641342Y-64665647D01*
X108693723Y-64718028D01*
X108746104Y-64822790D01*
X108746104Y-65084695D01*
X108693723Y-65189457D01*
X108641342Y-65241838D01*
X108536580Y-65294219D01*
X108222295Y-65294219D01*
X108117533Y-65241838D01*
X108065152Y-65189457D01*
X109427057Y-64194219D02*
X109531819Y-64194219D01*
X109636580Y-64246600D01*
X109688961Y-64298980D01*
X109741342Y-64403742D01*
X109793723Y-64613266D01*
X109793723Y-64875171D01*
X109741342Y-65084695D01*
X109688961Y-65189457D01*
X109636580Y-65241838D01*
X109531819Y-65294219D01*
X109427057Y-65294219D01*
X109322295Y-65241838D01*
X109269914Y-65189457D01*
X109217533Y-65084695D01*
X109165152Y-64875171D01*
X109165152Y-64613266D01*
X109217533Y-64403742D01*
X109269914Y-64298980D01*
X109322295Y-64246600D01*
X109427057Y-64194219D01*
X111784200Y-64194219D02*
X112150866Y-65294219D01*
X112517533Y-64194219D01*
X112831819Y-64298980D02*
X112884200Y-64246600D01*
X112988961Y-64194219D01*
X113250866Y-64194219D01*
X113355628Y-64246600D01*
X113408009Y-64298980D01*
X113460390Y-64403742D01*
X113460390Y-64508504D01*
X113408009Y-64665647D01*
X112779438Y-65294219D01*
X113460390Y-65294219D01*
X99998485Y-67144219D02*
X99369914Y-67144219D01*
X99684200Y-67144219D02*
X99684200Y-66044219D01*
X99579438Y-66201361D01*
X99474676Y-66306123D01*
X99369914Y-66358504D01*
X100417533Y-66148980D02*
X100469914Y-66096600D01*
X100574676Y-66044219D01*
X100836580Y-66044219D01*
X100941342Y-66096600D01*
X100993723Y-66148980D01*
X101046104Y-66253742D01*
X101046104Y-66358504D01*
X100993723Y-66515647D01*
X100365152Y-67144219D01*
X101046104Y-67144219D01*
X101412771Y-66410885D02*
X101674676Y-67144219D01*
X101936580Y-66410885D01*
X103036580Y-66410885D02*
X103455628Y-66410885D01*
X103193723Y-66044219D02*
X103193723Y-66987076D01*
X103246104Y-67091838D01*
X103350866Y-67144219D01*
X103455628Y-67144219D01*
X103979438Y-67144219D02*
X103874676Y-67091838D01*
X103822295Y-67039457D01*
X103769914Y-66934695D01*
X103769914Y-66620409D01*
X103822295Y-66515647D01*
X103874676Y-66463266D01*
X103979438Y-66410885D01*
X104136580Y-66410885D01*
X104241342Y-66463266D01*
X104293723Y-66515647D01*
X104346104Y-66620409D01*
X104346104Y-66934695D01*
X104293723Y-67039457D01*
X104241342Y-67091838D01*
X104136580Y-67144219D01*
X103979438Y-67144219D01*
X105603247Y-66148980D02*
X105655628Y-66096600D01*
X105760390Y-66044219D01*
X106022295Y-66044219D01*
X106127057Y-66096600D01*
X106179438Y-66148980D01*
X106231819Y-66253742D01*
X106231819Y-66358504D01*
X106179438Y-66515647D01*
X105550866Y-67144219D01*
X106231819Y-67144219D01*
X107174676Y-66410885D02*
X107174676Y-67144219D01*
X106912771Y-65991838D02*
X106650866Y-66777552D01*
X107331819Y-66777552D01*
X107646104Y-66410885D02*
X107908009Y-67144219D01*
X108169914Y-66410885D01*
X110108009Y-66620409D02*
X110055628Y-66568028D01*
X109950866Y-66515647D01*
X109846104Y-66515647D01*
X109741342Y-66568028D01*
X109688961Y-66620409D01*
X109636580Y-66725171D01*
X109636580Y-66829933D01*
X109688961Y-66934695D01*
X109741342Y-66987076D01*
X109846104Y-67039457D01*
X109950866Y-67039457D01*
X110055628Y-66987076D01*
X110108009Y-66934695D01*
X110108009Y-66515647D02*
X110108009Y-66934695D01*
X110160390Y-66987076D01*
X110212771Y-66987076D01*
X110317533Y-66934695D01*
X110369914Y-66829933D01*
X110369914Y-66568028D01*
X110265152Y-66410885D01*
X110108009Y-66306123D01*
X109898485Y-66253742D01*
X109688961Y-66306123D01*
X109531819Y-66410885D01*
X109427057Y-66568028D01*
X109374676Y-66777552D01*
X109427057Y-66987076D01*
X109531819Y-67144219D01*
X109688961Y-67248980D01*
X109898485Y-67301361D01*
X110108009Y-67248980D01*
X110265152Y-67144219D01*
X111627057Y-66148980D02*
X111679438Y-66096600D01*
X111784200Y-66044219D01*
X112046104Y-66044219D01*
X112150866Y-66096600D01*
X112203247Y-66148980D01*
X112255628Y-66253742D01*
X112255628Y-66358504D01*
X112203247Y-66515647D01*
X111574676Y-67144219D01*
X112255628Y-67144219D01*
X112674676Y-66829933D02*
X113198485Y-66829933D01*
X112569914Y-67144219D02*
X112936580Y-66044219D01*
X113303247Y-67144219D01*
D13*
X131957731Y-116908334D02*
X131786302Y-116822620D01*
X131700588Y-116736905D01*
X131614874Y-116565477D01*
X131614874Y-116479762D01*
X131700588Y-116308334D01*
X131786302Y-116222620D01*
X131957731Y-116136905D01*
X132300588Y-116136905D01*
X132472017Y-116222620D01*
X132557731Y-116308334D01*
X132643445Y-116479762D01*
X132643445Y-116565477D01*
X132557731Y-116736905D01*
X132472017Y-116822620D01*
X132300588Y-116908334D01*
X131957731Y-116908334D01*
X131786302Y-116994048D01*
X131700588Y-117079762D01*
X131614874Y-117251191D01*
X131614874Y-117594048D01*
X131700588Y-117765477D01*
X131786302Y-117851191D01*
X131957731Y-117936905D01*
X132300588Y-117936905D01*
X132472017Y-117851191D01*
X132557731Y-117765477D01*
X132643445Y-117594048D01*
X132643445Y-117251191D01*
X132557731Y-117079762D01*
X132472017Y-116994048D01*
X132300588Y-116908334D01*
X121529160Y-116136905D02*
X122729160Y-116136905D01*
X121957731Y-117936905D01*
X112222017Y-116136905D02*
X111879160Y-116136905D01*
X111707731Y-116222620D01*
X111622017Y-116308334D01*
X111450588Y-116565477D01*
X111364874Y-116908334D01*
X111364874Y-117594048D01*
X111450588Y-117765477D01*
X111536302Y-117851191D01*
X111707731Y-117936905D01*
X112050588Y-117936905D01*
X112222017Y-117851191D01*
X112307731Y-117765477D01*
X112393445Y-117594048D01*
X112393445Y-117165477D01*
X112307731Y-116994048D01*
X112222017Y-116908334D01*
X112050588Y-116822620D01*
X111707731Y-116822620D01*
X111536302Y-116908334D01*
X111450588Y-116994048D01*
X111364874Y-117165477D01*
X102057731Y-116136905D02*
X101200588Y-116136905D01*
X101114874Y-116994048D01*
X101200588Y-116908334D01*
X101372017Y-116822620D01*
X101800588Y-116822620D01*
X101972017Y-116908334D01*
X102057731Y-116994048D01*
X102143445Y-117165477D01*
X102143445Y-117594048D01*
X102057731Y-117765477D01*
X101972017Y-117851191D01*
X101800588Y-117936905D01*
X101372017Y-117936905D01*
X101200588Y-117851191D01*
X101114874Y-117765477D01*
X91972017Y-116736905D02*
X91972017Y-117936905D01*
X91543445Y-116051191D02*
X91114874Y-117336905D01*
X92229160Y-117336905D01*
X80779160Y-116136905D02*
X81893445Y-116136905D01*
X81293445Y-116822620D01*
X81550588Y-116822620D01*
X81722017Y-116908334D01*
X81807731Y-116994048D01*
X81893445Y-117165477D01*
X81893445Y-117594048D01*
X81807731Y-117765477D01*
X81722017Y-117851191D01*
X81550588Y-117936905D01*
X81036302Y-117936905D01*
X80864874Y-117851191D01*
X80779160Y-117765477D01*
X70864874Y-116308334D02*
X70950588Y-116222620D01*
X71122017Y-116136905D01*
X71550588Y-116136905D01*
X71722017Y-116222620D01*
X71807731Y-116308334D01*
X71893445Y-116479762D01*
X71893445Y-116651191D01*
X71807731Y-116908334D01*
X70779160Y-117936905D01*
X71893445Y-117936905D01*
X61643445Y-117936905D02*
X60614874Y-117936905D01*
X61129160Y-117936905D02*
X61129160Y-116136905D01*
X60957731Y-116394048D01*
X60786302Y-116565477D01*
X60614874Y-116651191D01*
X125986302Y-117086905D02*
X128272017Y-117086905D01*
X127129160Y-118229762D02*
X127129160Y-115944048D01*
X115736302Y-117086905D02*
X118022017Y-117086905D01*
X116879160Y-118229762D02*
X116879160Y-115944048D01*
X105736302Y-117086905D02*
X108022017Y-117086905D01*
X106879160Y-118229762D02*
X106879160Y-115944048D01*
X85236302Y-117086905D02*
X87522017Y-117086905D01*
X86379160Y-118229762D02*
X86379160Y-115944048D01*
X95486302Y-117086905D02*
X97772017Y-117086905D01*
X96629160Y-118229762D02*
X96629160Y-115944048D01*
X75236302Y-117086905D02*
X77522017Y-117086905D01*
X76379160Y-118229762D02*
X76379160Y-115944048D01*
X64986302Y-117086905D02*
X67272017Y-117086905D01*
X66129160Y-118229762D02*
X66129160Y-115944048D01*
X54986302Y-117086905D02*
X57272017Y-117086905D01*
X56129160Y-118229762D02*
X56129160Y-115944048D01*
D14*
X131544485Y-85705953D02*
X131544485Y-84486905D01*
X132154009Y-85096429D02*
X130934961Y-85096429D01*
X132154009Y-82505953D02*
X130554009Y-82505953D01*
X130554009Y-81896429D01*
X130630200Y-81744048D01*
X130706390Y-81667858D01*
X130858771Y-81591667D01*
X131087342Y-81591667D01*
X131239723Y-81667858D01*
X131315914Y-81744048D01*
X131392104Y-81896429D01*
X131392104Y-82505953D01*
X130554009Y-81058334D02*
X132154009Y-80677381D01*
X131011152Y-80372620D01*
X132154009Y-80067858D01*
X130554009Y-79686905D01*
X132154009Y-78163096D02*
X131392104Y-78696429D01*
X132154009Y-79077381D02*
X130554009Y-79077381D01*
X130554009Y-78467858D01*
X130630200Y-78315477D01*
X130706390Y-78239286D01*
X130858771Y-78163096D01*
X131087342Y-78163096D01*
X131239723Y-78239286D01*
X131315914Y-78315477D01*
X131392104Y-78467858D01*
X131392104Y-79077381D01*
X131544485Y-76258334D02*
X131544485Y-75039286D01*
D11*
X123934600Y-69778257D02*
X123934600Y-70749685D01*
X123991742Y-70863971D01*
X124048885Y-70921114D01*
X124163171Y-70978257D01*
X124391742Y-70978257D01*
X124506028Y-70921114D01*
X124563171Y-70863971D01*
X124620314Y-70749685D01*
X124620314Y-69778257D01*
X125134600Y-70635400D02*
X125706028Y-70635400D01*
X125020314Y-70978257D02*
X125420314Y-69778257D01*
X125820314Y-70978257D01*
X126906028Y-70978257D02*
X126506028Y-70406828D01*
X126220314Y-70978257D02*
X126220314Y-69778257D01*
X126677457Y-69778257D01*
X126791742Y-69835400D01*
X126848885Y-69892542D01*
X126906028Y-70006828D01*
X126906028Y-70178257D01*
X126848885Y-70292542D01*
X126791742Y-70349685D01*
X126677457Y-70406828D01*
X126220314Y-70406828D01*
X127248885Y-69778257D02*
X127934600Y-69778257D01*
X127591742Y-70978257D02*
X127591742Y-69778257D01*
X129248885Y-70521114D02*
X130163171Y-70521114D01*
X131534600Y-69778257D02*
X132277457Y-69778257D01*
X131877457Y-70235400D01*
X132048885Y-70235400D01*
X132163171Y-70292542D01*
X132220314Y-70349685D01*
X132277457Y-70463971D01*
X132277457Y-70749685D01*
X132220314Y-70863971D01*
X132163171Y-70921114D01*
X132048885Y-70978257D01*
X131706028Y-70978257D01*
X131591742Y-70921114D01*
X131534600Y-70863971D01*
X132677457Y-70178257D02*
X132963171Y-70978257D01*
X133248885Y-70178257D01*
X122067057Y-64800071D02*
X121495628Y-65200071D01*
X122067057Y-65485785D02*
X120867057Y-65485785D01*
X120867057Y-65028642D01*
X120924200Y-64914357D01*
X120981342Y-64857214D01*
X121095628Y-64800071D01*
X121267057Y-64800071D01*
X121381342Y-64857214D01*
X121438485Y-64914357D01*
X121495628Y-65028642D01*
X121495628Y-65485785D01*
X120867057Y-64400071D02*
X122067057Y-63600071D01*
X120867057Y-63600071D02*
X122067057Y-64400071D01*
X123407057Y-65657214D02*
X123407057Y-64971500D01*
X124607057Y-65314357D02*
X123407057Y-65314357D01*
X123407057Y-64685785D02*
X124607057Y-63885785D01*
X123407057Y-63885785D02*
X124607057Y-64685785D01*
X131084200Y-64857214D02*
X131027057Y-64971500D01*
X131027057Y-65142928D01*
X131084200Y-65314357D01*
X131198485Y-65428642D01*
X131312771Y-65485785D01*
X131541342Y-65542928D01*
X131712771Y-65542928D01*
X131941342Y-65485785D01*
X132055628Y-65428642D01*
X132169914Y-65314357D01*
X132227057Y-65142928D01*
X132227057Y-65028642D01*
X132169914Y-64857214D01*
X132112771Y-64800071D01*
X131712771Y-64800071D01*
X131712771Y-65028642D01*
X132227057Y-64285785D02*
X131027057Y-64285785D01*
X132227057Y-63600071D01*
X131027057Y-63600071D01*
X132227057Y-63028642D02*
X131027057Y-63028642D01*
X131027057Y-62742928D01*
X131084200Y-62571500D01*
X131198485Y-62457214D01*
X131312771Y-62400071D01*
X131541342Y-62342928D01*
X131712771Y-62342928D01*
X131941342Y-62400071D01*
X132055628Y-62457214D01*
X132169914Y-62571500D01*
X132227057Y-62742928D01*
X132227057Y-63028642D01*
D15*
G04 #@! TO.C,JP10*
X133986200Y-90530000D02*
G75*
G02*
X134686200Y-89830000I700000J0D01*
G01*
X134686200Y-91830000D02*
G75*
G02*
X133986200Y-91130000I0J700000D01*
G01*
X136786200Y-91130000D02*
G75*
G02*
X136086200Y-91830000I-700000J0D01*
G01*
X136086200Y-89830000D02*
G75*
G02*
X136786200Y-90530000I0J-700000D01*
G01*
X133986200Y-91130000D02*
X133986200Y-90530000D01*
X136086200Y-91830000D02*
X134686200Y-91830000D01*
X136786200Y-90530000D02*
X136786200Y-91130000D01*
X134686200Y-89830000D02*
X136086200Y-89830000D01*
G04 #@! TO.C,U4*
X50128160Y-82914620D02*
X50128160Y-83294620D01*
X43708160Y-82914620D02*
X50128160Y-82914620D01*
X43708160Y-64674620D02*
X50128160Y-64674620D01*
X43708160Y-82914620D02*
X43708160Y-64674620D01*
X69453160Y-64674620D02*
X69453160Y-65674620D01*
X68673160Y-64674620D02*
X69453160Y-64674620D01*
X69453160Y-82914620D02*
X69453160Y-81914620D01*
X68673160Y-82914620D02*
X69453160Y-82914620D01*
G04 #@! TO.C,JP9*
X123396200Y-90530000D02*
G75*
G02*
X124096200Y-89830000I700000J0D01*
G01*
X124096200Y-91830000D02*
G75*
G02*
X123396200Y-91130000I0J700000D01*
G01*
X126196200Y-91130000D02*
G75*
G02*
X125496200Y-91830000I-700000J0D01*
G01*
X125496200Y-89830000D02*
G75*
G02*
X126196200Y-90530000I0J-700000D01*
G01*
X123396200Y-91130000D02*
X123396200Y-90530000D01*
X125496200Y-91830000D02*
X124096200Y-91830000D01*
X126196200Y-90530000D02*
X126196200Y-91130000D01*
X124096200Y-89830000D02*
X125496200Y-89830000D01*
G04 #@! TO.C,JP8*
X113090700Y-90430000D02*
G75*
G02*
X113790700Y-89730000I700000J0D01*
G01*
X113790700Y-91730000D02*
G75*
G02*
X113090700Y-91030000I0J700000D01*
G01*
X115890700Y-91030000D02*
G75*
G02*
X115190700Y-91730000I-700000J0D01*
G01*
X115190700Y-89730000D02*
G75*
G02*
X115890700Y-90430000I0J-700000D01*
G01*
X113090700Y-91030000D02*
X113090700Y-90430000D01*
X115190700Y-91730000D02*
X113790700Y-91730000D01*
X115890700Y-90430000D02*
X115890700Y-91030000D01*
X113790700Y-89730000D02*
X115190700Y-89730000D01*
G04 #@! TO.C,JP7*
X100693200Y-90430000D02*
G75*
G02*
X101393200Y-89730000I700000J0D01*
G01*
X101393200Y-91730000D02*
G75*
G02*
X100693200Y-91030000I0J700000D01*
G01*
X103493200Y-91030000D02*
G75*
G02*
X102793200Y-91730000I-700000J0D01*
G01*
X102793200Y-89730000D02*
G75*
G02*
X103493200Y-90430000I0J-700000D01*
G01*
X100693200Y-91030000D02*
X100693200Y-90430000D01*
X102793200Y-91730000D02*
X101393200Y-91730000D01*
X103493200Y-90430000D02*
X103493200Y-91030000D01*
X101393200Y-89730000D02*
X102793200Y-89730000D01*
G04 #@! TO.C,JP6*
X87929700Y-90430000D02*
G75*
G02*
X88629700Y-89730000I700000J0D01*
G01*
X88629700Y-91730000D02*
G75*
G02*
X87929700Y-91030000I0J700000D01*
G01*
X90729700Y-91030000D02*
G75*
G02*
X90029700Y-91730000I-700000J0D01*
G01*
X90029700Y-89730000D02*
G75*
G02*
X90729700Y-90430000I0J-700000D01*
G01*
X87929700Y-91030000D02*
X87929700Y-90430000D01*
X90029700Y-91730000D02*
X88629700Y-91730000D01*
X90729700Y-90430000D02*
X90729700Y-91030000D01*
X88629700Y-89730000D02*
X90029700Y-89730000D01*
G04 #@! TO.C,JP5*
X74785200Y-90430000D02*
G75*
G02*
X75485200Y-89730000I700000J0D01*
G01*
X75485200Y-91730000D02*
G75*
G02*
X74785200Y-91030000I0J700000D01*
G01*
X77585200Y-91030000D02*
G75*
G02*
X76885200Y-91730000I-700000J0D01*
G01*
X76885200Y-89730000D02*
G75*
G02*
X77585200Y-90430000I0J-700000D01*
G01*
X74785200Y-91030000D02*
X74785200Y-90430000D01*
X76885200Y-91730000D02*
X75485200Y-91730000D01*
X77585200Y-90430000D02*
X77585200Y-91030000D01*
X75485200Y-89730000D02*
X76885200Y-89730000D01*
G04 #@! TO.C,JP4*
X64180700Y-90430000D02*
G75*
G02*
X64880700Y-89730000I700000J0D01*
G01*
X64880700Y-91730000D02*
G75*
G02*
X64180700Y-91030000I0J700000D01*
G01*
X66980700Y-91030000D02*
G75*
G02*
X66280700Y-91730000I-700000J0D01*
G01*
X66280700Y-89730000D02*
G75*
G02*
X66980700Y-90430000I0J-700000D01*
G01*
X64180700Y-91030000D02*
X64180700Y-90430000D01*
X66280700Y-91730000D02*
X64880700Y-91730000D01*
X66980700Y-90430000D02*
X66980700Y-91030000D01*
X64880700Y-89730000D02*
X66280700Y-89730000D01*
G04 #@! TO.C,JP3*
X53845200Y-90493500D02*
G75*
G02*
X54545200Y-89793500I700000J0D01*
G01*
X54545200Y-91793500D02*
G75*
G02*
X53845200Y-91093500I0J700000D01*
G01*
X56645200Y-91093500D02*
G75*
G02*
X55945200Y-91793500I-700000J0D01*
G01*
X55945200Y-89793500D02*
G75*
G02*
X56645200Y-90493500I0J-700000D01*
G01*
X53845200Y-91093500D02*
X53845200Y-90493500D01*
X55945200Y-91793500D02*
X54545200Y-91793500D01*
X56645200Y-90493500D02*
X56645200Y-91093500D01*
X54545200Y-89793500D02*
X55945200Y-89793500D01*
G04 #@! TO.C,JP2*
X91205800Y-75575400D02*
X91205800Y-72915400D01*
X88605800Y-75575400D02*
X91205800Y-75575400D01*
X88605800Y-72915400D02*
X91205800Y-72915400D01*
X88605800Y-75575400D02*
X88605800Y-72915400D01*
X87335800Y-75575400D02*
X86005800Y-75575400D01*
X86005800Y-75575400D02*
X86005800Y-74245400D01*
G04 #@! TO.C,C10*
X107378000Y-89579748D02*
X107378000Y-90102252D01*
X108848000Y-89579748D02*
X108848000Y-90102252D01*
G04 #@! TO.C,JP1*
X79427200Y-75575400D02*
X79427200Y-74245400D01*
X80757200Y-75575400D02*
X79427200Y-75575400D01*
X82027200Y-75575400D02*
X82027200Y-72915400D01*
X82027200Y-72915400D02*
X84627200Y-72915400D01*
X82027200Y-75575400D02*
X84627200Y-75575400D01*
X84627200Y-75575400D02*
X84627200Y-72915400D01*
G04 #@! TO.C,R3*
X103955160Y-78519936D02*
X103955160Y-82874064D01*
X100535160Y-78519936D02*
X100535160Y-82874064D01*
G04 #@! TO.C,U1*
X106060560Y-72270620D02*
X106060560Y-74220620D01*
X106060560Y-72270620D02*
X106060560Y-70320620D01*
X111180560Y-72270620D02*
X111180560Y-74220620D01*
X111180560Y-72270620D02*
X111180560Y-68820620D01*
G04 #@! TO.C,J3*
X130414200Y-66362200D02*
X130414200Y-69022200D01*
X130414200Y-66362200D02*
X117654200Y-66362200D01*
X117654200Y-66362200D02*
X117654200Y-69022200D01*
X130414200Y-69022200D02*
X117654200Y-69022200D01*
X133014200Y-69022200D02*
X131684200Y-69022200D01*
X133014200Y-67692200D02*
X133014200Y-69022200D01*
G04 #@! TO.C,D2*
X122544200Y-71449000D02*
X122544200Y-73689000D01*
X122784200Y-71449000D02*
X122784200Y-73689000D01*
X122664200Y-71449000D02*
X122664200Y-73689000D01*
X126834200Y-72569000D02*
X126184200Y-72569000D01*
X121294200Y-72569000D02*
X121944200Y-72569000D01*
X126184200Y-71449000D02*
X121944200Y-71449000D01*
X126184200Y-73689000D02*
X126184200Y-71449000D01*
X121944200Y-73689000D02*
X126184200Y-73689000D01*
X121944200Y-71449000D02*
X121944200Y-73689000D01*
G04 #@! TO.C,R10*
X72239136Y-75672000D02*
X72693264Y-75672000D01*
X72239136Y-74202000D02*
X72693264Y-74202000D01*
G04 #@! TO.C,R9*
X72693264Y-72043620D02*
X72239136Y-72043620D01*
X72693264Y-73513620D02*
X72239136Y-73513620D01*
G04 #@! TO.C,R8*
X84667264Y-83873600D02*
X84213136Y-83873600D01*
X84667264Y-85343600D02*
X84213136Y-85343600D01*
G04 #@! TO.C,R7*
X114411104Y-71979980D02*
X113956976Y-71979980D01*
X114411104Y-73449980D02*
X113956976Y-73449980D01*
G04 #@! TO.C,R6*
X114411104Y-69820980D02*
X113956976Y-69820980D01*
X114411104Y-71290980D02*
X113956976Y-71290980D01*
G04 #@! TO.C,R5*
X102775136Y-73031020D02*
X103229264Y-73031020D01*
X102775136Y-71561020D02*
X103229264Y-71561020D01*
G04 #@! TO.C,R4*
X102775136Y-70872020D02*
X103229264Y-70872020D01*
X102775136Y-69402020D02*
X103229264Y-69402020D01*
D16*
G04 #@! TO.C,U8*
X92695200Y-87167720D02*
X92695200Y-86939120D01*
X85583200Y-96870520D02*
X85583200Y-97099120D01*
X85583200Y-97099120D02*
X92695200Y-97099120D01*
X92695200Y-97099120D02*
X92695200Y-96870520D01*
X92695200Y-86939120D02*
X85583200Y-86939120D01*
X85583200Y-86939120D02*
X85583200Y-87116920D01*
D15*
G04 #@! TO.C,C3*
X100523160Y-71536620D02*
G75*
G03*
X100523160Y-71536620I-4120000J0D01*
G01*
X92323160Y-71536620D02*
X100483160Y-71536620D01*
X92323160Y-71496620D02*
X100483160Y-71496620D01*
X92323160Y-71456620D02*
X100483160Y-71456620D01*
X92324160Y-71416620D02*
X100482160Y-71416620D01*
X92326160Y-71376620D02*
X100480160Y-71376620D01*
X92327160Y-71336620D02*
X100479160Y-71336620D01*
X92329160Y-71296620D02*
X100477160Y-71296620D01*
X92332160Y-71256620D02*
X100474160Y-71256620D01*
X92335160Y-71216620D02*
X100471160Y-71216620D01*
X92338160Y-71176620D02*
X100468160Y-71176620D01*
X92342160Y-71136620D02*
X100464160Y-71136620D01*
X92346160Y-71096620D02*
X100460160Y-71096620D01*
X92351160Y-71056620D02*
X100455160Y-71056620D01*
X92355160Y-71016620D02*
X100451160Y-71016620D01*
X92361160Y-70976620D02*
X100445160Y-70976620D01*
X92366160Y-70936620D02*
X100440160Y-70936620D01*
X92373160Y-70896620D02*
X100433160Y-70896620D01*
X92379160Y-70856620D02*
X100427160Y-70856620D01*
X92386160Y-70815620D02*
X95363160Y-70815620D01*
X97443160Y-70815620D02*
X100420160Y-70815620D01*
X92393160Y-70775620D02*
X95363160Y-70775620D01*
X97443160Y-70775620D02*
X100413160Y-70775620D01*
X92401160Y-70735620D02*
X95363160Y-70735620D01*
X97443160Y-70735620D02*
X100405160Y-70735620D01*
X92409160Y-70695620D02*
X95363160Y-70695620D01*
X97443160Y-70695620D02*
X100397160Y-70695620D01*
X92418160Y-70655620D02*
X95363160Y-70655620D01*
X97443160Y-70655620D02*
X100388160Y-70655620D01*
X92427160Y-70615620D02*
X95363160Y-70615620D01*
X97443160Y-70615620D02*
X100379160Y-70615620D01*
X92436160Y-70575620D02*
X95363160Y-70575620D01*
X97443160Y-70575620D02*
X100370160Y-70575620D01*
X92446160Y-70535620D02*
X95363160Y-70535620D01*
X97443160Y-70535620D02*
X100360160Y-70535620D01*
X92456160Y-70495620D02*
X95363160Y-70495620D01*
X97443160Y-70495620D02*
X100350160Y-70495620D01*
X92467160Y-70455620D02*
X95363160Y-70455620D01*
X97443160Y-70455620D02*
X100339160Y-70455620D01*
X92478160Y-70415620D02*
X95363160Y-70415620D01*
X97443160Y-70415620D02*
X100328160Y-70415620D01*
X92489160Y-70375620D02*
X95363160Y-70375620D01*
X97443160Y-70375620D02*
X100317160Y-70375620D01*
X92501160Y-70335620D02*
X95363160Y-70335620D01*
X97443160Y-70335620D02*
X100305160Y-70335620D01*
X92514160Y-70295620D02*
X95363160Y-70295620D01*
X97443160Y-70295620D02*
X100292160Y-70295620D01*
X92526160Y-70255620D02*
X95363160Y-70255620D01*
X97443160Y-70255620D02*
X100280160Y-70255620D01*
X92540160Y-70215620D02*
X95363160Y-70215620D01*
X97443160Y-70215620D02*
X100266160Y-70215620D01*
X92553160Y-70175620D02*
X95363160Y-70175620D01*
X97443160Y-70175620D02*
X100253160Y-70175620D01*
X92568160Y-70135620D02*
X95363160Y-70135620D01*
X97443160Y-70135620D02*
X100238160Y-70135620D01*
X92582160Y-70095620D02*
X95363160Y-70095620D01*
X97443160Y-70095620D02*
X100224160Y-70095620D01*
X92598160Y-70055620D02*
X95363160Y-70055620D01*
X97443160Y-70055620D02*
X100208160Y-70055620D01*
X92613160Y-70015620D02*
X95363160Y-70015620D01*
X97443160Y-70015620D02*
X100193160Y-70015620D01*
X92629160Y-69975620D02*
X95363160Y-69975620D01*
X97443160Y-69975620D02*
X100177160Y-69975620D01*
X92646160Y-69935620D02*
X95363160Y-69935620D01*
X97443160Y-69935620D02*
X100160160Y-69935620D01*
X92663160Y-69895620D02*
X95363160Y-69895620D01*
X97443160Y-69895620D02*
X100143160Y-69895620D01*
X92681160Y-69855620D02*
X95363160Y-69855620D01*
X97443160Y-69855620D02*
X100125160Y-69855620D01*
X92699160Y-69815620D02*
X95363160Y-69815620D01*
X97443160Y-69815620D02*
X100107160Y-69815620D01*
X92717160Y-69775620D02*
X95363160Y-69775620D01*
X97443160Y-69775620D02*
X100089160Y-69775620D01*
X92737160Y-69735620D02*
X95363160Y-69735620D01*
X97443160Y-69735620D02*
X100069160Y-69735620D01*
X92756160Y-69695620D02*
X95363160Y-69695620D01*
X97443160Y-69695620D02*
X100050160Y-69695620D01*
X92776160Y-69655620D02*
X95363160Y-69655620D01*
X97443160Y-69655620D02*
X100030160Y-69655620D01*
X92797160Y-69615620D02*
X95363160Y-69615620D01*
X97443160Y-69615620D02*
X100009160Y-69615620D01*
X92819160Y-69575620D02*
X95363160Y-69575620D01*
X97443160Y-69575620D02*
X99987160Y-69575620D01*
X92841160Y-69535620D02*
X95363160Y-69535620D01*
X97443160Y-69535620D02*
X99965160Y-69535620D01*
X92863160Y-69495620D02*
X95363160Y-69495620D01*
X97443160Y-69495620D02*
X99943160Y-69495620D01*
X92886160Y-69455620D02*
X95363160Y-69455620D01*
X97443160Y-69455620D02*
X99920160Y-69455620D01*
X92910160Y-69415620D02*
X95363160Y-69415620D01*
X97443160Y-69415620D02*
X99896160Y-69415620D01*
X92934160Y-69375620D02*
X95363160Y-69375620D01*
X97443160Y-69375620D02*
X99872160Y-69375620D01*
X92959160Y-69335620D02*
X95363160Y-69335620D01*
X97443160Y-69335620D02*
X99847160Y-69335620D01*
X92985160Y-69295620D02*
X95363160Y-69295620D01*
X97443160Y-69295620D02*
X99821160Y-69295620D01*
X93011160Y-69255620D02*
X95363160Y-69255620D01*
X97443160Y-69255620D02*
X99795160Y-69255620D01*
X93038160Y-69215620D02*
X95363160Y-69215620D01*
X97443160Y-69215620D02*
X99768160Y-69215620D01*
X93065160Y-69175620D02*
X95363160Y-69175620D01*
X97443160Y-69175620D02*
X99741160Y-69175620D01*
X93094160Y-69135620D02*
X95363160Y-69135620D01*
X97443160Y-69135620D02*
X99712160Y-69135620D01*
X93123160Y-69095620D02*
X95363160Y-69095620D01*
X97443160Y-69095620D02*
X99683160Y-69095620D01*
X93153160Y-69055620D02*
X95363160Y-69055620D01*
X97443160Y-69055620D02*
X99653160Y-69055620D01*
X93183160Y-69015620D02*
X95363160Y-69015620D01*
X97443160Y-69015620D02*
X99623160Y-69015620D01*
X93214160Y-68975620D02*
X95363160Y-68975620D01*
X97443160Y-68975620D02*
X99592160Y-68975620D01*
X93247160Y-68935620D02*
X95363160Y-68935620D01*
X97443160Y-68935620D02*
X99559160Y-68935620D01*
X93279160Y-68895620D02*
X95363160Y-68895620D01*
X97443160Y-68895620D02*
X99527160Y-68895620D01*
X93313160Y-68855620D02*
X95363160Y-68855620D01*
X97443160Y-68855620D02*
X99493160Y-68855620D01*
X93348160Y-68815620D02*
X95363160Y-68815620D01*
X97443160Y-68815620D02*
X99458160Y-68815620D01*
X93384160Y-68775620D02*
X95363160Y-68775620D01*
X97443160Y-68775620D02*
X99422160Y-68775620D01*
X93420160Y-68735620D02*
X99386160Y-68735620D01*
X93458160Y-68695620D02*
X99348160Y-68695620D01*
X93496160Y-68655620D02*
X99310160Y-68655620D01*
X93536160Y-68615620D02*
X99270160Y-68615620D01*
X93577160Y-68575620D02*
X99229160Y-68575620D01*
X93619160Y-68535620D02*
X99187160Y-68535620D01*
X93662160Y-68495620D02*
X99144160Y-68495620D01*
X93706160Y-68455620D02*
X99100160Y-68455620D01*
X93752160Y-68415620D02*
X99054160Y-68415620D01*
X93799160Y-68375620D02*
X99007160Y-68375620D01*
X93847160Y-68335620D02*
X98959160Y-68335620D01*
X93898160Y-68295620D02*
X98908160Y-68295620D01*
X93949160Y-68255620D02*
X98857160Y-68255620D01*
X94003160Y-68215620D02*
X98803160Y-68215620D01*
X94058160Y-68175620D02*
X98748160Y-68175620D01*
X94116160Y-68135620D02*
X98690160Y-68135620D01*
X94175160Y-68095620D02*
X98631160Y-68095620D01*
X94237160Y-68055620D02*
X98569160Y-68055620D01*
X94301160Y-68015620D02*
X98505160Y-68015620D01*
X94369160Y-67975620D02*
X98437160Y-67975620D01*
X94439160Y-67935620D02*
X98367160Y-67935620D01*
X94513160Y-67895620D02*
X98293160Y-67895620D01*
X94590160Y-67855620D02*
X98216160Y-67855620D01*
X94672160Y-67815620D02*
X98134160Y-67815620D01*
X94758160Y-67775620D02*
X98048160Y-67775620D01*
X94851160Y-67735620D02*
X97955160Y-67735620D01*
X94950160Y-67695620D02*
X97856160Y-67695620D01*
X95057160Y-67655620D02*
X97749160Y-67655620D01*
X95174160Y-67615620D02*
X97632160Y-67615620D01*
X95305160Y-67575620D02*
X97501160Y-67575620D01*
X95455160Y-67535620D02*
X97351160Y-67535620D01*
X95635160Y-67495620D02*
X97171160Y-67495620D01*
X95870160Y-67455620D02*
X96936160Y-67455620D01*
X94088160Y-75946318D02*
X94088160Y-75146318D01*
X93688160Y-75546318D02*
X94488160Y-75546318D01*
D16*
G04 #@! TO.C,U12*
X138832200Y-87167720D02*
X138832200Y-86939120D01*
X131720200Y-96870520D02*
X131720200Y-97099120D01*
X131720200Y-97099120D02*
X138832200Y-97099120D01*
X138832200Y-97099120D02*
X138832200Y-96870520D01*
X138832200Y-86939120D02*
X131720200Y-86939120D01*
X131720200Y-86939120D02*
X131720200Y-87116920D01*
G04 #@! TO.C,U11*
X128377600Y-87167720D02*
X128377600Y-86939120D01*
X121265600Y-96870520D02*
X121265600Y-97099120D01*
X121265600Y-97099120D02*
X128377600Y-97099120D01*
X128377600Y-97099120D02*
X128377600Y-96870520D01*
X128377600Y-86939120D02*
X121265600Y-86939120D01*
X121265600Y-86939120D02*
X121265600Y-87116920D01*
G04 #@! TO.C,U10*
X117968200Y-87167720D02*
X117968200Y-86939120D01*
X110856200Y-96870520D02*
X110856200Y-97099120D01*
X110856200Y-97099120D02*
X117968200Y-97099120D01*
X117968200Y-97099120D02*
X117968200Y-96870520D01*
X117968200Y-86939120D02*
X110856200Y-86939120D01*
X110856200Y-86939120D02*
X110856200Y-87116920D01*
G04 #@! TO.C,U9*
X105369800Y-87167720D02*
X105369800Y-86939120D01*
X98257800Y-96870520D02*
X98257800Y-97099120D01*
X98257800Y-97099120D02*
X105369800Y-97099120D01*
X105369800Y-97099120D02*
X105369800Y-96870520D01*
X105369800Y-86939120D02*
X98257800Y-86939120D01*
X98257800Y-86939120D02*
X98257800Y-87116920D01*
G04 #@! TO.C,U7*
X79702660Y-87167720D02*
X79702660Y-86939120D01*
X72590660Y-96870520D02*
X72590660Y-97099120D01*
X72590660Y-97099120D02*
X79702660Y-97099120D01*
X79702660Y-97099120D02*
X79702660Y-96870520D01*
X79702660Y-86939120D02*
X72590660Y-86939120D01*
X72590660Y-86939120D02*
X72590660Y-87116920D01*
G04 #@! TO.C,U6*
X69251000Y-87167720D02*
X69251000Y-86939120D01*
X62139000Y-96870520D02*
X62139000Y-97099120D01*
X62139000Y-97099120D02*
X69251000Y-97099120D01*
X69251000Y-97099120D02*
X69251000Y-96870520D01*
X69251000Y-86939120D02*
X62139000Y-86939120D01*
X62139000Y-86939120D02*
X62139000Y-87116920D01*
G04 #@! TO.C,U5*
X58747660Y-87167720D02*
X58747660Y-86939120D01*
X51635660Y-96870520D02*
X51635660Y-97099120D01*
X51635660Y-97099120D02*
X58747660Y-97099120D01*
X58747660Y-97099120D02*
X58747660Y-96870520D01*
X58747660Y-86939120D02*
X51635660Y-86939120D01*
X51635660Y-86939120D02*
X51635660Y-87116920D01*
D15*
G04 #@! TO.C,U3*
X78452200Y-78533000D02*
X77192200Y-78533000D01*
X71632200Y-78533000D02*
X72892200Y-78533000D01*
X78452200Y-82293000D02*
X78452200Y-78533000D01*
X71632200Y-84543000D02*
X71632200Y-78533000D01*
G04 #@! TO.C,U2*
X99202660Y-85180620D02*
X87481660Y-85180620D01*
X99202660Y-76560620D02*
X87481660Y-76560620D01*
X99202660Y-85180620D02*
X99202660Y-76560620D01*
X87481660Y-85180620D02*
X87481660Y-76560620D01*
X99442660Y-77560620D02*
X99442660Y-76320620D01*
X99442660Y-76320620D02*
X98202660Y-76320620D01*
G04 #@! TO.C,SW1*
X81535200Y-64656000D02*
X77035200Y-64656000D01*
X82785200Y-68656000D02*
X82785200Y-67156000D01*
X77035200Y-71156000D02*
X81535200Y-71156000D01*
X75785200Y-67156000D02*
X75785200Y-68656000D01*
G04 #@! TO.C,Q10*
X130716660Y-98909120D02*
X140956660Y-98909120D01*
X130716660Y-103550120D02*
X140956660Y-103550120D01*
X130716660Y-98909120D02*
X130716660Y-103550120D01*
X140956660Y-98909120D02*
X140956660Y-103550120D01*
X130716660Y-100419120D02*
X140956660Y-100419120D01*
X133986660Y-98909120D02*
X133986660Y-100419120D01*
X137687660Y-98909120D02*
X137687660Y-100419120D01*
G04 #@! TO.C,Q9*
X118651660Y-98909120D02*
X128891660Y-98909120D01*
X118651660Y-103550120D02*
X128891660Y-103550120D01*
X118651660Y-98909120D02*
X118651660Y-103550120D01*
X128891660Y-98909120D02*
X128891660Y-103550120D01*
X118651660Y-100419120D02*
X128891660Y-100419120D01*
X121921660Y-98909120D02*
X121921660Y-100419120D01*
X125622660Y-98909120D02*
X125622660Y-100419120D01*
G04 #@! TO.C,Q8*
X106586660Y-98909120D02*
X116826660Y-98909120D01*
X106586660Y-103550120D02*
X116826660Y-103550120D01*
X106586660Y-98909120D02*
X106586660Y-103550120D01*
X116826660Y-98909120D02*
X116826660Y-103550120D01*
X106586660Y-100419120D02*
X116826660Y-100419120D01*
X109856660Y-98909120D02*
X109856660Y-100419120D01*
X113557660Y-98909120D02*
X113557660Y-100419120D01*
G04 #@! TO.C,Q7*
X94521660Y-98909120D02*
X104761660Y-98909120D01*
X94521660Y-103550120D02*
X104761660Y-103550120D01*
X94521660Y-98909120D02*
X94521660Y-103550120D01*
X104761660Y-98909120D02*
X104761660Y-103550120D01*
X94521660Y-100419120D02*
X104761660Y-100419120D01*
X97791660Y-98909120D02*
X97791660Y-100419120D01*
X101492660Y-98909120D02*
X101492660Y-100419120D01*
G04 #@! TO.C,Q6*
X82456660Y-98909120D02*
X92696660Y-98909120D01*
X82456660Y-103550120D02*
X92696660Y-103550120D01*
X82456660Y-98909120D02*
X82456660Y-103550120D01*
X92696660Y-98909120D02*
X92696660Y-103550120D01*
X82456660Y-100419120D02*
X92696660Y-100419120D01*
X85726660Y-98909120D02*
X85726660Y-100419120D01*
X89427660Y-98909120D02*
X89427660Y-100419120D01*
G04 #@! TO.C,Q5*
X70391660Y-98909120D02*
X80631660Y-98909120D01*
X70391660Y-103550120D02*
X80631660Y-103550120D01*
X70391660Y-98909120D02*
X70391660Y-103550120D01*
X80631660Y-98909120D02*
X80631660Y-103550120D01*
X70391660Y-100419120D02*
X80631660Y-100419120D01*
X73661660Y-98909120D02*
X73661660Y-100419120D01*
X77362660Y-98909120D02*
X77362660Y-100419120D01*
G04 #@! TO.C,Q4*
X58326660Y-98909120D02*
X68566660Y-98909120D01*
X58326660Y-103550120D02*
X68566660Y-103550120D01*
X58326660Y-98909120D02*
X58326660Y-103550120D01*
X68566660Y-98909120D02*
X68566660Y-103550120D01*
X58326660Y-100419120D02*
X68566660Y-100419120D01*
X61596660Y-98909120D02*
X61596660Y-100419120D01*
X65297660Y-98909120D02*
X65297660Y-100419120D01*
G04 #@! TO.C,Q3*
X46261660Y-98909120D02*
X56501660Y-98909120D01*
X46261660Y-103550120D02*
X56501660Y-103550120D01*
X46261660Y-98909120D02*
X46261660Y-103550120D01*
X56501660Y-98909120D02*
X56501660Y-103550120D01*
X46261660Y-100419120D02*
X56501660Y-100419120D01*
X49531660Y-98909120D02*
X49531660Y-100419120D01*
X53232660Y-98909120D02*
X53232660Y-100419120D01*
G04 #@! TO.C,L1*
X113204200Y-76267000D02*
X120174200Y-76267000D01*
X122874200Y-76267000D02*
X129844200Y-76267000D01*
X113204200Y-84107000D02*
X120174200Y-84107000D01*
X122874200Y-84107000D02*
X129844200Y-84107000D01*
X113204200Y-76267000D02*
X113204200Y-84107000D01*
X129844200Y-76267000D02*
X129844200Y-84107000D01*
G04 #@! TO.C,J2*
X62777160Y-110370620D02*
G75*
G03*
X62777160Y-110370620I-1680000J0D01*
G01*
X67857160Y-110370620D02*
G75*
G03*
X67857160Y-110370620I-1680000J0D01*
G01*
X72937160Y-110370620D02*
G75*
G03*
X72937160Y-110370620I-1680000J0D01*
G01*
X78017160Y-110370620D02*
G75*
G03*
X78017160Y-110370620I-1680000J0D01*
G01*
X83097160Y-110370620D02*
G75*
G03*
X83097160Y-110370620I-1680000J0D01*
G01*
X88177160Y-110370620D02*
G75*
G03*
X88177160Y-110370620I-1680000J0D01*
G01*
X93257160Y-110370620D02*
G75*
G03*
X93257160Y-110370620I-1680000J0D01*
G01*
X98337160Y-110370620D02*
G75*
G03*
X98337160Y-110370620I-1680000J0D01*
G01*
X103417160Y-110370620D02*
G75*
G03*
X103417160Y-110370620I-1680000J0D01*
G01*
X108497160Y-110370620D02*
G75*
G03*
X108497160Y-110370620I-1680000J0D01*
G01*
X113577160Y-110370620D02*
G75*
G03*
X113577160Y-110370620I-1680000J0D01*
G01*
X118657160Y-110370620D02*
G75*
G03*
X118657160Y-110370620I-1680000J0D01*
G01*
X123737160Y-110370620D02*
G75*
G03*
X123737160Y-110370620I-1680000J0D01*
G01*
X128817160Y-110370620D02*
G75*
G03*
X128817160Y-110370620I-1680000J0D01*
G01*
X133897160Y-110370620D02*
G75*
G03*
X133897160Y-110370620I-1680000J0D01*
G01*
X53417160Y-114470620D02*
X134818160Y-114470620D01*
X53417160Y-112970620D02*
X134818160Y-112970620D01*
X53417160Y-108069620D02*
X134818160Y-108069620D01*
X53417160Y-105109620D02*
X134818160Y-105109620D01*
X53417160Y-115030620D02*
X134818160Y-115030620D01*
X53417160Y-105109620D02*
X53417160Y-115030620D01*
X134818160Y-105109620D02*
X134818160Y-115030620D01*
X62372160Y-109301620D02*
X62325160Y-109347620D01*
X60063160Y-111609620D02*
X60028160Y-111644620D01*
X62167160Y-109095620D02*
X62132160Y-109131620D01*
X59870160Y-111393620D02*
X59823160Y-111439620D01*
X67452160Y-109301620D02*
X67405160Y-109347620D01*
X65143160Y-111609620D02*
X65108160Y-111644620D01*
X67247160Y-109095620D02*
X67212160Y-109131620D01*
X64950160Y-111393620D02*
X64903160Y-111439620D01*
X72532160Y-109301620D02*
X72485160Y-109347620D01*
X70223160Y-111609620D02*
X70188160Y-111644620D01*
X72327160Y-109095620D02*
X72292160Y-109131620D01*
X70030160Y-111393620D02*
X69983160Y-111439620D01*
X77612160Y-109301620D02*
X77565160Y-109347620D01*
X75303160Y-111609620D02*
X75268160Y-111644620D01*
X77407160Y-109095620D02*
X77372160Y-109131620D01*
X75110160Y-111393620D02*
X75063160Y-111439620D01*
X82692160Y-109301620D02*
X82645160Y-109347620D01*
X80383160Y-111609620D02*
X80348160Y-111644620D01*
X82487160Y-109095620D02*
X82452160Y-109131620D01*
X80190160Y-111393620D02*
X80143160Y-111439620D01*
X87772160Y-109301620D02*
X87725160Y-109347620D01*
X85463160Y-111609620D02*
X85428160Y-111644620D01*
X87567160Y-109095620D02*
X87532160Y-109131620D01*
X85270160Y-111393620D02*
X85223160Y-111439620D01*
X92852160Y-109301620D02*
X92805160Y-109347620D01*
X90543160Y-111609620D02*
X90508160Y-111644620D01*
X92647160Y-109095620D02*
X92612160Y-109131620D01*
X90350160Y-111393620D02*
X90303160Y-111439620D01*
X97932160Y-109301620D02*
X97885160Y-109347620D01*
X95623160Y-111609620D02*
X95588160Y-111644620D01*
X97727160Y-109095620D02*
X97692160Y-109131620D01*
X95430160Y-111393620D02*
X95383160Y-111439620D01*
X103012160Y-109301620D02*
X102965160Y-109347620D01*
X100703160Y-111609620D02*
X100668160Y-111644620D01*
X102807160Y-109095620D02*
X102772160Y-109131620D01*
X100510160Y-111393620D02*
X100463160Y-111439620D01*
X108092160Y-109301620D02*
X108045160Y-109347620D01*
X105783160Y-111609620D02*
X105748160Y-111644620D01*
X107887160Y-109095620D02*
X107852160Y-109131620D01*
X105590160Y-111393620D02*
X105543160Y-111439620D01*
X113172160Y-109301620D02*
X113125160Y-109347620D01*
X110863160Y-111609620D02*
X110828160Y-111644620D01*
X112967160Y-109095620D02*
X112932160Y-109131620D01*
X110670160Y-111393620D02*
X110623160Y-111439620D01*
X118252160Y-109301620D02*
X118205160Y-109347620D01*
X115943160Y-111609620D02*
X115908160Y-111644620D01*
X118047160Y-109095620D02*
X118012160Y-109131620D01*
X115750160Y-111393620D02*
X115703160Y-111439620D01*
X123332160Y-109301620D02*
X123285160Y-109347620D01*
X121023160Y-111609620D02*
X120988160Y-111644620D01*
X123127160Y-109095620D02*
X123092160Y-109131620D01*
X120830160Y-111393620D02*
X120783160Y-111439620D01*
X128412160Y-109301620D02*
X128365160Y-109347620D01*
X126103160Y-111609620D02*
X126068160Y-111644620D01*
X128207160Y-109095620D02*
X128172160Y-109131620D01*
X125910160Y-111393620D02*
X125863160Y-111439620D01*
X133492160Y-109301620D02*
X133445160Y-109347620D01*
X131183160Y-111609620D02*
X131148160Y-111644620D01*
X133287160Y-109095620D02*
X133252160Y-109131620D01*
X130990160Y-111393620D02*
X130943160Y-111439620D01*
X53177160Y-114530620D02*
X53177160Y-115270620D01*
X53177160Y-115270620D02*
X53677160Y-115270620D01*
X56045965Y-112050873D02*
G75*
G02*
X55333160Y-111905620I-28805J1680253D01*
G01*
X54481734Y-111053662D02*
G75*
G02*
X54482160Y-109686620I1535426J683042D01*
G01*
X55334118Y-108835194D02*
G75*
G02*
X56701160Y-108835620I683042J-1535426D01*
G01*
X57552586Y-109687578D02*
G75*
G02*
X57552160Y-111054620I-1535426J-683042D01*
G01*
X56700478Y-111905376D02*
G75*
G02*
X56017160Y-112050620I-683318J1534756D01*
G01*
G04 #@! TO.C,J1*
X139929660Y-77811620D02*
G75*
G03*
X139929660Y-77811620I-1680000J0D01*
G01*
X142349660Y-85371620D02*
X142349660Y-75251620D01*
X140849660Y-85371620D02*
X140849660Y-75251620D01*
X135948660Y-85371620D02*
X135948660Y-75251620D01*
X132988660Y-85371620D02*
X132988660Y-75251620D01*
X142909660Y-85371620D02*
X142909660Y-75251620D01*
X132988660Y-85371620D02*
X142909660Y-85371620D01*
X132988660Y-75251620D02*
X142909660Y-75251620D01*
X137180660Y-76536620D02*
X137226660Y-76583620D01*
X139488660Y-78845620D02*
X139523660Y-78880620D01*
X136974660Y-76741620D02*
X137010660Y-76776620D01*
X139272660Y-79038620D02*
X139318660Y-79085620D01*
X142409660Y-85611620D02*
X143149660Y-85611620D01*
X143149660Y-85611620D02*
X143149660Y-85111620D01*
X139929913Y-82782815D02*
G75*
G02*
X139784660Y-83495620I-1680253J-28805D01*
G01*
X138932702Y-84347046D02*
G75*
G02*
X137565660Y-84346620I-683042J1535426D01*
G01*
X136714234Y-83494662D02*
G75*
G02*
X136714660Y-82127620I1535426J683042D01*
G01*
X137566618Y-81276194D02*
G75*
G02*
X138933660Y-81276620I683042J-1535426D01*
G01*
X139784416Y-82128302D02*
G75*
G02*
X139929660Y-82811620I-1534756J-683318D01*
G01*
G04 #@! TO.C,LED2*
X75058200Y-75942000D02*
X77743200Y-75942000D01*
X77743200Y-75942000D02*
X77743200Y-74022000D01*
X77743200Y-74022000D02*
X75058200Y-74022000D01*
G04 #@! TO.C,LED1*
X85480200Y-81261000D02*
X82795200Y-81261000D01*
X82795200Y-81261000D02*
X82795200Y-83181000D01*
X82795200Y-83181000D02*
X85480200Y-83181000D01*
G04 #@! TO.C,C9*
X56009908Y-84235620D02*
X56532412Y-84235620D01*
X56009908Y-85705620D02*
X56532412Y-85705620D01*
G04 #@! TO.C,C8*
X52722412Y-85705620D02*
X52199908Y-85705620D01*
X52722412Y-84235620D02*
X52199908Y-84235620D01*
G04 #@! TO.C,C7*
X83143200Y-89579748D02*
X83143200Y-90102252D01*
X81673200Y-89579748D02*
X81673200Y-90102252D01*
G04 #@! TO.C,C6*
X72747452Y-71234000D02*
X72224948Y-71234000D01*
X72747452Y-69764000D02*
X72224948Y-69764000D01*
G04 #@! TO.C,C5*
X79387200Y-79942252D02*
X79387200Y-79419748D01*
X80857200Y-79942252D02*
X80857200Y-79419748D01*
G04 #@! TO.C,C4*
X80857200Y-83168748D02*
X80857200Y-83691252D01*
X79387200Y-83168748D02*
X79387200Y-83691252D01*
G04 #@! TO.C,C2*
X103243452Y-75590000D02*
X102720948Y-75590000D01*
X103243452Y-74120000D02*
X102720948Y-74120000D01*
G04 #@! TO.C,C1*
X112155400Y-82541800D02*
G75*
G03*
X112155400Y-82541800I-2620000J0D01*
G01*
X110575400Y-82541800D02*
X112115400Y-82541800D01*
X106955400Y-82541800D02*
X108495400Y-82541800D01*
X110575400Y-82501800D02*
X112115400Y-82501800D01*
X106955400Y-82501800D02*
X108495400Y-82501800D01*
X106956400Y-82461800D02*
X108495400Y-82461800D01*
X110575400Y-82461800D02*
X112114400Y-82461800D01*
X106957400Y-82421800D02*
X108495400Y-82421800D01*
X110575400Y-82421800D02*
X112113400Y-82421800D01*
X106959400Y-82381800D02*
X108495400Y-82381800D01*
X110575400Y-82381800D02*
X112111400Y-82381800D01*
X106962400Y-82341800D02*
X108495400Y-82341800D01*
X110575400Y-82341800D02*
X112108400Y-82341800D01*
X106966400Y-82301800D02*
X108495400Y-82301800D01*
X110575400Y-82301800D02*
X112104400Y-82301800D01*
X106970400Y-82261800D02*
X108495400Y-82261800D01*
X110575400Y-82261800D02*
X112100400Y-82261800D01*
X106974400Y-82221800D02*
X108495400Y-82221800D01*
X110575400Y-82221800D02*
X112096400Y-82221800D01*
X106979400Y-82181800D02*
X108495400Y-82181800D01*
X110575400Y-82181800D02*
X112091400Y-82181800D01*
X106985400Y-82141800D02*
X108495400Y-82141800D01*
X110575400Y-82141800D02*
X112085400Y-82141800D01*
X106992400Y-82101800D02*
X108495400Y-82101800D01*
X110575400Y-82101800D02*
X112078400Y-82101800D01*
X106999400Y-82061800D02*
X108495400Y-82061800D01*
X110575400Y-82061800D02*
X112071400Y-82061800D01*
X107007400Y-82021800D02*
X108495400Y-82021800D01*
X110575400Y-82021800D02*
X112063400Y-82021800D01*
X107015400Y-81981800D02*
X108495400Y-81981800D01*
X110575400Y-81981800D02*
X112055400Y-81981800D01*
X107024400Y-81941800D02*
X108495400Y-81941800D01*
X110575400Y-81941800D02*
X112046400Y-81941800D01*
X107034400Y-81901800D02*
X108495400Y-81901800D01*
X110575400Y-81901800D02*
X112036400Y-81901800D01*
X107044400Y-81861800D02*
X108495400Y-81861800D01*
X110575400Y-81861800D02*
X112026400Y-81861800D01*
X107055400Y-81820800D02*
X108495400Y-81820800D01*
X110575400Y-81820800D02*
X112015400Y-81820800D01*
X107067400Y-81780800D02*
X108495400Y-81780800D01*
X110575400Y-81780800D02*
X112003400Y-81780800D01*
X107080400Y-81740800D02*
X108495400Y-81740800D01*
X110575400Y-81740800D02*
X111990400Y-81740800D01*
X107093400Y-81700800D02*
X108495400Y-81700800D01*
X110575400Y-81700800D02*
X111977400Y-81700800D01*
X107107400Y-81660800D02*
X108495400Y-81660800D01*
X110575400Y-81660800D02*
X111963400Y-81660800D01*
X107121400Y-81620800D02*
X108495400Y-81620800D01*
X110575400Y-81620800D02*
X111949400Y-81620800D01*
X107137400Y-81580800D02*
X108495400Y-81580800D01*
X110575400Y-81580800D02*
X111933400Y-81580800D01*
X107153400Y-81540800D02*
X108495400Y-81540800D01*
X110575400Y-81540800D02*
X111917400Y-81540800D01*
X107170400Y-81500800D02*
X108495400Y-81500800D01*
X110575400Y-81500800D02*
X111900400Y-81500800D01*
X107187400Y-81460800D02*
X108495400Y-81460800D01*
X110575400Y-81460800D02*
X111883400Y-81460800D01*
X107206400Y-81420800D02*
X108495400Y-81420800D01*
X110575400Y-81420800D02*
X111864400Y-81420800D01*
X107225400Y-81380800D02*
X108495400Y-81380800D01*
X110575400Y-81380800D02*
X111845400Y-81380800D01*
X107245400Y-81340800D02*
X108495400Y-81340800D01*
X110575400Y-81340800D02*
X111825400Y-81340800D01*
X107267400Y-81300800D02*
X108495400Y-81300800D01*
X110575400Y-81300800D02*
X111803400Y-81300800D01*
X107288400Y-81260800D02*
X108495400Y-81260800D01*
X110575400Y-81260800D02*
X111782400Y-81260800D01*
X107311400Y-81220800D02*
X108495400Y-81220800D01*
X110575400Y-81220800D02*
X111759400Y-81220800D01*
X107335400Y-81180800D02*
X108495400Y-81180800D01*
X110575400Y-81180800D02*
X111735400Y-81180800D01*
X107360400Y-81140800D02*
X108495400Y-81140800D01*
X110575400Y-81140800D02*
X111710400Y-81140800D01*
X107386400Y-81100800D02*
X108495400Y-81100800D01*
X110575400Y-81100800D02*
X111684400Y-81100800D01*
X107413400Y-81060800D02*
X108495400Y-81060800D01*
X110575400Y-81060800D02*
X111657400Y-81060800D01*
X107440400Y-81020800D02*
X108495400Y-81020800D01*
X110575400Y-81020800D02*
X111630400Y-81020800D01*
X107470400Y-80980800D02*
X108495400Y-80980800D01*
X110575400Y-80980800D02*
X111600400Y-80980800D01*
X107500400Y-80940800D02*
X108495400Y-80940800D01*
X110575400Y-80940800D02*
X111570400Y-80940800D01*
X107531400Y-80900800D02*
X108495400Y-80900800D01*
X110575400Y-80900800D02*
X111539400Y-80900800D01*
X107564400Y-80860800D02*
X108495400Y-80860800D01*
X110575400Y-80860800D02*
X111506400Y-80860800D01*
X107598400Y-80820800D02*
X108495400Y-80820800D01*
X110575400Y-80820800D02*
X111472400Y-80820800D01*
X107634400Y-80780800D02*
X108495400Y-80780800D01*
X110575400Y-80780800D02*
X111436400Y-80780800D01*
X107671400Y-80740800D02*
X108495400Y-80740800D01*
X110575400Y-80740800D02*
X111399400Y-80740800D01*
X107709400Y-80700800D02*
X108495400Y-80700800D01*
X110575400Y-80700800D02*
X111361400Y-80700800D01*
X107750400Y-80660800D02*
X108495400Y-80660800D01*
X110575400Y-80660800D02*
X111320400Y-80660800D01*
X107792400Y-80620800D02*
X108495400Y-80620800D01*
X110575400Y-80620800D02*
X111278400Y-80620800D01*
X107836400Y-80580800D02*
X108495400Y-80580800D01*
X110575400Y-80580800D02*
X111234400Y-80580800D01*
X107882400Y-80540800D02*
X108495400Y-80540800D01*
X110575400Y-80540800D02*
X111188400Y-80540800D01*
X107930400Y-80500800D02*
X111140400Y-80500800D01*
X107981400Y-80460800D02*
X111089400Y-80460800D01*
X108035400Y-80420800D02*
X111035400Y-80420800D01*
X108092400Y-80380800D02*
X110978400Y-80380800D01*
X108152400Y-80340800D02*
X110918400Y-80340800D01*
X108216400Y-80300800D02*
X110854400Y-80300800D01*
X108284400Y-80260800D02*
X110786400Y-80260800D01*
X108357400Y-80220800D02*
X110713400Y-80220800D01*
X108437400Y-80180800D02*
X110633400Y-80180800D01*
X108524400Y-80140800D02*
X110546400Y-80140800D01*
X108620400Y-80100800D02*
X110450400Y-80100800D01*
X108730400Y-80060800D02*
X110340400Y-80060800D01*
X108858400Y-80020800D02*
X110212400Y-80020800D01*
X109017400Y-79980800D02*
X110053400Y-79980800D01*
X109251400Y-79940800D02*
X109819400Y-79940800D01*
X108060400Y-85346575D02*
X108060400Y-84846575D01*
X107810400Y-85096575D02*
X108310400Y-85096575D01*
G04 #@! TO.C,JP10*
D10*
X134076676Y-88482380D02*
X134076676Y-89196666D01*
X134029057Y-89339523D01*
X133933819Y-89434761D01*
X133790961Y-89482380D01*
X133695723Y-89482380D01*
X134552866Y-89482380D02*
X134552866Y-88482380D01*
X134933819Y-88482380D01*
X135029057Y-88530000D01*
X135076676Y-88577619D01*
X135124295Y-88672857D01*
X135124295Y-88815714D01*
X135076676Y-88910952D01*
X135029057Y-88958571D01*
X134933819Y-89006190D01*
X134552866Y-89006190D01*
X136076676Y-89482380D02*
X135505247Y-89482380D01*
X135790961Y-89482380D02*
X135790961Y-88482380D01*
X135695723Y-88625238D01*
X135600485Y-88720476D01*
X135505247Y-88768095D01*
X136695723Y-88482380D02*
X136790961Y-88482380D01*
X136886200Y-88530000D01*
X136933819Y-88577619D01*
X136981438Y-88672857D01*
X137029057Y-88863333D01*
X137029057Y-89101428D01*
X136981438Y-89291904D01*
X136933819Y-89387142D01*
X136886200Y-89434761D01*
X136790961Y-89482380D01*
X136695723Y-89482380D01*
X136600485Y-89434761D01*
X136552866Y-89387142D01*
X136505247Y-89291904D01*
X136457628Y-89101428D01*
X136457628Y-88863333D01*
X136505247Y-88672857D01*
X136552866Y-88577619D01*
X136600485Y-88530000D01*
X136695723Y-88482380D01*
G04 #@! TO.C,U4*
X67241255Y-83857000D02*
X67241255Y-84666524D01*
X67288874Y-84761762D01*
X67336493Y-84809381D01*
X67431731Y-84857000D01*
X67622207Y-84857000D01*
X67717445Y-84809381D01*
X67765064Y-84761762D01*
X67812683Y-84666524D01*
X67812683Y-83857000D01*
X68717445Y-84190334D02*
X68717445Y-84857000D01*
X68479350Y-83809381D02*
X68241255Y-84523667D01*
X68860302Y-84523667D01*
G04 #@! TO.C,JP9*
X123962866Y-88482380D02*
X123962866Y-89196666D01*
X123915247Y-89339523D01*
X123820009Y-89434761D01*
X123677152Y-89482380D01*
X123581914Y-89482380D01*
X124439057Y-89482380D02*
X124439057Y-88482380D01*
X124820009Y-88482380D01*
X124915247Y-88530000D01*
X124962866Y-88577619D01*
X125010485Y-88672857D01*
X125010485Y-88815714D01*
X124962866Y-88910952D01*
X124915247Y-88958571D01*
X124820009Y-89006190D01*
X124439057Y-89006190D01*
X125486676Y-89482380D02*
X125677152Y-89482380D01*
X125772390Y-89434761D01*
X125820009Y-89387142D01*
X125915247Y-89244285D01*
X125962866Y-89053809D01*
X125962866Y-88672857D01*
X125915247Y-88577619D01*
X125867628Y-88530000D01*
X125772390Y-88482380D01*
X125581914Y-88482380D01*
X125486676Y-88530000D01*
X125439057Y-88577619D01*
X125391438Y-88672857D01*
X125391438Y-88910952D01*
X125439057Y-89006190D01*
X125486676Y-89053809D01*
X125581914Y-89101428D01*
X125772390Y-89101428D01*
X125867628Y-89053809D01*
X125915247Y-89006190D01*
X125962866Y-88910952D01*
G04 #@! TO.C,JP8*
X113657366Y-88382380D02*
X113657366Y-89096666D01*
X113609747Y-89239523D01*
X113514509Y-89334761D01*
X113371652Y-89382380D01*
X113276414Y-89382380D01*
X114133557Y-89382380D02*
X114133557Y-88382380D01*
X114514509Y-88382380D01*
X114609747Y-88430000D01*
X114657366Y-88477619D01*
X114704985Y-88572857D01*
X114704985Y-88715714D01*
X114657366Y-88810952D01*
X114609747Y-88858571D01*
X114514509Y-88906190D01*
X114133557Y-88906190D01*
X115276414Y-88810952D02*
X115181176Y-88763333D01*
X115133557Y-88715714D01*
X115085938Y-88620476D01*
X115085938Y-88572857D01*
X115133557Y-88477619D01*
X115181176Y-88430000D01*
X115276414Y-88382380D01*
X115466890Y-88382380D01*
X115562128Y-88430000D01*
X115609747Y-88477619D01*
X115657366Y-88572857D01*
X115657366Y-88620476D01*
X115609747Y-88715714D01*
X115562128Y-88763333D01*
X115466890Y-88810952D01*
X115276414Y-88810952D01*
X115181176Y-88858571D01*
X115133557Y-88906190D01*
X115085938Y-89001428D01*
X115085938Y-89191904D01*
X115133557Y-89287142D01*
X115181176Y-89334761D01*
X115276414Y-89382380D01*
X115466890Y-89382380D01*
X115562128Y-89334761D01*
X115609747Y-89287142D01*
X115657366Y-89191904D01*
X115657366Y-89001428D01*
X115609747Y-88906190D01*
X115562128Y-88858571D01*
X115466890Y-88810952D01*
G04 #@! TO.C,JP7*
X101259866Y-88382380D02*
X101259866Y-89096666D01*
X101212247Y-89239523D01*
X101117009Y-89334761D01*
X100974152Y-89382380D01*
X100878914Y-89382380D01*
X101736057Y-89382380D02*
X101736057Y-88382380D01*
X102117009Y-88382380D01*
X102212247Y-88430000D01*
X102259866Y-88477619D01*
X102307485Y-88572857D01*
X102307485Y-88715714D01*
X102259866Y-88810952D01*
X102212247Y-88858571D01*
X102117009Y-88906190D01*
X101736057Y-88906190D01*
X102640819Y-88382380D02*
X103307485Y-88382380D01*
X102878914Y-89382380D01*
G04 #@! TO.C,JP6*
X88496366Y-88382380D02*
X88496366Y-89096666D01*
X88448747Y-89239523D01*
X88353509Y-89334761D01*
X88210652Y-89382380D01*
X88115414Y-89382380D01*
X88972557Y-89382380D02*
X88972557Y-88382380D01*
X89353509Y-88382380D01*
X89448747Y-88430000D01*
X89496366Y-88477619D01*
X89543985Y-88572857D01*
X89543985Y-88715714D01*
X89496366Y-88810952D01*
X89448747Y-88858571D01*
X89353509Y-88906190D01*
X88972557Y-88906190D01*
X90401128Y-88382380D02*
X90210652Y-88382380D01*
X90115414Y-88430000D01*
X90067795Y-88477619D01*
X89972557Y-88620476D01*
X89924938Y-88810952D01*
X89924938Y-89191904D01*
X89972557Y-89287142D01*
X90020176Y-89334761D01*
X90115414Y-89382380D01*
X90305890Y-89382380D01*
X90401128Y-89334761D01*
X90448747Y-89287142D01*
X90496366Y-89191904D01*
X90496366Y-88953809D01*
X90448747Y-88858571D01*
X90401128Y-88810952D01*
X90305890Y-88763333D01*
X90115414Y-88763333D01*
X90020176Y-88810952D01*
X89972557Y-88858571D01*
X89924938Y-88953809D01*
G04 #@! TO.C,JP5*
X75351866Y-88382380D02*
X75351866Y-89096666D01*
X75304247Y-89239523D01*
X75209009Y-89334761D01*
X75066152Y-89382380D01*
X74970914Y-89382380D01*
X75828057Y-89382380D02*
X75828057Y-88382380D01*
X76209009Y-88382380D01*
X76304247Y-88430000D01*
X76351866Y-88477619D01*
X76399485Y-88572857D01*
X76399485Y-88715714D01*
X76351866Y-88810952D01*
X76304247Y-88858571D01*
X76209009Y-88906190D01*
X75828057Y-88906190D01*
X77304247Y-88382380D02*
X76828057Y-88382380D01*
X76780438Y-88858571D01*
X76828057Y-88810952D01*
X76923295Y-88763333D01*
X77161390Y-88763333D01*
X77256628Y-88810952D01*
X77304247Y-88858571D01*
X77351866Y-88953809D01*
X77351866Y-89191904D01*
X77304247Y-89287142D01*
X77256628Y-89334761D01*
X77161390Y-89382380D01*
X76923295Y-89382380D01*
X76828057Y-89334761D01*
X76780438Y-89287142D01*
G04 #@! TO.C,JP4*
X64747366Y-88382380D02*
X64747366Y-89096666D01*
X64699747Y-89239523D01*
X64604509Y-89334761D01*
X64461652Y-89382380D01*
X64366414Y-89382380D01*
X65223557Y-89382380D02*
X65223557Y-88382380D01*
X65604509Y-88382380D01*
X65699747Y-88430000D01*
X65747366Y-88477619D01*
X65794985Y-88572857D01*
X65794985Y-88715714D01*
X65747366Y-88810952D01*
X65699747Y-88858571D01*
X65604509Y-88906190D01*
X65223557Y-88906190D01*
X66652128Y-88715714D02*
X66652128Y-89382380D01*
X66414033Y-88334761D02*
X66175938Y-89049047D01*
X66794985Y-89049047D01*
G04 #@! TO.C,JP3*
X54411866Y-88445880D02*
X54411866Y-89160166D01*
X54364247Y-89303023D01*
X54269009Y-89398261D01*
X54126152Y-89445880D01*
X54030914Y-89445880D01*
X54888057Y-89445880D02*
X54888057Y-88445880D01*
X55269009Y-88445880D01*
X55364247Y-88493500D01*
X55411866Y-88541119D01*
X55459485Y-88636357D01*
X55459485Y-88779214D01*
X55411866Y-88874452D01*
X55364247Y-88922071D01*
X55269009Y-88969690D01*
X54888057Y-88969690D01*
X55792819Y-88445880D02*
X56411866Y-88445880D01*
X56078533Y-88826833D01*
X56221390Y-88826833D01*
X56316628Y-88874452D01*
X56364247Y-88922071D01*
X56411866Y-89017309D01*
X56411866Y-89255404D01*
X56364247Y-89350642D01*
X56316628Y-89398261D01*
X56221390Y-89445880D01*
X55935676Y-89445880D01*
X55840438Y-89398261D01*
X55792819Y-89350642D01*
G04 #@! TO.C,D2*
X123580104Y-75002580D02*
X123580104Y-74002580D01*
X123818200Y-74002580D01*
X123961057Y-74050200D01*
X124056295Y-74145438D01*
X124103914Y-74240676D01*
X124151533Y-74431152D01*
X124151533Y-74574009D01*
X124103914Y-74764485D01*
X124056295Y-74859723D01*
X123961057Y-74954961D01*
X123818200Y-75002580D01*
X123580104Y-75002580D01*
X124532485Y-74097819D02*
X124580104Y-74050200D01*
X124675342Y-74002580D01*
X124913438Y-74002580D01*
X125008676Y-74050200D01*
X125056295Y-74097819D01*
X125103914Y-74193057D01*
X125103914Y-74288295D01*
X125056295Y-74431152D01*
X124484866Y-75002580D01*
X125103914Y-75002580D01*
X118163495Y-73072180D02*
X118163495Y-72072180D01*
X118734923Y-73072180D02*
X118306352Y-72500752D01*
X118734923Y-72072180D02*
X118163495Y-72643609D01*
G04 #@! TO.C,C3*
X94883493Y-66830762D02*
X94835874Y-66878381D01*
X94693017Y-66926000D01*
X94597779Y-66926000D01*
X94454921Y-66878381D01*
X94359683Y-66783143D01*
X94312064Y-66687905D01*
X94264445Y-66497429D01*
X94264445Y-66354572D01*
X94312064Y-66164096D01*
X94359683Y-66068858D01*
X94454921Y-65973620D01*
X94597779Y-65926000D01*
X94693017Y-65926000D01*
X94835874Y-65973620D01*
X94883493Y-66021239D01*
X95216826Y-65926000D02*
X95835874Y-65926000D01*
X95502540Y-66306953D01*
X95645398Y-66306953D01*
X95740636Y-66354572D01*
X95788255Y-66402191D01*
X95835874Y-66497429D01*
X95835874Y-66735524D01*
X95788255Y-66830762D01*
X95740636Y-66878381D01*
X95645398Y-66926000D01*
X95359683Y-66926000D01*
X95264445Y-66878381D01*
X95216826Y-66830762D01*
G04 #@! TO.C,Q10*
X135265231Y-98456739D02*
X135169993Y-98409120D01*
X135074755Y-98313881D01*
X134931898Y-98171024D01*
X134836660Y-98123405D01*
X134741421Y-98123405D01*
X134789040Y-98361500D02*
X134693802Y-98313881D01*
X134598564Y-98218643D01*
X134550945Y-98028167D01*
X134550945Y-97694834D01*
X134598564Y-97504358D01*
X134693802Y-97409120D01*
X134789040Y-97361500D01*
X134979517Y-97361500D01*
X135074755Y-97409120D01*
X135169993Y-97504358D01*
X135217612Y-97694834D01*
X135217612Y-98028167D01*
X135169993Y-98218643D01*
X135074755Y-98313881D01*
X134979517Y-98361500D01*
X134789040Y-98361500D01*
X136169993Y-98361500D02*
X135598564Y-98361500D01*
X135884279Y-98361500D02*
X135884279Y-97361500D01*
X135789040Y-97504358D01*
X135693802Y-97599596D01*
X135598564Y-97647215D01*
X136789040Y-97361500D02*
X136884279Y-97361500D01*
X136979517Y-97409120D01*
X137027136Y-97456739D01*
X137074755Y-97551977D01*
X137122374Y-97742453D01*
X137122374Y-97980548D01*
X137074755Y-98171024D01*
X137027136Y-98266262D01*
X136979517Y-98313881D01*
X136884279Y-98361500D01*
X136789040Y-98361500D01*
X136693802Y-98313881D01*
X136646183Y-98266262D01*
X136598564Y-98171024D01*
X136550945Y-97980548D01*
X136550945Y-97742453D01*
X136598564Y-97551977D01*
X136646183Y-97456739D01*
X136693802Y-97409120D01*
X136789040Y-97361500D01*
G04 #@! TO.C,Q9*
X123676421Y-98456739D02*
X123581183Y-98409120D01*
X123485945Y-98313881D01*
X123343088Y-98171024D01*
X123247850Y-98123405D01*
X123152612Y-98123405D01*
X123200231Y-98361500D02*
X123104993Y-98313881D01*
X123009755Y-98218643D01*
X122962136Y-98028167D01*
X122962136Y-97694834D01*
X123009755Y-97504358D01*
X123104993Y-97409120D01*
X123200231Y-97361500D01*
X123390707Y-97361500D01*
X123485945Y-97409120D01*
X123581183Y-97504358D01*
X123628802Y-97694834D01*
X123628802Y-98028167D01*
X123581183Y-98218643D01*
X123485945Y-98313881D01*
X123390707Y-98361500D01*
X123200231Y-98361500D01*
X124104993Y-98361500D02*
X124295469Y-98361500D01*
X124390707Y-98313881D01*
X124438326Y-98266262D01*
X124533564Y-98123405D01*
X124581183Y-97932929D01*
X124581183Y-97551977D01*
X124533564Y-97456739D01*
X124485945Y-97409120D01*
X124390707Y-97361500D01*
X124200231Y-97361500D01*
X124104993Y-97409120D01*
X124057374Y-97456739D01*
X124009755Y-97551977D01*
X124009755Y-97790072D01*
X124057374Y-97885310D01*
X124104993Y-97932929D01*
X124200231Y-97980548D01*
X124390707Y-97980548D01*
X124485945Y-97932929D01*
X124533564Y-97885310D01*
X124581183Y-97790072D01*
G04 #@! TO.C,Q8*
X111611421Y-98456739D02*
X111516183Y-98409120D01*
X111420945Y-98313881D01*
X111278088Y-98171024D01*
X111182850Y-98123405D01*
X111087612Y-98123405D01*
X111135231Y-98361500D02*
X111039993Y-98313881D01*
X110944755Y-98218643D01*
X110897136Y-98028167D01*
X110897136Y-97694834D01*
X110944755Y-97504358D01*
X111039993Y-97409120D01*
X111135231Y-97361500D01*
X111325707Y-97361500D01*
X111420945Y-97409120D01*
X111516183Y-97504358D01*
X111563802Y-97694834D01*
X111563802Y-98028167D01*
X111516183Y-98218643D01*
X111420945Y-98313881D01*
X111325707Y-98361500D01*
X111135231Y-98361500D01*
X112135231Y-97790072D02*
X112039993Y-97742453D01*
X111992374Y-97694834D01*
X111944755Y-97599596D01*
X111944755Y-97551977D01*
X111992374Y-97456739D01*
X112039993Y-97409120D01*
X112135231Y-97361500D01*
X112325707Y-97361500D01*
X112420945Y-97409120D01*
X112468564Y-97456739D01*
X112516183Y-97551977D01*
X112516183Y-97599596D01*
X112468564Y-97694834D01*
X112420945Y-97742453D01*
X112325707Y-97790072D01*
X112135231Y-97790072D01*
X112039993Y-97837691D01*
X111992374Y-97885310D01*
X111944755Y-97980548D01*
X111944755Y-98171024D01*
X111992374Y-98266262D01*
X112039993Y-98313881D01*
X112135231Y-98361500D01*
X112325707Y-98361500D01*
X112420945Y-98313881D01*
X112468564Y-98266262D01*
X112516183Y-98171024D01*
X112516183Y-97980548D01*
X112468564Y-97885310D01*
X112420945Y-97837691D01*
X112325707Y-97790072D01*
G04 #@! TO.C,Q7*
X99546421Y-98456739D02*
X99451183Y-98409120D01*
X99355945Y-98313881D01*
X99213088Y-98171024D01*
X99117850Y-98123405D01*
X99022612Y-98123405D01*
X99070231Y-98361500D02*
X98974993Y-98313881D01*
X98879755Y-98218643D01*
X98832136Y-98028167D01*
X98832136Y-97694834D01*
X98879755Y-97504358D01*
X98974993Y-97409120D01*
X99070231Y-97361500D01*
X99260707Y-97361500D01*
X99355945Y-97409120D01*
X99451183Y-97504358D01*
X99498802Y-97694834D01*
X99498802Y-98028167D01*
X99451183Y-98218643D01*
X99355945Y-98313881D01*
X99260707Y-98361500D01*
X99070231Y-98361500D01*
X99832136Y-97361500D02*
X100498802Y-97361500D01*
X100070231Y-98361500D01*
G04 #@! TO.C,Q6*
X87481421Y-98456739D02*
X87386183Y-98409120D01*
X87290945Y-98313881D01*
X87148088Y-98171024D01*
X87052850Y-98123405D01*
X86957612Y-98123405D01*
X87005231Y-98361500D02*
X86909993Y-98313881D01*
X86814755Y-98218643D01*
X86767136Y-98028167D01*
X86767136Y-97694834D01*
X86814755Y-97504358D01*
X86909993Y-97409120D01*
X87005231Y-97361500D01*
X87195707Y-97361500D01*
X87290945Y-97409120D01*
X87386183Y-97504358D01*
X87433802Y-97694834D01*
X87433802Y-98028167D01*
X87386183Y-98218643D01*
X87290945Y-98313881D01*
X87195707Y-98361500D01*
X87005231Y-98361500D01*
X88290945Y-97361500D02*
X88100469Y-97361500D01*
X88005231Y-97409120D01*
X87957612Y-97456739D01*
X87862374Y-97599596D01*
X87814755Y-97790072D01*
X87814755Y-98171024D01*
X87862374Y-98266262D01*
X87909993Y-98313881D01*
X88005231Y-98361500D01*
X88195707Y-98361500D01*
X88290945Y-98313881D01*
X88338564Y-98266262D01*
X88386183Y-98171024D01*
X88386183Y-97932929D01*
X88338564Y-97837691D01*
X88290945Y-97790072D01*
X88195707Y-97742453D01*
X88005231Y-97742453D01*
X87909993Y-97790072D01*
X87862374Y-97837691D01*
X87814755Y-97932929D01*
G04 #@! TO.C,Q5*
X75416421Y-98456739D02*
X75321183Y-98409120D01*
X75225945Y-98313881D01*
X75083088Y-98171024D01*
X74987850Y-98123405D01*
X74892612Y-98123405D01*
X74940231Y-98361500D02*
X74844993Y-98313881D01*
X74749755Y-98218643D01*
X74702136Y-98028167D01*
X74702136Y-97694834D01*
X74749755Y-97504358D01*
X74844993Y-97409120D01*
X74940231Y-97361500D01*
X75130707Y-97361500D01*
X75225945Y-97409120D01*
X75321183Y-97504358D01*
X75368802Y-97694834D01*
X75368802Y-98028167D01*
X75321183Y-98218643D01*
X75225945Y-98313881D01*
X75130707Y-98361500D01*
X74940231Y-98361500D01*
X76273564Y-97361500D02*
X75797374Y-97361500D01*
X75749755Y-97837691D01*
X75797374Y-97790072D01*
X75892612Y-97742453D01*
X76130707Y-97742453D01*
X76225945Y-97790072D01*
X76273564Y-97837691D01*
X76321183Y-97932929D01*
X76321183Y-98171024D01*
X76273564Y-98266262D01*
X76225945Y-98313881D01*
X76130707Y-98361500D01*
X75892612Y-98361500D01*
X75797374Y-98313881D01*
X75749755Y-98266262D01*
G04 #@! TO.C,Q4*
X63351421Y-98456739D02*
X63256183Y-98409120D01*
X63160945Y-98313881D01*
X63018088Y-98171024D01*
X62922850Y-98123405D01*
X62827612Y-98123405D01*
X62875231Y-98361500D02*
X62779993Y-98313881D01*
X62684755Y-98218643D01*
X62637136Y-98028167D01*
X62637136Y-97694834D01*
X62684755Y-97504358D01*
X62779993Y-97409120D01*
X62875231Y-97361500D01*
X63065707Y-97361500D01*
X63160945Y-97409120D01*
X63256183Y-97504358D01*
X63303802Y-97694834D01*
X63303802Y-98028167D01*
X63256183Y-98218643D01*
X63160945Y-98313881D01*
X63065707Y-98361500D01*
X62875231Y-98361500D01*
X64160945Y-97694834D02*
X64160945Y-98361500D01*
X63922850Y-97313881D02*
X63684755Y-98028167D01*
X64303802Y-98028167D01*
G04 #@! TO.C,Q3*
X51286421Y-98456739D02*
X51191183Y-98409120D01*
X51095945Y-98313881D01*
X50953088Y-98171024D01*
X50857850Y-98123405D01*
X50762612Y-98123405D01*
X50810231Y-98361500D02*
X50714993Y-98313881D01*
X50619755Y-98218643D01*
X50572136Y-98028167D01*
X50572136Y-97694834D01*
X50619755Y-97504358D01*
X50714993Y-97409120D01*
X50810231Y-97361500D01*
X51000707Y-97361500D01*
X51095945Y-97409120D01*
X51191183Y-97504358D01*
X51238802Y-97694834D01*
X51238802Y-98028167D01*
X51191183Y-98218643D01*
X51095945Y-98313881D01*
X51000707Y-98361500D01*
X50810231Y-98361500D01*
X51572136Y-97361500D02*
X52191183Y-97361500D01*
X51857850Y-97742453D01*
X52000707Y-97742453D01*
X52095945Y-97790072D01*
X52143564Y-97837691D01*
X52191183Y-97932929D01*
X52191183Y-98171024D01*
X52143564Y-98266262D01*
X52095945Y-98313881D01*
X52000707Y-98361500D01*
X51714993Y-98361500D01*
X51619755Y-98313881D01*
X51572136Y-98266262D01*
G04 #@! TO.C,L1*
X116836333Y-75053380D02*
X116360142Y-75053380D01*
X116360142Y-74053380D01*
X117693476Y-75053380D02*
X117122047Y-75053380D01*
X117407761Y-75053380D02*
X117407761Y-74053380D01*
X117312523Y-74196238D01*
X117217285Y-74291476D01*
X117122047Y-74339095D01*
G04 #@! TO.C,C1*
X107165733Y-79789942D02*
X107118114Y-79837561D01*
X106975257Y-79885180D01*
X106880019Y-79885180D01*
X106737161Y-79837561D01*
X106641923Y-79742323D01*
X106594304Y-79647085D01*
X106546685Y-79456609D01*
X106546685Y-79313752D01*
X106594304Y-79123276D01*
X106641923Y-79028038D01*
X106737161Y-78932800D01*
X106880019Y-78885180D01*
X106975257Y-78885180D01*
X107118114Y-78932800D01*
X107165733Y-78980419D01*
X108118114Y-79885180D02*
X107546685Y-79885180D01*
X107832400Y-79885180D02*
X107832400Y-78885180D01*
X107737161Y-79028038D01*
X107641923Y-79123276D01*
X107546685Y-79170895D01*
G04 #@! TD*
%LPC*%
D17*
G04 #@! TO.C,JP10*
G36*
X136036200Y-90080602D02*
G01*
X136060734Y-90080602D01*
X136109565Y-90085412D01*
X136157690Y-90094984D01*
X136204645Y-90109228D01*
X136249978Y-90128005D01*
X136293251Y-90151136D01*
X136334050Y-90178396D01*
X136371979Y-90209524D01*
X136406676Y-90244221D01*
X136437804Y-90282150D01*
X136465064Y-90322949D01*
X136488195Y-90366222D01*
X136506972Y-90411555D01*
X136521216Y-90458510D01*
X136530788Y-90506635D01*
X136535598Y-90555466D01*
X136535598Y-90580000D01*
X136536200Y-90580000D01*
X136536200Y-91080000D01*
X136535598Y-91080000D01*
X136535598Y-91104534D01*
X136530788Y-91153365D01*
X136521216Y-91201490D01*
X136506972Y-91248445D01*
X136488195Y-91293778D01*
X136465064Y-91337051D01*
X136437804Y-91377850D01*
X136406676Y-91415779D01*
X136371979Y-91450476D01*
X136334050Y-91481604D01*
X136293251Y-91508864D01*
X136249978Y-91531995D01*
X136204645Y-91550772D01*
X136157690Y-91565016D01*
X136109565Y-91574588D01*
X136060734Y-91579398D01*
X136036200Y-91579398D01*
X136036200Y-91580000D01*
X135536200Y-91580000D01*
X135536200Y-90080000D01*
X136036200Y-90080000D01*
X136036200Y-90080602D01*
G37*
G36*
X135236200Y-91580000D02*
G01*
X134736200Y-91580000D01*
X134736200Y-91579398D01*
X134711666Y-91579398D01*
X134662835Y-91574588D01*
X134614710Y-91565016D01*
X134567755Y-91550772D01*
X134522422Y-91531995D01*
X134479149Y-91508864D01*
X134438350Y-91481604D01*
X134400421Y-91450476D01*
X134365724Y-91415779D01*
X134334596Y-91377850D01*
X134307336Y-91337051D01*
X134284205Y-91293778D01*
X134265428Y-91248445D01*
X134251184Y-91201490D01*
X134241612Y-91153365D01*
X134236802Y-91104534D01*
X134236802Y-91080000D01*
X134236200Y-91080000D01*
X134236200Y-90580000D01*
X134236802Y-90580000D01*
X134236802Y-90555466D01*
X134241612Y-90506635D01*
X134251184Y-90458510D01*
X134265428Y-90411555D01*
X134284205Y-90366222D01*
X134307336Y-90322949D01*
X134334596Y-90282150D01*
X134365724Y-90244221D01*
X134400421Y-90209524D01*
X134438350Y-90178396D01*
X134479149Y-90151136D01*
X134522422Y-90128005D01*
X134567755Y-90109228D01*
X134614710Y-90094984D01*
X134662835Y-90085412D01*
X134711666Y-90080602D01*
X134736200Y-90080602D01*
X134736200Y-90080000D01*
X135236200Y-90080000D01*
X135236200Y-91580000D01*
G37*
G04 #@! TD*
D18*
G04 #@! TO.C,U4*
X51318160Y-65294620D03*
X52588160Y-65294620D03*
X53858160Y-65294620D03*
X55128160Y-65294620D03*
X56398160Y-65294620D03*
X57668160Y-65294620D03*
X58938160Y-65294620D03*
X60208160Y-65294620D03*
X61478160Y-65294620D03*
X62748160Y-65294620D03*
X64018160Y-65294620D03*
X65288160Y-65294620D03*
X66558160Y-65294620D03*
X67828160Y-65294620D03*
D19*
X68828160Y-68079620D03*
X68828160Y-69349620D03*
X68828160Y-70619620D03*
X68828160Y-71889620D03*
X68828160Y-73159620D03*
X68828160Y-74429620D03*
X68828160Y-75699620D03*
X68828160Y-76969620D03*
X68828160Y-78239620D03*
X68828160Y-79509620D03*
D18*
X67828160Y-82294620D03*
X66558160Y-82294620D03*
X65288160Y-82294620D03*
X64018160Y-82294620D03*
X62748160Y-82294620D03*
X61478160Y-82294620D03*
X60208160Y-82294620D03*
X58938160Y-82294620D03*
X57668160Y-82294620D03*
X56398160Y-82294620D03*
X55128160Y-82294620D03*
X53858160Y-82294620D03*
X52588160Y-82294620D03*
X51318160Y-82294620D03*
D20*
X58818160Y-74794620D03*
G04 #@! TD*
D17*
G04 #@! TO.C,JP9*
G36*
X125446200Y-90080602D02*
G01*
X125470734Y-90080602D01*
X125519565Y-90085412D01*
X125567690Y-90094984D01*
X125614645Y-90109228D01*
X125659978Y-90128005D01*
X125703251Y-90151136D01*
X125744050Y-90178396D01*
X125781979Y-90209524D01*
X125816676Y-90244221D01*
X125847804Y-90282150D01*
X125875064Y-90322949D01*
X125898195Y-90366222D01*
X125916972Y-90411555D01*
X125931216Y-90458510D01*
X125940788Y-90506635D01*
X125945598Y-90555466D01*
X125945598Y-90580000D01*
X125946200Y-90580000D01*
X125946200Y-91080000D01*
X125945598Y-91080000D01*
X125945598Y-91104534D01*
X125940788Y-91153365D01*
X125931216Y-91201490D01*
X125916972Y-91248445D01*
X125898195Y-91293778D01*
X125875064Y-91337051D01*
X125847804Y-91377850D01*
X125816676Y-91415779D01*
X125781979Y-91450476D01*
X125744050Y-91481604D01*
X125703251Y-91508864D01*
X125659978Y-91531995D01*
X125614645Y-91550772D01*
X125567690Y-91565016D01*
X125519565Y-91574588D01*
X125470734Y-91579398D01*
X125446200Y-91579398D01*
X125446200Y-91580000D01*
X124946200Y-91580000D01*
X124946200Y-90080000D01*
X125446200Y-90080000D01*
X125446200Y-90080602D01*
G37*
G36*
X124646200Y-91580000D02*
G01*
X124146200Y-91580000D01*
X124146200Y-91579398D01*
X124121666Y-91579398D01*
X124072835Y-91574588D01*
X124024710Y-91565016D01*
X123977755Y-91550772D01*
X123932422Y-91531995D01*
X123889149Y-91508864D01*
X123848350Y-91481604D01*
X123810421Y-91450476D01*
X123775724Y-91415779D01*
X123744596Y-91377850D01*
X123717336Y-91337051D01*
X123694205Y-91293778D01*
X123675428Y-91248445D01*
X123661184Y-91201490D01*
X123651612Y-91153365D01*
X123646802Y-91104534D01*
X123646802Y-91080000D01*
X123646200Y-91080000D01*
X123646200Y-90580000D01*
X123646802Y-90580000D01*
X123646802Y-90555466D01*
X123651612Y-90506635D01*
X123661184Y-90458510D01*
X123675428Y-90411555D01*
X123694205Y-90366222D01*
X123717336Y-90322949D01*
X123744596Y-90282150D01*
X123775724Y-90244221D01*
X123810421Y-90209524D01*
X123848350Y-90178396D01*
X123889149Y-90151136D01*
X123932422Y-90128005D01*
X123977755Y-90109228D01*
X124024710Y-90094984D01*
X124072835Y-90085412D01*
X124121666Y-90080602D01*
X124146200Y-90080602D01*
X124146200Y-90080000D01*
X124646200Y-90080000D01*
X124646200Y-91580000D01*
G37*
G04 #@! TD*
G04 #@! TO.C,JP8*
G36*
X115140700Y-89980602D02*
G01*
X115165234Y-89980602D01*
X115214065Y-89985412D01*
X115262190Y-89994984D01*
X115309145Y-90009228D01*
X115354478Y-90028005D01*
X115397751Y-90051136D01*
X115438550Y-90078396D01*
X115476479Y-90109524D01*
X115511176Y-90144221D01*
X115542304Y-90182150D01*
X115569564Y-90222949D01*
X115592695Y-90266222D01*
X115611472Y-90311555D01*
X115625716Y-90358510D01*
X115635288Y-90406635D01*
X115640098Y-90455466D01*
X115640098Y-90480000D01*
X115640700Y-90480000D01*
X115640700Y-90980000D01*
X115640098Y-90980000D01*
X115640098Y-91004534D01*
X115635288Y-91053365D01*
X115625716Y-91101490D01*
X115611472Y-91148445D01*
X115592695Y-91193778D01*
X115569564Y-91237051D01*
X115542304Y-91277850D01*
X115511176Y-91315779D01*
X115476479Y-91350476D01*
X115438550Y-91381604D01*
X115397751Y-91408864D01*
X115354478Y-91431995D01*
X115309145Y-91450772D01*
X115262190Y-91465016D01*
X115214065Y-91474588D01*
X115165234Y-91479398D01*
X115140700Y-91479398D01*
X115140700Y-91480000D01*
X114640700Y-91480000D01*
X114640700Y-89980000D01*
X115140700Y-89980000D01*
X115140700Y-89980602D01*
G37*
G36*
X114340700Y-91480000D02*
G01*
X113840700Y-91480000D01*
X113840700Y-91479398D01*
X113816166Y-91479398D01*
X113767335Y-91474588D01*
X113719210Y-91465016D01*
X113672255Y-91450772D01*
X113626922Y-91431995D01*
X113583649Y-91408864D01*
X113542850Y-91381604D01*
X113504921Y-91350476D01*
X113470224Y-91315779D01*
X113439096Y-91277850D01*
X113411836Y-91237051D01*
X113388705Y-91193778D01*
X113369928Y-91148445D01*
X113355684Y-91101490D01*
X113346112Y-91053365D01*
X113341302Y-91004534D01*
X113341302Y-90980000D01*
X113340700Y-90980000D01*
X113340700Y-90480000D01*
X113341302Y-90480000D01*
X113341302Y-90455466D01*
X113346112Y-90406635D01*
X113355684Y-90358510D01*
X113369928Y-90311555D01*
X113388705Y-90266222D01*
X113411836Y-90222949D01*
X113439096Y-90182150D01*
X113470224Y-90144221D01*
X113504921Y-90109524D01*
X113542850Y-90078396D01*
X113583649Y-90051136D01*
X113626922Y-90028005D01*
X113672255Y-90009228D01*
X113719210Y-89994984D01*
X113767335Y-89985412D01*
X113816166Y-89980602D01*
X113840700Y-89980602D01*
X113840700Y-89980000D01*
X114340700Y-89980000D01*
X114340700Y-91480000D01*
G37*
G04 #@! TD*
G04 #@! TO.C,JP7*
G36*
X102743200Y-89980602D02*
G01*
X102767734Y-89980602D01*
X102816565Y-89985412D01*
X102864690Y-89994984D01*
X102911645Y-90009228D01*
X102956978Y-90028005D01*
X103000251Y-90051136D01*
X103041050Y-90078396D01*
X103078979Y-90109524D01*
X103113676Y-90144221D01*
X103144804Y-90182150D01*
X103172064Y-90222949D01*
X103195195Y-90266222D01*
X103213972Y-90311555D01*
X103228216Y-90358510D01*
X103237788Y-90406635D01*
X103242598Y-90455466D01*
X103242598Y-90480000D01*
X103243200Y-90480000D01*
X103243200Y-90980000D01*
X103242598Y-90980000D01*
X103242598Y-91004534D01*
X103237788Y-91053365D01*
X103228216Y-91101490D01*
X103213972Y-91148445D01*
X103195195Y-91193778D01*
X103172064Y-91237051D01*
X103144804Y-91277850D01*
X103113676Y-91315779D01*
X103078979Y-91350476D01*
X103041050Y-91381604D01*
X103000251Y-91408864D01*
X102956978Y-91431995D01*
X102911645Y-91450772D01*
X102864690Y-91465016D01*
X102816565Y-91474588D01*
X102767734Y-91479398D01*
X102743200Y-91479398D01*
X102743200Y-91480000D01*
X102243200Y-91480000D01*
X102243200Y-89980000D01*
X102743200Y-89980000D01*
X102743200Y-89980602D01*
G37*
G36*
X101943200Y-91480000D02*
G01*
X101443200Y-91480000D01*
X101443200Y-91479398D01*
X101418666Y-91479398D01*
X101369835Y-91474588D01*
X101321710Y-91465016D01*
X101274755Y-91450772D01*
X101229422Y-91431995D01*
X101186149Y-91408864D01*
X101145350Y-91381604D01*
X101107421Y-91350476D01*
X101072724Y-91315779D01*
X101041596Y-91277850D01*
X101014336Y-91237051D01*
X100991205Y-91193778D01*
X100972428Y-91148445D01*
X100958184Y-91101490D01*
X100948612Y-91053365D01*
X100943802Y-91004534D01*
X100943802Y-90980000D01*
X100943200Y-90980000D01*
X100943200Y-90480000D01*
X100943802Y-90480000D01*
X100943802Y-90455466D01*
X100948612Y-90406635D01*
X100958184Y-90358510D01*
X100972428Y-90311555D01*
X100991205Y-90266222D01*
X101014336Y-90222949D01*
X101041596Y-90182150D01*
X101072724Y-90144221D01*
X101107421Y-90109524D01*
X101145350Y-90078396D01*
X101186149Y-90051136D01*
X101229422Y-90028005D01*
X101274755Y-90009228D01*
X101321710Y-89994984D01*
X101369835Y-89985412D01*
X101418666Y-89980602D01*
X101443200Y-89980602D01*
X101443200Y-89980000D01*
X101943200Y-89980000D01*
X101943200Y-91480000D01*
G37*
G04 #@! TD*
G04 #@! TO.C,JP6*
G36*
X89979700Y-89980602D02*
G01*
X90004234Y-89980602D01*
X90053065Y-89985412D01*
X90101190Y-89994984D01*
X90148145Y-90009228D01*
X90193478Y-90028005D01*
X90236751Y-90051136D01*
X90277550Y-90078396D01*
X90315479Y-90109524D01*
X90350176Y-90144221D01*
X90381304Y-90182150D01*
X90408564Y-90222949D01*
X90431695Y-90266222D01*
X90450472Y-90311555D01*
X90464716Y-90358510D01*
X90474288Y-90406635D01*
X90479098Y-90455466D01*
X90479098Y-90480000D01*
X90479700Y-90480000D01*
X90479700Y-90980000D01*
X90479098Y-90980000D01*
X90479098Y-91004534D01*
X90474288Y-91053365D01*
X90464716Y-91101490D01*
X90450472Y-91148445D01*
X90431695Y-91193778D01*
X90408564Y-91237051D01*
X90381304Y-91277850D01*
X90350176Y-91315779D01*
X90315479Y-91350476D01*
X90277550Y-91381604D01*
X90236751Y-91408864D01*
X90193478Y-91431995D01*
X90148145Y-91450772D01*
X90101190Y-91465016D01*
X90053065Y-91474588D01*
X90004234Y-91479398D01*
X89979700Y-91479398D01*
X89979700Y-91480000D01*
X89479700Y-91480000D01*
X89479700Y-89980000D01*
X89979700Y-89980000D01*
X89979700Y-89980602D01*
G37*
G36*
X89179700Y-91480000D02*
G01*
X88679700Y-91480000D01*
X88679700Y-91479398D01*
X88655166Y-91479398D01*
X88606335Y-91474588D01*
X88558210Y-91465016D01*
X88511255Y-91450772D01*
X88465922Y-91431995D01*
X88422649Y-91408864D01*
X88381850Y-91381604D01*
X88343921Y-91350476D01*
X88309224Y-91315779D01*
X88278096Y-91277850D01*
X88250836Y-91237051D01*
X88227705Y-91193778D01*
X88208928Y-91148445D01*
X88194684Y-91101490D01*
X88185112Y-91053365D01*
X88180302Y-91004534D01*
X88180302Y-90980000D01*
X88179700Y-90980000D01*
X88179700Y-90480000D01*
X88180302Y-90480000D01*
X88180302Y-90455466D01*
X88185112Y-90406635D01*
X88194684Y-90358510D01*
X88208928Y-90311555D01*
X88227705Y-90266222D01*
X88250836Y-90222949D01*
X88278096Y-90182150D01*
X88309224Y-90144221D01*
X88343921Y-90109524D01*
X88381850Y-90078396D01*
X88422649Y-90051136D01*
X88465922Y-90028005D01*
X88511255Y-90009228D01*
X88558210Y-89994984D01*
X88606335Y-89985412D01*
X88655166Y-89980602D01*
X88679700Y-89980602D01*
X88679700Y-89980000D01*
X89179700Y-89980000D01*
X89179700Y-91480000D01*
G37*
G04 #@! TD*
G04 #@! TO.C,JP5*
G36*
X76835200Y-89980602D02*
G01*
X76859734Y-89980602D01*
X76908565Y-89985412D01*
X76956690Y-89994984D01*
X77003645Y-90009228D01*
X77048978Y-90028005D01*
X77092251Y-90051136D01*
X77133050Y-90078396D01*
X77170979Y-90109524D01*
X77205676Y-90144221D01*
X77236804Y-90182150D01*
X77264064Y-90222949D01*
X77287195Y-90266222D01*
X77305972Y-90311555D01*
X77320216Y-90358510D01*
X77329788Y-90406635D01*
X77334598Y-90455466D01*
X77334598Y-90480000D01*
X77335200Y-90480000D01*
X77335200Y-90980000D01*
X77334598Y-90980000D01*
X77334598Y-91004534D01*
X77329788Y-91053365D01*
X77320216Y-91101490D01*
X77305972Y-91148445D01*
X77287195Y-91193778D01*
X77264064Y-91237051D01*
X77236804Y-91277850D01*
X77205676Y-91315779D01*
X77170979Y-91350476D01*
X77133050Y-91381604D01*
X77092251Y-91408864D01*
X77048978Y-91431995D01*
X77003645Y-91450772D01*
X76956690Y-91465016D01*
X76908565Y-91474588D01*
X76859734Y-91479398D01*
X76835200Y-91479398D01*
X76835200Y-91480000D01*
X76335200Y-91480000D01*
X76335200Y-89980000D01*
X76835200Y-89980000D01*
X76835200Y-89980602D01*
G37*
G36*
X76035200Y-91480000D02*
G01*
X75535200Y-91480000D01*
X75535200Y-91479398D01*
X75510666Y-91479398D01*
X75461835Y-91474588D01*
X75413710Y-91465016D01*
X75366755Y-91450772D01*
X75321422Y-91431995D01*
X75278149Y-91408864D01*
X75237350Y-91381604D01*
X75199421Y-91350476D01*
X75164724Y-91315779D01*
X75133596Y-91277850D01*
X75106336Y-91237051D01*
X75083205Y-91193778D01*
X75064428Y-91148445D01*
X75050184Y-91101490D01*
X75040612Y-91053365D01*
X75035802Y-91004534D01*
X75035802Y-90980000D01*
X75035200Y-90980000D01*
X75035200Y-90480000D01*
X75035802Y-90480000D01*
X75035802Y-90455466D01*
X75040612Y-90406635D01*
X75050184Y-90358510D01*
X75064428Y-90311555D01*
X75083205Y-90266222D01*
X75106336Y-90222949D01*
X75133596Y-90182150D01*
X75164724Y-90144221D01*
X75199421Y-90109524D01*
X75237350Y-90078396D01*
X75278149Y-90051136D01*
X75321422Y-90028005D01*
X75366755Y-90009228D01*
X75413710Y-89994984D01*
X75461835Y-89985412D01*
X75510666Y-89980602D01*
X75535200Y-89980602D01*
X75535200Y-89980000D01*
X76035200Y-89980000D01*
X76035200Y-91480000D01*
G37*
G04 #@! TD*
G04 #@! TO.C,JP4*
G36*
X66230700Y-89980602D02*
G01*
X66255234Y-89980602D01*
X66304065Y-89985412D01*
X66352190Y-89994984D01*
X66399145Y-90009228D01*
X66444478Y-90028005D01*
X66487751Y-90051136D01*
X66528550Y-90078396D01*
X66566479Y-90109524D01*
X66601176Y-90144221D01*
X66632304Y-90182150D01*
X66659564Y-90222949D01*
X66682695Y-90266222D01*
X66701472Y-90311555D01*
X66715716Y-90358510D01*
X66725288Y-90406635D01*
X66730098Y-90455466D01*
X66730098Y-90480000D01*
X66730700Y-90480000D01*
X66730700Y-90980000D01*
X66730098Y-90980000D01*
X66730098Y-91004534D01*
X66725288Y-91053365D01*
X66715716Y-91101490D01*
X66701472Y-91148445D01*
X66682695Y-91193778D01*
X66659564Y-91237051D01*
X66632304Y-91277850D01*
X66601176Y-91315779D01*
X66566479Y-91350476D01*
X66528550Y-91381604D01*
X66487751Y-91408864D01*
X66444478Y-91431995D01*
X66399145Y-91450772D01*
X66352190Y-91465016D01*
X66304065Y-91474588D01*
X66255234Y-91479398D01*
X66230700Y-91479398D01*
X66230700Y-91480000D01*
X65730700Y-91480000D01*
X65730700Y-89980000D01*
X66230700Y-89980000D01*
X66230700Y-89980602D01*
G37*
G36*
X65430700Y-91480000D02*
G01*
X64930700Y-91480000D01*
X64930700Y-91479398D01*
X64906166Y-91479398D01*
X64857335Y-91474588D01*
X64809210Y-91465016D01*
X64762255Y-91450772D01*
X64716922Y-91431995D01*
X64673649Y-91408864D01*
X64632850Y-91381604D01*
X64594921Y-91350476D01*
X64560224Y-91315779D01*
X64529096Y-91277850D01*
X64501836Y-91237051D01*
X64478705Y-91193778D01*
X64459928Y-91148445D01*
X64445684Y-91101490D01*
X64436112Y-91053365D01*
X64431302Y-91004534D01*
X64431302Y-90980000D01*
X64430700Y-90980000D01*
X64430700Y-90480000D01*
X64431302Y-90480000D01*
X64431302Y-90455466D01*
X64436112Y-90406635D01*
X64445684Y-90358510D01*
X64459928Y-90311555D01*
X64478705Y-90266222D01*
X64501836Y-90222949D01*
X64529096Y-90182150D01*
X64560224Y-90144221D01*
X64594921Y-90109524D01*
X64632850Y-90078396D01*
X64673649Y-90051136D01*
X64716922Y-90028005D01*
X64762255Y-90009228D01*
X64809210Y-89994984D01*
X64857335Y-89985412D01*
X64906166Y-89980602D01*
X64930700Y-89980602D01*
X64930700Y-89980000D01*
X65430700Y-89980000D01*
X65430700Y-91480000D01*
G37*
G04 #@! TD*
G04 #@! TO.C,JP3*
G36*
X55895200Y-90044102D02*
G01*
X55919734Y-90044102D01*
X55968565Y-90048912D01*
X56016690Y-90058484D01*
X56063645Y-90072728D01*
X56108978Y-90091505D01*
X56152251Y-90114636D01*
X56193050Y-90141896D01*
X56230979Y-90173024D01*
X56265676Y-90207721D01*
X56296804Y-90245650D01*
X56324064Y-90286449D01*
X56347195Y-90329722D01*
X56365972Y-90375055D01*
X56380216Y-90422010D01*
X56389788Y-90470135D01*
X56394598Y-90518966D01*
X56394598Y-90543500D01*
X56395200Y-90543500D01*
X56395200Y-91043500D01*
X56394598Y-91043500D01*
X56394598Y-91068034D01*
X56389788Y-91116865D01*
X56380216Y-91164990D01*
X56365972Y-91211945D01*
X56347195Y-91257278D01*
X56324064Y-91300551D01*
X56296804Y-91341350D01*
X56265676Y-91379279D01*
X56230979Y-91413976D01*
X56193050Y-91445104D01*
X56152251Y-91472364D01*
X56108978Y-91495495D01*
X56063645Y-91514272D01*
X56016690Y-91528516D01*
X55968565Y-91538088D01*
X55919734Y-91542898D01*
X55895200Y-91542898D01*
X55895200Y-91543500D01*
X55395200Y-91543500D01*
X55395200Y-90043500D01*
X55895200Y-90043500D01*
X55895200Y-90044102D01*
G37*
G36*
X55095200Y-91543500D02*
G01*
X54595200Y-91543500D01*
X54595200Y-91542898D01*
X54570666Y-91542898D01*
X54521835Y-91538088D01*
X54473710Y-91528516D01*
X54426755Y-91514272D01*
X54381422Y-91495495D01*
X54338149Y-91472364D01*
X54297350Y-91445104D01*
X54259421Y-91413976D01*
X54224724Y-91379279D01*
X54193596Y-91341350D01*
X54166336Y-91300551D01*
X54143205Y-91257278D01*
X54124428Y-91211945D01*
X54110184Y-91164990D01*
X54100612Y-91116865D01*
X54095802Y-91068034D01*
X54095802Y-91043500D01*
X54095200Y-91043500D01*
X54095200Y-90543500D01*
X54095802Y-90543500D01*
X54095802Y-90518966D01*
X54100612Y-90470135D01*
X54110184Y-90422010D01*
X54124428Y-90375055D01*
X54143205Y-90329722D01*
X54166336Y-90286449D01*
X54193596Y-90245650D01*
X54224724Y-90207721D01*
X54259421Y-90173024D01*
X54297350Y-90141896D01*
X54338149Y-90114636D01*
X54381422Y-90091505D01*
X54426755Y-90072728D01*
X54473710Y-90058484D01*
X54521835Y-90048912D01*
X54570666Y-90044102D01*
X54595200Y-90044102D01*
X54595200Y-90043500D01*
X55095200Y-90043500D01*
X55095200Y-91543500D01*
G37*
G04 #@! TD*
D21*
G04 #@! TO.C,JP2*
X89875800Y-74245400D03*
D22*
X87335800Y-74245400D03*
G04 #@! TD*
G04 #@! TO.C,C10*
G36*
G01*
X107638000Y-90291000D02*
X108588000Y-90291000D01*
G75*
G02*
X108838000Y-90541000I0J-250000D01*
G01*
X108838000Y-91041000D01*
G75*
G02*
X108588000Y-91291000I-250000J0D01*
G01*
X107638000Y-91291000D01*
G75*
G02*
X107388000Y-91041000I0J250000D01*
G01*
X107388000Y-90541000D01*
G75*
G02*
X107638000Y-90291000I250000J0D01*
G01*
G37*
G36*
G01*
X107638000Y-88391000D02*
X108588000Y-88391000D01*
G75*
G02*
X108838000Y-88641000I0J-250000D01*
G01*
X108838000Y-89141000D01*
G75*
G02*
X108588000Y-89391000I-250000J0D01*
G01*
X107638000Y-89391000D01*
G75*
G02*
X107388000Y-89141000I0J250000D01*
G01*
X107388000Y-88641000D01*
G75*
G02*
X107638000Y-88391000I250000J0D01*
G01*
G37*
G04 #@! TD*
D21*
G04 #@! TO.C,JP1*
X83297200Y-74245400D03*
D22*
X80757200Y-74245400D03*
G04 #@! TD*
G04 #@! TO.C,R3*
G36*
G01*
X100820059Y-83047000D02*
X103670261Y-83047000D01*
G75*
G02*
X103920160Y-83296899I0J-249899D01*
G01*
X103920160Y-84022101D01*
G75*
G02*
X103670261Y-84272000I-249899J0D01*
G01*
X100820059Y-84272000D01*
G75*
G02*
X100570160Y-84022101I0J249899D01*
G01*
X100570160Y-83296899D01*
G75*
G02*
X100820059Y-83047000I249899J0D01*
G01*
G37*
G36*
G01*
X100820059Y-77122000D02*
X103670261Y-77122000D01*
G75*
G02*
X103920160Y-77371899I0J-249899D01*
G01*
X103920160Y-78097101D01*
G75*
G02*
X103670261Y-78347000I-249899J0D01*
G01*
X100820059Y-78347000D01*
G75*
G02*
X100570160Y-78097101I0J249899D01*
G01*
X100570160Y-77371899D01*
G75*
G02*
X100820059Y-77122000I249899J0D01*
G01*
G37*
G04 #@! TD*
G04 #@! TO.C,U1*
G36*
G01*
X110375560Y-73770620D02*
X110675560Y-73770620D01*
G75*
G02*
X110825560Y-73920620I0J-150000D01*
G01*
X110825560Y-75570620D01*
G75*
G02*
X110675560Y-75720620I-150000J0D01*
G01*
X110375560Y-75720620D01*
G75*
G02*
X110225560Y-75570620I0J150000D01*
G01*
X110225560Y-73920620D01*
G75*
G02*
X110375560Y-73770620I150000J0D01*
G01*
G37*
G36*
G01*
X109105560Y-73770620D02*
X109405560Y-73770620D01*
G75*
G02*
X109555560Y-73920620I0J-150000D01*
G01*
X109555560Y-75570620D01*
G75*
G02*
X109405560Y-75720620I-150000J0D01*
G01*
X109105560Y-75720620D01*
G75*
G02*
X108955560Y-75570620I0J150000D01*
G01*
X108955560Y-73920620D01*
G75*
G02*
X109105560Y-73770620I150000J0D01*
G01*
G37*
G36*
G01*
X107835560Y-73770620D02*
X108135560Y-73770620D01*
G75*
G02*
X108285560Y-73920620I0J-150000D01*
G01*
X108285560Y-75570620D01*
G75*
G02*
X108135560Y-75720620I-150000J0D01*
G01*
X107835560Y-75720620D01*
G75*
G02*
X107685560Y-75570620I0J150000D01*
G01*
X107685560Y-73920620D01*
G75*
G02*
X107835560Y-73770620I150000J0D01*
G01*
G37*
G36*
G01*
X106565560Y-73770620D02*
X106865560Y-73770620D01*
G75*
G02*
X107015560Y-73920620I0J-150000D01*
G01*
X107015560Y-75570620D01*
G75*
G02*
X106865560Y-75720620I-150000J0D01*
G01*
X106565560Y-75720620D01*
G75*
G02*
X106415560Y-75570620I0J150000D01*
G01*
X106415560Y-73920620D01*
G75*
G02*
X106565560Y-73770620I150000J0D01*
G01*
G37*
G36*
G01*
X106565560Y-68820620D02*
X106865560Y-68820620D01*
G75*
G02*
X107015560Y-68970620I0J-150000D01*
G01*
X107015560Y-70620620D01*
G75*
G02*
X106865560Y-70770620I-150000J0D01*
G01*
X106565560Y-70770620D01*
G75*
G02*
X106415560Y-70620620I0J150000D01*
G01*
X106415560Y-68970620D01*
G75*
G02*
X106565560Y-68820620I150000J0D01*
G01*
G37*
G36*
G01*
X107835560Y-68820620D02*
X108135560Y-68820620D01*
G75*
G02*
X108285560Y-68970620I0J-150000D01*
G01*
X108285560Y-70620620D01*
G75*
G02*
X108135560Y-70770620I-150000J0D01*
G01*
X107835560Y-70770620D01*
G75*
G02*
X107685560Y-70620620I0J150000D01*
G01*
X107685560Y-68970620D01*
G75*
G02*
X107835560Y-68820620I150000J0D01*
G01*
G37*
G36*
G01*
X109105560Y-68820620D02*
X109405560Y-68820620D01*
G75*
G02*
X109555560Y-68970620I0J-150000D01*
G01*
X109555560Y-70620620D01*
G75*
G02*
X109405560Y-70770620I-150000J0D01*
G01*
X109105560Y-70770620D01*
G75*
G02*
X108955560Y-70620620I0J150000D01*
G01*
X108955560Y-68970620D01*
G75*
G02*
X109105560Y-68820620I150000J0D01*
G01*
G37*
G36*
G01*
X110375560Y-68820620D02*
X110675560Y-68820620D01*
G75*
G02*
X110825560Y-68970620I0J-150000D01*
G01*
X110825560Y-70620620D01*
G75*
G02*
X110675560Y-70770620I-150000J0D01*
G01*
X110375560Y-70770620D01*
G75*
G02*
X110225560Y-70620620I0J150000D01*
G01*
X110225560Y-68970620D01*
G75*
G02*
X110375560Y-68820620I150000J0D01*
G01*
G37*
G04 #@! TD*
D23*
G04 #@! TO.C,H1*
X48000000Y-112000000D03*
G04 #@! TD*
D21*
G04 #@! TO.C,J3*
X118984200Y-67692200D03*
X121524200Y-67692200D03*
X124064200Y-67692200D03*
X126604200Y-67692200D03*
X129144200Y-67692200D03*
D22*
X131684200Y-67692200D03*
G04 #@! TD*
D24*
G04 #@! TO.C,D2*
X127874200Y-72569000D03*
D25*
X120254200Y-72569000D03*
G04 #@! TD*
G04 #@! TO.C,R10*
G36*
G01*
X72866200Y-75387002D02*
X72866200Y-74486998D01*
G75*
G02*
X73116198Y-74237000I249998J0D01*
G01*
X73641202Y-74237000D01*
G75*
G02*
X73891200Y-74486998I0J-249998D01*
G01*
X73891200Y-75387002D01*
G75*
G02*
X73641202Y-75637000I-249998J0D01*
G01*
X73116198Y-75637000D01*
G75*
G02*
X72866200Y-75387002I0J249998D01*
G01*
G37*
G36*
G01*
X71041200Y-75387002D02*
X71041200Y-74486998D01*
G75*
G02*
X71291198Y-74237000I249998J0D01*
G01*
X71816202Y-74237000D01*
G75*
G02*
X72066200Y-74486998I0J-249998D01*
G01*
X72066200Y-75387002D01*
G75*
G02*
X71816202Y-75637000I-249998J0D01*
G01*
X71291198Y-75637000D01*
G75*
G02*
X71041200Y-75387002I0J249998D01*
G01*
G37*
G04 #@! TD*
G04 #@! TO.C,R9*
G36*
G01*
X72066200Y-72328618D02*
X72066200Y-73228622D01*
G75*
G02*
X71816202Y-73478620I-249998J0D01*
G01*
X71291198Y-73478620D01*
G75*
G02*
X71041200Y-73228622I0J249998D01*
G01*
X71041200Y-72328618D01*
G75*
G02*
X71291198Y-72078620I249998J0D01*
G01*
X71816202Y-72078620D01*
G75*
G02*
X72066200Y-72328618I0J-249998D01*
G01*
G37*
G36*
G01*
X73891200Y-72328618D02*
X73891200Y-73228622D01*
G75*
G02*
X73641202Y-73478620I-249998J0D01*
G01*
X73116198Y-73478620D01*
G75*
G02*
X72866200Y-73228622I0J249998D01*
G01*
X72866200Y-72328618D01*
G75*
G02*
X73116198Y-72078620I249998J0D01*
G01*
X73641202Y-72078620D01*
G75*
G02*
X73891200Y-72328618I0J-249998D01*
G01*
G37*
G04 #@! TD*
G04 #@! TO.C,R8*
G36*
G01*
X84040200Y-84158598D02*
X84040200Y-85058602D01*
G75*
G02*
X83790202Y-85308600I-249998J0D01*
G01*
X83265198Y-85308600D01*
G75*
G02*
X83015200Y-85058602I0J249998D01*
G01*
X83015200Y-84158598D01*
G75*
G02*
X83265198Y-83908600I249998J0D01*
G01*
X83790202Y-83908600D01*
G75*
G02*
X84040200Y-84158598I0J-249998D01*
G01*
G37*
G36*
G01*
X85865200Y-84158598D02*
X85865200Y-85058602D01*
G75*
G02*
X85615202Y-85308600I-249998J0D01*
G01*
X85090198Y-85308600D01*
G75*
G02*
X84840200Y-85058602I0J249998D01*
G01*
X84840200Y-84158598D01*
G75*
G02*
X85090198Y-83908600I249998J0D01*
G01*
X85615202Y-83908600D01*
G75*
G02*
X85865200Y-84158598I0J-249998D01*
G01*
G37*
G04 #@! TD*
G04 #@! TO.C,R7*
G36*
G01*
X113784040Y-72264978D02*
X113784040Y-73164982D01*
G75*
G02*
X113534042Y-73414980I-249998J0D01*
G01*
X113009038Y-73414980D01*
G75*
G02*
X112759040Y-73164982I0J249998D01*
G01*
X112759040Y-72264978D01*
G75*
G02*
X113009038Y-72014980I249998J0D01*
G01*
X113534042Y-72014980D01*
G75*
G02*
X113784040Y-72264978I0J-249998D01*
G01*
G37*
G36*
G01*
X115609040Y-72264978D02*
X115609040Y-73164982D01*
G75*
G02*
X115359042Y-73414980I-249998J0D01*
G01*
X114834038Y-73414980D01*
G75*
G02*
X114584040Y-73164982I0J249998D01*
G01*
X114584040Y-72264978D01*
G75*
G02*
X114834038Y-72014980I249998J0D01*
G01*
X115359042Y-72014980D01*
G75*
G02*
X115609040Y-72264978I0J-249998D01*
G01*
G37*
G04 #@! TD*
G04 #@! TO.C,R6*
G36*
G01*
X113784040Y-70105978D02*
X113784040Y-71005982D01*
G75*
G02*
X113534042Y-71255980I-249998J0D01*
G01*
X113009038Y-71255980D01*
G75*
G02*
X112759040Y-71005982I0J249998D01*
G01*
X112759040Y-70105978D01*
G75*
G02*
X113009038Y-69855980I249998J0D01*
G01*
X113534042Y-69855980D01*
G75*
G02*
X113784040Y-70105978I0J-249998D01*
G01*
G37*
G36*
G01*
X115609040Y-70105978D02*
X115609040Y-71005982D01*
G75*
G02*
X115359042Y-71255980I-249998J0D01*
G01*
X114834038Y-71255980D01*
G75*
G02*
X114584040Y-71005982I0J249998D01*
G01*
X114584040Y-70105978D01*
G75*
G02*
X114834038Y-69855980I249998J0D01*
G01*
X115359042Y-69855980D01*
G75*
G02*
X115609040Y-70105978I0J-249998D01*
G01*
G37*
G04 #@! TD*
G04 #@! TO.C,R5*
G36*
G01*
X103402200Y-72746022D02*
X103402200Y-71846018D01*
G75*
G02*
X103652198Y-71596020I249998J0D01*
G01*
X104177202Y-71596020D01*
G75*
G02*
X104427200Y-71846018I0J-249998D01*
G01*
X104427200Y-72746022D01*
G75*
G02*
X104177202Y-72996020I-249998J0D01*
G01*
X103652198Y-72996020D01*
G75*
G02*
X103402200Y-72746022I0J249998D01*
G01*
G37*
G36*
G01*
X101577200Y-72746022D02*
X101577200Y-71846018D01*
G75*
G02*
X101827198Y-71596020I249998J0D01*
G01*
X102352202Y-71596020D01*
G75*
G02*
X102602200Y-71846018I0J-249998D01*
G01*
X102602200Y-72746022D01*
G75*
G02*
X102352202Y-72996020I-249998J0D01*
G01*
X101827198Y-72996020D01*
G75*
G02*
X101577200Y-72746022I0J249998D01*
G01*
G37*
G04 #@! TD*
G04 #@! TO.C,R4*
G36*
G01*
X103402200Y-70587022D02*
X103402200Y-69687018D01*
G75*
G02*
X103652198Y-69437020I249998J0D01*
G01*
X104177202Y-69437020D01*
G75*
G02*
X104427200Y-69687018I0J-249998D01*
G01*
X104427200Y-70587022D01*
G75*
G02*
X104177202Y-70837020I-249998J0D01*
G01*
X103652198Y-70837020D01*
G75*
G02*
X103402200Y-70587022I0J249998D01*
G01*
G37*
G36*
G01*
X101577200Y-70587022D02*
X101577200Y-69687018D01*
G75*
G02*
X101827198Y-69437020I249998J0D01*
G01*
X102352202Y-69437020D01*
G75*
G02*
X102602200Y-69687018I0J-249998D01*
G01*
X102602200Y-70587022D01*
G75*
G02*
X102352202Y-70837020I-249998J0D01*
G01*
X101827198Y-70837020D01*
G75*
G02*
X101577200Y-70587022I0J249998D01*
G01*
G37*
G04 #@! TD*
D26*
G04 #@! TO.C,U8*
X92949200Y-88209120D03*
X92949200Y-90749120D03*
X92949200Y-93289120D03*
X92949200Y-95829120D03*
X85329200Y-95829120D03*
X85329200Y-93289120D03*
X85329200Y-90749120D03*
D27*
X85329200Y-88209120D03*
G04 #@! TD*
D28*
G04 #@! TO.C,C3*
X96403160Y-69786620D03*
D25*
X96403160Y-73286620D03*
G04 #@! TD*
D23*
G04 #@! TO.C,H4*
X140000000Y-66700000D03*
G04 #@! TD*
G04 #@! TO.C,H3*
X90000000Y-66700000D03*
G04 #@! TD*
G04 #@! TO.C,H2*
X140000000Y-112000000D03*
G04 #@! TD*
D26*
G04 #@! TO.C,U12*
X139086200Y-88209120D03*
X139086200Y-90749120D03*
X139086200Y-93289120D03*
X139086200Y-95829120D03*
X131466200Y-95829120D03*
X131466200Y-93289120D03*
X131466200Y-90749120D03*
D27*
X131466200Y-88209120D03*
G04 #@! TD*
D26*
G04 #@! TO.C,U11*
X128631600Y-88209120D03*
X128631600Y-90749120D03*
X128631600Y-93289120D03*
X128631600Y-95829120D03*
X121011600Y-95829120D03*
X121011600Y-93289120D03*
X121011600Y-90749120D03*
D27*
X121011600Y-88209120D03*
G04 #@! TD*
D26*
G04 #@! TO.C,U10*
X118222200Y-88209120D03*
X118222200Y-90749120D03*
X118222200Y-93289120D03*
X118222200Y-95829120D03*
X110602200Y-95829120D03*
X110602200Y-93289120D03*
X110602200Y-90749120D03*
D27*
X110602200Y-88209120D03*
G04 #@! TD*
D26*
G04 #@! TO.C,U9*
X105623800Y-88209120D03*
X105623800Y-90749120D03*
X105623800Y-93289120D03*
X105623800Y-95829120D03*
X98003800Y-95829120D03*
X98003800Y-93289120D03*
X98003800Y-90749120D03*
D27*
X98003800Y-88209120D03*
G04 #@! TD*
D26*
G04 #@! TO.C,U7*
X79956660Y-88209120D03*
X79956660Y-90749120D03*
X79956660Y-93289120D03*
X79956660Y-95829120D03*
X72336660Y-95829120D03*
X72336660Y-93289120D03*
X72336660Y-90749120D03*
D27*
X72336660Y-88209120D03*
G04 #@! TD*
D26*
G04 #@! TO.C,U6*
X69505000Y-88209120D03*
X69505000Y-90749120D03*
X69505000Y-93289120D03*
X69505000Y-95829120D03*
X61885000Y-95829120D03*
X61885000Y-93289120D03*
X61885000Y-90749120D03*
D27*
X61885000Y-88209120D03*
G04 #@! TD*
D26*
G04 #@! TO.C,U5*
X59001660Y-88209120D03*
X59001660Y-90749120D03*
X59001660Y-93289120D03*
X59001660Y-95829120D03*
X51381660Y-95829120D03*
X51381660Y-93289120D03*
X51381660Y-90749120D03*
D27*
X51381660Y-88209120D03*
G04 #@! TD*
D29*
G04 #@! TO.C,U3*
X72742200Y-83593000D03*
X77342200Y-83593000D03*
X75042200Y-83593000D03*
D30*
X75042200Y-77293000D03*
G04 #@! TD*
D31*
G04 #@! TO.C,U2*
X90751660Y-78620620D03*
X93291660Y-78620620D03*
D32*
X95831660Y-78620620D03*
G04 #@! TD*
D33*
G04 #@! TO.C,SW1*
X76035200Y-70156000D03*
X76035200Y-65656000D03*
X82535200Y-70156000D03*
X82535200Y-65656000D03*
G04 #@! TD*
D34*
G04 #@! TO.C,Q10*
X138376660Y-102179120D03*
X135836660Y-102179120D03*
D35*
X133296660Y-102179120D03*
G04 #@! TD*
D34*
G04 #@! TO.C,Q9*
X126311660Y-102179120D03*
X123771660Y-102179120D03*
D35*
X121231660Y-102179120D03*
G04 #@! TD*
D34*
G04 #@! TO.C,Q8*
X114246660Y-102179120D03*
X111706660Y-102179120D03*
D35*
X109166660Y-102179120D03*
G04 #@! TD*
D34*
G04 #@! TO.C,Q7*
X102181660Y-102179120D03*
X99641660Y-102179120D03*
D35*
X97101660Y-102179120D03*
G04 #@! TD*
D34*
G04 #@! TO.C,Q6*
X90116660Y-102179120D03*
X87576660Y-102179120D03*
D35*
X85036660Y-102179120D03*
G04 #@! TD*
D34*
G04 #@! TO.C,Q5*
X78051660Y-102179120D03*
X75511660Y-102179120D03*
D35*
X72971660Y-102179120D03*
G04 #@! TD*
D34*
G04 #@! TO.C,Q4*
X65986660Y-102179120D03*
X63446660Y-102179120D03*
D35*
X60906660Y-102179120D03*
G04 #@! TD*
D34*
G04 #@! TO.C,Q3*
X53921660Y-102179120D03*
X51381660Y-102179120D03*
D35*
X48841660Y-102179120D03*
G04 #@! TD*
D36*
G04 #@! TO.C,L1*
X121524200Y-83487000D03*
X121524200Y-76887000D03*
G04 #@! TD*
D37*
G04 #@! TO.C,J2*
X132217160Y-110370620D03*
X127137160Y-110370620D03*
X122057160Y-110370620D03*
X116977160Y-110370620D03*
X111897160Y-110370620D03*
X106817160Y-110370620D03*
X101737160Y-110370620D03*
X96657160Y-110370620D03*
X91577160Y-110370620D03*
X86497160Y-110370620D03*
X81417160Y-110370620D03*
X76337160Y-110370620D03*
X71257160Y-110370620D03*
X66177160Y-110370620D03*
X61097160Y-110370620D03*
D38*
X56017160Y-110370620D03*
G04 #@! TD*
D39*
G04 #@! TO.C,J1*
X138249660Y-77811620D03*
D40*
X138249660Y-82811620D03*
G04 #@! TD*
G04 #@! TO.C,LED2*
G36*
G01*
X75608200Y-74525750D02*
X75608200Y-75438250D01*
G75*
G02*
X75364450Y-75682000I-243750J0D01*
G01*
X74876950Y-75682000D01*
G75*
G02*
X74633200Y-75438250I0J243750D01*
G01*
X74633200Y-74525750D01*
G75*
G02*
X74876950Y-74282000I243750J0D01*
G01*
X75364450Y-74282000D01*
G75*
G02*
X75608200Y-74525750I0J-243750D01*
G01*
G37*
G36*
G01*
X77483200Y-74525750D02*
X77483200Y-75438250D01*
G75*
G02*
X77239450Y-75682000I-243750J0D01*
G01*
X76751950Y-75682000D01*
G75*
G02*
X76508200Y-75438250I0J243750D01*
G01*
X76508200Y-74525750D01*
G75*
G02*
X76751950Y-74282000I243750J0D01*
G01*
X77239450Y-74282000D01*
G75*
G02*
X77483200Y-74525750I0J-243750D01*
G01*
G37*
G04 #@! TD*
G04 #@! TO.C,LED1*
G36*
G01*
X84930200Y-82677250D02*
X84930200Y-81764750D01*
G75*
G02*
X85173950Y-81521000I243750J0D01*
G01*
X85661450Y-81521000D01*
G75*
G02*
X85905200Y-81764750I0J-243750D01*
G01*
X85905200Y-82677250D01*
G75*
G02*
X85661450Y-82921000I-243750J0D01*
G01*
X85173950Y-82921000D01*
G75*
G02*
X84930200Y-82677250I0J243750D01*
G01*
G37*
G36*
G01*
X83055200Y-82677250D02*
X83055200Y-81764750D01*
G75*
G02*
X83298950Y-81521000I243750J0D01*
G01*
X83786450Y-81521000D01*
G75*
G02*
X84030200Y-81764750I0J-243750D01*
G01*
X84030200Y-82677250D01*
G75*
G02*
X83786450Y-82921000I-243750J0D01*
G01*
X83298950Y-82921000D01*
G75*
G02*
X83055200Y-82677250I0J243750D01*
G01*
G37*
G04 #@! TD*
G04 #@! TO.C,C9*
G36*
G01*
X56721160Y-85445620D02*
X56721160Y-84495620D01*
G75*
G02*
X56971160Y-84245620I250000J0D01*
G01*
X57471160Y-84245620D01*
G75*
G02*
X57721160Y-84495620I0J-250000D01*
G01*
X57721160Y-85445620D01*
G75*
G02*
X57471160Y-85695620I-250000J0D01*
G01*
X56971160Y-85695620D01*
G75*
G02*
X56721160Y-85445620I0J250000D01*
G01*
G37*
G36*
G01*
X54821160Y-85445620D02*
X54821160Y-84495620D01*
G75*
G02*
X55071160Y-84245620I250000J0D01*
G01*
X55571160Y-84245620D01*
G75*
G02*
X55821160Y-84495620I0J-250000D01*
G01*
X55821160Y-85445620D01*
G75*
G02*
X55571160Y-85695620I-250000J0D01*
G01*
X55071160Y-85695620D01*
G75*
G02*
X54821160Y-85445620I0J250000D01*
G01*
G37*
G04 #@! TD*
G04 #@! TO.C,C8*
G36*
G01*
X52011160Y-84495620D02*
X52011160Y-85445620D01*
G75*
G02*
X51761160Y-85695620I-250000J0D01*
G01*
X51261160Y-85695620D01*
G75*
G02*
X51011160Y-85445620I0J250000D01*
G01*
X51011160Y-84495620D01*
G75*
G02*
X51261160Y-84245620I250000J0D01*
G01*
X51761160Y-84245620D01*
G75*
G02*
X52011160Y-84495620I0J-250000D01*
G01*
G37*
G36*
G01*
X53911160Y-84495620D02*
X53911160Y-85445620D01*
G75*
G02*
X53661160Y-85695620I-250000J0D01*
G01*
X53161160Y-85695620D01*
G75*
G02*
X52911160Y-85445620I0J250000D01*
G01*
X52911160Y-84495620D01*
G75*
G02*
X53161160Y-84245620I250000J0D01*
G01*
X53661160Y-84245620D01*
G75*
G02*
X53911160Y-84495620I0J-250000D01*
G01*
G37*
G04 #@! TD*
G04 #@! TO.C,C7*
G36*
G01*
X81933200Y-90291000D02*
X82883200Y-90291000D01*
G75*
G02*
X83133200Y-90541000I0J-250000D01*
G01*
X83133200Y-91041000D01*
G75*
G02*
X82883200Y-91291000I-250000J0D01*
G01*
X81933200Y-91291000D01*
G75*
G02*
X81683200Y-91041000I0J250000D01*
G01*
X81683200Y-90541000D01*
G75*
G02*
X81933200Y-90291000I250000J0D01*
G01*
G37*
G36*
G01*
X81933200Y-88391000D02*
X82883200Y-88391000D01*
G75*
G02*
X83133200Y-88641000I0J-250000D01*
G01*
X83133200Y-89141000D01*
G75*
G02*
X82883200Y-89391000I-250000J0D01*
G01*
X81933200Y-89391000D01*
G75*
G02*
X81683200Y-89141000I0J250000D01*
G01*
X81683200Y-88641000D01*
G75*
G02*
X81933200Y-88391000I250000J0D01*
G01*
G37*
G04 #@! TD*
G04 #@! TO.C,C6*
G36*
G01*
X72036200Y-70024000D02*
X72036200Y-70974000D01*
G75*
G02*
X71786200Y-71224000I-250000J0D01*
G01*
X71286200Y-71224000D01*
G75*
G02*
X71036200Y-70974000I0J250000D01*
G01*
X71036200Y-70024000D01*
G75*
G02*
X71286200Y-69774000I250000J0D01*
G01*
X71786200Y-69774000D01*
G75*
G02*
X72036200Y-70024000I0J-250000D01*
G01*
G37*
G36*
G01*
X73936200Y-70024000D02*
X73936200Y-70974000D01*
G75*
G02*
X73686200Y-71224000I-250000J0D01*
G01*
X73186200Y-71224000D01*
G75*
G02*
X72936200Y-70974000I0J250000D01*
G01*
X72936200Y-70024000D01*
G75*
G02*
X73186200Y-69774000I250000J0D01*
G01*
X73686200Y-69774000D01*
G75*
G02*
X73936200Y-70024000I0J-250000D01*
G01*
G37*
G04 #@! TD*
G04 #@! TO.C,C5*
G36*
G01*
X80597200Y-79231000D02*
X79647200Y-79231000D01*
G75*
G02*
X79397200Y-78981000I0J250000D01*
G01*
X79397200Y-78481000D01*
G75*
G02*
X79647200Y-78231000I250000J0D01*
G01*
X80597200Y-78231000D01*
G75*
G02*
X80847200Y-78481000I0J-250000D01*
G01*
X80847200Y-78981000D01*
G75*
G02*
X80597200Y-79231000I-250000J0D01*
G01*
G37*
G36*
G01*
X80597200Y-81131000D02*
X79647200Y-81131000D01*
G75*
G02*
X79397200Y-80881000I0J250000D01*
G01*
X79397200Y-80381000D01*
G75*
G02*
X79647200Y-80131000I250000J0D01*
G01*
X80597200Y-80131000D01*
G75*
G02*
X80847200Y-80381000I0J-250000D01*
G01*
X80847200Y-80881000D01*
G75*
G02*
X80597200Y-81131000I-250000J0D01*
G01*
G37*
G04 #@! TD*
G04 #@! TO.C,C4*
G36*
G01*
X79647200Y-83880000D02*
X80597200Y-83880000D01*
G75*
G02*
X80847200Y-84130000I0J-250000D01*
G01*
X80847200Y-84630000D01*
G75*
G02*
X80597200Y-84880000I-250000J0D01*
G01*
X79647200Y-84880000D01*
G75*
G02*
X79397200Y-84630000I0J250000D01*
G01*
X79397200Y-84130000D01*
G75*
G02*
X79647200Y-83880000I250000J0D01*
G01*
G37*
G36*
G01*
X79647200Y-81980000D02*
X80597200Y-81980000D01*
G75*
G02*
X80847200Y-82230000I0J-250000D01*
G01*
X80847200Y-82730000D01*
G75*
G02*
X80597200Y-82980000I-250000J0D01*
G01*
X79647200Y-82980000D01*
G75*
G02*
X79397200Y-82730000I0J250000D01*
G01*
X79397200Y-82230000D01*
G75*
G02*
X79647200Y-81980000I250000J0D01*
G01*
G37*
G04 #@! TD*
G04 #@! TO.C,C2*
G36*
G01*
X102532200Y-74380000D02*
X102532200Y-75330000D01*
G75*
G02*
X102282200Y-75580000I-250000J0D01*
G01*
X101782200Y-75580000D01*
G75*
G02*
X101532200Y-75330000I0J250000D01*
G01*
X101532200Y-74380000D01*
G75*
G02*
X101782200Y-74130000I250000J0D01*
G01*
X102282200Y-74130000D01*
G75*
G02*
X102532200Y-74380000I0J-250000D01*
G01*
G37*
G36*
G01*
X104432200Y-74380000D02*
X104432200Y-75330000D01*
G75*
G02*
X104182200Y-75580000I-250000J0D01*
G01*
X103682200Y-75580000D01*
G75*
G02*
X103432200Y-75330000I0J250000D01*
G01*
X103432200Y-74380000D01*
G75*
G02*
X103682200Y-74130000I250000J0D01*
G01*
X104182200Y-74130000D01*
G75*
G02*
X104432200Y-74380000I0J-250000D01*
G01*
G37*
G04 #@! TD*
D41*
G04 #@! TO.C,C1*
X109535400Y-81541800D03*
D25*
X109535400Y-83541800D03*
G04 #@! TD*
M02*
