G04 #@! TF.GenerationSoftware,KiCad,Pcbnew,(5.1.10)-1*
G04 #@! TF.CreationDate,2021-12-04T14:44:31-06:00*
G04 #@! TF.ProjectId,ESP32LedDriverV2,45535033-324c-4656-9444-726976657256,rev?*
G04 #@! TF.SameCoordinates,Original*
G04 #@! TF.FileFunction,Soldermask,Bot*
G04 #@! TF.FilePolarity,Negative*
%FSLAX46Y46*%
G04 Gerber Fmt 4.6, Leading zero omitted, Abs format (unit mm)*
G04 Created by KiCad (PCBNEW (5.1.10)-1) date 2021-12-04 14:44:31*
%MOMM*%
%LPD*%
G01*
G04 APERTURE LIST*
%ADD10O,1.700000X1.700000*%
%ADD11R,1.700000X1.700000*%
%ADD12C,3.200000*%
%ADD13O,1.600000X1.600000*%
%ADD14R,1.600000X1.600000*%
%ADD15C,1.498600*%
%ADD16R,1.498600X1.498600*%
%ADD17C,1.800000*%
%ADD18O,1.500000X2.300000*%
%ADD19R,1.500000X2.300000*%
%ADD20C,2.000000*%
%ADD21O,1.905000X2.000000*%
%ADD22R,1.905000X2.000000*%
%ADD23C,3.000000*%
%ADD24C,2.600000*%
%ADD25R,2.600000X2.600000*%
%ADD26C,3.500000*%
%ADD27R,3.200000X3.200000*%
%ADD28C,1.600000*%
G04 APERTURE END LIST*
D10*
G04 #@! TO.C,JP2*
X89875800Y-74245400D03*
D11*
X87335800Y-74245400D03*
G04 #@! TD*
D10*
G04 #@! TO.C,JP1*
X83297200Y-74245400D03*
D11*
X80757200Y-74245400D03*
G04 #@! TD*
D12*
G04 #@! TO.C,H1*
X48000000Y-112000000D03*
G04 #@! TD*
D10*
G04 #@! TO.C,J3*
X118984200Y-67692200D03*
X121524200Y-67692200D03*
X124064200Y-67692200D03*
X126604200Y-67692200D03*
X129144200Y-67692200D03*
D11*
X131684200Y-67692200D03*
G04 #@! TD*
D13*
G04 #@! TO.C,D2*
X127874200Y-72569000D03*
D14*
X120254200Y-72569000D03*
G04 #@! TD*
D15*
G04 #@! TO.C,U8*
X92949200Y-88209120D03*
X92949200Y-90749120D03*
X92949200Y-93289120D03*
X92949200Y-95829120D03*
X85329200Y-95829120D03*
X85329200Y-93289120D03*
X85329200Y-90749120D03*
D16*
X85329200Y-88209120D03*
G04 #@! TD*
D17*
G04 #@! TO.C,C3*
X96403160Y-69786620D03*
D14*
X96403160Y-73286620D03*
G04 #@! TD*
D12*
G04 #@! TO.C,H4*
X140000000Y-66700000D03*
G04 #@! TD*
G04 #@! TO.C,H3*
X90000000Y-66700000D03*
G04 #@! TD*
G04 #@! TO.C,H2*
X140000000Y-112000000D03*
G04 #@! TD*
D15*
G04 #@! TO.C,U12*
X139086200Y-88209120D03*
X139086200Y-90749120D03*
X139086200Y-93289120D03*
X139086200Y-95829120D03*
X131466200Y-95829120D03*
X131466200Y-93289120D03*
X131466200Y-90749120D03*
D16*
X131466200Y-88209120D03*
G04 #@! TD*
D15*
G04 #@! TO.C,U11*
X128631600Y-88209120D03*
X128631600Y-90749120D03*
X128631600Y-93289120D03*
X128631600Y-95829120D03*
X121011600Y-95829120D03*
X121011600Y-93289120D03*
X121011600Y-90749120D03*
D16*
X121011600Y-88209120D03*
G04 #@! TD*
D15*
G04 #@! TO.C,U10*
X118222200Y-88209120D03*
X118222200Y-90749120D03*
X118222200Y-93289120D03*
X118222200Y-95829120D03*
X110602200Y-95829120D03*
X110602200Y-93289120D03*
X110602200Y-90749120D03*
D16*
X110602200Y-88209120D03*
G04 #@! TD*
D15*
G04 #@! TO.C,U9*
X105623800Y-88209120D03*
X105623800Y-90749120D03*
X105623800Y-93289120D03*
X105623800Y-95829120D03*
X98003800Y-95829120D03*
X98003800Y-93289120D03*
X98003800Y-90749120D03*
D16*
X98003800Y-88209120D03*
G04 #@! TD*
D15*
G04 #@! TO.C,U7*
X79956660Y-88209120D03*
X79956660Y-90749120D03*
X79956660Y-93289120D03*
X79956660Y-95829120D03*
X72336660Y-95829120D03*
X72336660Y-93289120D03*
X72336660Y-90749120D03*
D16*
X72336660Y-88209120D03*
G04 #@! TD*
D15*
G04 #@! TO.C,U6*
X69505000Y-88209120D03*
X69505000Y-90749120D03*
X69505000Y-93289120D03*
X69505000Y-95829120D03*
X61885000Y-95829120D03*
X61885000Y-93289120D03*
X61885000Y-90749120D03*
D16*
X61885000Y-88209120D03*
G04 #@! TD*
D15*
G04 #@! TO.C,U5*
X59001660Y-88209120D03*
X59001660Y-90749120D03*
X59001660Y-93289120D03*
X59001660Y-95829120D03*
X51381660Y-95829120D03*
X51381660Y-93289120D03*
X51381660Y-90749120D03*
D16*
X51381660Y-88209120D03*
G04 #@! TD*
D18*
G04 #@! TO.C,U2*
X90751660Y-78620620D03*
X93291660Y-78620620D03*
D19*
X95831660Y-78620620D03*
G04 #@! TD*
D20*
G04 #@! TO.C,SW1*
X76035200Y-70156000D03*
X76035200Y-65656000D03*
X82535200Y-70156000D03*
X82535200Y-65656000D03*
G04 #@! TD*
D21*
G04 #@! TO.C,Q10*
X138376660Y-102179120D03*
X135836660Y-102179120D03*
D22*
X133296660Y-102179120D03*
G04 #@! TD*
D21*
G04 #@! TO.C,Q9*
X126311660Y-102179120D03*
X123771660Y-102179120D03*
D22*
X121231660Y-102179120D03*
G04 #@! TD*
D21*
G04 #@! TO.C,Q8*
X114246660Y-102179120D03*
X111706660Y-102179120D03*
D22*
X109166660Y-102179120D03*
G04 #@! TD*
D21*
G04 #@! TO.C,Q7*
X102181660Y-102179120D03*
X99641660Y-102179120D03*
D22*
X97101660Y-102179120D03*
G04 #@! TD*
D21*
G04 #@! TO.C,Q6*
X90116660Y-102179120D03*
X87576660Y-102179120D03*
D22*
X85036660Y-102179120D03*
G04 #@! TD*
D21*
G04 #@! TO.C,Q5*
X78051660Y-102179120D03*
X75511660Y-102179120D03*
D22*
X72971660Y-102179120D03*
G04 #@! TD*
D21*
G04 #@! TO.C,Q4*
X65986660Y-102179120D03*
X63446660Y-102179120D03*
D22*
X60906660Y-102179120D03*
G04 #@! TD*
D21*
G04 #@! TO.C,Q3*
X53921660Y-102179120D03*
X51381660Y-102179120D03*
D22*
X48841660Y-102179120D03*
G04 #@! TD*
D23*
G04 #@! TO.C,L1*
X121524200Y-83487000D03*
X121524200Y-76887000D03*
G04 #@! TD*
D24*
G04 #@! TO.C,J2*
X132217160Y-110370620D03*
X127137160Y-110370620D03*
X122057160Y-110370620D03*
X116977160Y-110370620D03*
X111897160Y-110370620D03*
X106817160Y-110370620D03*
X101737160Y-110370620D03*
X96657160Y-110370620D03*
X91577160Y-110370620D03*
X86497160Y-110370620D03*
X81417160Y-110370620D03*
X76337160Y-110370620D03*
X71257160Y-110370620D03*
X66177160Y-110370620D03*
X61097160Y-110370620D03*
D25*
X56017160Y-110370620D03*
G04 #@! TD*
D26*
G04 #@! TO.C,J1*
X138249660Y-77811620D03*
D27*
X138249660Y-82811620D03*
G04 #@! TD*
D28*
G04 #@! TO.C,C1*
X109535400Y-81541800D03*
D14*
X109535400Y-83541800D03*
G04 #@! TD*
M02*
